<?xml version="1.0" encoding="UTF-8" standalone="no"?>
<!-- Created with Inkscape (http://www.inkscape.org/) -->

<svg
   xmlns:dc="http://purl.org/dc/elements/1.1/"
   xmlns:cc="http://creativecommons.org/ns#"
   xmlns:rdf="http://www.w3.org/1999/02/22-rdf-syntax-ns#"
   xmlns:svg="http://www.w3.org/2000/svg"
   xmlns="http://www.w3.org/2000/svg"
   xmlns:sodipodi="http://sodipodi.sourceforge.net/DTD/sodipodi-0.dtd"
   xmlns:inkscape="http://www.inkscape.org/namespaces/inkscape"
   width="40.639999mm"
   height="128.5mm"
   viewBox="0 0 40.639999 128.5"
   version="1.1"
   id="svg8"
   inkscape:version="0.92.2 5c3e80d, 2017-08-06"
   sodipodi:docname="Schraeg Panel Graphics Inkscape.svg">
  <defs
     id="defs2" />
  <sodipodi:namedview
     id="base"
     pagecolor="#ffffff"
     bordercolor="#666666"
     borderopacity="1.0"
     inkscape:pageopacity="0.0"
     inkscape:pageshadow="2"
     inkscape:zoom="3.6851143"
     inkscape:cx="90.156112"
     inkscape:cy="53.061127"
     inkscape:document-units="mm"
     inkscape:current-layer="layer1"
     showgrid="false"
     fit-margin-top="0"
     fit-margin-left="0"
     fit-margin-right="0"
     fit-margin-bottom="0"
     inkscape:window-width="1280"
     inkscape:window-height="755"
     inkscape:window-x="0"
     inkscape:window-y="1"
     inkscape:window-maximized="1" />
  <metadata
     id="metadata5">
    <rdf:RDF>
      <cc:Work
         rdf:about="">
        <dc:format>image/svg+xml</dc:format>
        <dc:type
           rdf:resource="http://purl.org/dc/dcmitype/StillImage" />
        <dc:title />
      </cc:Work>
    </rdf:RDF>
  </metadata>
  <g
     inkscape:label="SilkS"
     inkscape:groupmode="layer"
     id="layer1"
     transform="translate(-90.461042,-68.653127)">
    <path
       inkscape:connector-curvature="0"
       style="fill:#000000;fill-opacity:1;fill-rule:nonzero;stroke:none;stroke-width:0.34974182;stroke-linecap:square;stroke-linejoin:miter;stroke-miterlimit:10;stroke-opacity:1"
       id="1B2E31B0"
       d="m 93.620221,167.12007 c 0.275513,0 0.551025,0 0.826538,0 0,0.0985 0,0.19696 0,0.29544 -0.08197,0 -0.163941,0 -0.245912,0 0,0.66658 0,1.33316 0,1.99974 0.08197,0 0.163941,0 0.245912,0 0,0.0979 0,0.19582 0,0.29373 -0.275513,0 -0.551025,0 -0.826538,0 0,-0.0979 0,-0.19582 0,-0.29373 0.08197,0 0.163941,0 0.245912,0 0,-0.66658 0,-1.33316 0,-1.99974 -0.08197,0 -0.163942,0 -0.245912,0 z" />
    <path
       inkscape:connector-curvature="0"
       style="fill:#000000;fill-opacity:1;fill-rule:nonzero;stroke:none;stroke-width:0.34974182;stroke-linecap:square;stroke-linejoin:miter;stroke-miterlimit:10;stroke-opacity:1"
       id="2B2E31B0"
       d="m 96.053727,169.41525 c 0.08311,0 0.166219,0 0.249328,0 0,-0.26925 0,-0.5385 0,-0.80775 0,-0.13548 -0.03444,-0.23823 -0.103318,-0.30825 -0.06888,-0.07 -0.16764,-0.10502 -0.29629,-0.10502 -0.074,0 -0.148571,0.0177 -0.223711,0.0529 -0.07514,0.0353 -0.146295,0.0791 -0.213466,0.13149 0,0.34553 0,0.69106 0,1.03659 0.08311,0 0.166219,0 0.249328,0 0,0.0979 0,0.19582 0,0.29373 -0.275513,0 -0.551026,0 -0.826538,0 0,-0.0979 0,-0.19582 0,-0.29373 0.08197,0 0.163941,0 0.245912,0 0,-0.39391 0,-0.78783 0,-1.18174 -0.08197,0 -0.163942,0 -0.245912,0 0,-0.0979 0,-0.19582 0,-0.29373 0.187849,0 0.375699,0 0.563548,0 0,0.0694 0,0.13889 0,0.20834 0.0012,0 0.0023,0 0.0034,0 0.03757,-0.033 0.0777,-0.0643 0.120395,-0.0939 0.04269,-0.0296 0.08738,-0.0552 0.134056,-0.0769 0.04668,-0.0216 0.09535,-0.0387 0.14601,-0.0512 0.05066,-0.0125 0.103887,-0.0188 0.159673,-0.0188 0.09449,0 0.179879,0.0131 0.256158,0.0393 0.07628,0.0262 0.141172,0.066 0.19468,0.11954 0.05351,0.0535 0.09478,0.12211 0.12381,0.20578 0.02903,0.0837 0.04355,0.18244 0.04355,0.2963 0,0.28234 0,0.56468 0,0.84702 0.08197,0 0.163942,0 0.245913,0 0,0.0979 0,0.19583 0,0.29374 -0.275513,0 -0.551026,0 -0.826539,0 z" />
    <path
       inkscape:connector-curvature="0"
       style="fill:#000000;fill-opacity:1;fill-rule:nonzero;stroke:none;stroke-width:0.34974182;stroke-linecap:square;stroke-linejoin:miter;stroke-miterlimit:10;stroke-opacity:1"
       id="5B2E31B0"
       d="m 94.611615,183.97377 c 0.280067,0 0.560133,0 0.8402,0 0,0.0985 0,0.19696 0,0.29544 -0.08652,0 -0.173049,0 -0.259574,0 0,0.66658 0,1.33316 0,1.99974 0.297713,0 0.595426,0 0.89314,0 0.01821,0 0.03643,-0.004 0.05465,-0.0128 0.01821,-0.009 0.03472,-0.0196 0.04952,-0.0333 0.0148,-0.0137 0.02675,-0.0293 0.03586,-0.047 0.0091,-0.0177 0.01366,-0.0356 0.01366,-0.0538 0,-0.10872 0,-0.21745 0,-0.32617 0.108156,0 0.216311,0 0.324467,0 0,0.25559 0,0.51118 0,0.76676 -0.650643,0 -1.301285,0 -1.951928,0 0,-0.0979 0,-0.19581 0,-0.29372 0.08197,0 0.163941,0 0.245912,0 0,-0.66659 0,-1.33317 0,-1.99975 -0.08197,0 -0.163941,0 -0.245912,0 z" />
    <path
       inkscape:connector-curvature="0"
       style="fill:#000000;fill-opacity:1;fill-rule:nonzero;stroke:none;stroke-width:0.34974182;stroke-linecap:square;stroke-linejoin:miter;stroke-miterlimit:10;stroke-opacity:1"
       id="6B2E31B0"
       d="m 96.824825,183.97377 c 0.348945,0 0.69789,0 1.046835,0 0.116125,0 0.222857,0.0151 0.320198,0.0453 0.09734,0.0302 0.181588,0.0746 0.252743,0.1332 0.07116,0.0586 0.126371,0.13178 0.165649,0.21944 0.03928,0.0877 0.05892,0.18842 0.05892,0.30227 0,0.0945 -0.01936,0.18358 -0.05806,0.26726 -0.03871,0.0837 -0.09336,0.15682 -0.163942,0.21944 -0.07059,0.0626 -0.155117,0.11214 -0.253596,0.14857 -0.09848,0.0364 -0.208058,0.0546 -0.328737,0.0546 -0.153126,0 -0.306252,0 -0.459378,0 0,0.3017 0,0.6034 0,0.90509 0.08652,0 0.173049,0 0.259574,0 0,0.0979 0,0.19582 0,0.29373 -0.280067,0 -0.560133,0 -0.8402,0 0,-0.0979 0,-0.19582 0,-0.29373 0.08197,0 0.163942,0 0.245912,0 0,-0.66658 0,-1.33316 0,-1.99974 -0.08197,0 -0.163941,0 -0.245912,0 z m 0.580626,0.29544 c 0,0.27153 0,0.54305 0,0.81458 0.155403,0 0.310806,0 0.466209,0 0.06489,0 0.124378,-0.009 0.178457,-0.0265 0.05408,-0.0177 0.100755,-0.0436 0.140033,-0.0777 0.03928,-0.0341 0.07002,-0.0769 0.09222,-0.12808 0.0222,-0.0512 0.0333,-0.11043 0.0333,-0.17761 0,-0.1275 -0.03871,-0.22684 -0.116125,-0.29799 -0.07742,-0.0712 -0.200941,-0.10674 -0.370576,-0.10674 z" />
    <path
       inkscape:connector-curvature="0"
       style="fill:#000000;fill-opacity:1;fill-rule:nonzero;stroke:none;stroke-width:0.34974182;stroke-linecap:square;stroke-linejoin:miter;stroke-miterlimit:10;stroke-opacity:1"
       id="9B2E31B0"
       d="m 109.48253,186.26895 c 0.082,0 0.16394,0 0.24591,0 0,-0.66658 0,-1.33316 0,-1.99974 -0.082,0 -0.16394,0 -0.24591,0 0,-0.0996 0,-0.19924 0,-0.29885 0.38822,0.001 0.77644,0.002 1.16467,0.003 0.10474,0 0.20321,0.0197 0.29543,0.0589 0.0922,0.0393 0.17248,0.0928 0.24079,0.16052 0.0683,0.0678 0.1221,0.14772 0.16138,0.23994 0.0393,0.0922 0.0589,0.19127 0.0589,0.29714 0,0.11044 -0.0307,0.21119 -0.0922,0.30227 -0.0615,0.0911 -0.14914,0.16394 -0.26299,0.21859 0.0558,0.0296 0.10645,0.064 0.15199,0.10332 0.0455,0.0393 0.0842,0.0823 0.11612,0.12893 0.0319,0.0467 0.0566,0.0962 0.0743,0.14857 0.0176,0.0524 0.0265,0.10588 0.0265,0.16053 0,0.10815 -0.0196,0.20891 -0.0589,0.30226 -0.0393,0.0934 -0.0931,0.17476 -0.16138,0.24421 -0.0683,0.0695 -0.14829,0.12409 -0.23993,0.16394 -0.0917,0.0399 -0.18985,0.0598 -0.29459,0.0598 -0.39334,0 -0.78669,0 -1.18003,0 z m 0.58062,-0.85727 c 0,0.28575 0,0.57151 0,0.85727 0.20095,0 0.40189,0 0.60283,0 0.0546,0 0.10531,-0.0137 0.15199,-0.041 0.0467,-0.0273 0.0877,-0.0629 0.12295,-0.10674 0.0353,-0.0438 0.0629,-0.0936 0.0828,-0.14942 0.0199,-0.0558 0.0299,-0.11271 0.0299,-0.17077 0,-0.0501 -0.0102,-0.0985 -0.0307,-0.14516 -0.0205,-0.0467 -0.0481,-0.0882 -0.0828,-0.12467 -0.0347,-0.0364 -0.0757,-0.0655 -0.12296,-0.0871 -0.0472,-0.0216 -0.0976,-0.0325 -0.15113,-0.0325 z m 0,-1.14247 c 0,0.28177 0,0.56355 0,0.84532 0.19582,0 0.39164,0 0.58746,0 0.0546,0 0.10559,-0.0108 0.15284,-0.0325 0.0473,-0.0216 0.0882,-0.0507 0.12296,-0.0871 0.0347,-0.0364 0.0623,-0.0786 0.0828,-0.12637 0.0205,-0.0478 0.0307,-0.0973 0.0307,-0.14857 0,-0.0558 -0.0102,-0.11072 -0.0307,-0.16479 -0.0205,-0.0541 -0.0484,-0.10218 -0.0837,-0.14431 -0.0353,-0.0421 -0.0766,-0.0763 -0.12381,-0.10246 -0.0472,-0.0262 -0.0976,-0.0393 -0.15113,-0.0393 z" />
    <path
       inkscape:connector-curvature="0"
       style="fill:#000000;fill-opacity:1;fill-rule:nonzero;stroke:none;stroke-width:0.34974182;stroke-linecap:square;stroke-linejoin:miter;stroke-miterlimit:10;stroke-opacity:1"
       id="AB2E31B0"
       d="m 111.79137,183.97377 c 0.34894,0 0.69789,0 1.04683,0 0.11613,0 0.22286,0.0151 0.3202,0.0453 0.0973,0.0302 0.18159,0.0746 0.25275,0.1332 0.0711,0.0586 0.12637,0.13178 0.16565,0.21944 0.0393,0.0877 0.0589,0.18842 0.0589,0.30227 0,0.0945 -0.0194,0.18358 -0.0581,0.26726 -0.0387,0.0837 -0.0934,0.15682 -0.16394,0.21944 -0.0706,0.0626 -0.15512,0.11214 -0.2536,0.14857 -0.0985,0.0364 -0.20806,0.0546 -0.32874,0.0546 -0.15312,0 -0.30625,0 -0.45937,0 0,0.3017 0,0.6034 0,0.90509 0.0865,0 0.17305,0 0.25957,0 0,0.0979 0,0.19582 0,0.29373 -0.28007,0 -0.56013,0 -0.8402,0 0,-0.0979 0,-0.19582 0,-0.29373 0.082,0 0.16394,0 0.24591,0 0,-0.66658 0,-1.33316 0,-1.99974 -0.082,0 -0.16394,0 -0.24591,0 z m 0.58063,0.29544 c 0,0.27153 0,0.54305 0,0.81458 0.1554,0 0.3108,0 0.4662,0 0.0649,0 0.12438,-0.009 0.17846,-0.0265 0.0541,-0.0177 0.10076,-0.0436 0.14004,-0.0777 0.0393,-0.0341 0.07,-0.0769 0.0922,-0.12808 0.0222,-0.0512 0.0333,-0.11043 0.0333,-0.17761 0,-0.1275 -0.0387,-0.22684 -0.11612,-0.29799 -0.0774,-0.0712 -0.20095,-0.10674 -0.37058,-0.10674 z" />
    <path
       inkscape:connector-curvature="0"
       style="fill:#000000;fill-opacity:1;fill-rule:nonzero;stroke:none;stroke-width:0.34974182;stroke-linecap:square;stroke-linejoin:miter;stroke-miterlimit:10;stroke-opacity:1"
       id="CB2E31B0"
       d="m 123.19798,183.97377 c 0.28007,0 0.56014,0 0.8402,0 0,0.0979 0,0.19582 0,0.29373 -0.082,0 -0.16394,0 -0.24591,0 0,0.66715 0,1.3343 0,2.00145 0.082,0 0.16394,0 0.24591,0 0,0.0979 0,0.19582 0,0.29373 -0.28006,0 -0.56013,0 -0.8402,0 0,-0.0979 0,-0.19582 0,-0.29373 0.0865,0 0.17305,0 0.25958,0 0,-0.31024 0,-0.62047 0,-0.93071 -0.49923,0 -0.99845,0 -1.49768,0 0,0.31024 0,0.62047 0,0.93071 0.0865,0 0.17305,0 0.25958,0 0,0.0979 0,0.19582 0,0.29373 -0.28007,0 -0.56014,0 -0.8402,0 0,-0.0979 0,-0.19582 0,-0.29373 0.082,0 0.16394,0 0.24591,0 0,-0.66715 0,-1.3343 0,-2.00145 -0.082,0 -0.16394,0 -0.24591,0 0,-0.0979 0,-0.19582 0,-0.29373 0.28006,0 0.56013,0 0.8402,0 0,0.0979 0,0.19582 0,0.29373 -0.0865,0 -0.17305,0 -0.25958,0 0,0.26128 0,0.52256 0,0.78384 0.49923,0 0.99845,0 1.49768,0 0,-0.26128 0,-0.52256 0,-0.78384 -0.0865,0 -0.17305,0 -0.25958,0 z" />
    <path
       inkscape:connector-curvature="0"
       style="fill:#000000;fill-opacity:1;fill-rule:nonzero;stroke:none;stroke-width:0.34974182;stroke-linecap:square;stroke-linejoin:miter;stroke-miterlimit:10;stroke-opacity:1"
       id="DB2E31B0"
       d="m 124.52659,183.97377 c 0.34895,0 0.69789,0 1.04684,0 0.11612,0 0.22285,0.0151 0.32019,0.0453 0.0973,0.0302 0.18159,0.0746 0.25275,0.1332 0.0711,0.0586 0.12637,0.13178 0.16565,0.21944 0.0393,0.0877 0.0589,0.18842 0.0589,0.30227 0,0.0945 -0.0193,0.18358 -0.0581,0.26726 -0.0387,0.0837 -0.0934,0.15682 -0.16394,0.21944 -0.0706,0.0626 -0.15512,0.11214 -0.2536,0.14857 -0.0985,0.0364 -0.20805,0.0546 -0.32873,0.0546 -0.15313,0 -0.30626,0 -0.45938,0 0,0.3017 0,0.6034 0,0.90509 0.0865,0 0.17305,0 0.25957,0 0,0.0979 0,0.19582 0,0.29373 -0.28006,0 -0.56013,0 -0.8402,0 0,-0.0979 0,-0.19582 0,-0.29373 0.082,0 0.16394,0 0.24591,0 0,-0.66658 0,-1.33316 0,-1.99974 -0.082,0 -0.16394,0 -0.24591,0 z m 0.58063,0.29544 c 0,0.27153 0,0.54305 0,0.81458 0.1554,0 0.3108,0 0.46621,0 0.0649,0 0.12437,-0.009 0.17845,-0.0265 0.0541,-0.0177 0.10076,-0.0436 0.14004,-0.0777 0.0393,-0.0341 0.07,-0.0769 0.0922,-0.12808 0.0222,-0.0512 0.0333,-0.11043 0.0333,-0.17761 0,-0.1275 -0.0387,-0.22684 -0.11613,-0.29799 -0.0774,-0.0712 -0.20094,-0.10674 -0.37057,-0.10674 z" />
    <path
       inkscape:connector-curvature="0"
       style="fill:#000000;fill-opacity:1;fill-rule:nonzero;stroke:none;stroke-width:0.34974182;stroke-linecap:square;stroke-linejoin:miter;stroke-miterlimit:10;stroke-opacity:1"
       id="FB2E31B0"
       d="m 122.86498,167.12007 c 0.28006,0 0.56013,0 0.8402,0 0,0.0985 0,0.19696 0,0.29544 -0.0746,0 -0.14914,0 -0.22371,0 -0.2795,0.76449 -0.559,1.52898 -0.8385,2.29347 -0.15654,0 -0.31308,0 -0.46962,0 -0.27551,-0.76449 -0.55103,-1.52898 -0.82654,-2.29347 -0.0763,0 -0.15256,0 -0.22883,0 0,-0.0985 0,-0.19696 0,-0.29544 0.28006,0 0.56013,0 0.8402,0 0,0.0985 0,0.19696 0,0.29544 -0.0751,0 -0.15028,0 -0.22542,0 0.22143,0.66544 0.44287,1.33088 0.6643,1.99633 0.23737,-0.66545 0.47475,-1.33089 0.71212,-1.99633 -0.0814,0 -0.1628,0 -0.2442,0 z" />
    <path
       inkscape:connector-curvature="0"
       style="fill:#000000;fill-opacity:1;fill-rule:nonzero;stroke:none;stroke-width:0.34974182;stroke-linecap:square;stroke-linejoin:miter;stroke-miterlimit:10;stroke-opacity:1"
       id="0C2E31B0"
       d="m 124.47878,167.02956 c 0.099,0 0.19809,0 0.29714,0 -0.34154,0.90965 -0.68309,1.8193 -1.02463,2.72895 -0.099,0 -0.1981,0 -0.29715,0 z" />
    <path
       inkscape:connector-curvature="0"
       style="fill:#000000;fill-opacity:1;fill-rule:nonzero;stroke:none;stroke-width:0.34974182;stroke-linecap:square;stroke-linejoin:miter;stroke-miterlimit:10;stroke-opacity:1"
       id="1C2E31B0"
       d="m 124.71103,168.82438 c 0.001,-0.14003 0.0236,-0.26754 0.0675,-0.38253 0.0438,-0.11499 0.10503,-0.21375 0.18358,-0.29629 0.0786,-0.0825 0.17191,-0.14601 0.28007,-0.19041 0.10815,-0.0444 0.22712,-0.0666 0.35691,-0.0666 0.13093,0 0.25075,0.0222 0.35948,0.0666 0.10872,0.0444 0.20179,0.1073 0.27921,0.1887 0.0774,0.0814 0.13776,0.1796 0.18102,0.29458 0.0433,0.11499 0.0649,0.2425 0.0649,0.38253 0,0.13776 -0.0216,0.26441 -0.0649,0.37997 -0.0433,0.11556 -0.1036,0.21489 -0.18102,0.298 -0.0774,0.0831 -0.17049,0.14772 -0.27921,0.19383 -0.10873,0.0461 -0.22855,0.0692 -0.35948,0.0692 -0.1332,0 -0.25388,-0.0228 -0.36203,-0.0683 -0.10816,-0.0455 -0.20095,-0.10958 -0.27836,-0.19212 -0.0774,-0.0825 -0.13776,-0.1813 -0.18102,-0.29629 -0.0433,-0.11498 -0.0655,-0.24192 -0.0666,-0.38082 z m 0.33642,0 c 0,0.10132 0.0145,0.19297 0.0435,0.27494 0.029,0.082 0.0689,0.15171 0.11954,0.2092 0.0507,0.0575 0.10929,0.10189 0.17589,0.1332 0.0666,0.0313 0.13747,0.047 0.21261,0.047 0.0786,0 0.1517,-0.0153 0.21945,-0.0461 0.0677,-0.0307 0.12665,-0.0749 0.17675,-0.13235 0.0501,-0.0575 0.0894,-0.12723 0.11783,-0.2092 0.0285,-0.082 0.0427,-0.17419 0.0427,-0.27665 0,-0.10702 -0.0142,-0.20208 -0.0427,-0.28519 -0.0285,-0.0831 -0.0675,-0.15256 -0.11698,-0.20834 -0.0495,-0.0558 -0.10844,-0.0979 -0.17675,-0.12637 -0.0683,-0.0285 -0.14174,-0.0427 -0.2203,-0.0427 -0.0751,0 -0.14601,0.0142 -0.21261,0.0427 -0.0666,0.0285 -0.12523,0.0706 -0.17589,0.12637 -0.0507,0.0558 -0.0905,0.12523 -0.11954,0.20834 -0.029,0.0831 -0.0435,0.17817 -0.0435,0.28519 z" />
    <path
       inkscape:connector-curvature="0"
       style="fill:#000000;fill-opacity:1;fill-rule:nonzero;stroke:none;stroke-width:0.34974182;stroke-linecap:square;stroke-linejoin:miter;stroke-miterlimit:10;stroke-opacity:1"
       id="2C2E31B0"
       d="m 128.09403,168.41111 c -0.0478,-0.0854 -0.10844,-0.148 -0.18187,-0.18785 -0.0734,-0.0399 -0.15854,-0.0598 -0.25531,-0.0598 -0.074,0 -0.14345,0.0154 -0.20834,0.0461 -0.0649,0.0307 -0.12153,0.0746 -0.16992,0.13149 -0.0484,0.0569 -0.0865,0.12609 -0.11442,0.20749 -0.0279,0.0814 -0.0418,0.1722 -0.0418,0.27238 0,0.099 0.014,0.18842 0.0418,0.26811 0.0279,0.0797 0.0663,0.14773 0.11527,0.20408 0.049,0.0564 0.1056,0.0996 0.16992,0.12978 0.0643,0.0302 0.13349,0.0453 0.20749,0.0453 0.1093,0 0.20436,-0.0265 0.28519,-0.0794 0.0808,-0.0529 0.14515,-0.13064 0.19297,-0.2331 0.0877,0.0433 0.17533,0.0865 0.26299,0.12979 -0.0342,0.0729 -0.0763,0.13832 -0.12637,0.19638 -0.0501,0.0581 -0.10673,0.10759 -0.16992,0.14858 -0.0632,0.041 -0.13263,0.0726 -0.20834,0.0948 -0.0757,0.0222 -0.15569,0.0333 -0.23994,0.0333 -0.12295,0 -0.23652,-0.0231 -0.34069,-0.0692 -0.10417,-0.0461 -0.19411,-0.11071 -0.26982,-0.19382 -0.0757,-0.0831 -0.13462,-0.18216 -0.17675,-0.29715 -0.0421,-0.11498 -0.0632,-0.24078 -0.0632,-0.3774 0,-0.13662 0.0222,-0.26242 0.0666,-0.37741 0.0444,-0.11499 0.10531,-0.21375 0.18273,-0.29629 0.0774,-0.0825 0.16792,-0.14715 0.27152,-0.19383 0.10361,-0.0467 0.21461,-0.07 0.33301,-0.07 0.11157,0 0.21716,0.0193 0.31678,0.0581 0.0996,0.0387 0.187,0.0973 0.26214,0.17589 0.0598,0 0.11954,0 0.17931,0 0,0.0979 0,0.19582 0,0.29373 z" />
    <path
       inkscape:connector-curvature="0"
       style="fill:#000000;fill-opacity:1;fill-rule:nonzero;stroke:none;stroke-width:0.34974182;stroke-linecap:square;stroke-linejoin:miter;stroke-miterlimit:10;stroke-opacity:1"
       id="3C2E31B0"
       d="m 129.23479,167.93978 c 0.13832,0 0.27665,0 0.41497,0 0,0.0859 0,0.17191 0,0.25787 -0.13946,0 -0.27893,0 -0.41839,0 -0.002,0.3404 -0.004,0.68081 -0.005,1.02121 0,0.0694 0.008,0.12581 0.0239,0.16907 0.016,0.0433 0.0416,0.0731 0.0769,0.0896 0.0353,0.0165 0.0751,0.0248 0.11954,0.0248 0.0478,0 0.0899,-0.004 0.12637,-0.0128 0.0364,-0.009 0.0763,-0.023 0.11954,-0.0435 0.0245,0.0711 0.049,0.14231 0.0734,0.21346 -0.0547,0.0285 -0.11215,0.051 -0.17249,0.0675 -0.0603,0.0165 -0.13149,0.0248 -0.21346,0.0248 -0.0774,0 -0.14487,-0.009 -0.20237,-0.0282 -0.0575,-0.0188 -0.10587,-0.0504 -0.14515,-0.0948 -0.0393,-0.0444 -0.0686,-0.10388 -0.088,-0.17845 -0.0193,-0.0746 -0.029,-0.16764 -0.029,-0.27922 0.002,-0.32446 0.004,-0.64893 0.005,-0.9734 -0.0939,0 -0.18785,0 -0.28177,0 0,-0.0859 0,-0.17191 0,-0.25787 0.0951,0 0.19012,0 0.28519,0 0,-0.14117 0,-0.28234 0,-0.42351 0.1036,-0.049 0.2072,-0.0979 0.3108,-0.14687 z" />
    <path
       inkscape:connector-curvature="0"
       style="fill:#000000;fill-opacity:1;fill-rule:nonzero;stroke:none;stroke-width:0.34974182;stroke-linecap:square;stroke-linejoin:miter;stroke-miterlimit:10;stroke-opacity:1"
       id="5C2E31B0"
       d="m 113.4481,167.12007 c 0.6182,0 1.2364,0 1.85459,0 0,0.2442 0,0.48841 0,0.73262 -0.11669,0 -0.23339,0 -0.35008,0 0,-0.14573 0,-0.29146 0,-0.43718 -0.30796,0 -0.61592,0 -0.92388,0 0,0.27722 0,0.55444 0,0.83166 0.29657,0 0.59315,0 0.88972,0 0,0.0956 0,0.19126 0,0.2869 -0.29657,0 -0.59315,0 -0.88972,0 0,0.29372 0,0.58745 0,0.88118 0.0865,0 0.17305,0 0.25957,0 0,0.0979 0,0.19582 0,0.29373 -0.28006,0 -0.56013,0 -0.8402,0 0,-0.0979 0,-0.19582 0,-0.29373 0.082,0 0.16395,0 0.24592,0 0,-0.66658 0,-1.33316 0,-1.99974 -0.082,0 -0.16395,0 -0.24592,0 z" />
    <path
       inkscape:connector-curvature="0"
       style="fill:#000000;fill-opacity:1;fill-rule:nonzero;stroke:none;stroke-width:0.34974182;stroke-linecap:square;stroke-linejoin:miter;stroke-miterlimit:10;stroke-opacity:1"
       id="6C2E31B0"
       d="m 115.57764,169.41525 c 0.082,0 0.16394,0 0.24591,0 0,-0.65633 0,-1.31267 0,-1.969 -0.082,0 -0.16394,0 -0.24591,0 0,-0.10873 0,-0.21746 0,-0.32618 0.27323,0 0.54647,0 0.8197,0 0.27381,0.74514 0.54761,1.49027 0.82142,2.23541 0.27722,-0.74514 0.55444,-1.49027 0.83166,-2.23541 0.259,0 0.51801,0 0.77701,0 0,0.10872 0,0.21745 0,0.32618 -0.0814,0 -0.1628,0 -0.2442,0 0,0.65633 0,1.31267 0,1.969 0.0814,0 0.1628,0 0.2442,0 0,0.0979 0,0.19582 0,0.29373 -0.28006,0 -0.56013,0 -0.8402,0 0,-0.0979 0,-0.19582 0,-0.29373 0.0922,0 0.18444,0 0.27665,0 0,-0.6626 0,-1.32519 0,-1.98779 -0.30169,0.76051 -0.60339,1.52102 -0.90509,2.28152 -0.0968,0 -0.19354,0 -0.29031,0 -0.30568,-0.76222 -0.61137,-1.52443 -0.91705,-2.28664 0,0.6643 0,1.32861 0,1.99291 0.0888,0 0.1776,0 0.26641,0 0,0.0979 0,0.19582 0,0.29373 -0.28007,0 -0.56014,0 -0.8402,0 z" />
    <path
       inkscape:connector-curvature="0"
       style="fill:#000000;fill-opacity:1;fill-rule:nonzero;stroke:none;stroke-width:0.34974182;stroke-linecap:square;stroke-linejoin:miter;stroke-miterlimit:10;stroke-opacity:1"
       id="8C2E31B0"
       d="m 105.47334,169.74996 c -0.15939,-0.0216 -0.30482,-0.0711 -0.43632,-0.14857 -0.1315,-0.0774 -0.2442,-0.17561 -0.33813,-0.29458 -0.0939,-0.11897 -0.1665,-0.25473 -0.21773,-0.40729 -0.0512,-0.15256 -0.0769,-0.31422 -0.0769,-0.485 0,-0.18671 0.0305,-0.36203 0.0914,-0.52597 0.0609,-0.16394 0.1463,-0.30654 0.25616,-0.42779 0.10986,-0.12125 0.24079,-0.21688 0.39278,-0.2869 0.15198,-0.07 0.31906,-0.10502 0.50121,-0.10502 0.1833,0 0.35122,0.035 0.50378,0.10502 0.15256,0.07 0.28348,0.16565 0.39278,0.2869 0.10929,0.12125 0.19411,0.26385 0.25445,0.42779 0.0603,0.16394 0.0905,0.33926 0.0905,0.52597 0,0.17306 -0.0265,0.33614 -0.0794,0.48927 -0.0529,0.15313 -0.12723,0.28917 -0.22286,0.40814 -0.0956,0.11898 -0.21005,0.21717 -0.34325,0.29459 -0.1332,0.0774 -0.28007,0.1258 -0.44059,0.14515 0.074,0.0194 0.1332,0.0421 0.1776,0.0683 0.0444,0.0262 0.10019,0.0561 0.16736,0.0897 0.0672,0.0336 0.13434,0.0504 0.20151,0.0504 0.0649,0 0.12267,-0.0162 0.17333,-0.0487 0.0507,-0.0325 0.084,-0.0823 0.0999,-0.14943 0.0865,0.0393 0.17305,0.0786 0.25958,0.11783 -0.0137,0.0638 -0.039,0.11983 -0.076,0.16821 -0.037,0.0484 -0.0803,0.0888 -0.12978,0.12125 -0.0495,0.0325 -0.10275,0.0566 -0.15968,0.0726 -0.0569,0.016 -0.1127,0.0239 -0.16735,0.0239 -0.0877,0 -0.16992,-0.016 -0.24677,-0.0478 -0.0769,-0.0319 -0.15739,-0.0706 -0.24164,-0.11612 -0.0842,-0.0455 -0.16508,-0.0683 -0.2425,-0.0683 -0.0467,0 -0.0945,0.007 -0.14345,0.0222 z m 0.17248,-0.30738 c 0.13548,0 0.25815,-0.0279 0.36802,-0.0837 0.10986,-0.0558 0.2035,-0.13064 0.28092,-0.22457 0.0774,-0.0939 0.13719,-0.20293 0.17931,-0.32703 0.0421,-0.12409 0.0632,-0.25502 0.0632,-0.39278 0,-0.14117 -0.0231,-0.27693 -0.0692,-0.40729 -0.0461,-0.13035 -0.11071,-0.24164 -0.19382,-0.33386 -0.0831,-0.0922 -0.17761,-0.16308 -0.28349,-0.21261 -0.10588,-0.0495 -0.22086,-0.0743 -0.34496,-0.0743 -0.13548,0 -0.25843,0.0279 -0.36886,0.0837 -0.11044,0.0558 -0.20436,0.13064 -0.28178,0.22457 -0.0774,0.0939 -0.13719,0.20322 -0.17931,0.32788 -0.0421,0.12467 -0.0632,0.25531 -0.0632,0.39192 0,0.15598 0.0231,0.29658 0.0692,0.42181 0.0461,0.12524 0.1073,0.22969 0.18358,0.31337 0.0763,0.0837 0.17105,0.15341 0.28433,0.2092 0.11328,0.0558 0.23197,0.0837 0.35606,0.0837 z" />
    <path
       inkscape:connector-curvature="0"
       style="fill:#000000;fill-opacity:1;fill-rule:nonzero;stroke:none;stroke-width:0.34974182;stroke-linecap:square;stroke-linejoin:miter;stroke-miterlimit:10;stroke-opacity:1"
       id="AC2E31B0"
       d="m 94.626863,151.87413 c 0,-0.17305 0,-0.3461 0,-0.51914 -0.04326,0.0899 -0.09734,0.1682 -0.162233,0.2348 -0.06489,0.0666 -0.137187,0.12154 -0.216881,0.1648 -0.07969,0.0433 -0.164795,0.0757 -0.255305,0.0973 -0.09051,0.0216 -0.182441,0.0325 -0.275797,0.0325 -0.168497,0 -0.323898,-0.0282 -0.466209,-0.0845 -0.142311,-0.0563 -0.271243,-0.14601 -0.386799,-0.26896 -0.115557,-0.12296 -0.203788,-0.26868 -0.264698,-0.43718 -0.06091,-0.1685 -0.09136,-0.34439 -0.09136,-0.52769 0,-0.18443 0.03045,-0.35862 0.09136,-0.52256 0.06091,-0.16394 0.146295,-0.30682 0.256159,-0.42864 0.109864,-0.12182 0.240788,-0.21745 0.392776,-0.2869 0.151989,-0.0694 0.316782,-0.10417 0.494386,-0.10417 0.163943,0 0.304828,0.0233 0.422662,0.07 0.117834,0.0467 0.218588,0.10332 0.302267,0.16992 0.08368,0.0666 0.150564,0.13007 0.200658,0.19041 0.05522,0 0.110433,0 0.165649,0 0,0.10132 0,0.20265 0,0.30397 -0.122387,0 -0.244774,0 -0.367161,0 -0.07628,-0.12978 -0.177318,-0.23225 -0.303121,-0.30739 -0.125803,-0.0751 -0.266688,-0.11157 -0.422661,-0.10929 -0.130926,0 -0.251035,0.0279 -0.36033,0.0837 -0.109295,0.0558 -0.202934,0.13092 -0.280921,0.22542 -0.07799,0.0945 -0.13861,0.20321 -0.181872,0.32617 -0.04326,0.12296 -0.06489,0.25274 -0.06489,0.38936 0,0.15142 0.02391,0.29202 0.07173,0.42181 0.04782,0.12979 0.108724,0.2351 0.182726,0.31593 0.074,0.0808 0.165364,0.14772 0.27409,0.20066 0.108725,0.0529 0.229119,0.0794 0.361183,0.0794 0.21859,0 0.397899,-0.0532 0.537934,-0.15967 0.140034,-0.10644 0.237942,-0.27238 0.293728,-0.4978 -0.241359,0 -0.482717,0 -0.724075,0 0,-0.0979 0,-0.19582 0,-0.29373 0.364884,0 0.729767,0 1.094651,0 0,0.41384 0,0.82768 0,1.24152 z" />
    <path
       inkscape:connector-curvature="0"
       style="fill:#000000;fill-opacity:1;fill-rule:nonzero;stroke:none;stroke-width:0.34974182;stroke-linecap:square;stroke-linejoin:miter;stroke-miterlimit:10;stroke-opacity:1"
       id="BC2E31B0"
       d="m 96.459251,151.69994 c -0.06717,0.0626 -0.141456,0.11385 -0.222858,0.1537 -0.0814,0.0399 -0.173903,0.0598 -0.277505,0.0598 -0.08652,0 -0.165934,-0.0137 -0.238228,-0.041 -0.07229,-0.0273 -0.134625,-0.0646 -0.186995,-0.11185 -0.05237,-0.0472 -0.09307,-0.10218 -0.122103,-0.1648 -0.02903,-0.0626 -0.04355,-0.12921 -0.04355,-0.1998 0,-0.0751 0.0111,-0.14174 0.0333,-0.19981 0.0222,-0.0581 0.0518,-0.10843 0.0888,-0.15113 0.037,-0.0427 0.08026,-0.0786 0.129786,-0.10758 0.04953,-0.029 0.101325,-0.0524 0.155403,-0.07 0.05408,-0.0176 0.109294,-0.0302 0.16565,-0.0376 0.05635,-0.007 0.110148,-0.0111 0.16138,-0.0111 0.08197,0 0.150848,0.002 0.206634,0.008 0.05579,0.005 0.106448,0.0122 0.151987,0.0213 5.6e-4,-0.0484 0.0012,-0.0968 0.0017,-0.14516 0,-0.0626 -0.0091,-0.11697 -0.02733,-0.16308 -0.01821,-0.0461 -0.04383,-0.0842 -0.07685,-0.11442 -0.03302,-0.0302 -0.07258,-0.0527 -0.118687,-0.0675 -0.04611,-0.0148 -0.09762,-0.0222 -0.154548,-0.0222 -0.05351,0 -0.104741,0.004 -0.153696,0.0111 -0.04895,0.007 -0.09478,0.0171 -0.137472,0.029 -0.04269,0.012 -0.08197,0.0256 -0.117832,0.041 -0.03586,0.0154 -0.06632,0.0316 -0.09136,0.0487 -0.03472,-0.0734 -0.06945,-0.14687 -0.104172,-0.2203 0.04212,-0.0273 0.08823,-0.0527 0.138326,-0.076 0.05009,-0.0233 0.102748,-0.0433 0.157964,-0.0598 0.05522,-0.0165 0.111571,-0.0296 0.169065,-0.0393 0.05749,-0.01 0.114132,-0.0145 0.169918,-0.0145 0.102465,0 0.194681,0.0122 0.276652,0.0367 0.08197,0.0245 0.151418,0.0623 0.208342,0.11356 0.05692,0.0512 0.100756,0.11641 0.131495,0.19553 0.03074,0.0791 0.04611,0.17391 0.04611,0.28434 -5.59e-4,0.29487 -0.0012,0.58974 -0.0017,0.8846 0.06546,0 0.130925,0 0.196388,0 0,0.0979 0,0.19582 0,0.29373 -0.171342,0 -0.342684,0 -0.514025,0 z m -0.430346,-0.0529 c 0.04212,0 0.08425,-0.005 0.126371,-0.0154 0.04212,-0.0102 0.08197,-0.0242 0.119541,-0.0418 0.03757,-0.0176 0.07229,-0.0381 0.104171,-0.0615 0.03188,-0.0233 0.05863,-0.0475 0.08026,-0.0726 5.6e-4,-0.1332 0.0012,-0.2664 0.0017,-0.39961 -0.122956,0 -0.245912,0 -0.368868,0 -0.06148,0 -0.117549,0.007 -0.168211,0.0205 -0.05066,0.0137 -0.09449,0.0336 -0.131495,0.0598 -0.037,0.0262 -0.06575,0.0586 -0.08624,0.0973 -0.02049,0.0387 -0.03074,0.0831 -0.03074,0.1332 0,0.0467 0.0085,0.0874 0.02562,0.1221 0.01708,0.0347 0.04127,0.0638 0.07258,0.0871 0.03131,0.0233 0.06859,0.041 0.111857,0.0529 0.04326,0.012 0.09108,0.0179 0.143448,0.0179 z" />
    <path
       inkscape:connector-curvature="0"
       style="fill:#000000;fill-opacity:1;fill-rule:nonzero;stroke:none;stroke-width:0.34974182;stroke-linecap:square;stroke-linejoin:miter;stroke-miterlimit:10;stroke-opacity:1"
       id="CC2E31B0"
       d="m 97.318236,150.09468 c 0.192404,0 0.384807,0 0.577211,0 0,0.49183 0,0.98365 0,1.47548 0.0888,0 0.177603,0 0.266405,0 0,0.0979 0,0.19582 0,0.29372 -0.280067,0 -0.560134,0 -0.8402,0 0,-0.0979 0,-0.19581 0,-0.29372 0.08425,0 0.168495,0 0.252743,0 0,-0.39392 0,-0.78783 0,-1.18175 -0.08539,0 -0.170773,0 -0.256159,0 z m 0.196388,-0.62673 c 0,-0.0296 0.006,-0.0578 0.01793,-0.0845 0.01195,-0.0268 0.02789,-0.0501 0.04782,-0.07 0.01993,-0.0199 0.04355,-0.0359 0.07087,-0.0478 0.02733,-0.012 0.05635,-0.0179 0.08709,-0.0179 0.0296,0 0.05778,0.006 0.08453,0.0179 0.02676,0.012 0.05009,0.0279 0.07002,0.0478 0.01992,0.0199 0.03586,0.0433 0.04782,0.07 0.01195,0.0267 0.01793,0.0549 0.01793,0.0845 0,0.0307 -0.006,0.0598 -0.01793,0.0871 -0.01196,0.0273 -0.02789,0.0515 -0.04782,0.0726 -0.01993,0.0211 -0.04326,0.0376 -0.07002,0.0495 -0.02676,0.012 -0.05493,0.0179 -0.08453,0.0179 -0.03074,0 -0.05977,-0.006 -0.08709,-0.0179 -0.02733,-0.012 -0.05095,-0.0285 -0.07087,-0.0495 -0.01993,-0.0211 -0.03586,-0.0453 -0.04782,-0.0726 -0.01196,-0.0273 -0.01793,-0.0563 -0.01793,-0.0871 z" />
    <path
       inkscape:connector-curvature="0"
       style="fill:#000000;fill-opacity:1;fill-rule:nonzero;stroke:none;stroke-width:0.34974182;stroke-linecap:square;stroke-linejoin:miter;stroke-miterlimit:10;stroke-opacity:1"
       id="DC2E31B0"
       d="m 99.61854,151.57016 c 0.08311,0 0.166218,0 0.249328,0 0,-0.26926 0,-0.5385 0,-0.80776 0,-0.13548 -0.03444,-0.23822 -0.103318,-0.30824 -0.06888,-0.07 -0.16764,-0.10503 -0.29629,-0.10503 -0.074,0 -0.148571,0.0177 -0.223711,0.053 -0.07514,0.0353 -0.146295,0.0791 -0.213466,0.13149 0,0.34553 0,0.69106 0,1.03659 0.08311,0 0.166219,0 0.249328,0 0,0.0979 0,0.19582 0,0.29372 -0.275513,0 -0.551026,0 -0.826538,0 0,-0.0979 0,-0.19581 0,-0.29372 0.08197,0 0.163941,0 0.245912,0 0,-0.39392 0,-0.78783 0,-1.18175 -0.08197,0 -0.163942,0 -0.245912,0 0,-0.0979 0,-0.19582 0,-0.29373 0.187849,0 0.375698,0 0.563548,0 0,0.0694 0,0.1389 0,0.20834 0.0012,0 0.0023,0 0.0034,0 0.03757,-0.033 0.0777,-0.0643 0.120395,-0.0939 0.04269,-0.0296 0.08738,-0.0552 0.134056,-0.0769 0.04668,-0.0216 0.09535,-0.0387 0.14601,-0.0512 0.05066,-0.0125 0.103886,-0.0188 0.159672,-0.0188 0.09449,0 0.17988,0.0131 0.256159,0.0393 0.07628,0.0262 0.141172,0.066 0.194677,0.11954 0.0535,0.0535 0.0948,0.1221 0.12381,0.20578 0.029,0.0837 0.0435,0.18244 0.0435,0.29629 0,0.28234 0,0.56469 0,0.84703 0.082,0 0.16394,0 0.24591,0 0,0.0979 0,0.19582 0,0.29373 -0.27551,0 -0.551023,0 -0.826536,0 z" />
    <path
       inkscape:connector-curvature="0"
       style="fill:#000000;fill-opacity:1;fill-rule:nonzero;stroke:none;stroke-width:0.34974182;stroke-linecap:square;stroke-linejoin:miter;stroke-miterlimit:10;stroke-opacity:1"
       id="FC2E31B0"
       d="m 95.263965,120.96764 c -0.212326,-0.25502 -0.424654,-0.51004 -0.636981,-0.76506 0.08254,-0.07 0.16508,-0.14004 0.24762,-0.21005 0.200943,0.24022 0.401885,0.48044 0.602827,0.72066 0.194111,-0.23225 0.388223,-0.4645 0.582334,-0.69675 0.09108,0.0655 0.182157,0.13092 0.273236,0.19639 -0.212328,0.25445 -0.424654,0.5089 -0.636982,0.76335 0.214604,0.25616 0.429208,0.51231 0.643812,0.76847 -0.08595,0.0677 -0.171911,0.13548 -0.257866,0.20322 -0.199234,-0.23908 -0.398469,-0.47816 -0.597703,-0.71724 -0.202081,0.24249 -0.404161,0.48499 -0.606242,0.72749 -0.09449,-0.0632 -0.188988,-0.12637 -0.283482,-0.18956 z" />
    <path
       inkscape:connector-curvature="0"
       style="fill:#000000;fill-opacity:1;fill-rule:nonzero;stroke:none;stroke-width:0.34974182;stroke-linecap:square;stroke-linejoin:miter;stroke-miterlimit:10;stroke-opacity:1"
       id="0D2E31B0"
       d="m 97.900691,120.59536 c 0.06376,-0.0433 0.129217,-0.076 0.196388,-0.0982 0.06717,-0.0222 0.144018,-0.0333 0.230543,-0.0333 0.127511,0 0.244773,0.0228 0.351791,0.0683 0.107018,0.0455 0.198949,0.10701 0.275797,0.18443 0.07685,0.0774 0.136618,0.16764 0.179311,0.27067 0.04269,0.10304 0.06404,0.21205 0.06404,0.32703 0,0.11613 -0.02106,0.22628 -0.06319,0.33045 -0.04212,0.10417 -0.101894,0.19553 -0.179311,0.27409 -0.07742,0.0785 -0.170487,0.14089 -0.279213,0.187 -0.108725,0.0461 -0.229688,0.0692 -0.362891,0.0692 -0.101325,0 -0.195819,-0.0134 -0.283482,-0.0401 -0.08766,-0.0268 -0.166787,-0.0643 -0.237374,-0.1127 -0.07059,-0.0484 -0.131779,-0.10617 -0.18358,-0.17334 -0.0518,-0.0672 -0.09307,-0.1406 -0.12381,-0.2203 0.09336,-0.0467 0.186711,-0.0934 0.280067,-0.14003 0.01821,0.0581 0.04497,0.11186 0.08026,0.16138 0.03529,0.0495 0.07685,0.0922 0.124664,0.12808 0.04782,0.0359 0.100755,0.0638 0.158818,0.0837 0.05806,0.0199 0.11954,0.0299 0.184434,0.0299 0.08197,0 0.157964,-0.0151 0.227981,-0.0453 0.07002,-0.0302 0.130926,-0.0714 0.182726,-0.12381 0.0518,-0.0524 0.0925,-0.11357 0.122103,-0.18358 0.0296,-0.07 0.0444,-0.14487 0.0444,-0.22457 0,-0.0808 -0.0148,-0.15569 -0.0444,-0.22457 -0.0296,-0.0689 -0.07059,-0.12864 -0.122956,-0.1793 -0.05237,-0.0507 -0.113564,-0.0905 -0.18358,-0.11955 -0.07002,-0.029 -0.145441,-0.0435 -0.226274,-0.0435 -0.09108,0 -0.175041,0.0162 -0.251889,0.0487 -0.07685,0.0324 -0.140887,0.076 -0.192119,0.13064 -0.08368,-0.0131 -0.167357,-0.0262 -0.251036,-0.0393 0,-0.45141 0,-0.90282 0,-1.35422 0.486132,0 0.972264,0 1.458397,0 0,0.0945 0,0.18898 0,0.28348 -0.392208,0 -0.784415,0 -1.176622,0 z" />
    <path
       style="color:#000000;font-style:normal;font-variant:normal;font-weight:normal;font-stretch:normal;font-size:medium;line-height:normal;font-family:sans-serif;font-variant-ligatures:normal;font-variant-position:normal;font-variant-caps:normal;font-variant-numeric:normal;font-variant-alternates:normal;font-feature-settings:normal;text-indent:0;text-align:start;text-decoration:none;text-decoration-line:none;text-decoration-style:solid;text-decoration-color:#000000;letter-spacing:normal;word-spacing:normal;text-transform:none;writing-mode:lr-tb;direction:ltr;text-orientation:mixed;dominant-baseline:auto;baseline-shift:baseline;text-anchor:start;white-space:normal;shape-padding:0;clip-rule:nonzero;display:inline;overflow:visible;visibility:visible;opacity:1;isolation:auto;mix-blend-mode:normal;color-interpolation:sRGB;color-interpolation-filters:linearRGB;solid-color:#000000;solid-opacity:1;vector-effect:none;fill:#000000;fill-opacity:1;fill-rule:nonzero;stroke:none;stroke-width:0.34974182;stroke-linecap:square;stroke-linejoin:miter;stroke-miterlimit:10;stroke-dasharray:none;stroke-dashoffset:0;stroke-opacity:1;color-rendering:auto;image-rendering:auto;shape-rendering:auto;text-rendering:auto;enable-background:accumulate"
       d="m 126.1511,107.5443 v 2.97417 h -1.63258 v -1.98233 h -1.16672 -1.16603 v 0.99116 h -0.81698 -0.17487 v 0.34975 h 0.17487 1.16672 v -0.99117 h 0.81629 0.81698 v 1.98233 h 2.33207 v -2.97417 h 0.6421 v 2.7993 0.17487 h 0.34974 v -0.17487 -3.14904 z"
       id="2D2E31B0"
       inkscape:connector-curvature="0" />
    <path
       style="color:#000000;font-style:normal;font-variant:normal;font-weight:normal;font-stretch:normal;font-size:medium;line-height:normal;font-family:sans-serif;font-variant-ligatures:normal;font-variant-position:normal;font-variant-caps:normal;font-variant-numeric:normal;font-variant-alternates:normal;font-feature-settings:normal;text-indent:0;text-align:start;text-decoration:none;text-decoration-line:none;text-decoration-style:solid;text-decoration-color:#000000;letter-spacing:normal;word-spacing:normal;text-transform:none;writing-mode:lr-tb;direction:ltr;text-orientation:mixed;dominant-baseline:auto;baseline-shift:baseline;text-anchor:start;white-space:normal;shape-padding:0;clip-rule:nonzero;display:inline;overflow:visible;visibility:visible;opacity:1;isolation:auto;mix-blend-mode:normal;color-interpolation:sRGB;color-interpolation-filters:linearRGB;solid-color:#000000;solid-opacity:1;vector-effect:none;fill:#000000;fill-opacity:1;fill-rule:nonzero;stroke:none;stroke-width:0.34974182;stroke-linecap:square;stroke-linejoin:miter;stroke-miterlimit:10;stroke-dasharray:none;stroke-dashoffset:0;stroke-opacity:1;color-rendering:auto;image-rendering:auto;shape-rendering:auto;text-rendering:auto;enable-background:accumulate"
       d="m 107.31491,114.23721 v 2.40447 0.17487 h 0.34974 v -0.17487 -1.56018 l 1.80746,1.80746 1.026,-1.026 2.12304,1.06152 v -1.84298 l 0.69333,0.69266 0.12364,0.12364 0.24728,-0.24728 -0.12364,-0.12364 -1.29035,-1.28967 v 2.12167 l -1.8423,-0.92149 -0.957,0.95701 z"
       id="3D2E31B0"
       inkscape:connector-curvature="0" />
    <path
       inkscape:connector-curvature="0"
       style="fill:#000000;fill-opacity:1;fill-rule:nonzero;stroke:none;stroke-width:0.34974182;stroke-linecap:square;stroke-linejoin:miter;stroke-miterlimit:10;stroke-opacity:1"
       id="4D2E31B0"
       d="m 103.22241,190.66864 c 0.004,-0.12015 -0.0147,-0.21101 -0.0564,-0.27257 -0.0417,-0.0616 -0.0882,-0.10926 -0.13971,-0.14312 -0.0515,-0.0339 -0.10834,-0.0604 -0.17058,-0.0796 -0.0622,-0.0192 -0.12475,-0.0298 -0.18755,-0.032 -0.10378,-0.003 -0.19498,0.005 -0.27361,0.0266 -0.0786,0.0213 -0.14425,0.0515 -0.19684,0.0907 -0.0526,0.0392 -0.0928,0.0857 -0.12057,0.13945 -0.0278,0.0537 -0.0427,0.11065 -0.0447,0.17072 -0.003,0.0901 0.0105,0.16337 0.0408,0.21976 0.0302,0.0564 0.0693,0.10213 0.11736,0.13724 0.048,0.0351 0.1014,0.0632 0.16015,0.0844 0.0588,0.0211 0.11511,0.0422 0.16908,0.0631 0.13638,0.0497 0.27276,0.0994 0.40914,0.14917 0.12292,0.0438 0.23096,0.0926 0.32415,0.14629 0.0932,0.0537 0.1707,0.11615 0.23254,0.18728 0.0618,0.0711 0.10797,0.15231 0.13837,0.24355 0.0304,0.0913 0.0436,0.19627 0.0396,0.31506 -0.004,0.12835 -0.0346,0.24625 -0.0909,0.3537 -0.0563,0.10746 -0.13286,0.19987 -0.2298,0.27724 -0.0969,0.0774 -0.21137,0.13672 -0.34332,0.17806 -0.13194,0.0413 -0.27574,0.0594 -0.43139,0.0541 -0.15976,-0.005 -0.29568,-0.0281 -0.40779,-0.0681 -0.1121,-0.04 -0.2057,-0.0917 -0.28079,-0.15508 -0.0751,-0.0634 -0.13453,-0.13475 -0.17832,-0.21415 -0.0438,-0.0794 -0.0773,-0.1605 -0.10045,-0.2433 -0.0519,-0.002 -0.10377,-0.004 -0.15565,-0.005 0.004,-0.11742 0.008,-0.23485 0.0119,-0.35227 0.17204,0.006 0.34408,0.0116 0.51612,0.0174 -0.005,0.15156 0.007,0.25928 0.0373,0.32318 0.03,0.0639 0.0729,0.11763 0.12885,0.16121 0.0559,0.0436 0.12314,0.0773 0.20162,0.10114 0.0785,0.0239 0.16551,0.0374 0.26108,0.0406 0.0928,0.003 0.17685,-0.005 0.252,-0.0243 0.0752,-0.0193 0.13972,-0.0489 0.1937,-0.0888 0.054,-0.0399 0.096,-0.089 0.12596,-0.14748 0.03,-0.0584 0.0463,-0.12522 0.0488,-0.20031 0.003,-0.0833 -0.0122,-0.15454 -0.0451,-0.21375 -0.0328,-0.0592 -0.0759,-0.11021 -0.12913,-0.15302 -0.0532,-0.0428 -0.11183,-0.0783 -0.17581,-0.10642 -0.064,-0.0281 -0.12568,-0.0528 -0.18512,-0.0739 -0.14808,-0.0474 -0.29615,-0.0948 -0.44423,-0.14214 -0.0973,-0.0334 -0.18578,-0.0746 -0.26545,-0.12381 -0.0797,-0.0492 -0.14739,-0.10819 -0.20316,-0.17706 -0.0558,-0.0689 -0.0978,-0.14854 -0.12622,-0.23904 -0.0284,-0.0905 -0.0406,-0.19445 -0.0366,-0.31188 0.004,-0.11879 0.031,-0.22928 0.0809,-0.33149 0.0499,-0.10219 0.12127,-0.19069 0.21402,-0.26546 0.0927,-0.0748 0.20507,-0.13216 0.33697,-0.17212 0.13189,-0.04 0.28181,-0.0571 0.44976,-0.0514 0.11059,0.004 0.21222,0.0201 0.30487,0.0493 0.0927,0.0291 0.17607,0.0685 0.25026,0.11816 0.0742,0.0497 0.13917,0.1086 0.19496,0.17678 0.0558,0.0682 0.10215,0.14254 0.13907,0.22307 0.0512,0.002 0.1024,0.003 0.1536,0.005 -0.004,0.11743 -0.008,0.23485 -0.0119,0.35227 z" />
    <path
       inkscape:connector-curvature="0"
       style="fill:#000000;fill-opacity:1;fill-rule:nonzero;stroke:none;stroke-width:0.34974182;stroke-linecap:square;stroke-linejoin:miter;stroke-miterlimit:10;stroke-opacity:1"
       id="5D2E31B0"
       d="m 106.31382,190.74858 c -0.0862,-0.15874 -0.20327,-0.28505 -0.35114,-0.3789 -0.14788,-0.0938 -0.31466,-0.14392 -0.50036,-0.1502 -0.15838,-0.005 -0.30424,0.0232 -0.43759,0.0857 -0.13334,0.0625 -0.24868,0.14845 -0.34602,0.25793 -0.0973,0.10949 -0.17445,0.23742 -0.23135,0.38381 -0.0569,0.14639 -0.0881,0.30151 -0.0936,0.46536 -0.007,0.19389 0.0163,0.36656 0.0686,0.51801 0.0523,0.15145 0.12284,0.27823 0.21166,0.38034 0.0888,0.1021 0.19559,0.18842 0.32034,0.25893 0.12474,0.0705 0.2663,0.10846 0.42469,0.11381 0.21573,0.007 0.40524,-0.0386 0.56852,-0.13763 0.16329,-0.0991 0.30563,-0.26613 0.42704,-0.50124 0.11824,0.0607 0.23648,0.12145 0.35472,0.18218 -0.0569,0.14571 -0.14975,0.28507 -0.27865,0.41809 -0.12889,0.13302 -0.28589,0.23844 -0.47102,0.31624 -0.18512,0.0778 -0.38827,0.11297 -0.60947,0.10549 -0.21164,-0.007 -0.40485,-0.0537 -0.57965,-0.13955 -0.17481,-0.0859 -0.329,-0.20489 -0.46261,-0.35704 -0.1336,-0.15215 -0.2335,-0.3305 -0.29972,-0.53505 -0.0662,-0.20455 -0.0956,-0.41674 -0.0882,-0.63657 0.007,-0.2212 0.0511,-0.42886 0.13077,-0.62301 0.0797,-0.19415 0.18789,-0.3617 0.32456,-0.50266 0.13668,-0.14096 0.29758,-0.25034 0.4827,-0.32815 0.18513,-0.0778 0.38418,-0.11311 0.59719,-0.10591 0.18979,0.006 0.35272,0.0389 0.48881,0.0975 0.13608,0.0586 0.25099,0.12673 0.34473,0.2044 0.0937,0.0777 0.17396,0.16137 0.24064,0.25111 0.0724,0.002 0.14473,0.005 0.2171,0.007 -0.004,0.12152 -0.008,0.24304 -0.0123,0.36456 z" />
    <path
       inkscape:connector-curvature="0"
       style="fill:#000000;fill-opacity:1;fill-rule:nonzero;stroke:none;stroke-width:0.34974182;stroke-linecap:square;stroke-linejoin:miter;stroke-miterlimit:10;stroke-opacity:1"
       id="6D2E31B0"
       d="m 109.39728,190.03269 c 0.33589,0.0114 0.67178,0.0227 1.00767,0.0341 -0.004,0.11743 -0.008,0.23485 -0.0119,0.35227 -0.0983,-0.003 -0.19662,-0.007 -0.29493,-0.01 -0.0271,0.80012 -0.0541,1.60024 -0.0812,2.40037 0.0983,0.003 0.19662,0.007 0.29493,0.01 -0.004,0.11743 -0.008,0.23485 -0.0119,0.35228 -0.33589,-0.0114 -0.67178,-0.0227 -1.00767,-0.0341 0.004,-0.11742 0.008,-0.23485 0.0119,-0.35227 0.10377,0.004 0.20754,0.007 0.31131,0.0105 0.0126,-0.37207 0.0252,-0.74415 0.0378,-1.11622 -0.59872,-0.0203 -1.19745,-0.0405 -1.79618,-0.0607 -0.0126,0.37207 -0.0252,0.74414 -0.0377,1.11621 0.10377,0.004 0.20754,0.007 0.31131,0.0105 -0.004,0.11742 -0.008,0.23485 -0.0119,0.35227 -0.33589,-0.0114 -0.67177,-0.0227 -1.00766,-0.0341 0.004,-0.11743 0.008,-0.23486 0.0119,-0.35228 0.0983,0.004 0.19662,0.007 0.29493,0.01 0.0271,-0.80013 0.0541,-1.60025 0.0812,-2.40037 -0.0983,-0.004 -0.19661,-0.007 -0.29492,-0.01 0.004,-0.11743 0.008,-0.23485 0.0119,-0.35227 0.33589,0.0114 0.67178,0.0227 1.00766,0.0341 -0.004,0.11742 -0.008,0.23485 -0.0119,0.35227 -0.10377,-0.004 -0.20754,-0.007 -0.31131,-0.0105 -0.0106,0.31336 -0.0212,0.62672 -0.0318,0.94008 0.59873,0.0203 1.19745,0.0405 1.79618,0.0607 0.0106,-0.31336 0.0212,-0.62672 0.0318,-0.94008 -0.10377,-0.004 -0.20754,-0.007 -0.31131,-0.0105 z" />
    <path
       inkscape:connector-curvature="0"
       style="fill:#000000;fill-opacity:1;fill-rule:nonzero;stroke:none;stroke-width:0.34974182;stroke-linecap:square;stroke-linejoin:miter;stroke-miterlimit:10;stroke-opacity:1"
       id="7D2E31B0"
       d="m 110.9907,190.08658 c 0.43079,0.0146 0.86157,0.0291 1.29235,0.0437 0.13791,0.005 0.26462,0.0271 0.38014,0.0672 0.11552,0.0401 0.21475,0.0968 0.29771,0.17 0.083,0.0732 0.14656,0.16318 0.19079,0.26993 0.0442,0.10676 0.064,0.2284 0.0594,0.36494 -0.003,0.0778 -0.0192,0.15416 -0.0498,0.22899 -0.0305,0.0748 -0.0718,0.14384 -0.12388,0.20701 -0.052,0.0632 -0.11303,0.11886 -0.18301,0.16707 -0.07,0.0482 -0.14571,0.0846 -0.22719,0.10919 0.0336,0.0162 0.0674,0.0388 0.10125,0.068 0.0339,0.0292 0.0655,0.0644 0.0948,0.10573 0.0294,0.0413 0.0558,0.088 0.0793,0.14006 0.0235,0.052 0.0418,0.10769 0.0549,0.16691 0.0497,0.22723 0.0994,0.45446 0.14918,0.68169 0.0894,0.003 0.17887,0.006 0.2683,0.009 -0.003,0.12976 -0.006,0.25952 -0.009,0.38928 -0.20139,-0.007 -0.40279,-0.0136 -0.60419,-0.0204 -0.0665,-0.31733 -0.133,-0.63466 -0.1995,-0.952 -0.0366,-0.17074 -0.0969,-0.29751 -0.1809,-0.38032 -0.084,-0.0828 -0.2011,-0.12675 -0.3513,-0.13183 -0.13312,-0.005 -0.26625,-0.009 -0.39937,-0.0135 -0.0122,0.36183 -0.0245,0.72366 -0.0367,1.08549 0.10377,0.003 0.20754,0.007 0.31132,0.0105 -0.004,0.11742 -0.008,0.23485 -0.0119,0.35227 -0.33589,-0.0114 -0.67177,-0.0227 -1.00766,-0.0341 0.004,-0.11743 0.008,-0.23485 0.0119,-0.35228 0.0983,0.004 0.19662,0.007 0.29493,0.01 0.027,-0.79944 0.0541,-1.59888 0.0811,-2.39832 -0.0983,-0.004 -0.19662,-0.007 -0.29493,-0.01 z m 0.68438,0.37787 c -0.011,0.32565 -0.022,0.65129 -0.033,0.97694 0.19866,0.007 0.39733,0.0134 0.59599,0.0202 0.0778,0.003 0.14952,-0.005 0.21507,-0.0235 0.0655,-0.0183 0.12257,-0.0471 0.17106,-0.0865 0.0485,-0.0394 0.0871,-0.089 0.11576,-0.14884 0.0287,-0.0599 0.0444,-0.13007 0.0471,-0.21063 0.005,-0.15429 -0.0371,-0.27601 -0.12708,-0.36517 -0.0899,-0.0892 -0.23594,-0.13716 -0.43802,-0.14399 z" />
    <path
       inkscape:connector-curvature="0"
       style="fill:#000000;fill-opacity:1;fill-rule:nonzero;stroke:none;stroke-width:0.34974182;stroke-linecap:square;stroke-linejoin:miter;stroke-miterlimit:10;stroke-opacity:1"
       id="8D2E31B0"
       d="m 115.73317,193.00276 c 0.086,0.003 0.17204,0.006 0.25806,0.009 -0.074,-0.23762 -0.14796,-0.47524 -0.22194,-0.71286 -0.39802,-0.0135 -0.79603,-0.0269 -1.19404,-0.0404 -0.0878,0.23214 -0.17564,0.46429 -0.26346,0.69644 0.1065,0.004 0.213,0.007 0.3195,0.0108 -0.004,0.11743 -0.008,0.23485 -0.0119,0.35228 -0.33589,-0.0114 -0.67177,-0.0227 -1.00766,-0.0341 0.004,-0.11742 0.008,-0.23485 0.0119,-0.35227 0.0901,0.003 0.18023,0.006 0.27035,0.009 0.35326,-0.90665 0.70653,-1.8133 1.05979,-2.71995 0.2014,0.007 0.4028,0.0136 0.60419,0.0204 0.29052,0.92843 0.58104,1.85685 0.87156,2.78527 0.10377,0.003 0.20754,0.007 0.31131,0.0105 -0.004,0.11742 -0.008,0.23485 -0.0119,0.35227 -0.33589,-0.0114 -0.67177,-0.0227 -1.00766,-0.0341 z m -1.02968,-1.08055 c 0.3195,0.0108 0.639,0.0216 0.9585,0.0324 -0.14546,-0.46832 -0.29092,-0.93664 -0.43638,-1.40496 z m -0.20045,-2.37914 c 0.001,-0.0355 0.01,-0.0691 0.0249,-0.10065 0.0154,-0.0316 0.0355,-0.059 0.0602,-0.082 0.0247,-0.0231 0.0533,-0.0412 0.0859,-0.0545 0.0326,-0.0133 0.0666,-0.0193 0.10211,-0.0181 0.0341,10e-4 0.0667,0.009 0.0976,0.0248 0.0309,0.0154 0.0576,0.0354 0.08,0.0601 0.0224,0.0247 0.0399,0.0533 0.0525,0.0858 0.0126,0.0326 0.0182,0.0666 0.017,0.10207 -0.001,0.0369 -0.009,0.0714 -0.024,0.10376 -0.0148,0.0323 -0.0342,0.0607 -0.0582,0.0852 -0.0241,0.0245 -0.0521,0.0433 -0.0839,0.0566 -0.0319,0.0133 -0.0649,0.0193 -0.099,0.0182 -0.0355,-0.001 -0.0691,-0.01 -0.10065,-0.0249 -0.0316,-0.0154 -0.0589,-0.0362 -0.082,-0.0622 -0.023,-0.026 -0.0412,-0.0557 -0.0544,-0.089 -0.0132,-0.0333 -0.0192,-0.0683 -0.018,-0.10518 z m 0.94007,0.0318 c 10e-4,-0.0355 0.01,-0.0691 0.0249,-0.10065 0.0154,-0.0316 0.0355,-0.059 0.0602,-0.082 0.0247,-0.0231 0.0533,-0.0413 0.0859,-0.0545 0.0326,-0.0133 0.0666,-0.0193 0.10211,-0.0181 0.0341,0.001 0.0663,0.009 0.0966,0.0248 0.0302,0.0154 0.0569,0.0354 0.08,0.0601 0.0231,0.0247 0.0409,0.0533 0.0535,0.0859 0.0126,0.0326 0.0182,0.0666 0.017,0.10207 -10e-4,0.0369 -0.009,0.0714 -0.024,0.10376 -0.0148,0.0323 -0.0345,0.0607 -0.0593,0.0851 -0.0247,0.0245 -0.0527,0.0433 -0.0839,0.0566 -0.0312,0.0133 -0.0639,0.0194 -0.098,0.0182 -0.0355,-0.001 -0.0691,-0.01 -0.10066,-0.0249 -0.0316,-0.0154 -0.0589,-0.0362 -0.082,-0.0622 -0.023,-0.0261 -0.0412,-0.0557 -0.0544,-0.089 -0.0132,-0.0333 -0.0192,-0.0683 -0.018,-0.10518 z" />
    <path
       inkscape:connector-curvature="0"
       style="fill:#000000;fill-opacity:1;fill-rule:nonzero;stroke:none;stroke-width:0.34974182;stroke-linecap:square;stroke-linejoin:miter;stroke-miterlimit:10;stroke-opacity:1"
       id="9D2E31B0"
       d="m 119.3214,193.48909 c 0.007,-0.20754 0.014,-0.41508 0.0211,-0.62262 -0.0555,0.10611 -0.12357,0.19779 -0.2041,0.27503 -0.0805,0.0772 -0.16946,0.14019 -0.26679,0.18884 -0.0973,0.0486 -0.20071,0.0841 -0.31014,0.10639 -0.10943,0.0223 -0.22012,0.0315 -0.33208,0.0277 -0.20208,-0.007 -0.38732,-0.0469 -0.55571,-0.12029 -0.16839,-0.0734 -0.31938,-0.18611 -0.45298,-0.33826 -0.1336,-0.15215 -0.23351,-0.3305 -0.29972,-0.53505 -0.0662,-0.20455 -0.0956,-0.41674 -0.0882,-0.63657 0.007,-0.22119 0.0511,-0.42886 0.13076,-0.62301 0.0797,-0.19415 0.1879,-0.36204 0.32461,-0.50368 0.1367,-0.14165 0.2976,-0.25103 0.48269,-0.32815 0.1851,-0.0771 0.38415,-0.11209 0.59715,-0.10488 0.19662,0.007 0.36464,0.0403 0.50407,0.10111 0.13942,0.0608 0.25796,0.13278 0.35562,0.21605 0.0977,0.0833 0.1753,0.1621 0.23293,0.2365 0.0662,0.002 0.13244,0.004 0.19866,0.007 -0.004,0.12153 -0.008,0.24304 -0.0123,0.36457 -0.14678,-0.005 -0.29356,-0.01 -0.44034,-0.0149 -0.0862,-0.15876 -0.20324,-0.28574 -0.35107,-0.38096 -0.14783,-0.0952 -0.31531,-0.14462 -0.50247,-0.14822 -0.15702,-0.005 -0.3022,0.0233 -0.43554,0.0858 -0.13334,0.0625 -0.24869,0.14878 -0.34605,0.25895 -0.0974,0.11016 -0.17448,0.2381 -0.23136,0.38381 -0.0569,0.14571 -0.0881,0.30049 -0.0936,0.46433 -0.006,0.1816 0.0168,0.3512 0.0689,0.50879 0.0521,0.1576 0.12086,0.28637 0.20634,0.38631 0.0855,0.1 0.19233,0.18387 0.32058,0.25177 0.12825,0.0679 0.27156,0.10453 0.42995,0.10989 0.26216,0.009 0.47936,-0.0477 0.65163,-0.16968 0.17226,-0.12199 0.29641,-0.31702 0.37246,-0.58511 -0.28946,-0.01 -0.57893,-0.0196 -0.86839,-0.0294 0.004,-0.11742 0.008,-0.23485 0.0119,-0.35227 0.43761,0.0148 0.87522,0.0296 1.31283,0.0444 -0.0168,0.49632 -0.0336,0.99264 -0.0504,1.48897 z" />
    <line
       style="fill:none;fill-opacity:1;fill-rule:nonzero;stroke:#000000;stroke-width:0.34974182;stroke-linecap:square;stroke-linejoin:miter;stroke-miterlimit:10;stroke-opacity:1"
       id="BD2E31B0"
       x1="96.584274"
       y1="139.10858"
       x2="96.584274"
       y2="131.51277" />
    <path
       style="color:#000000;font-style:normal;font-variant:normal;font-weight:normal;font-stretch:normal;font-size:medium;line-height:normal;font-family:sans-serif;font-variant-ligatures:normal;font-variant-position:normal;font-variant-caps:normal;font-variant-numeric:normal;font-variant-alternates:normal;font-feature-settings:normal;text-indent:0;text-align:start;text-decoration:none;text-decoration-line:none;text-decoration-style:solid;text-decoration-color:#000000;letter-spacing:normal;word-spacing:normal;text-transform:none;writing-mode:lr-tb;direction:ltr;text-orientation:mixed;dominant-baseline:auto;baseline-shift:baseline;text-anchor:start;white-space:normal;shape-padding:0;clip-rule:nonzero;display:inline;overflow:visible;visibility:visible;opacity:1;isolation:auto;mix-blend-mode:normal;color-interpolation:sRGB;color-interpolation-filters:linearRGB;solid-color:#000000;solid-opacity:1;vector-effect:none;fill:#000000;fill-opacity:1;fill-rule:nonzero;stroke:none;stroke-width:0.34974182;stroke-linecap:square;stroke-linejoin:miter;stroke-miterlimit:10;stroke-dasharray:none;stroke-dashoffset:0;stroke-opacity:1;color-rendering:auto;image-rendering:auto;shape-rendering:auto;text-rendering:auto;enable-background:accumulate"
       d="m 110.63086,144.21875 -0.34766,0.0137 0.006,0.17578 c 0.064,1.65463 -0.83287,3.032 -1.93359,4.79688 -1.10072,1.76488 -2.3883,3.90503 -3.01953,7.05859 l -0.0352,0.17188 0.34375,0.0684 0.0332,-0.17188 c 0.61927,-3.09378 1.8762,-5.18022 2.97461,-6.94141 1.09841,-1.76118 2.05543,-3.20882 1.98633,-4.99609 z"
       id="CD2E31B0"
       inkscape:connector-curvature="0" />
    <path
       style="color:#000000;font-style:normal;font-variant:normal;font-weight:normal;font-stretch:normal;font-size:medium;line-height:normal;font-family:sans-serif;font-variant-ligatures:normal;font-variant-position:normal;font-variant-caps:normal;font-variant-numeric:normal;font-variant-alternates:normal;font-feature-settings:normal;text-indent:0;text-align:start;text-decoration:none;text-decoration-line:none;text-decoration-style:solid;text-decoration-color:#000000;letter-spacing:normal;word-spacing:normal;text-transform:none;writing-mode:lr-tb;direction:ltr;text-orientation:mixed;dominant-baseline:auto;baseline-shift:baseline;text-anchor:start;white-space:normal;shape-padding:0;clip-rule:nonzero;display:inline;overflow:visible;visibility:visible;opacity:1;isolation:auto;mix-blend-mode:normal;color-interpolation:sRGB;color-interpolation-filters:linearRGB;solid-color:#000000;solid-opacity:1;vector-effect:none;fill:#000000;fill-opacity:1;fill-rule:nonzero;stroke:none;stroke-width:0.34974182;stroke-linecap:square;stroke-linejoin:miter;stroke-miterlimit:10;stroke-dasharray:none;stroke-dashoffset:0;stroke-opacity:1;color-rendering:auto;image-rendering:auto;shape-rendering:auto;text-rendering:auto;enable-background:accumulate"
       d="m 124.17773,141.24414 -0.01,0.17383 c -0.15792,3.22656 -1.94644,5.65182 -3.80469,7.91601 -1.85824,2.26419 -3.79375,4.35872 -4.125,6.94141 l -0.0215,0.17383 0.3457,0.0449 0.0234,-0.17383 c 0.31221,-2.43427 2.18084,-4.48999 4.04687,-6.76367 1.86603,-2.27368 3.72096,-4.77427 3.88477,-8.12109 l 0.01,-0.17578 z"
       id="DD2E31B0"
       inkscape:connector-curvature="0" />
    <path
       inkscape:connector-curvature="0"
       style="fill:#000000;fill-opacity:1;fill-rule:nonzero;stroke:none;stroke-width:0.34974182;stroke-linecap:square;stroke-linejoin:miter;stroke-miterlimit:10;stroke-opacity:1"
       id="ED2E31B0"
       d="m 97.265949,85.15125 c -0.180235,0.0018 -0.345946,0.04577 -0.497137,0.131892 -0.151192,0.08612 -0.272333,0.209201 -0.363428,0.369254 -0.0777,0.136516 -0.119608,0.277818 -0.12573,0.42391 -0.0061,0.146092 0.01685,0.287319 0.06893,0.423686 0.05207,0.136367 0.129796,0.26357 0.23317,0.381612 0.103374,0.118043 0.2263,0.21761 0.368781,0.298703 0.168603,0.09596 0.331975,0.156225 0.490122,0.180795 0.158146,0.02457 0.302865,0.02163 0.434159,-0.0088 0.131295,-0.03045 0.25688,-0.084 0.376759,-0.160674 0.119879,-0.07667 0.218666,-0.183266 0.296364,-0.319782 0.105831,-0.185944 0.152513,-0.373608 0.140049,-0.562998 -0.01246,-0.18939 -0.09479,-0.392053 -0.24698,-0.607993 0.108218,-0.07552 0.216436,-0.151038 0.324653,-0.226556 0.102781,0.117705 0.183357,0.26406 0.241732,0.43907 0.05837,0.17501 0.07936,0.361849 0.06297,0.56052 -0.0164,0.198671 -0.07885,0.39333 -0.187361,0.583981 -0.103821,0.182414 -0.233997,0.330348 -0.390533,0.443807 -0.156535,0.113459 -0.33291,0.193421 -0.529129,0.239888 -0.196219,0.04647 -0.400106,0.05118 -0.611668,0.01412 -0.211562,-0.03705 -0.412921,-0.109979 -0.604084,-0.218779 -0.19235,-0.109476 -0.356093,-0.24435 -0.491236,-0.404624 -0.135142,-0.160274 -0.23362,-0.333178 -0.295435,-0.518715 -0.06182,-0.185538 -0.08452,-0.37764 -0.06812,-0.576311 0.0164,-0.198672 0.07684,-0.3898 0.181333,-0.57339 0.0931,-0.163584 0.19693,-0.291459 0.311481,-0.383629 0.114551,-0.09217 0.227791,-0.161323 0.339723,-0.207461 0.111932,-0.04614 0.222972,-0.07759 0.333123,-0.09436 0.0355,-0.06237 0.071,-0.124747 0.106499,-0.18712 0.105673,0.06014 0.211346,0.120288 0.317019,0.180432 z" />
    <path
       inkscape:connector-curvature="0"
       style="fill:#000000;fill-opacity:1;fill-rule:nonzero;stroke:none;stroke-width:0.34974182;stroke-linecap:square;stroke-linejoin:miter;stroke-miterlimit:10;stroke-opacity:1"
       id="FD2E31B0"
       d="m 96.902182,84.133231 c 0.164438,-0.288918 0.328876,-0.577836 0.493315,-0.866755 0.102704,0.05846 0.205409,0.11691 0.308114,0.175364 -0.05191,0.09121 -0.103821,0.182413 -0.155731,0.273619 0.419131,0.238549 0.838261,0.477098 1.257391,0.715647 0.150793,0.08582 0.288866,0.142206 0.414223,0.169147 0.125357,0.02694 0.238489,0.02979 0.339399,0.0085 0.100911,-0.02125 0.190076,-0.06399 0.267499,-0.128207 0.07742,-0.06422 0.143931,-0.14517 0.199528,-0.24285 0.0576,-0.10121 0.0969,-0.201952 0.11778,-0.302229 0.0209,-0.100277 0.0163,-0.199133 -0.0139,-0.296571 -0.0302,-0.09744 -0.0895,-0.193506 -0.177864,-0.288205 -0.08836,-0.0947 -0.212692,-0.187661 -0.372983,-0.278891 -0.41913,-0.238549 -0.838261,-0.477098 -1.257391,-0.715647 -0.05492,0.0965 -0.109849,0.193005 -0.164774,0.289507 -0.102704,-0.05845 -0.205409,-0.116909 -0.308114,-0.175364 0.164438,-0.288918 0.328877,-0.577836 0.493315,-0.866755 0.102705,0.05845 0.20541,0.11691 0.308114,0.175364 -0.04521,0.07944 -0.09042,0.158876 -0.135636,0.238314 0.40607,0.231115 0.812139,0.46223 1.218209,0.693346 0.194725,0.110827 0.352244,0.235925 0.472554,0.375296 0.12032,0.139371 0.20508,0.284599 0.25427,0.435688 0.0492,0.151089 0.0644,0.30463 0.0455,0.460626 -0.0188,0.155997 -0.0694,0.306369 -0.15183,0.451123 -0.0804,0.141224 -0.18169,0.258458 -0.30393,0.351706 -0.122234,0.09325 -0.259768,0.156753 -0.412603,0.190519 -0.152835,0.03376 -0.316878,0.03544 -0.492135,0.005 -0.175256,-0.03041 -0.356682,-0.099 -0.544282,-0.205778 -0.416756,-0.237197 -0.833511,-0.474394 -1.250267,-0.711591 -0.04655,0.08179 -0.0931,0.163583 -0.139655,0.245374 z" />
    <path
       inkscape:connector-curvature="0"
       style="fill:#000000;fill-opacity:1;fill-rule:nonzero;stroke:none;stroke-width:0.34974182;stroke-linecap:square;stroke-linejoin:miter;stroke-miterlimit:10;stroke-opacity:1"
       id="0E2E31B0"
       d="m 101.25404,82.055056 c 0.0466,-0.08179 0.0931,-0.163583 0.13966,-0.245374 -0.70053,-0.398708 -1.40106,-0.797416 -2.101589,-1.196123 -0.115877,0.203596 -0.231754,0.407192 -0.347631,0.610788 0.140106,0.07974 0.280212,0.159483 0.420317,0.239225 -0.06865,0.120627 -0.137311,0.241255 -0.205966,0.361883 -0.237468,-0.135155 -0.474935,-0.270311 -0.712403,-0.405465 0.452791,-0.795555 0.905583,-1.59111 1.358374,-2.386665 0.237468,0.135156 0.474938,0.270311 0.712398,0.405466 -0.0687,0.120628 -0.13731,0.241255 -0.20596,0.361883 -0.14011,-0.07974 -0.28021,-0.159483 -0.420319,-0.239224 -0.133962,0.235371 -0.267924,0.470742 -0.401886,0.706113 0.700525,0.398708 1.401055,0.797415 2.101585,1.196123 0.0523,-0.09179 0.10449,-0.183589 0.15674,-0.275384 0.10211,0.05812 0.20422,0.116233 0.30633,0.17435 -0.16444,0.288918 -0.32887,0.577836 -0.49331,0.866754 z" />
    <path
       inkscape:connector-curvature="0"
       style="fill:#000000;fill-opacity:1;fill-rule:nonzero;stroke:none;stroke-width:0.34974182;stroke-linecap:square;stroke-linejoin:miter;stroke-miterlimit:10;stroke-opacity:1"
       id="1E2E31B0"
       d="m 103.4022,79.117611 c -0.10516,0.184767 -0.23601,0.333878 -0.39254,0.447337 -0.15654,0.113459 -0.33308,0.193715 -0.52963,0.240771 -0.19656,0.04706 -0.40045,0.05176 -0.61167,0.01412 -0.21123,-0.03764 -0.41123,-0.110186 -0.60002,-0.217635 -0.19473,-0.110828 -0.35966,-0.246377 -0.4948,-0.406651 -0.13514,-0.160274 -0.23362,-0.333178 -0.29543,-0.518715 -0.0618,-0.185538 -0.0845,-0.377639 -0.0681,-0.576311 0.0164,-0.198672 0.0782,-0.392153 0.18535,-0.580451 0.10784,-0.189475 0.24315,-0.34228 0.40592,-0.458419 0.16278,-0.116139 0.33954,-0.194711 0.5303,-0.235719 0.19075,-0.04101 0.38937,-0.04404 0.59584,-0.0091 0.20648,0.03494 0.40708,0.10782 0.6018,0.218648 0.19473,0.110828 0.35936,0.246208 0.49391,0.406145 0.13455,0.159936 0.23303,0.332839 0.29544,0.518715 0.0624,0.185875 0.0854,0.378146 0.069,0.576817 -0.0164,0.198672 -0.0782,0.392154 -0.18535,0.580452 z m -0.33127,-0.188542 c 0.0797,-0.140046 0.12279,-0.283408 0.12925,-0.430088 0.006,-0.14668 -0.0165,-0.287907 -0.0689,-0.423686 -0.0524,-0.135778 -0.13093,-0.262267 -0.23557,-0.379471 -0.10463,-0.117204 -0.22878,-0.216689 -0.37245,-0.298458 -0.14723,-0.0838 -0.30298,-0.140889 -0.46725,-0.171279 -0.16426,-0.03039 -0.31817,-0.02996 -0.46172,0.0013 -0.14354,0.03126 -0.27329,0.08868 -0.38924,0.172263 -0.11596,0.08358 -0.20876,0.186569 -0.27842,0.308963 -0.0797,0.140046 -0.12296,0.283702 -0.12975,0.43097 -0.007,0.147269 0.016,0.28879 0.0684,0.424569 0.0524,0.135779 0.13123,0.262436 0.23646,0.379978 0.10523,0.117542 0.22909,0.216858 0.37157,0.297951 0.16623,0.09461 0.32808,0.154786 0.48555,0.180533 0.15748,0.02575 0.30186,0.0234 0.43316,-0.007 0.13129,-0.03045 0.25734,-0.08413 0.37815,-0.161051 0.12081,-0.07692 0.22106,-0.185407 0.30077,-0.325453 z" />
    <path
       inkscape:connector-curvature="0"
       style="fill:#000000;fill-opacity:1;fill-rule:nonzero;stroke:none;stroke-width:0.34974182;stroke-linecap:square;stroke-linejoin:miter;stroke-miterlimit:10;stroke-opacity:1"
       id="3E2E31B0"
       d="m 101.62534,75.834631 c 0.36371,-0.639033 0.72742,-1.278066 1.09112,-1.917098 0.25469,0.144953 0.50937,0.289907 0.76406,0.434861 -0.0687,0.120628 -0.13731,0.241256 -0.20597,0.361883 -0.15198,-0.0865 -0.30396,-0.172998 -0.45594,-0.259497 -0.18118,0.318339 -0.36236,0.636679 -0.54355,0.955018 0.28912,0.164552 0.57824,0.329103 0.86735,0.493655 0.17449,-0.306572 0.34897,-0.613143 0.52346,-0.919713 0.0997,0.05676 0.19947,0.11353 0.29921,0.170295 -0.17449,0.306571 -0.34897,0.613142 -0.52346,0.919713 0.30633,0.17435 0.61267,0.3487 0.919,0.52305 0.0509,-0.08944 0.10181,-0.178882 0.15272,-0.268323 0.10211,0.05812 0.20422,0.116233 0.30633,0.17435 -0.16477,0.289507 -0.32954,0.579013 -0.49432,0.86852 -0.10211,-0.05812 -0.20422,-0.116234 -0.30633,-0.17435 0.0482,-0.08473 0.0965,-0.169467 0.14468,-0.254201 -0.69519,-0.395667 -1.39038,-0.791334 -2.08556,-1.187 -0.0482,0.08473 -0.0965,0.169467 -0.14468,0.254201 z" />
    <path
       inkscape:connector-curvature="0"
       style="fill:#000000;fill-opacity:1;fill-rule:nonzero;stroke:none;stroke-width:0.34974182;stroke-linecap:square;stroke-linejoin:miter;stroke-miterlimit:10;stroke-opacity:1"
       id="4E2E31B0"
       d="m 102.87822,73.633322 c 0.36371,-0.639033 0.72742,-1.278066 1.09112,-1.917098 0.25469,0.144953 0.50937,0.289907 0.76406,0.434861 -0.0687,0.120628 -0.13732,0.241256 -0.20597,0.361883 -0.15198,-0.0865 -0.30396,-0.172998 -0.45594,-0.259497 -0.18118,0.318339 -0.36237,0.636679 -0.54355,0.955018 0.28912,0.164552 0.57823,0.329103 0.86735,0.493654 0.17449,-0.306571 0.34897,-0.613142 0.52346,-0.919713 0.0997,0.05676 0.19947,0.113531 0.29921,0.170296 -0.17449,0.306571 -0.34897,0.613142 -0.52346,0.919713 0.30633,0.17435 0.61267,0.3487 0.919,0.52305 0.0509,-0.08944 0.10181,-0.178882 0.15272,-0.268323 0.10211,0.05812 0.20422,0.116233 0.30633,0.17435 -0.16477,0.289507 -0.32955,0.579013 -0.49432,0.86852 -0.10211,-0.05812 -0.20422,-0.116234 -0.30633,-0.17435 0.0482,-0.08473 0.0965,-0.169468 0.14468,-0.254201 -0.69519,-0.395667 -1.39038,-0.791334 -2.08556,-1.187 -0.0482,0.08473 -0.0965,0.169467 -0.14468,0.254201 z" />
    <path
       d="m 108.44753,108.28353 c -0.15939,-0.0216 -0.30483,-0.0712 -0.43633,-0.14857 -0.13149,-0.0774 -0.2442,-0.17562 -0.33813,-0.29459 -0.0939,-0.11897 -0.1665,-0.25473 -0.21773,-0.40729 -0.0512,-0.15256 -0.0769,-0.31422 -0.0769,-0.48499 0,-0.18671 0.0305,-0.36204 0.0914,-0.52598 0.0609,-0.16395 0.1463,-0.30654 0.25616,-0.42779 0.10987,-0.12125 0.24079,-0.21688 0.39278,-0.28689 0.15199,-0.07 0.31906,-0.10503 0.50122,-0.10503 0.18329,0 0.35122,0.035 0.50377,0.10503 0.15256,0.07 0.28349,0.16564 0.39278,0.28689 0.1093,0.12125 0.19411,0.26384 0.25445,0.42779 0.0603,0.16394 0.0905,0.33927 0.0905,0.52598 0,0.17305 -0.0265,0.33613 -0.0794,0.48926 -0.0529,0.15313 -0.12722,0.28917 -0.22286,0.40815 -0.0956,0.11897 -0.21005,0.21716 -0.34325,0.29458 -0.1332,0.0774 -0.28006,0.1258 -0.44059,0.14515 0.074,0.0193 0.1332,0.0421 0.1776,0.0683 0.0444,0.0262 0.10019,0.0561 0.16736,0.0897 0.0672,0.0336 0.13434,0.0504 0.20151,0.0504 0.0649,0 0.12267,-0.0162 0.17333,-0.0487 0.0507,-0.0325 0.084,-0.0823 0.0999,-0.14943 0.0865,0.0393 0.17305,0.0786 0.25957,0.11784 -0.0137,0.0637 -0.039,0.11982 -0.076,0.1682 -0.037,0.0484 -0.0803,0.0888 -0.12979,0.12125 -0.0495,0.0325 -0.10275,0.0566 -0.15967,0.0726 -0.0569,0.016 -0.11271,0.0239 -0.16736,0.0239 -0.0877,0 -0.16992,-0.0159 -0.24677,-0.0478 -0.0768,-0.0319 -0.15739,-0.0706 -0.24164,-0.11613 -0.0843,-0.0455 -0.16508,-0.0683 -0.2425,-0.0683 -0.0467,0 -0.0945,0.007 -0.14344,0.0222 z m 0.17248,-0.30739 c 0.13548,0 0.25815,-0.0279 0.36801,-0.0837 0.10986,-0.0558 0.2035,-0.13064 0.28092,-0.22457 0.0774,-0.0939 0.13719,-0.20293 0.17931,-0.32703 0.0421,-0.12409 0.0632,-0.25502 0.0632,-0.39277 0,-0.14118 -0.0231,-0.27694 -0.0692,-0.4073 -0.0461,-0.13035 -0.11071,-0.24164 -0.19382,-0.33386 -0.0831,-0.0922 -0.1776,-0.16308 -0.28348,-0.21261 -0.10588,-0.0495 -0.22087,-0.0743 -0.34496,-0.0743 -0.13548,0 -0.25844,0.0279 -0.36887,0.0837 -0.11044,0.0558 -0.20436,0.13064 -0.28178,0.22456 -0.0774,0.0939 -0.13718,0.20322 -0.17931,0.32789 -0.0421,0.12466 -0.0632,0.2553 -0.0632,0.39192 0,0.15597 0.023,0.29657 0.0692,0.42181 0.0461,0.12523 0.1073,0.22968 0.18358,0.31336 0.0763,0.0837 0.17106,0.15341 0.28434,0.2092 0.11328,0.0558 0.23196,0.0837 0.35606,0.0837 z"
       id="6E2E31B0"
       style="fill:#000000;fill-opacity:1;fill-rule:nonzero;stroke:none;stroke-width:0.34974182;stroke-linecap:square;stroke-linejoin:miter;stroke-miterlimit:10;stroke-opacity:1"
       inkscape:connector-curvature="0" />
  </g>
</svg>
