<?xml version="1.0" encoding="UTF-8"?>
<!-- Created with EazyDraw for Mac ( http://www.eazydraw.com/ ) -->

<svg
    version="1.1"
    xmlns:dc="http://purl.org/dc/elements/1.1/"
    xmlns:cc="http://creativecommons.org/ns#"
    xmlns:rdf="http://www.w3.org/1999/02/22-rdf-syntax-ns#"
    xmlns:svg="http://www.w3.org/2000/svg"
    xmlns:xlink="http://www.w3.org/1999/xlink"
    xmlns="http://www.w3.org/2000/svg"
    width="116.2"
    height="365.251968504"
    viewBox="0, 0, 116.2, 365.251968504"
    preserveAspectRatio="none"
    id="svg2">
   <defs
       id="defs_3A1324D0"/>
   <metadata
       id="metadata7">
      <rdf:RDF>
         <cc:Work
             rdf:about="">
            <dc:format>image/svg+xml</dc:format>
            <dc:type rdf:resource="http://purl.org/dc/dcmitype/StillImage"/>
            <dc:title></dc:title>
         </cc:Work>
      </rdf:RDF>
   </metadata>
   <g
       id="layer_Paper"
       style="fill:#000000;fill-opacity:1;stroke:#000000;stroke-opacity:1;fill-rule:nonzero;stroke-linecap:square;stroke-linejoin:miter;stroke-width:1;stroke-miterlimit:10">
      <rect
          style="fill:none"
          id="FA2E31B0"
          x="0.5"
          y="0.5"
          width="115.2"
          height="364.251968504"/>
      <path
          style="stroke:none"
          id="1B2E31B0"
          d="M9.032887857,280.89293184 C9.820648273666,280.89293184 10.6084086903,280.89293184 11.396169107,280.89293184 C11.396169107,281.174507361 11.396169107,281.456082882 11.396169107,281.737658403 C11.161794107,281.737658403 10.927419107,281.737658403 10.693044107,281.737658403
C10.693044107,283.643582882 10.693044107,285.549507361 10.693044107,287.45543184 C10.927419107,287.45543184 11.161794107,287.45543184 11.396169107,287.45543184 C11.396169107,287.735379757 11.396169107,288.015327674 11.396169107,288.29527559
C10.6084086903,288.29527559 9.820648273666,288.29527559 9.032887857,288.29527559 C9.032887857,288.015327674 9.032887857,287.735379757 9.032887857,287.45543184 C9.267262857,287.45543184 9.501637857,287.45543184 9.736012857,287.45543184
C9.736012857,285.549507361 9.736012857,283.643582882 9.736012857,281.737658403 C9.501637857,281.737658403 9.267262857,281.737658403 9.032887857,281.737658403 z"/>
      <path
          style="stroke:none"
          id="2B2E31B0"
          d="M15.990895669,287.455431841 C16.2285258773,287.455431841 16.4661560857,287.455431841 16.703786294,287.455431841 C16.703786294,286.68557507 16.703786294,285.915718299 16.703786294,285.145861528 C16.703786294,284.7584898 16.6053172266,284.464710185 16.4083761378,284.264513872
C16.2114350489,284.064317558 15.9290485499,283.964220903 15.561208169,283.964220903 C15.3496185694,283.964220903 15.1364045557,284.014676128 14.9215597315,284.115588091 C14.7067149073,284.216500054 14.503266421,284.341824321 14.311208169,284.491564653
C14.311208169,285.479520382 14.311208169,286.467476112 14.311208169,287.455431841 C14.5488383773,287.455431841 14.7864685857,287.455431841 15.024098794,287.455431841 C15.024098794,287.735379757 15.024098794,288.015327674 15.024098794,288.295275591
C14.2363383773,288.295275591 13.4485779607,288.295275591 12.660817544,288.295275591 C12.660817544,288.015327674 12.660817544,287.735379757 12.660817544,287.455431841 C12.895192544,287.455431841 13.129567544,287.455431841 13.363942544,287.455431841
C13.363942544,286.329129757 13.363942544,285.202827674 13.363942544,284.076525591 C13.129567544,284.076525591 12.895192544,284.076525591 12.660817544,284.076525591 C12.660817544,283.796577674 12.660817544,283.516629757 12.660817544,283.236681841
C13.197926919,283.236681841 13.735036294,283.236681841 14.272145669,283.236681841 C14.272145669,283.435249549 14.272145669,283.633817257 14.272145669,283.832384966 C14.2754008773,283.832384966 14.2786560857,283.832384966 14.281911294,283.832384966
C14.3893337061,283.737983452 14.5040786524,283.648466118 14.6261495753,283.563830278 C14.7482204981,283.479194438 14.8759861475,283.405952983 15.0094503565,283.344103716 C15.1429145655,283.282254448 15.2820733301,283.233426811 15.4269308253,283.197619341
C15.5717883204,283.16181187 15.7239677881,283.143908403 15.883473794,283.143908403 C16.1536574366,283.143908403 16.3977956202,283.181342925 16.615895669,283.256213091 C16.8339957178,283.331083257 17.0195407374,283.445014409 17.172536294,283.598009966
C17.3255318506,283.751005522 17.4435319727,283.947129863 17.5265402003,284.186388872 C17.6095484278,284.425647881 17.651051919,284.70803438 17.651051919,285.033556841 C17.651051919,285.840848507 17.651051919,286.648140174 17.651051919,287.455431841
C17.885426919,287.455431841 18.119801919,287.455431841 18.354176919,287.455431841 C18.354176919,287.735379757 18.354176919,288.015327674 18.354176919,288.295275591 C17.5664165023,288.295275591 16.7786560857,288.295275591 15.990895669,288.295275591
z"/>
      <path
          style="stroke:none"
          id="5B2E31B0"
          d="M11.867533526,329.081908218 C12.668314776,329.081908218 13.469096026,329.081908218 14.269877276,329.081908218 C14.269877276,329.363483739 14.269877276,329.64505926 14.269877276,329.926634781 C14.0224814427,329.926634781 13.7750856093,329.926634781 13.527689776,329.926634781
C13.527689776,331.83255926 13.527689776,333.738483739 13.527689776,335.644408218 C14.3789267552,335.644408218 15.2301637343,335.644408218 16.0814007135,335.644408218 C16.1334843073,335.644408218 16.1855671197,335.632201309 16.2376507135,335.607787124
C16.2897343072,335.58337294 16.3369343561,335.551634976 16.379252276,335.512572281 C16.4215701959,335.473509585 16.4557495416,335.428750918 16.4817913385,335.378294937 C16.5078331354,335.327838956 16.5208538385,335.276569937 16.5208538385,335.224486343
C16.5208538385,334.913613947 16.5208538385,334.602741552 16.5208538385,334.291869156 C16.8300986302,334.291869156 17.1393434218,334.291869156 17.4485882135,334.291869156 C17.4485882135,335.022663427 17.4485882135,335.753457697 17.4485882135,336.484251968
C15.588236651,336.484251968 13.7278850885,336.484251968 11.867533526,336.484251968 C11.867533526,336.204304052 11.867533526,335.924356135 11.867533526,335.644408218 C12.101908526,335.644408218 12.336283526,335.644408218 12.570658526,335.644408218
C12.570658526,333.738483739 12.570658526,331.83255926 12.570658526,329.926634781 C12.336283526,329.926634781 12.101908526,329.926634781 11.867533526,329.926634781 z"/>
      <path
          style="stroke:none"
          id="6B2E31B0"
          d="M18.195658526,329.081908218 C19.1933798802,329.081908218 20.1911012343,329.081908218 21.1888225885,329.081908218 C21.5208554987,329.081908218 21.8260282281,329.125039297 22.1043499323,329.211302749 C22.3826716363,329.297566202 22.6235546442,329.424518057 22.8270061823,329.592162124
C23.0304577203,329.759806192 23.1883337457,329.968951236 23.3006389948,330.219603531 C23.4129442438,330.470255826 23.469096026,330.758338882 23.469096026,331.083861343 C23.469096026,331.354044986 23.4137580377,331.608762491 23.303080401,331.848021499
C23.1924027643,332.087280508 23.0361543268,332.296425552 22.834330401,332.475462906 C22.6325064752,332.654500259 22.3908096735,332.796100406 22.1092327448,332.900267593 C21.827655816,333.004434781 21.5143451471,333.056517593 21.1692913385,333.056517593
C20.7314658177,333.056517593 20.2936402968,333.056517593 19.855814776,333.056517593 C19.855814776,333.919147802 19.855814776,334.78177801 19.855814776,335.644408218 C20.1032106093,335.644408218 20.3506064427,335.644408218 20.598002276,335.644408218
C20.598002276,335.924356135 20.598002276,336.204304052 20.598002276,336.484251968 C19.797221026,336.484251968 18.996439776,336.484251968 18.195658526,336.484251968 C18.195658526,336.204304052 18.195658526,335.924356135 18.195658526,335.644408218
C18.430033526,335.644408218 18.664408526,335.644408218 18.898783526,335.644408218 C18.898783526,333.738483739 18.898783526,331.83255926 18.898783526,329.926634781 C18.664408526,329.926634781 18.430033526,329.926634781 18.195658526,329.926634781
z M19.855814776,329.926634781 C19.855814776,330.703001968 19.855814776,331.479369156 19.855814776,332.255736343 C20.3001507135,332.255736343 20.744486651,332.255736343 21.1888225885,332.255736343 C21.3743703912,332.255736343 21.5444533258,332.230508731 21.6990764948,332.180052749
C21.8536996637,332.129596768 21.9871618707,332.055541519 22.0994671198,331.957884781 C22.2117723688,331.860228042 22.2996621149,331.738158951 22.3631389948,331.591673843 C22.4266158746,331.445188736 22.4583538385,331.275919595 22.4583538385,331.083861343
C22.4583538385,330.719276187 22.3476778619,330.4352621 22.1263225885,330.231810562 C21.9049673151,330.028359024 21.5517807428,329.926634781 21.066752276,329.926634781 z"/>
      <path
          style="stroke:none"
          id="9B2E31B0"
          d="M54.387218566,335.644408218 C54.621593566,335.644408218 54.855968566,335.644408218 55.090343566,335.644408218 C55.090343566,333.738483739 55.090343566,331.83255926 55.090343566,329.926634781 C54.855968566,329.926634781 54.621593566,329.926634781 54.387218566,329.926634781
C54.387218566,329.641804052 54.387218566,329.356973322 54.387218566,329.072142593 C55.4972446077,329.075397802 56.6072706493,329.07865301 57.717296691,329.081908218 C58.0167773551,329.081908218 58.2983500601,329.13806 58.5620232535,329.250365249
C58.8256964469,329.362670498 59.0551863394,329.51566376 59.250499816,329.709349624 C59.4458132926,329.903035489 59.5996203482,330.131711587 59.7119255972,330.395384781 C59.8242308463,330.659057974 59.8803826285,330.942258267 59.8803826285,331.244994156
C59.8803826285,331.560750943 59.7924928824,331.848833999 59.6167107535,332.109251968 C59.4409286246,332.369669937 59.1902800894,332.578001187 58.8647576285,332.734251968 C59.0242636344,332.818887808 59.1691189566,332.917356875 59.299327941,333.029662124
C59.4295369254,333.141967373 59.5402129019,333.264850259 59.631359191,333.398314468 C59.7225054801,333.531778677 59.7933055533,333.673378824 59.8437615348,333.823119156 C59.8942175162,333.972859488 59.9194451285,334.125852749 59.9194451285,334.282103531
C59.9194451285,334.591349869 59.8632933463,334.879432925 59.7509880972,335.146361343 C59.6386828482,335.413289761 59.4848757926,335.64603483 59.289562316,335.844603531 C59.0942488394,336.043172232 58.8655727408,336.199420669 58.6035271597,336.313353531
C58.3414815787,336.427286392 58.0607226676,336.484251968 57.7612420035,336.484251968 C56.6365675243,336.484251968 55.5118930452,336.484251968 54.387218566,336.484251968 z M56.047374816,333.193236343 C56.047374816,334.010293635 56.047374816,334.827350927 56.047374816,335.644408218
C56.6219190868,335.644408218 57.1964633577,335.644408218 57.7710076285,335.644408218 C57.9272584097,335.644408218 58.072113732,335.605346109 58.205577941,335.527220718 C58.33904215,335.449095328 58.4562284781,335.347371084 58.557140441,335.222044937
C58.6580524039,335.096718789 58.7369904166,334.954304849 58.7939568473,334.794798843 C58.8509232779,334.635292837 58.879406066,334.472534048 58.879406066,334.306517593 C58.879406066,334.16328771 58.850109484,334.02494274 58.791515441,333.891478531
C58.732921398,333.758014322 58.6539833853,333.639200406 58.5546990347,333.535033218 C58.4554146842,333.430866031 58.338228356,333.347859048 58.2031365347,333.286009781 C58.0680447135,333.224160513 57.9240031851,333.193236343 57.7710076285,333.193236343
z M56.047374816,329.926634781 C56.047374816,330.732298843 56.047374816,331.537962906 56.047374816,332.343626968 C56.6072706493,332.343626968 57.1671664827,332.343626968 57.727062316,332.343626968 C57.8833130972,332.343626968 58.0289822135,332.312702798 58.1640740347,332.250853531
C58.299165856,332.189004263 58.4163521842,332.105997281 58.5156365347,332.001830093 C58.6149208853,331.897662906 58.693858898,331.777221402 58.752452941,331.640501968 C58.811046984,331.503782535 58.840343566,331.362182388 58.840343566,331.215697281
C58.840343566,331.056191275 58.811046984,330.899129043 58.752452941,330.744505874 C58.693858898,330.589882706 58.6141070914,330.452351529 58.5131951285,330.331908218 C58.4122831656,330.211464908 58.2942830435,330.113809634 58.1591912222,330.038939468
C58.024099401,329.964069302 57.8800578726,329.926634781 57.727062316,329.926634781 z"/>
      <path
          style="stroke:none"
          id="AB2E31B0"
          d="M60.988781066,329.081908218 C61.9865024202,329.081908218 62.9842237743,329.081908218 63.9819451285,329.081908218 C64.3139780387,329.081908218 64.6191507681,329.125039297 64.8974724723,329.211302749 C65.1757941763,329.297566202 65.4166771842,329.424518057 65.6201287223,329.592162124
C65.8235802603,329.759806192 65.9814562857,329.968951236 66.0937615348,330.219603531 C66.2060667838,330.470255826 66.262218566,330.758338882 66.262218566,331.083861343 C66.262218566,331.354044986 66.2068805777,331.608762491 66.096202941,331.848021499
C65.9855253043,332.087280508 65.8292768668,332.296425552 65.627452941,332.475462906 C65.4256290152,332.654500259 65.1839322135,332.796100406 64.9023552848,332.900267593 C64.620778356,333.004434781 64.3074676871,333.056517593 63.9624138785,333.056517593
C63.5245883577,333.056517593 63.0867628368,333.056517593 62.648937316,333.056517593 C62.648937316,333.919147802 62.648937316,334.78177801 62.648937316,335.644408218 C62.8963331493,335.644408218 63.1437289827,335.644408218 63.391124816,335.644408218
C63.391124816,335.924356135 63.391124816,336.204304052 63.391124816,336.484251968 C62.590343566,336.484251968 61.789562316,336.484251968 60.988781066,336.484251968 C60.988781066,336.204304052 60.988781066,335.924356135 60.988781066,335.644408218
C61.223156066,335.644408218 61.457531066,335.644408218 61.691906066,335.644408218 C61.691906066,333.738483739 61.691906066,331.83255926 61.691906066,329.926634781 C61.457531066,329.926634781 61.223156066,329.926634781 60.988781066,329.926634781
z M62.648937316,329.926634781 C62.648937316,330.703001968 62.648937316,331.479369156 62.648937316,332.255736343 C63.0932732535,332.255736343 63.537609191,332.255736343 63.9819451285,332.255736343 C64.1674929312,332.255736343 64.3375758658,332.230508731 64.4921990348,332.180052749
C64.6468222037,332.129596768 64.7802844107,332.055541519 64.8925896598,331.957884781 C65.0048949088,331.860228042 65.0927846549,331.738158951 65.1562615348,331.591673843 C65.2197384146,331.445188736 65.2514763785,331.275919595 65.2514763785,331.083861343
C65.2514763785,330.719276187 65.1408004019,330.4352621 64.9194451285,330.231810562 C64.6980898551,330.028359024 64.3449032828,329.926634781 63.859874816,329.926634781 z"/>
      <path
          style="stroke:none"
          id="CB2E31B0"
          d="M93.6031619095,329.081908218 C94.4039431595,329.081908218 95.2047244095,329.081908218 96.0055056595,329.081908218 C96.0055056595,329.361856135 96.0055056595,329.641804052 96.0055056595,329.921751968 C95.7711306595,329.921751968 95.5367556595,329.921751968 95.3023806595,329.921751968
C95.3023806595,331.829304052 95.3023806595,333.736856135 95.3023806595,335.644408218 C95.5367556595,335.644408218 95.7711306595,335.644408218 96.0055056595,335.644408218 C96.0055056595,335.924356135 96.0055056595,336.204304052 96.0055056595,336.484251968
C95.2047244095,336.484251968 94.4039431595,336.484251968 93.6031619095,336.484251968 C93.6031619095,336.204304052 93.6031619095,335.924356135 93.6031619095,335.644408218 C93.8505577428,335.644408218 94.0979535762,335.644408218 94.3453494095,335.644408218
C94.3453494095,334.757363947 94.3453494095,333.870319677 94.3453494095,332.983275406 C92.9179405553,332.983275406 91.4905317012,332.983275406 90.063122847,332.983275406 C90.063122847,333.870319677 90.063122847,334.757363947 90.063122847,335.644408218
C90.3105186803,335.644408218 90.5579145137,335.644408218 90.805310347,335.644408218 C90.805310347,335.924356135 90.805310347,336.204304052 90.805310347,336.484251968 C90.004529097,336.484251968 89.203747847,336.484251968 88.402966597,336.484251968
C88.402966597,336.204304052 88.402966597,335.924356135 88.402966597,335.644408218 C88.637341597,335.644408218 88.871716597,335.644408218 89.106091597,335.644408218 C89.106091597,333.736856135 89.106091597,331.829304052 89.106091597,329.921751968
C88.871716597,329.921751968 88.637341597,329.921751968 88.402966597,329.921751968 C88.402966597,329.641804052 88.402966597,329.361856135 88.402966597,329.081908218 C89.203747847,329.081908218 90.004529097,329.081908218 90.805310347,329.081908218
C90.805310347,329.361856135 90.805310347,329.641804052 90.805310347,329.921751968 C90.5579145137,329.921751968 90.3105186803,329.921751968 90.063122847,329.921751968 C90.063122847,330.668822281 90.063122847,331.415892593 90.063122847,332.162962906
C91.4905317012,332.162962906 92.9179405553,332.162962906 94.3453494095,332.162962906 C94.3453494095,331.415892593 94.3453494095,330.668822281 94.3453494095,329.921751968 C94.0979535762,329.921751968 93.8505577428,329.921751968 93.6031619095,329.921751968
z"/>
      <path
          style="stroke:none"
          id="DB2E31B0"
          d="M97.401990034,329.081908218 C98.3997113882,329.081908218 99.3974327423,329.081908218 100.395154097,329.081908218 C100.727187007,329.081908218 101.032359736,329.125039297 101.31068144,329.211302749 C101.589003144,329.297566202 101.829886152,329.424518057 102.03333769,329.592162124
C102.236789228,329.759806192 102.394665254,329.968951236 102.506970503,330.219603531 C102.619275752,330.470255826 102.675427534,330.758338882 102.675427534,331.083861343 C102.675427534,331.354044986 102.620089546,331.608762491 102.509411909,331.848021499
C102.398734272,332.087280508 102.242485835,332.296425552 102.040661909,332.475462906 C101.838837983,332.654500259 101.597141181,332.796100406 101.315564253,332.900267593 C101.033987324,333.004434781 100.720676655,333.056517593 100.375622847,333.056517593
C99.9377973257,333.056517593 99.4999718048,333.056517593 99.062146284,333.056517593 C99.062146284,333.919147802 99.062146284,334.78177801 99.062146284,335.644408218 C99.3095421173,335.644408218 99.5569379507,335.644408218 99.804333784,335.644408218
C99.804333784,335.924356135 99.804333784,336.204304052 99.804333784,336.484251968 C99.003552534,336.484251968 98.202771284,336.484251968 97.401990034,336.484251968 C97.401990034,336.204304052 97.401990034,335.924356135 97.401990034,335.644408218
C97.636365034,335.644408218 97.870740034,335.644408218 98.105115034,335.644408218 C98.105115034,333.738483739 98.105115034,331.83255926 98.105115034,329.926634781 C97.870740034,329.926634781 97.636365034,329.926634781 97.401990034,329.926634781
z M99.062146284,329.926634781 C99.062146284,330.703001968 99.062146284,331.479369156 99.062146284,332.255736343 C99.5064822215,332.255736343 99.950818159,332.255736343 100.395154097,332.255736343 C100.580701899,332.255736343 100.750784834,332.230508731 100.905408003,332.180052749
C101.060031172,332.129596768 101.193493379,332.055541519 101.305798628,331.957884781 C101.418103877,331.860228042 101.505993623,331.738158951 101.569470503,331.591673843 C101.632947383,331.445188736 101.664685346,331.275919595 101.664685346,331.083861343
C101.664685346,330.719276187 101.55400937,330.4352621 101.332654096,330.231810562 C101.111298823,330.028359024 100.758112251,329.926634781 100.273083784,329.926634781 z"/>
      <path
          style="stroke:none"
          id="FB2E31B0"
          d="M92.6510134715,280.89293184 C93.4517947215,280.89293184 94.2525759715,280.89293184 95.0533572215,280.89293184 C95.0533572215,281.174507361 95.0533572215,281.456082882 95.0533572215,281.737658403 C94.8401410757,281.737658403 94.6269249298,281.737658403 94.413708784,281.737658403
C93.6145551382,283.923530799 92.8154014923,286.109403194 92.0162478465,288.29527559 C91.5686567007,288.29527559 91.1210655548,288.29527559 90.673474409,288.29527559 C89.8857139923,286.109403194 89.0979535757,283.923530799 88.310193159,281.737658403
C88.0920942007,281.737658403 87.8739952423,281.737658403 87.655896284,281.737658403 C87.655896284,281.456082882 87.655896284,281.174507361 87.655896284,280.89293184 C88.456677534,280.89293184 89.257458784,280.89293184 90.058240034,280.89293184
C90.058240034,281.174507361 90.058240034,281.456082882 90.058240034,281.737658403 C89.843396284,281.737658403 89.628552534,281.737658403 89.413708784,281.737658403 C90.0468468048,283.640327674 90.6799848257,285.542996944 91.3131228465,287.445666215
C91.991833784,285.542996944 92.6705447215,283.640327674 93.349255659,281.737658403 C93.1165082632,281.737658403 92.8837608673,281.737658403 92.6510134715,281.737658403 z"/>
      <path
          style="stroke:none"
          id="0C2E31B0"
          d="M97.265271284,280.634142778 C97.548474409,280.634142778 97.831677534,280.634142778 98.114880659,280.634142778 C97.138318159,283.235054236 96.161755659,285.835965694 95.185193159,288.436877153 C94.901990034,288.436877153 94.618786909,288.436877153 94.335583784,288.436877153
z"/>
      <path
          style="stroke:none"
          id="1C2E31B0"
          d="M97.929333784,285.765978715 C97.9325890086,285.365586088 97.9968787303,285.001006401 98.1222048778,284.672228715 C98.2475310252,284.34345103 98.4224967235,284.061064531 98.6471072215,283.825060746 C98.8717177195,283.589056962 99.1386421336,283.407580912 99.4478884715,283.280627153
C99.7571348094,283.153673393 100.097300679,283.090197465 100.468396284,283.090197465 C100.842747114,283.090197465 101.185354365,283.153673393 101.496228315,283.280627153 C101.807102265,283.407580912 102.073212886,283.587429374 102.294568159,283.820177934
C102.515923432,284.052926494 102.688447749,284.333685405 102.812146284,284.66246309 C102.935844819,284.991240776 102.997693159,285.355820463 102.997693159,285.75621309 C102.997693159,286.150095268 102.935844819,286.512233574 102.812146284,286.842638871
C102.688447749,287.173044169 102.515923432,287.457058256 102.294568159,287.694689653 C102.073212886,287.932321049 101.807102265,288.117052275 101.496228315,288.248888871 C101.185354365,288.380725468 100.842747114,288.446642778 100.468396284,288.446642778
C100.087535005,288.446642778 99.7424863719,288.381539262 99.433240034,288.251330278 C99.1239936961,288.121121293 98.8586968699,287.938017656 98.6373415965,287.702013871 C98.4159863231,287.466010087 98.2434620067,287.183623588 98.1197634715,286.854845903
C97.9960649363,286.526068217 97.9325890086,286.163116118 97.929333784,285.765978715 z M98.8912478465,285.765978715 C98.8912478465,286.055693705 98.9327513377,286.317735356 99.0157595652,286.552111528 C99.0987677928,286.7864877 99.2126989451,286.985867216 99.3575564402,287.150256059
C99.5024139354,287.314644902 99.6700554881,287.441596757 99.8604861277,287.531115434 C100.050916767,287.620634111 100.25355146,287.665392778 100.468396284,287.665392778 C100.693006782,287.665392778 100.902151826,287.621447905 101.09583769,287.53355684
C101.289523555,287.445665776 101.457978901,287.319527714 101.601208784,287.155138871 C101.744438667,286.990750029 101.856742231,286.791370512 101.938122846,286.55699434 C102.019503462,286.322618168 102.060193159,286.05894893 102.060193159,285.765978715
C102.060193159,285.459987602 102.019503462,285.188180424 101.938122846,284.950549028 C101.856742231,284.712917631 101.745252461,284.514351909 101.60365019,284.354845903 C101.46204792,284.195339897 101.293592573,284.074898393 101.098279096,283.993517778
C100.90296562,283.912137162 100.693006782,283.871447465 100.468396284,283.871447465 C100.25355146,283.871447465 100.050916767,283.912137162 99.8604861277,283.993517778 C99.6700554881,284.074898393 99.5024139354,284.195339897 99.3575564402,284.354845903
C99.2126989451,284.514351909 99.0987677928,284.712917631 99.0157595652,284.950549028 C98.9327513377,285.188180424 98.8912478465,285.459987602 98.8912478465,285.765978715 z"/>
      <path
          style="stroke:none"
          id="2C2E31B0"
          d="M107.602185347,284.584338091 C107.465465913,284.340196245 107.292127803,284.161161577 107.082165816,284.047228716 C106.872203828,283.933295854 106.628879439,283.876330278 106.352185347,283.876330278 C106.140595747,283.876330278 105.942030025,283.920275151 105.756482222,284.008166216
C105.570934419,284.09605728 105.408989424,284.221381548 105.270642378,284.384142778 C105.132295332,284.546904009 105.023246944,284.744655937 104.943493941,284.977404497 C104.863740938,285.210153057 104.823865035,285.469753325 104.823865035,285.756213091
C104.823865035,286.039417632 104.863740938,286.294948931 104.943493941,286.522814653 C105.023246944,286.750680376 105.133109126,286.945177129 105.273083785,287.106310747 C105.413058443,287.267444365 105.575003438,287.391141045 105.758923628,287.477404497
C105.942843819,287.563667949 106.140595747,287.606799028 106.352185347,287.606799028 C106.66468691,287.606799028 106.936494087,287.531116191 107.167615034,287.379748247 C107.398735982,287.228380303 107.582653413,287.006214556 107.719372847,286.713244341
C107.970023889,286.836942257 108.22067493,286.960640174 108.471325972,287.084338091 C108.373669234,287.292672466 108.25322773,287.479845073 108.109997847,287.645861528 C107.966767964,287.811877983 107.804822969,287.95347813 107.624158003,288.070666216
C107.443493037,288.187854302 107.244927315,288.27818543 107.028454878,288.341662309 C106.811982442,288.405139189 106.583306343,288.436877153 106.342419722,288.436877153 C105.990855464,288.436877153 105.66615168,288.370959844 105.368298628,288.239123247
C105.070445576,288.10728665 104.81328669,287.922555425 104.596814253,287.684924028 C104.380341817,287.447292632 104.21188647,287.164092339 104.091443159,286.835314653 C103.970999849,286.506536968 103.910779097,286.146840044 103.910779097,285.756213091
C103.910779097,285.365586138 103.974255025,285.005889214 104.101208784,284.677111528 C104.228162544,284.348333843 104.402314449,284.065947344 104.623669722,283.829943559 C104.845024995,283.593939775 105.10381147,283.40920855 105.40003691,283.275744341
C105.696262349,283.142280132 106.013641988,283.075549028 106.352185347,283.075549028 C106.671197359,283.075549028 106.973114912,283.130887016 107.257947066,283.241564653 C107.542779219,283.35224229 107.79261396,283.519883843 108.007458785,283.744494341
C108.178357222,283.744494341 108.34925566,283.744494341 108.520154097,283.744494341 C108.520154097,284.024442257 108.520154097,284.304390174 108.520154097,284.584338091 z"/>
      <path
          style="stroke:none"
          id="3C2E31B0"
          d="M110.863904097,283.23668184 C111.259411909,283.23668184 111.654919721,283.23668184 112.050427534,283.23668184 C112.050427534,283.482450069 112.050427534,283.728218299 112.050427534,283.973986528 C111.651664513,283.973986528 111.252901492,283.973986528 110.854138472,283.973986528
C110.849255659,284.947293819 110.844372846,285.920601111 110.839490034,286.893908403 C110.839490034,287.092477104 110.862276264,287.253608305 110.907849409,287.37730684 C110.953422554,287.501005375 111.026664009,287.58645374 111.127575971,287.633654496
C111.228487934,287.680855253 111.342419087,287.704455278 111.469372847,287.704455278 C111.60609228,287.704455278 111.726533784,287.692248369 111.830700972,287.667834184 C111.934868159,287.643419999 112.048799311,287.601916508 112.172497846,287.543322465
C112.242484826,287.746772986 112.312471805,287.950223507 112.382458784,288.153674028 C112.226208003,288.235054643 112.061821626,288.299344365 111.889294722,288.346545121 C111.716767817,288.393745878 111.513319331,288.417345903 111.278943159,288.417345903
C111.057587886,288.417345903 110.864718721,288.390490703 110.700329878,288.336779496 C110.535941035,288.28306829 110.397596064,288.192737162 110.285290815,288.065783403 C110.172985566,287.938829643 110.08916479,287.768746708 110.033825971,287.555529496
C109.978487153,287.342312285 109.950818159,287.076201664 109.950818159,286.757189653 C109.955700972,285.829455278 109.960583784,284.901720903 109.965466596,283.973986528 C109.696911909,283.973986528 109.428357221,283.973986528 109.159802534,283.973986528
C109.159802534,283.728218299 109.159802534,283.482450069 109.159802534,283.23668184 C109.43161243,283.23668184 109.703422326,283.23668184 109.975232221,283.23668184 C109.975232221,282.833036007 109.975232221,282.429390174 109.975232221,282.02574434
C110.27145618,281.885770382 110.567680138,281.745796424 110.863904097,281.605822465 z"/>
      <path
          style="stroke:none"
          id="5C2E31B0"
          d="M65.725801243,280.89293184 C67.493379368,280.89293184 69.260957493,280.89293184 71.028535618,280.89293184 C71.028535618,281.591174028 71.028535618,282.289416215 71.028535618,282.987658403 C70.6948767638,282.987658403 70.3612179097,282.987658403 70.0275590555,282.987658403
C70.0275590555,282.570991736 70.0275590555,282.154325069 70.0275590555,281.737658403 C69.1470252013,281.737658403 68.2664913472,281.737658403 67.385957493,281.737658403 C67.385957493,282.530301632 67.385957493,283.322944861 67.385957493,284.11558809
C68.2339392638,284.11558809 69.0819210347,284.11558809 69.9299028055,284.11558809 C69.9299028055,284.38902559 69.9299028055,284.66246309 69.9299028055,284.93590059 C69.0819210347,284.93590059 68.2339392638,284.93590059 67.385957493,284.93590059
C67.385957493,285.77574434 67.385957493,286.61558809 67.385957493,287.45543184 C67.6333533263,287.45543184 67.8807491597,287.45543184 68.128144993,287.45543184 C68.128144993,287.735379757 68.128144993,288.015327674 68.128144993,288.29527559
C67.327363743,288.29527559 66.526582493,288.29527559 65.725801243,288.29527559 C65.725801243,288.015327674 65.725801243,287.735379757 65.725801243,287.45543184 C65.960176243,287.45543184 66.194551243,287.45543184 66.428926243,287.45543184
C66.428926243,285.549507361 66.428926243,283.643582882 66.428926243,281.737658403 C66.194551243,281.737658403 65.960176243,281.737658403 65.725801243,281.737658403 z"/>
      <path
          style="stroke:none"
          id="6C2E31B0"
          d="M71.81466843,287.45543184 C72.04904343,287.45543184 72.28341843,287.45543184 72.51779343,287.45543184 C72.51779343,285.578804236 72.51779343,283.702176632 72.51779343,281.825549028 C72.28341843,281.825549028 72.04904343,281.825549028 71.81466843,281.825549028
C71.81466843,281.514676632 71.81466843,281.203804236 71.81466843,280.89293184 C72.59591843,280.89293184 73.37716843,280.89293184 74.15841843,280.89293184 C74.9412960342,283.023465694 75.7241736383,285.153999549 76.5070512425,287.284533403
C77.2996944717,285.153999549 78.0923377008,283.023465694 78.88498093,280.89293184 C79.6255408258,280.89293184 80.3661007217,280.89293184 81.1066606175,280.89293184 C81.1066606175,281.203804236 81.1066606175,281.514676632 81.1066606175,281.825549028
C80.8739132217,281.825549028 80.6411658258,281.825549028 80.40841843,281.825549028 C80.40841843,283.702176632 80.40841843,285.578804236 80.40841843,287.45543184 C80.6411658258,287.45543184 80.8739132217,287.45543184 81.1066606175,287.45543184
C81.1066606175,287.735379757 81.1066606175,288.015327674 81.1066606175,288.29527559 C80.3058793675,288.29527559 79.5050981175,288.29527559 78.7043168675,288.29527559 C78.7043168675,288.015327674 78.7043168675,287.735379757 78.7043168675,287.45543184
C78.9679887425,287.45543184 79.2316606175,287.45543184 79.4953324925,287.45543184 C79.4953324925,285.56090059 79.4953324925,283.66636934 79.4953324925,281.77183809 C78.6327022842,283.946317257 77.7700720758,286.120796424 76.9074418675,288.29527559
C76.6307491592,288.29527559 76.3540564508,288.29527559 76.0773637425,288.29527559 C75.203340305,286.115913611 74.3293168675,283.936551632 73.45529343,281.757189653 C73.45529343,283.656603715 73.45529343,285.556017778 73.45529343,287.45543184
C73.70919968,287.45543184 73.96310593,287.45543184 74.21701218,287.45543184 C74.21701218,287.735379757 74.21701218,288.015327674 74.21701218,288.29527559 C73.41623093,288.29527559 72.61544968,288.29527559 71.81466843,288.29527559
z"/>
      <path
          style="stroke:none"
          id="8C2E31B0"
          d="M42.923951156,288.41246309 C42.4682197107,288.350613823 42.0523710046,288.209013676 41.6763925623,287.987658403 C41.3004141199,287.766303129 40.9781517175,287.485544218 40.7095956873,287.145373246 C40.441039657,286.805202275 40.2335222009,286.417022563 40.0870370935,285.980822465
C39.9405519861,285.544622368 39.867310531,285.082387407 39.867310531,284.594103715 C39.867310531,284.060246879 39.9543864832,283.558949809 40.1285409997,283.090197465 C40.3026955164,282.621445121 40.5468336999,282.213734355 40.8609628747,281.867052934
C41.1750920496,281.520371513 41.5494372644,281.246936747 41.9840097497,281.046740434 C42.4185822351,280.84654412 42.896279281,280.746447465 43.4171152185,280.746447465 C43.9412063806,280.746447465 44.4213448083,280.84654412 44.857544906,281.046740434
C45.2937450037,281.246936747 45.6680902185,281.520371513 45.980591781,281.867052934 C46.2930933435,282.213734355 46.5356039392,282.621445121 46.7081308435,283.090197465 C46.8806577478,283.558949809 46.966919906,284.060246879 46.966919906,284.594103715
C46.966919906,285.088897856 46.8912370691,285.555201786 46.7398691247,285.993029496 C46.5885011804,286.430857206 46.3761009607,286.819850712 46.1026620935,287.160021684 C45.8292232263,287.500192656 45.5020780603,287.780951567 45.121216781,288.00230684
C44.7403555017,288.223662114 44.3204378259,288.362007084 43.861451156,288.417345903 C44.0730407556,288.472684721 44.2423098962,288.537788237 44.369263656,288.612658403 C44.4962174158,288.687528569 44.655721029,288.772976933 44.847779281,288.869006059
C45.039837533,288.965035185 45.231892904,289.013049028 45.423951156,289.013049028 C45.6094989587,289.013049028 45.7746991296,288.966662773 45.9195566247,288.873888871 C46.0644141199,288.78111497 46.1596280115,288.63870103 46.205201156,288.446642778
C46.4525969893,288.558947465 46.6999928227,288.671252153 46.947388656,288.78355684 C46.9083259607,288.965849418 46.8358982996,289.126166826 46.7301034997,289.264513871 C46.6243086999,289.402860917 46.5006120203,289.518419658 46.3590097498,289.611193559
C46.2174074792,289.70396746 46.0652280115,289.773139946 45.902466781,289.81871309 C45.7397055505,289.864286235 45.5802019373,289.887072465 45.423951156,289.887072465 C45.1732988611,289.887072465 44.9381124109,289.841500004 44.7183847497,289.750353715
C44.4986570886,289.659207426 44.2683534021,289.54853145 44.027466781,289.418322465 C43.7865801599,289.288113481 43.5554626794,289.223009965 43.334107406,289.223009965 C43.200643197,289.223009965 43.0639258142,289.244168608 42.923951156,289.286486528
z M43.4171152185,287.53355684 C43.804486947,287.53355684 44.1552321374,287.453805034 44.4693613122,287.294299028 C44.7834904871,287.134793022 45.0512286951,286.920765214 45.2725839685,286.652209184 C45.4939392419,286.383653154 45.6648359705,286.071970073 45.785279281,285.71715059
C45.9057225915,285.362331108 45.9659433435,284.987985893 45.9659433435,284.594103715 C45.9659433435,284.190455864 45.9000260339,283.802276152 45.7681894372,283.429552934 C45.6363528406,283.056829716 45.451621615,282.738636284 45.2139902185,282.47496309
C44.976358822,282.211289897 44.7061792322,282.008655204 44.4034433435,281.867052934 C44.1007074548,281.725450663 43.7719347009,281.65465059 43.4171152185,281.65465059 C43.02974349,281.65465059 42.6781845056,281.734402397 42.3624277185,281.893908403
C42.0466709314,282.053414409 41.7781189294,282.267442216 41.556763656,282.535998246 C41.3354083826,282.804554277 41.1645116541,283.117051152 41.0440683435,283.473498246 C40.923625033,283.829945341 40.863404281,284.203476762 40.863404281,284.594103715
C40.863404281,285.040069487 40.9293215906,285.442083696 41.0611581872,285.800158403 C41.1929947839,286.15823311 41.3679604822,286.456895488 41.586060531,286.696154496 C41.8041605798,286.935413505 42.0751539636,287.134793022 42.3990488122,287.294299028
C42.7229436609,287.453805034 43.0622957361,287.53355684 43.4171152185,287.53355684 z"/>
      <path
          style="stroke:none"
          id="AC2E31B0"
          d="M11.9111328125,237.300950418 C11.9111328125,236.806158752 11.9111328125,236.311367085 11.9111328125,235.816575418 C11.7874342773,236.073738162 11.6328134277,236.297531497 11.447265625,236.487962137 C11.2617178223,236.678392777 11.0550141602,236.835455008 10.8271484375,236.959153543
C10.5992827148,237.082852078 10.3559583252,237.175624588 10.0971679688,237.237473856 C9.838377612306,237.299323123 9.575522167968,237.330247293 9.308593749997,237.330247293 C8.826820507812,237.330247293 8.382489013674,237.249681693 7.975585937502,237.088548074
C7.568682861329,236.927414456 7.200034204102,236.671069364 6.86962890625,236.319505106 C6.539223608398,235.967940848 6.286947485351,235.551278348 6.112792968747,235.069505106 C5.938638452151,234.587731864 5.8515625,234.084807205 5.8515625,233.560716043
C5.8515625,233.033369656 5.938638452151,232.535327762 6.112792968747,232.066575418 C6.286947485351,231.597823074 6.531085668943,231.189298514 6.845214843748,230.840989481 C7.159344018553,230.492680447 7.5336892334,230.219245682 7.968261718751,230.020676981
C8.402834204102,229.82210828 8.874020898441,229.722825418 9.381835937497,229.722825418 C9.850588281251,229.722825418 10.2534162842,229.789556522 10.5903320313,229.923020731 C10.9272477783,230.05648494 11.215330835,230.218429935 11.4545898438,230.408860574
C11.6938488525,230.599291214 11.8850904297,230.780767264 12.0283203125,230.953294168 C12.1861979167,230.953294168 12.3440755208,230.953294168 12.501953125,230.953294168 C12.501953125,231.24300771 12.501953125,231.532721252 12.501953125,231.822434793
C12.1520182292,231.822434793 11.8020833333,231.822434793 11.4521484375,231.822434793 C11.2340483887,231.451339188 10.9451515381,231.158373367 10.5854492188,230.943528543 C10.2257468994,230.728683719 9.822918896487,230.624518094 9.376953124997,230.631028543
C9.002602294919,230.631028543 8.65918125,230.71078035 8.346679687503,230.870286356 C8.034178124998,231.029792362 7.76643991699,231.244633963 7.543457031252,231.514817606 C7.320474145507,231.785001248 7.147136035155,232.095870535 7.023437500001,232.447434793
C6.899738964847,232.798999051 6.837890624997,233.17008909 6.837890624997,233.560716043 C6.837890624997,233.993660916 6.906249316409,234.395675125 7.042968750003,234.766770731 C7.179688183596,235.137866336 7.353840087891,235.438970096 7.565429687497,235.670091043
C7.777019287111,235.90121199 8.038247143556,236.092453568 8.349121093753,236.243821512 C8.659995043943,236.395189456 9.004229882811,236.470872293 9.381835937497,236.470872293 C10.0068390625,236.470872293 10.519529248,236.318692825 10.919921875,236.014329324
C11.320314502,235.709965823 11.6002596191,235.235523953 11.759765625,234.590989481 C11.0696614583,234.590989481 10.3795572917,234.590989481 9.689453124999,234.590989481 C9.689453124999,234.311041564 9.689453124999,234.031093647 9.689453124999,233.751145731
C10.7327473958,233.751145731 11.7760416667,233.751145731 12.8193359375,233.751145731 C12.8193359375,234.93441396 12.8193359375,236.117682189 12.8193359375,237.300950418 z"/>
      <path
          style="stroke:none"
          id="BC2E31B0"
          d="M17.1503906255,236.802903544 C16.9583323735,236.981940897 16.7459321538,237.128423807 16.5131835943,237.242356669 C16.2804350347,237.35628953 16.0159520025,237.413255106 15.719726563,237.413255106 C15.4723294927,237.413255106 15.2452809819,237.374192997 15.0385742193,237.296067606
C14.8318674566,237.217942216 14.6536465825,237.111335209 14.5039062505,236.976243387 C14.3541659185,236.841151566 14.2377933843,236.684089335 14.1547851567,236.505051981 C14.0717769292,236.326014628 14.030273438,236.135586844 14.030273438,235.933762919
C14.030273438,235.718918094 14.0620114019,235.528490311 14.1254882817,235.362473856 C14.1889651616,235.196457401 14.2735997319,235.052415873 14.3793945317,234.93034495 C14.4851893316,234.808274027 14.6088860112,234.70573599 14.7504882817,234.622727762
C14.8920905523,234.539719535 15.0402010503,234.472988431 15.1948242192,234.42253245 C15.3494473882,234.372076469 15.5073234136,234.336269535 15.6684570317,234.315110575 C15.8295906499,234.293951615 15.9833977056,234.283372294 16.129882813,234.283372294
C16.3642589849,234.283372294 16.5611971196,234.290696439 16.7207031255,234.30534495 C16.8802091314,234.319993461 17.0250644536,234.340338309 17.155273438,234.366380106 C17.1569010422,234.228033752 17.1585286463,234.089687398 17.1601562505,233.951341044
C17.1601562505,233.77230369 17.1341148442,233.616869047 17.0820312505,233.48503245 C17.0299476567,233.353195853 16.9567062017,233.244147465 16.862304688,233.157884012 C16.7679031743,233.07162056 16.6547858159,233.007330839 16.5229492193,232.965012919
C16.3911126226,232.922694999 16.2438159185,232.901536356 16.081054688,232.901536356 C15.9280591314,232.901536356 15.7815762212,232.912115677 15.641601563,232.933274637 C15.5016269048,232.954433597 15.3706060796,232.982102592 15.2485351568,233.01628245
C15.1264642339,233.050462308 15.0141606694,233.089524418 14.9116210943,233.13346995 C14.8090815191,233.177415482 14.7220055669,233.223801737 14.6503906255,233.272630106 C14.5511067713,233.062669169 14.4518229172,232.852708231 14.352539063,232.642747294
C14.4729823735,232.564621903 14.6048169927,232.492194242 14.7480468755,232.425462137 C14.8912767583,232.358730033 15.0418286382,232.301764457 15.1997070318,232.2545637 C15.3575854253,232.207362943 15.5187166265,232.169928422 15.6831054693,232.142259012
C15.847494312,232.114589603 16.0094393071,232.100755106 16.168945313,232.100755106 C16.4619155278,232.100755106 16.7255847661,232.135748246 16.959960938,232.205735575 C17.1943371099,232.275722904 17.3929028325,232.383957499 17.555664063,232.530442606
C17.7184252935,232.676927714 17.843749561,232.863286527 17.9316406255,233.089524637 C18.01953169,233.315762748 18.063476563,233.586756132 18.063476563,233.902512919 C18.0618489588,234.745611877 18.0602213547,235.588710835 18.0585937505,236.431809794
C18.2457682297,236.431809794 18.4329427088,236.431809794 18.620117188,236.431809794 C18.620117188,236.71175771 18.620117188,236.991705627 18.620117188,237.271653544 C18.1302083338,237.271653544 17.6402994797,237.271653544 17.1503906255,237.271653544
z M15.9199218755,236.651536356 C16.040365186,236.651536356 16.16080669,236.636888065 16.2812500005,236.607591044 C16.401693311,236.578294022 16.5156244634,236.538418119 16.6230468755,236.487962137 C16.7304692876,236.437506156 16.8297521489,236.378912992 16.920898438,236.312180887
C17.0120447271,236.245448783 17.0885413579,236.176276298 17.1503906255,236.104661356 C17.1520182297,235.723801981 17.1536458338,235.342942606 17.155273438,234.962083231 C16.803710938,234.962083231 16.452148438,234.962083231 16.100585938,234.962083231
C15.9248038091,234.962083231 15.7644864019,234.981614286 15.6196289068,235.020676981 C15.4747714116,235.059739677 15.3494471441,235.116705253 15.2436523443,235.191575419 C15.1378575444,235.266445585 15.055664356,235.359218094 14.997070313,235.469895731
C14.93847627,235.580573368 14.909179688,235.707525223 14.909179688,235.850755106 C14.909179688,235.984219315 14.9335935064,236.100591849 14.9824218755,236.1998762 C15.0312502446,236.299160551 15.10042273,236.382167533 15.1899414067,236.448899637
C15.2794600835,236.515631742 15.3860670903,236.566086967 15.5097656255,236.600266825 C15.6334641607,236.634446683 15.7701815435,236.651536356 15.9199218755,236.651536356 z"/>
      <path
          style="stroke:none"
          id="CC2E31B0"
          d="M19.606445313,232.213059793 C20.1565755213,232.213059793 20.7067057297,232.213059793 21.256835938,232.213059793 C21.256835938,233.619309793 21.256835938,235.025559793 21.256835938,236.431809793 C21.510742188,236.431809793 21.764648438,236.431809793 22.018554688,236.431809793
C22.018554688,236.71175771 22.018554688,236.991705627 22.018554688,237.271653543 C21.217773438,237.271653543 20.416992188,237.271653543 19.616210938,237.271653543 C19.616210938,236.991705627 19.616210938,236.71175771 19.616210938,236.431809793
C19.8570963547,236.431809793 20.0979817713,236.431809793 20.338867188,236.431809793 C20.338867188,235.30550771 20.338867188,234.179205627 20.338867188,233.052903543 C20.094726563,233.052903543 19.850585938,233.052903543 19.606445313,233.052903543
z M20.1679687505,230.421067606 C20.1679687505,230.336431766 20.1850584234,230.255866165 20.2192382818,230.179368387 C20.2534181401,230.102870609 20.2989906011,230.036139505 20.3559570317,229.979173074 C20.4129234624,229.922206644 20.4804683599,229.876634183 20.5585937505,229.842454324
C20.6367191411,229.808274466 20.7197261235,229.791184793 20.807617188,229.791184793 C20.8922530278,229.791184793 20.9728186284,229.808274466 21.0493164068,229.842454324 C21.1258141851,229.876634183 21.1925452886,229.922206644 21.2495117193,229.979173074
C21.3064781499,230.036139505 21.3520506109,230.102870609 21.3862304692,230.179368387 C21.4204103276,230.255866165 21.4375000005,230.336431766 21.4375000005,230.421067606 C21.4375000005,230.50895867 21.4204103276,230.591965653 21.3862304692,230.670091043
C21.3520506109,230.748216434 21.3064781499,230.817388919 21.2495117193,230.877610574 C21.1925452886,230.93783223 21.1258141851,230.985032279 21.0493164068,231.019212137 C20.9728186284,231.053391995 20.8922530278,231.070481668 20.807617188,231.070481668
C20.7197261235,231.070481668 20.6367191411,231.053391995 20.5585937505,231.019212137 C20.4804683599,230.985032279 20.4129234624,230.93783223 20.3559570317,230.877610574 C20.2989906011,230.817388919 20.2534181401,230.748216434 20.2192382818,230.670091043
C20.1850584234,230.591965653 20.1679687505,230.50895867 20.1679687505,230.421067606 z"/>
      <path
          style="stroke:none"
          id="DC2E31B0"
          d="M26.18359375,236.431809794 C26.4212239583,236.431809794 26.6588541667,236.431809794 26.896484375,236.431809794 C26.896484375,235.661953023 26.896484375,234.892096252 26.896484375,234.122239481 C26.896484375,233.734867753 26.7980153076,233.441088138 26.6010742188,233.240891825
C26.4041331299,233.040695511 26.1217466309,232.940598856 25.75390625,232.940598856 C25.5423166504,232.940598856 25.3291026367,232.991054081 25.1142578125,233.091966044 C24.8994129883,233.192878007 24.695964502,233.318202274 24.50390625,233.467942606
C24.50390625,234.455898335 24.50390625,235.443854065 24.50390625,236.431809794 C24.7415364583,236.431809794 24.9791666667,236.431809794 25.216796875,236.431809794 C25.216796875,236.71175771 25.216796875,236.991705627 25.216796875,237.271653544
C24.4290364583,237.271653544 23.6412760417,237.271653544 22.853515625,237.271653544 C22.853515625,236.991705627 22.853515625,236.71175771 22.853515625,236.431809794 C23.087890625,236.431809794 23.322265625,236.431809794 23.556640625,236.431809794
C23.556640625,235.30550771 23.556640625,234.179205627 23.556640625,233.052903544 C23.322265625,233.052903544 23.087890625,233.052903544 22.853515625,233.052903544 C22.853515625,232.772955627 22.853515625,232.49300771 22.853515625,232.213059794
C23.390625,232.213059794 23.927734375,232.213059794 24.46484375,232.213059794 C24.46484375,232.411627502 24.46484375,232.61019521 24.46484375,232.808762919 C24.4680989583,232.808762919 24.4713541667,232.808762919 24.474609375,232.808762919
C24.5820317871,232.714361405 24.6967767334,232.624844071 24.8188476563,232.540208231 C24.9409185791,232.455572391 25.0686842285,232.382330936 25.2021484375,232.320481669 C25.3356126465,232.258632401 25.4747714111,232.209804764 25.6196289063,232.173997294
C25.7644864014,232.138189823 25.9166658691,232.120286356 26.076171875,232.120286356 C26.3463555176,232.120286356 26.5904937012,232.157720878 26.80859375,232.232591044 C27.0266937988,232.30746121 27.2122388184,232.421392362 27.365234375,232.574387919
C27.5182299316,232.727383475 27.6362300537,232.923507816 27.7192382813,233.162766825 C27.8022465088,233.402025834 27.84375,233.684412333 27.84375,234.009934794 C27.84375,234.81722646 27.84375,235.624518127 27.84375,236.431809794
C28.078125,236.431809794 28.3125,236.431809794 28.546875,236.431809794 C28.546875,236.71175771 28.546875,236.991705627 28.546875,237.271653544 C27.7591145833,237.271653544 26.9713541667,237.271653544 26.18359375,237.271653544
z"/>
      <path
          style="stroke:none"
          id="FC2E31B0"
          d="M13.732767901,148.931502215 C13.1256715468,148.202335548 12.5185751927,147.473168881 11.9114788385,146.744002215 C12.1474814427,146.543806902 12.3834840468,146.34361159 12.619486651,146.143416277 C13.1940309218,146.830265236 13.7685751927,147.517114194 14.3431194635,148.203963152
C14.8981324843,147.539900652 15.4531455052,146.875838152 16.008158526,146.211775652 C16.2685751927,146.398950131 16.5289918593,146.586124611 16.789408526,146.77329909 C16.1823121718,147.500838152 15.5752158177,148.228377215 14.9681194635,148.955916277
C15.5817262343,149.688338152 16.1953330052,150.420760027 16.808939776,151.153181902 C16.5631715468,151.346866798 16.3174033177,151.540551694 16.0716350885,151.73423659 C15.5019736302,151.05064284 14.9323121718,150.36704909 14.3626507135,149.68345534
C13.7848512343,150.376814715 13.2070517552,151.07017409 12.629252276,151.763533465 C12.3590699843,151.582869402 12.0888876927,151.40220534 11.818705401,151.221541277 z"/>
      <path
          style="stroke:none"
          id="0D2E31B0"
          d="M21.2718304005,147.867049089 C21.4541229786,147.743350554 21.641295586,147.64976425 21.833353838,147.58628737 C22.02541209,147.522810491 22.2451364552,147.491072527 22.4925335255,147.491072527 C22.8571186817,147.491072527 23.1924017872,147.556176042 23.4983929005,147.686385027
C23.8043840138,147.816594011 24.0672394581,147.992373503 24.2869671192,148.213728777 C24.5066947804,148.43508405 24.6775915089,148.693056731 24.7996624317,148.987654558 C24.9217333546,149.282252385 24.9827679005,149.593935466 24.9827679005,149.922713152
C24.9827679005,150.254746062 24.9225471485,150.569684319 24.802103838,150.86753737 C24.6816605275,151.165390422 24.5107637989,151.426618279 24.2894085255,151.651228777 C24.0680532521,151.875839275 23.8019426319,152.054060149 23.4910686818,152.185896745
C23.1801947316,152.317733342 22.8343323048,152.383650652 22.4534710255,152.383650652 C22.1637560353,152.383650652 21.8935764454,152.345402336 21.6429241505,152.268904558 C21.3922718556,152.19240678 21.1660371388,152.084985979 20.964213213,151.946638933
C20.7623892872,151.808291887 20.587423589,151.643091716 20.4393108692,151.451033464 C20.2911981495,151.258975212 20.1731980275,151.049016374 20.085306963,150.821150652 C20.3522340463,150.68768711 20.6191611297,150.554223568 20.886088213,150.420760027
C20.9381718068,150.586776482 21.0146684376,150.740583537 21.1155804005,150.882185808 C21.2164923634,151.023788078 21.3353062794,151.14585717 21.472025713,151.248396745 C21.6087451466,151.350936321 21.7601108204,151.430688127 21.9261272755,151.487654558
C22.0921437306,151.544620989 22.2679232228,151.573103777 22.4534710255,151.573103777 C22.6878471974,151.573103777 22.9051301808,151.529972698 23.1053264942,151.443709245 C23.3055228077,151.357445793 23.479674712,151.239445671 23.6277874317,151.089705339
C23.7759001515,150.939965007 23.8922726857,150.764999309 23.9769085255,150.564802995 C24.0615443653,150.364606682 24.1038616505,150.150578874 24.1038616505,149.922713152 C24.1038616505,149.691592204 24.0615443653,149.477564397 23.9769085255,149.280623308
C23.8922726857,149.083682219 23.7750863575,148.912785491 23.6253460255,148.767927995 C23.4756056935,148.6230705 23.3006399952,148.509139348 23.1004436817,148.42613112 C22.9002473683,148.343122893 22.6845919728,148.301619402 22.4534710255,148.301619402
C22.1930530567,148.301619402 21.9529838429,148.348005657 21.7332561818,148.440779558 C21.5135285206,148.533553459 21.3304248829,148.658063933 21.1839397755,148.814314714 C20.944681963,148.776879818 20.7054241505,148.739444923 20.466166338,148.702010027
C20.466166338,147.411319923 20.466166338,146.120629818 20.466166338,144.829939714 C21.8561402963,144.829939714 23.2461142547,144.829939714 24.636088213,144.829939714 C24.636088213,145.100122006 24.636088213,145.370304298 24.636088213,145.640486589
C23.5146689422,145.640486589 22.3932496713,145.640486589 21.2718304005,145.640486589 z"/>
      <polyline
          style="fill:none"
          id="2D2E31B0"
          points="105.381889764,119.55511811 105.381889764,111.051181102 102.547244094,111.051181102 102.547244094,119.55511811 96.877952756,119.55511811 96.877952756,113.885826771 94.043307087,113.885826771 91.208661417,113.885826771 91.208661417,116.72047244 88.374015748,116.72047244"/>
      <polyline
          style="fill:none"
          id="3D2E31B0"
          points="48.688976378,136.562992125 48.688976378,130.893700787 54.358267717,136.562992125 57.192913386,133.728346456 62.862204725,136.562992125 62.862204725,130.893700787 65.696850394,133.728346456"/>
      <path
          style="stroke:none"
          id="4D2E31B0"
          d="M36.4879562968,348.224222664 C36.49957512,347.880667359 36.4458254428,347.620892265 36.3267056528,347.444889586 C36.2075858628,347.268886907 36.0744266194,347.132473555 35.9272239277,347.035645438 C35.780021236,346.93881732 35.6174546655,346.862967427 35.4395193393,346.808093481
C35.2615840131,346.753219536 35.0828261678,346.722746283 34.9032404405,346.716672807 C34.6065335869,346.706638369 34.3457637208,346.732018184 34.1209230191,346.792813012 C33.8960823174,346.853607841 33.7084835953,346.940088919 33.5581212248,347.052258843
C33.4077588543,347.164428766 33.2928503943,347.29733818 33.2133923977,347.450991073 C33.133934401,347.604643965 33.0913013364,347.767356797 33.0854919248,347.939134449 C33.0767778075,348.196800927 33.1156189577,348.406239162 33.2020165408,348.567455436
C33.2884141239,348.728671711 33.4002665205,348.859478924 33.5375770863,348.959880999 C33.6748876521,349.060283073 33.8275292374,349.140682865 33.9955064216,349.201082787 C34.1634836058,349.261482708 34.3246263072,349.32165067 34.47893936,349.381588479
C34.868888144,349.523756248 35.258836928,349.665924016 35.6487857119,349.808091785 C36.0002241985,349.933323793 36.309161519,350.072750515 36.5756069416,350.226376134 C36.8420523642,350.380001753 37.0636828234,350.558491587 37.2405049681,350.761850991
C37.4173271127,350.965210395 37.5492036082,351.197337247 37.6361384108,351.458238512 C37.7230732134,351.719139776 37.7607966533,352.019411537 37.7493098622,352.359062804 C37.7368988466,352.726042333 37.6502606323,353.063146926 37.4893926202,353.370386695
C37.3285246081,353.677626463 37.1095096454,353.941856385 36.8323411618,354.163084387 C36.5551726782,354.384312389 36.2279640142,354.554011941 35.8507053536,354.672188135 C35.473446693,354.790364329 35.0622933898,354.841925824 34.6172331093,354.826874167
C34.1604607161,354.811426414 33.7718122161,354.746495682 33.4512759497,354.632080024 C33.1307396834,354.517664366 32.8631242175,354.369864013 32.6484215236,354.188674529 C32.4337188297,354.007485046 32.2637643081,353.80338375 32.1385528601,353.576364519
C32.0133414121,353.349345288 31.9176097298,353.11746372 31.8513549412,352.880712857 C31.7030022562,352.875695663 31.5546495711,352.870678469 31.406296886,352.865661275 C31.4176515882,352.529915725 31.4290062904,352.194170174 31.4403609926,351.858424624
C31.9322672642,351.875060583 32.4241735358,351.891696542 32.9160798074,351.908332501 C32.9014242464,352.341680669 32.9369316366,352.649694373 33.0226030432,352.832382854 C33.1082744499,353.015071335 33.2310796104,353.168722517 33.391022209,353.29334101
C33.5509648075,353.417959503 33.7431270646,353.514352525 33.9675147452,353.582522967 C34.1919024257,353.65069341 34.4407338477,353.689399174 34.7140164761,353.698641419 C34.9794910294,353.707619601 35.2196659832,353.684474613 35.4345485429,353.62920576
C35.6494311026,353.573936908 35.8340358254,353.489308796 35.9883682495,353.375318886 C36.1427006736,353.261328976 36.2627531675,353.120776641 36.3485293328,352.953657666 C36.434305498,352.78653869 36.4808237651,352.595621033 36.4880855296,352.380898968
C36.4961394865,352.142752678 36.4531963122,351.939038381 36.3592547181,351.769749967 C36.2653131241,351.600461553 36.1422439034,351.454618329 35.9900433639,351.33221592 C35.8378428244,351.20981351 35.6702784811,351.108389708 35.4873453071,351.02794147
C35.3044121331,350.947493233 35.127983591,350.877037203 34.958054388,350.816571265 C34.5346573879,350.681089266 34.1112603879,350.545607267 33.6878633878,350.410125267 C33.4096773901,350.314730131 33.1566876145,350.19673774 32.9288864711,350.056144555
C32.7010853277,349.915551369 32.5074616485,349.746802706 32.3480096246,349.549893503 C32.1885576008,349.3529843 32.0682610122,349.125157517 31.9871162499,348.866406319 C31.9059714876,348.607655122 31.8710770094,348.310410368 31.8824317684,347.974663138
C31.8939185594,347.635011872 31.9710466554,347.319082096 32.1138183703,347.026864333 C32.2565900851,346.73464657 32.4605690362,346.481633472 32.725761343,346.267817449 C32.9909536498,346.054001427 33.3121083002,345.889959797 33.6892349287,345.775687641
C34.0663615572,345.661415484 34.4950167508,345.612400114 34.9752133693,345.62864006 C35.2914404107,345.639334659 35.5820085541,345.686291709 35.8469265166,345.76951262 C36.1118444792,345.852733531 36.3503593713,345.965350835 36.5624783484,346.107367911
C36.7745973255,346.249384987 36.9604130468,346.41786959 37.1199310867,346.612826775 C37.2794491265,346.807783959 37.4119857725,347.020390916 37.5175450007,347.250654025 C37.6639456768,347.255605203 37.8103463528,347.260556381 37.9567470289,347.265507559
C37.9453923267,347.60125311 37.9340376245,347.93699866 37.9226829223,348.272744211 z"/>
      <path
          style="stroke:none"
          id="5D2E31B0"
          d="M45.3270776698,348.452803461 C45.0805588113,347.998897031 44.7458973701,347.63777324 44.3230833063,347.369421255 C43.9002692425,347.101069269 43.4233948104,346.957917242 42.8924457038,346.939960879 C42.4395773482,346.924645157 42.022520838,347.006297452 41.6412636613,347.184920212
C41.2600064847,347.363542972 40.9302232338,347.609370115 40.651904015,347.922409015 C40.3735847963,348.235447915 40.1530890405,348.601247306 39.9904101329,349.019818161 C39.8277312252,349.438389016 39.7384711854,349.881910043 39.7226273357,350.350394549
C39.7038787802,350.904767881 39.7692595537,351.398465871 39.9187716179,351.83150333 C40.068283682,352.264540789 40.2700117925,352.627031525 40.5239620011,352.918986412 C40.7779122098,353.2109413 41.0832187025,353.457727444 41.4398906386,353.659352249
C41.7965625746,353.860977054 42.201326649,353.96944569 42.6541950046,353.984761411 C43.2710329373,354.00562248 43.8128801995,353.874449422 44.2797530469,353.591238304 C44.7466258943,353.308027185 45.1536265783,352.830304837 45.500767309,352.158056929
C45.8388415915,352.331692442 46.1769158741,352.505327955 46.5149901566,352.678963468 C46.352377265,353.095582304 46.0868064822,353.494056172 45.7182698412,353.874397027 C45.3497332001,354.254737881 44.9008171205,354.5561398 44.3715081348,354.778611827
C43.8421991491,355.001083853 43.2613263279,355.10162376 42.6288722451,355.080234562 C42.0237464251,355.05976959 41.4712912997,354.926763915 40.9714902951,354.681213548 C40.4716892906,354.435663181 40.0307952286,354.095374446 39.6487948821,353.660337134
C39.2667945357,353.225299823 38.981136017,352.71535818 38.7918107562,352.130496906 C38.6024854954,351.545635632 38.518452708,350.938939074 38.5397098731,350.310389028 C38.5610990702,349.677934945 38.6857311136,349.084157965 38.9136097421,348.529040275
C39.1414883706,347.973922584 39.4508235649,347.494851473 39.841624605,347.09181257 C40.232425645,346.688773667 40.6924737571,346.376022894 41.2217827429,346.153550867 C41.7510917286,345.931078841 42.3202526127,345.830142844 42.9292824703,345.850739849
C43.4719436895,345.869092308 43.9378135737,345.962039505 44.3269060988,346.129584229 C44.715998624,346.297128952 45.0445594075,346.491937546 45.3125983063,346.714015854 C45.580637205,346.936094162 45.8099811451,347.175425745 46.0006370069,347.432017785
C46.2075499624,347.43901545 46.4144629179,347.446013115 46.6213758734,347.453010781 C46.6096250769,347.800468385 46.5978742805,348.14792599 46.586123484,348.495383594 z"/>
      <path
          style="stroke:none"
          id="6D2E31B0"
          d="M54.1434888698,346.405878963 C55.1038773048,346.438358693 56.0642657398,346.470838422 57.0246541748,346.503318152 C57.0132994726,346.839063702 57.0019447704,347.174809253 56.9905900682,347.510554803 C56.7095007702,347.501048541 56.4284114721,347.491542279 56.1473221741,347.482036016
C56.0699517613,349.769790581 55.9925813486,352.057545146 55.9152109359,354.34529971 C56.1963002339,354.354805973 56.477389532,354.364312235 56.75847883,354.373818497 C56.7471241278,354.709564048 56.7357694256,355.045309598 56.7244147234,355.381055149
C55.7640262884,355.348575419 54.8036378534,355.31609569 53.8432494184,355.28361596 C53.8546041206,354.94787041 53.8659588228,354.612124859 53.877313525,354.276379309 C54.1740188952,354.286413697 54.4707242654,354.296448085 54.7674296355,354.306482473
C54.8034081978,353.24263756 54.83938676,352.178792647 54.8753653222,351.114947734 C53.1634534168,351.057051956 51.4515415113,350.999156178 49.7396296058,350.9412604 C49.7036510436,352.005105313 49.6676724814,353.068950226 49.6316939191,354.132795138
C49.9283992893,354.142829526 50.2251046594,354.152863914 50.5218100296,354.162898302 C50.5104553274,354.498643853 50.4991006252,354.834389403 50.487745923,355.170134954 C49.527357488,355.137655224 48.566969053,355.105175494 47.606580618,355.072695765
C47.6179353202,354.736950214 47.6292900224,354.401204664 47.6406447246,354.065459114 C47.9217340227,354.074965376 48.2028233207,354.084471638 48.4839126188,354.0939779 C48.5612830315,351.806223336 48.6386534442,349.518468771 48.7160238569,347.230714206
C48.4349345589,347.221207944 48.1538452608,347.211701682 47.8727559628,347.20219542 C47.884110665,346.866449869 47.8954653672,346.530704319 47.9068200694,346.194958768 C48.8672085044,346.227438498 49.8275969394,346.259918227 50.7879853744,346.292397957
C50.7766306722,346.628143507 50.76527597,346.963889058 50.7539212678,347.299634608 C50.4572158976,347.28960022 50.1605105274,347.279565832 49.8638051573,347.269531444 C49.8335039462,348.165503582 49.803202735,349.061475719 49.7729015239,349.957447857
C51.4848134294,350.015343635 53.1967253349,350.073239413 54.9086372403,350.131135191 C54.9389384514,349.235163054 54.9692396626,348.339190916 54.9995408737,347.443218779 C54.7028355035,347.433184391 54.4061301334,347.423150003 54.1094247632,347.413115615
z"/>
      <path
          style="stroke:none"
          id="7D2E31B0"
          d="M58.6994779094,346.559959632 C59.9311955974,346.601615546 61.1629132854,346.643271459 62.3946309733,346.684927372 C62.7889387657,346.698262612 63.1512354075,346.762302141 63.4815317678,346.877047879 C63.811828128,346.991793617 64.0955733992,347.153819025 64.3327760939,347.363128964
C64.5699787885,347.572438902 64.7518148302,347.82970602 64.8782896741,348.134938034 C65.0047645181,348.440170048 65.0613994864,348.787982715 65.0481962783,349.17838647 C65.0406704497,349.40091661 64.9932279719,349.61916212 64.9058674216,349.833129546
C64.8185068714,350.047096973 64.70044392,350.244389033 64.5516750257,350.425011645 C64.4029061313,350.605634258 64.2284807683,350.764867068 64.0283937039,350.902714853 C63.8283066394,351.040562639 63.6117769267,351.144630399 63.3787980697,351.214921257
C63.4749466555,351.261166472 63.5714426509,351.325987902 63.6682889507,351.409387489 C63.7651352505,351.492787077 63.8555299937,351.593555274 63.9394758922,351.711695104 C64.0234217906,351.829834933 64.0990303515,351.963324847 64.1663038431,352.112168848
C64.2335773347,352.26101285 64.2858468133,352.420095448 64.3231138468,352.589421415 C64.4652974195,353.23912971 64.6074809922,353.888838004 64.749664565,354.538546299 C65.0053777458,354.547194357 65.2610909267,354.555842415 65.5168041076,354.564490473
C65.5081651406,354.935504217 65.4995261736,355.306517961 65.4908872067,355.677531705 C64.9150445475,355.658057071 64.3392018883,355.638582436 63.7633592291,355.619107801 C63.573215453,354.711771871 63.383071677,353.80443594 63.1929279009,352.897100009
C63.088274715,352.408906358 62.9158594545,352.046429853 62.6756769469,351.80965962 C62.4354944393,351.572889386 62.1006861425,351.447244389 61.6712420122,351.43272086 C61.2906002544,351.419847797 60.9099584966,351.406974733 60.5293167388,351.39410167
C60.4943284123,352.428666447 60.4593400857,353.463231225 60.4243517591,354.497796002 C60.7210571293,354.50783039 61.0177624995,354.517864778 61.3144678696,354.527899166 C61.3031131674,354.863644717 61.2917584652,355.199390267 61.280403763,355.535135818
C60.320015328,355.502656088 59.359626893,355.470176358 58.399238458,355.437696629 C58.4105931602,355.101951078 58.4219478624,354.766205528 58.4333025646,354.430459978 C58.7143918627,354.43996624 58.9954811607,354.449472502 59.2765704588,354.458978764
C59.3538748558,352.173176209 59.4311792528,349.887373653 59.5084836498,347.601571098 C59.2273943518,347.592064835 58.9463050537,347.582558573 58.6652157557,347.573052311 z M60.6562649502,347.640388335 C60.6247754562,348.571496635 60.5932859623,349.502604935 60.5617964684,350.433713235
C61.1298310916,350.452923806 61.6978657147,350.472134378 62.2659003378,350.49134495 C62.4884304781,350.498870779 62.693403606,350.476489509 62.8808258708,350.42420047 C63.0682481355,350.37191143 63.2312819513,350.289485137 63.3699322092,350.176919117
C63.508582467,350.064353098 63.618908021,349.922494693 63.7009121808,349.751339648 C63.7829163406,349.580184603 63.8278126934,349.379440983 63.8356025862,349.149102768 C63.8505222114,348.707946525 63.7294055747,348.359907351 63.4722490425,348.104974804
C63.2150925103,347.850042256 62.7976217277,347.712807667 62.2198241706,347.693266919 z"/>
      <path
          style="stroke:none"
          id="8D2E31B0"
          d="M72.2593824116,354.898049255 C72.5053355474,354.906367235 72.7512886831,354.914685214 72.9972418189,354.923003194 C72.7857101416,354.243590208 72.5741784644,353.564177222 72.3626467871,352.884764235 C71.2246255318,352.846277076 70.0866042765,352.807789917 68.9485830212,352.769302758
C68.6974885621,353.433070021 68.446394103,354.096837283 68.195299644,354.760604546 C68.4998130502,354.770902997 68.8043264564,354.781201448 69.1088398626,354.791499899 C69.0974851604,355.127245449 69.0861304582,355.462990999 69.074775756,355.79873655
C68.114387321,355.76625682 67.153998886,355.733777091 66.193610451,355.701297361 C66.2049651532,355.365551811 66.2163198554,355.02980626 66.2276745576,354.69406071 C66.4853397475,354.702774784 66.7430049374,354.711488857 67.0006701273,354.720202931
C68.0107434969,352.127862231 69.0208168665,349.535521532 70.0308902362,346.943180832 C70.6067328954,346.962655467 71.1825755546,346.982130101 71.7584182138,347.001604736 C72.5890893445,349.656198251 73.4197604753,352.310791765 74.2504316061,354.96538528
C74.5471369762,354.975419668 74.8438423464,354.985454056 75.1405477165,354.995488444 C75.1291930143,355.331233995 75.1178383121,355.666979545 75.1064836099,356.002725095 C74.1460951749,355.970245366 73.1857067399,355.937765636 72.2253183049,355.905285907
z M69.3152523865,351.808490955 C70.2287926051,351.839386308 71.1423328238,351.87028166 72.0558730424,351.901177013 C71.6399575668,350.562135193 71.2240420912,349.223093374 70.8081266155,347.884051555 z
M68.7421172128,345.00593521 C68.7455500469,344.904430234 68.7693136816,344.808499912 68.8134088298,344.718141366 C68.8575039779,344.627782821 68.9148663008,344.549599673 68.9854975194,344.483589577 C69.0561287379,344.417579481 69.1380087285,344.365630393 69.2311399478,344.327740752
C69.324271167,344.289851112 69.421587805,344.272622967 69.5230927813,344.276055801 C69.62069372,344.279356603 69.7136960577,344.303021215 69.8021025844,344.347050348 C69.8905091112,344.39107948 69.9667402696,344.448375788 70.0307983465,344.51894099
C70.0948564234,344.589506193 70.1448535227,344.671320168 70.1807911442,344.764385371 C70.2167287658,344.857450575 70.2329809158,344.954734205 70.2295480816,345.056239181 C70.2259832155,345.161648195 70.2030965529,345.260539509 70.1608874075,345.352916089
C70.1186782621,345.445292669 70.0631689061,345.526469817 69.9943576743,345.596449966 C69.9255464424,345.666430115 69.8455524262,345.720397208 69.7543732257,345.758352865 C69.6631940253,345.796308521 69.5688053715,345.813635689 69.4712044328,345.810334886
C69.3696994566,345.806902052 69.2737691346,345.783138418 69.1834105891,345.73904327 C69.0930520436,345.694948121 69.0149349108,345.635633809 68.9490568472,345.561098553 C68.8831787836,345.486563297 68.8313287174,345.401755322 68.7935050931,345.306672084
C68.7556814687,345.211588846 68.7385523466,345.111344224 68.7421172128,345.00593521 z M71.4300336254,345.096838843 C71.4334664595,344.995333867 71.4572300942,344.899403545 71.5013252424,344.809044999 C71.5454203905,344.718686454 71.6027827134,344.640503306 71.6734139319,344.57449321
C71.7440451505,344.508483115 71.8259251411,344.456534026 71.9190563604,344.418644386 C72.0121875796,344.380754745 72.1095042176,344.363526601 72.2110091939,344.366959435 C72.3086101326,344.370260237 72.4006364755,344.393891841 72.4870909835,344.437854957
C72.5735454915,344.481818073 72.6497766498,344.539114381 72.7157867455,344.6097456 C72.7817968412,344.680376818 72.8327699352,344.762223802 72.8687075568,344.855289005 C72.9046451784,344.948354208 72.9208973283,345.045637838 72.9174644942,345.147142815
C72.913899628,345.252551828 72.8910129655,345.351443142 72.8488038201,345.443819722 C72.8065946747,345.536196303 72.7501093239,345.617340442 72.6793460733,345.687254576 C72.6085828227,345.757168709 72.5285888065,345.811135802 72.4393616248,345.849157475
C72.3501344431,345.887179147 72.2567217841,345.904539322 72.1591208454,345.90123852 C72.0576158691,345.897805686 71.9616855472,345.874042051 71.8713270017,345.829946903 C71.7809684561,345.785851755 71.7028513233,345.726537442 71.6369732597,345.652002186
C71.5710951961,345.57746693 71.5192451299,345.492658955 71.4814215056,345.397575717 C71.4435978813,345.302492479 71.4264687592,345.202247857 71.4300336254,345.096838843 z"/>
      <path
          style="stroke:none"
          id="9D2E31B0"
          d="M82.5190255632,356.288588926 C82.5390943392,355.695178186 82.5591631152,355.101767446 82.5792318912,354.508356705 C82.42044793,354.811758452 82.2259318586,355.073885578 81.9956778416,355.294745946 C81.7654238246,355.515606314 81.5111507065,355.695589389 81.232850859,355.83470057
C80.9545510115,355.973811751 80.6589657243,356.075205902 80.3460861296,356.138886065 C80.033206535,356.202566228 79.7167059457,356.228992598 79.3965748667,356.218165967 C78.8187773095,356.198625219 78.2891519226,356.083979631 77.8076828171,355.874225762
C77.3262137115,355.664471893 76.8944854616,355.342081139 76.5124851151,354.907043827 C76.1304847687,354.472006516 75.84482625,353.962064873 75.6555009892,353.377203599 C75.4661757284,352.792342325 75.382142941,352.185645767 75.4034001061,351.557095721
C75.4247893032,350.924641638 75.5494213466,350.330864658 75.7772999751,349.775746968 C76.0051786036,349.220629277 76.3145468054,348.740582172 76.7054138615,348.33559125 C77.0962809176,347.930600328 77.5563290297,347.617849555 78.0855719994,347.397329547
C78.6148149691,347.176809539 79.1839428457,347.076849537 79.7929727033,347.097446542 C80.3551541103,347.116459162 80.835564893,347.212829456 81.234219464,347.386560316 C81.6328740349,347.560291176 81.9718076779,347.766198794 82.2510305609,348.004289349
C82.530253444,348.242379903 82.7522515314,348.4677835 82.9170314833,348.680506902 C83.1063763577,348.686910426 83.295721232,348.69331395 83.4850661064,348.699717474 C83.4733153099,349.047175078 83.4615645135,349.394632683 83.449813717,349.742090287
C83.0301317789,349.727896909 82.6104498409,349.713703532 82.1907679028,349.699510154 C81.9442490443,349.245603724 81.6096536182,348.882527944 81.1869715864,348.61027192 C80.7642895547,348.338015897 80.2853971181,348.196749845 79.7502799098,348.186469525
C79.3013155917,348.171285835 78.886211071,348.253004145 78.5049538943,348.431626905 C78.1236967177,348.610249665 77.7938804593,348.857052803 77.5154952245,349.172043721 C77.2371099897,349.48703464 77.0166142339,349.852834031 76.8540013423,350.269452867
C76.6913884507,350.686071703 76.6021614184,351.128616736 76.5863175687,351.597101242 C76.5687573019,352.116338236 76.6344351432,352.601252273 76.783353063,353.051857901 C76.9322709828,353.502463529 77.1289210743,353.870645196 77.3733092372,354.156413947
C77.6176974001,354.442182698 77.9232349455,354.682136879 78.2899310396,354.876283689 C78.6566271337,355.070430499 79.0664032119,355.175160193 79.5192715675,355.190475915 C80.2688467768,355.215826074 80.8898958747,355.054109798 81.3824374927,354.705322233
C81.8749791108,354.356534668 82.229964691,353.798884319 82.4474048829,353.032354456 C81.6197530609,353.004363795 80.7921012389,352.976373134 79.9644494168,352.948382473 C79.975804119,352.612636922 79.9871588213,352.276891372 79.9985135235,351.941145821
C81.2497513016,351.983461892 82.5009890797,352.025777962 83.7522268578,352.068094033 C83.7042334363,353.487204586 83.6562400147,354.906315139 83.6082465932,356.325425693 z"/>
      <line
          style="fill:none"
          id="BD2E31B0"
          x1="17.507874016"
          y1="200.801027162"
          x2="17.507874016"
          y2="179.082677165"/>
      <path
          style="fill:none"
          id="CD2E31B0"
          d="M43.019685039,249.948818897 C46.595194497,232.086093684 57.573395087,225.774290689 57.192913385,215.933070866"/>
      <path
          style="fill:none"
          id="DD2E31B0"
          d="M74.200787401,249.948818897 C76.040594297,235.604040931 95.958028314,226.22408904 96.877952755,207.429133858"/>
      <path
          style="stroke:none"
          id="ED2E31B0"
          d="M19.4569430892,46.5234220161 C18.9416066263,46.5285999169 18.467797903,46.65430293 18.0355027051,46.9005348265 C17.6032075072,47.146766723 17.2568339454,47.4986936189 16.9963716286,47.9563260723 C16.7742125936,48.3466596355 16.6543824486,48.750677148 16.6368775987,49.1683907305
C16.6193727488,49.586104313 16.6850652693,49.9899085807 16.8339571311,50.3798156477 C16.9828489929,50.7697227148 17.2050776868,51.1334278168 17.5006498797,51.470941865 C17.7962220726,51.8084559133 18.1476978803,52.0931420257 18.5550878473,52.3250087429
C19.0371659749,52.5993843584 19.5042881502,52.7716949365 19.956468387,52.8419456465 C20.4086486239,52.9121963566 20.8224350428,52.9037980313 21.1978400576,52.8167504185 C21.5732450724,52.7297028058 21.9323240464,52.5765677759 22.2750877522,52.3573407347
C22.617851458,52.1381136935 22.9003085915,51.833337963 23.1224676265,51.4430043998 C23.4250635535,50.9113431672 23.5585410624,50.3747638298 23.5229041575,49.8332502898 C23.4872672526,49.2917367499 23.2518764568,48.7122739935 22.8167247081,48.0948446364
C23.1261466316,47.8789178389 23.4355685551,47.6629910414 23.7449904786,47.4470642439 C24.0388652132,47.7836121808 24.2692537071,48.2020790353 24.4361628718,48.7024773614 C24.6030720365,49.2028756875 24.6630821944,49.7370927296 24.6161951459,50.3051445142
C24.5693080973,50.8731962989 24.3907389599,51.4297743478 24.0804823765,51.9748953584 C23.7836319419,52.4964617575 23.4114253371,52.9194424931 22.9638513958,53.2438502547 C22.5162774546,53.5682580163 22.0119779856,53.7968893787 21.4509378597,53.929751201
C20.8898977338,54.0626130232 20.306931963,54.0760715224 19.702023058,53.9701271024 C19.0971141529,53.8641826824 18.5213775671,53.6556696773 17.974796028,53.3445818316 C17.4248195726,53.0315617633 16.9566350271,52.6459252177 16.5702283458,52.1876606257
C16.1838216645,51.7293960337 15.9022499172,51.235021725 15.7255046566,50.7045228682 C15.5487593961,50.1740240115 15.483831264,49.6247569298 15.5307183126,49.0567051451 C15.5776053611,48.4886533604 15.7504290924,47.9421699937 16.0491946912,47.4172386501
C16.3154025004,46.9495113632 16.6122673375,46.5838849037 16.9397981085,46.3203483026 C17.2673288795,46.0568117015 17.5911104143,45.85908514 17.9111524263,45.7271626861 C18.2311944383,45.5952402323 18.5486846909,45.505305394 18.8636327088,45.4573554732
C18.9651358983,45.2790143058 19.0666390878,45.1006731385 19.1681422773,44.9223319712 C19.4702883254,45.0942989267 19.7724343735,45.2662658821 20.0745804216,45.4382328376 z"/>
      <path
          style="stroke:none"
          id="FD2E31B0"
          d="M18.416841366,43.6126493664 C18.8870118004,42.7865596197 19.3571822348,41.960469873 19.8273526692,41.1343801262 C20.1210114688,41.3015165492 20.4146702684,41.4686529722 20.7083290679,41.6357893952 C20.5599045927,41.8965712908 20.4114801175,42.1573531865 20.2630556423,42.4181350821
C21.4614551365,43.100206265 22.6598546307,43.782277448 23.8582541249,44.4643486309 C24.2894085066,44.7097409067 24.6841933725,44.8709511304 25.0426205662,44.9479841385 C25.40104776,45.0250171466 25.7245207861,45.0331539694 26.013049349,44.972394851
C26.301577912,44.9116357327 26.5565242346,44.789445079 26.7778959653,44.6058192243 C26.9992676961,44.4221933696 27.1894300189,44.1907387169 27.3483886388,43.9114483226 C27.5130927509,43.6220630948 27.6253474921,43.3340162388 27.6851562299,43.0472991133
C27.7449649677,42.7605819878 27.7316735398,42.4779272767 27.6452815473,42.1993265003 C27.5588895549,41.920725724 27.3893672231,41.6460459221 27.1367094664,41.3752788543 C26.8840517097,41.1045117865 26.5285713071,40.8387072112 26.0702575943,40.5778571543
C24.8718581001,39.8957859714 23.6734586059,39.2137147884 22.4750591117,38.5316436055 C22.3180164411,38.8075676757 22.1609737706,39.0834917459 22.0039311,39.3594158161 C21.7102723004,39.1922793931 21.4166135009,39.0251429701 21.1229547013,38.8580065471
C21.5931251357,38.0319168003 22.0632955701,37.2058270536 22.5334660045,36.3797373068 C22.8271248041,36.5468737298 23.1207836037,36.7140101528 23.4144424032,36.8811465758 C23.2851694732,37.1082791946 23.1558965432,37.3354118134 23.0266236131,37.5625444321
C24.1876792138,38.2233612723 25.3487348144,38.8841781124 26.509790415,39.5449949525 C27.0665567032,39.8618794661 27.5169402992,40.2195649831 27.8609547146,40.618062234 C28.20496913,41.016559485 28.4473051257,41.4318027636 28.5879699719,41.8638045273
C28.7286348181,42.295806291 28.7720422007,42.7348170727 28.718193422,43.1808500429 C28.6643446433,43.6268830131 28.5196398327,44.0568371362 28.284074649,44.4707253109 C28.0542549577,44.8745186521 27.7645939724,45.2097197471 27.4150830032,45.4763386521
C27.0655720341,45.7429575571 26.672325893,45.9245364232 26.2353327824,46.021080698 C25.7983396717,46.1176249728 25.329299122,46.1224184167 24.8281970619,46.0354611735 C24.3270950017,45.9485039304 23.8083533579,45.7523826617 23.271956568,45.447091484
C22.0803468727,44.768884727 20.8887371773,44.0906779701 19.6971274819,43.4124712131 C19.5640242428,43.6463336872 19.4309210038,43.8801961614 19.2978177647,44.1140586355 z"/>
      <path
          style="stroke:none"
          id="0E2E31B0"
          d="M30.8599128264,37.6706246517 C30.9930160655,37.4367621776 31.1261193045,37.2028997034 31.2592225436,36.9690372293 C29.2562318876,35.8290315695 27.2532412315,34.6890259096 25.2502505755,33.5490202497 C24.9189288437,34.1311527393 24.587607112,34.7132852288 24.2562853802,35.2954177184
C24.6568835114,35.5234188504 25.0574816426,35.7514199824 25.4580797738,35.9794211143 C25.2617764356,36.3243262021 25.0654730974,36.6692312898 24.8691697592,37.0141363776 C24.1901898758,36.627693781 23.5112099924,36.2412511844 22.832230109,35.8548085879
C24.1268745638,33.5801174726 25.4215190186,31.3054263573 26.7161634735,29.030735242 C27.3951433569,29.4171778386 28.0741232403,29.8036204351 28.7531031237,30.1900630317 C28.5567997855,30.5349681194 28.3604964473,30.8798732072 28.1641931091,31.2247782949
C27.7635949779,30.996777163 27.3629968467,30.768776031 26.9623987155,30.540774899 C26.5793678117,31.2137604361 26.1963369079,31.8867459732 25.8133060041,32.5597315102 C27.8162966601,33.6997371701 29.8192873162,34.83974283 31.8222779722,35.9797484898
C31.9716600247,35.7172841304 32.1210420771,35.4548197709 32.2704241296,35.1923554115 C32.5623854795,35.358525728 32.8543468293,35.5246960445 33.1463081792,35.690866361 C32.6761377448,36.5169561078 32.2059673104,37.3430458545 31.735796876,38.1691356013
z"/>
      <path
          style="stroke:none"
          id="1E2E31B0"
          d="M37.0020299151,29.2717282656 C36.7013491522,29.8000245537 36.3272274121,30.2263701833 35.8796534708,30.5507779449 C35.4320795296,30.8751857066 34.9273012768,31.1046582925 34.3653035688,31.239202587 C33.8033058609,31.3737468815 33.22034009,31.3872053807 32.6163887671,31.2795784884
C32.0124374441,31.1719515962 31.4405745075,30.9645295612 30.9007828013,30.6573061608 C30.3440165131,30.3404216472 29.8724371021,29.952852908 29.4860304208,29.494588316 C29.0996237395,29.036323724 28.8180519922,28.5419494153 28.6413067316,28.0114505585
C28.4645614711,27.4809517017 28.399633339,26.9316846201 28.4465203876,26.3636328354 C28.4934074361,25.7955810507 28.6700614382,25.2423678958 28.9764876933,24.7039767742 C29.2848291126,24.1622207081 29.6717036924,23.7253137929 30.1371230392,23.3932429211
C30.602542386,23.0611720494 31.1079516525,22.8365135028 31.6533660013,22.7192605414 C32.1987803501,22.60200758 32.7666648348,22.5933302303 33.3570364922,22.693228232 C33.9474081496,22.7931262337 34.5209685189,23.0015143655 35.0777348071,23.3183988791
C35.6345010954,23.6352833927 36.10523179,24.0223690835 36.4899410131,24.4796675641 C36.8746502362,24.9369660448 37.1562219835,25.4313403535 37.3346647023,25.9628053217 C37.513107421,26.4942702898 37.5788842694,27.0440204198 37.5319972209,27.6120722045
C37.4851101723,28.1801239892 37.3084561703,28.733337144 37.0020299151,29.2717282656 z M36.0548529778,28.7326408434 C36.282757505,28.3322124467 36.4059391369,27.9223063697 36.4244015689,27.5029103149 C36.4428640008,27.0835142601 36.3771714803,26.6797099925 36.2273220364,26.2914853977
C36.0774725926,25.9032608029 35.8529588308,25.541596323 35.5537740156,25.2064811079 C35.2545892005,24.8713658929 34.8996096759,24.5869130822 34.4888247926,24.3531141423 C34.06785516,24.1135185345 33.622538529,23.9502774478 33.15286154,23.8633859851
C32.6831845509,23.7764945224 32.2431313032,23.7777391051 31.832688595,23.8671197706 C31.4222458868,23.956500436 31.0512627894,24.1206798 30.7197281733,24.359662788 C30.3881935572,24.5986457759 30.1228416965,24.8931099674 29.9236646307,25.2430641965
C29.6957601034,25.6434925931 29.5720996877,26.0542398937 29.5526796737,26.4753184207 C29.5332596597,26.8963969478 29.5984733964,27.3010424389 29.7483228402,27.6892670337 C29.8981722841,28.0774916285 30.1235347622,28.4396391568 30.4244170356,28.7757204832
C30.7252993089,29.1118018096 31.0794301171,29.3957715718 31.4868200841,29.6276382891 C31.9621083789,29.8981494592 32.4248781211,30.0702102907 32.8751431938,30.1438259453 C33.3254082666,30.2174415999 33.7382371178,30.2107257215 34.1136421326,30.1236781088
C34.4890471474,30.036630496 34.8494536216,29.883137291 35.1948723677,29.6631938889 C35.5402911137,29.4432504868 35.8269484505,29.1330692401 36.0548529778,28.7326408434 z"/>
      <path
          style="stroke:none"
          id="3E2E31B0"
          d="M31.921553456,19.8848617932 C32.9614823598,18.0577060601 34.0014112636,16.2305503269 35.0413401674,14.4033945938 C35.7695460923,14.8178542786 36.4977520173,15.2323139634 37.2259579422,15.6467736482 C37.029654604,15.991678736 36.8333512658,16.3365838237 36.6370479277,16.6814889115
C36.2025008023,16.4341656497 35.7679536769,16.1868423879 35.3334065515,15.9395191261 C34.8153572541,16.849732065 34.2973079568,17.7599450039 33.7792586594,18.6701579428 C34.6059166674,19.1406518041 35.4325746755,19.6111456654 36.2592326835,20.0816395267
C36.7581304357,19.2050758647 37.2570281879,18.3285122026 37.7559259401,17.4519485406 C38.0410974911,17.6142544312 38.3262690421,17.7765603217 38.6114405932,17.9388662123 C38.112542841,18.8154298743 37.6136450888,19.6919935363 37.1147473366,20.5685571984
C37.9906313862,21.0670681479 38.8665154357,21.5655790975 39.7423994853,22.0640900471 C39.8879512288,21.808355543 40.0335029722,21.5526210389 40.1790547157,21.2968865348 C40.4710160655,21.4630568513 40.7629774154,21.6292271679 41.0549387652,21.7953974844
C40.5838107536,22.623169695 40.1126827419,23.4509419056 39.6415547302,24.2787141162 C39.3495933804,24.1125437996 39.0576320305,23.9463734831 38.7656706807,23.7802031666 C38.903561806,23.5379283733 39.0414529314,23.2956535799 39.1793440568,23.0533787866
C37.1916304481,21.9220680851 35.2039168395,20.7907573837 33.2162032308,19.6594466822 C33.0783121054,19.9017214756 32.9404209801,20.1439962689 32.8025298547,20.3862710623 z"/>
      <path
          style="stroke:none"
          id="4E2E31B0"
          d="M35.503849984,13.5907645578 C36.5437788878,11.7636088247 37.5837077916,9.936453091545 38.6236366954,8.1092973584 C39.3518426203,8.523757043216 40.0800485453,8.938216728032 40.8082544702,9.352676412849 C40.611951132,9.697581500591 40.4156477938,10.0424865883 40.2193444557,10.3873916761
C39.7847973303,10.1400684143 39.3502502049,9.892745152487 38.9157030795,9.645421890687 C38.3976537821,10.5556348296 37.8796044848,11.4658477685 37.3615551874,12.3760607074 C38.1882131954,12.8465545687 39.0148712035,13.31704843 39.8415292115,13.7875422913
C40.3404269637,12.9109786293 40.8393247159,12.0344149672 41.3382224681,11.1578513052 C41.6233940191,11.3201571958 41.9085655701,11.4824630863 42.1937371212,11.6447689769 C41.694839369,12.5213326389 41.1959416168,13.3978963009 40.6970438646,14.274459963
C41.5729279142,14.7729709125 42.4488119637,15.2714818621 43.3246960133,15.7699928117 C43.4702477568,15.5142583076 43.6157995002,15.2585238035 43.7613512437,15.0027892994 C44.0533125935,15.1689596159 44.3452739434,15.3351299325 44.6372352932,15.501300249
C44.1661072816,16.3290724596 43.6949792699,17.1568446702 43.2238512582,17.9846168808 C42.9318899084,17.8184465642 42.6399285585,17.6522762477 42.3479672087,17.4861059312 C42.485858334,17.2438311379 42.6237494594,17.0015563445 42.7616405848,16.7592815512
C40.7739269761,15.6279708497 38.7862133675,14.4966601483 36.7984997588,13.3653494468 C36.6606086334,13.6076242402 36.5227175081,13.8498990335 36.3848263827,14.0921738269 z"/>
      <g
          id="7E2E31B0">
         <path
             style="stroke:none"
             id="6E2E31B0"
             d="M51.427888164,112.664431594 C50.9721567187,112.602582327 50.5563080126,112.46098218 50.1803295703,112.239626907 C49.8043511279,112.018271633 49.4820887255,111.737512722 49.2135326953,111.39734175 C48.944976665,111.057170779 48.7374592089,110.668991067 48.5909741015,110.232790969
C48.4444889941,109.796590872 48.371247539,109.334355911 48.371247539,108.846072219 C48.371247539,108.312215383 48.4583234912,107.810918313 48.6324780077,107.342165969 C48.8066325244,106.873413625 49.0507707079,106.465702859 49.3648998827,106.119021438
C49.6790290576,105.772340017 50.0533742724,105.498905251 50.4879467577,105.298708938 C50.9225192431,105.098512624 51.400216289,104.998415969 51.9210522265,104.998415969 C52.4451433886,104.998415969 52.9252818163,105.098512624 53.361481914,105.298708938
C53.7976820117,105.498905251 54.1720272265,105.772340017 54.484528789,106.119021438 C54.7970303515,106.465702859 55.0395409472,106.873413625 55.2120678515,107.342165969 C55.3845947558,107.810918313 55.470856914,108.312215383 55.470856914,108.846072219
C55.470856914,109.34086636 55.3951740771,109.80717029 55.2438061327,110.244998 C55.0924381884,110.68282571 54.8800379687,111.071819216 54.6065991015,111.411990188 C54.3331602343,111.75216116 54.0060150683,112.032920071 53.625153789,112.254275344
C53.2442925097,112.475630618 52.8243748339,112.613975588 52.365388164,112.669314407 C52.5769777636,112.724653225 52.7462469042,112.789756741 52.873200664,112.864626907 C53.0001544238,112.939497073 53.159658037,113.024945437 53.351716289,113.120974563
C53.543774541,113.217003689 53.735829912,113.265017532 53.927888164,113.265017532 C54.1134359667,113.265017532 54.2786361376,113.218631277 54.4234936327,113.125857375 C54.5683511279,113.033083474 54.6635650195,112.890669534 54.709138164,112.698611282
C54.9565339973,112.810915969 55.2039298307,112.923220657 55.451325664,113.035525344 C55.4122629687,113.217817922 55.3398353076,113.37813533 55.2340405077,113.516482375 C55.1282457079,113.654829421 55.0045490283,113.770388162 54.8629467578,113.863162063
C54.7213444872,113.955935964 54.5691650195,114.02510845 54.406403789,114.070681594 C54.2436425585,114.116254739 54.0841389453,114.139040969 53.927888164,114.139040969 C53.6772358691,114.139040969 53.4420494189,114.093468508 53.2223217577,114.002322219
C53.0025940966,113.91117593 52.7722904101,113.800499954 52.531403789,113.670290969 C52.2905171679,113.540081985 52.0593996874,113.474978469 51.838044414,113.474978469 C51.704580205,113.474978469 51.5678628222,113.496137112 51.427888164,113.538455032
z M51.9210522265,111.785525344 C52.308423955,111.785525344 52.6591691454,111.705773538 52.9732983202,111.546267532 C53.2874274951,111.386761526 53.5551657031,111.172733718 53.7765209765,110.904177688 C53.9978762499,110.635621658 54.1687729785,110.323938577 54.289216289,109.969119094
C54.4096595995,109.614299612 54.4698803515,109.239954397 54.4698803515,108.846072219 C54.4698803515,108.442424368 54.4039630419,108.054244656 54.2721264452,107.681521438 C54.1402898486,107.30879822 53.955558623,106.990604788 53.7179272265,106.726931594
C53.48029583,106.463258401 53.2101162402,106.260623708 52.9073803515,106.119021438 C52.6046444628,105.977419167 52.2758717089,105.906619094 51.9210522265,105.906619094 C51.533680498,105.906619094 51.1821215136,105.986370901 50.8663647265,106.145876907
C50.5506079394,106.305382913 50.2820559374,106.51941072 50.060700664,106.78796675 C49.8393453906,107.056522781 49.6684486621,107.369019656 49.5480053515,107.72546675 C49.427562041,108.081913845 49.367341289,108.455445266 49.367341289,108.846072219
C49.367341289,109.292037991 49.4332585986,109.6940522 49.5650951952,110.052126907 C49.6969317919,110.410201614 49.8718974902,110.708863992 50.089997539,110.948123 C50.3080975878,111.187382009 50.5790909716,111.386761526 50.9029858202,111.546267532
C51.2268806689,111.705773538 51.5662327441,111.785525344 51.9210522265,111.785525344 z"/>
      </g>
   </g>
</svg>
