G04 #@! TF.GenerationSoftware,KiCad,Pcbnew,(5.0.1-3-g963ef8bb5)*
G04 #@! TF.CreationDate,2020-06-22T21:03:06+02:00*
G04 #@! TF.ProjectId,Schraeg,536368726165672E6B696361645F7063,rev?*
G04 #@! TF.SameCoordinates,Original*
G04 #@! TF.FileFunction,Profile,NP*
%FSLAX46Y46*%
G04 Gerber Fmt 4.6, Leading zero omitted, Abs format (unit mm)*
G04 Created by KiCad (PCBNEW (5.0.1-3-g963ef8bb5)) date Monday, 22 June 2020 at 21:03:06*
%MOMM*%
%LPD*%
G01*
G04 APERTURE LIST*
%ADD10C,0.150000*%
G04 APERTURE END LIST*
D10*
X34600000Y-125500000D02*
G75*
G03X34600000Y-125500000I-1600000J0D01*
G01*
X9100000Y-125500000D02*
G75*
G03X9100000Y-125500000I-1600000J0D01*
G01*
X34600000Y-3000000D02*
G75*
G03X34600000Y-3000000I-1600000J0D01*
G01*
X9100000Y-3000000D02*
G75*
G03X9100000Y-3000000I-1600000J0D01*
G01*
X28500000Y-20000000D02*
G75*
G03X28500000Y-20000000I-3500000J0D01*
G01*
X12500000Y-39100000D02*
G75*
G03X12500000Y-39100000I-3500000J0D01*
G01*
X32300000Y-45200000D02*
X35700000Y-45200000D01*
X18300000Y-51200000D02*
X21700000Y-51200000D01*
X35699999Y-45200001D02*
G75*
G02X32300001Y-45200001I-1699999J-1799999D01*
G01*
X21699999Y-51200001D02*
G75*
G02X18300001Y-51200001I-1699999J-1799999D01*
G01*
X7699999Y-56200001D02*
G75*
G02X4300001Y-56200001I-1699999J-1799999D01*
G01*
X4300000Y-56200000D02*
X7700000Y-56200000D01*
X36744996Y-69000000D02*
G75*
G03X36744996Y-69000000I-3244996J0D01*
G01*
X23244996Y-72000000D02*
G75*
G03X23244996Y-72000000I-3244996J0D01*
G01*
X10244996Y-75000000D02*
G75*
G03X10244996Y-75000000I-3244996J0D01*
G01*
X39000000Y-93000000D02*
G75*
G03X39000000Y-93000000I-3500000J0D01*
G01*
X29000000Y-93000000D02*
G75*
G03X29000000Y-93000000I-3500000J0D01*
G01*
X19000000Y-93000000D02*
G75*
G03X19000000Y-93000000I-3500000J0D01*
G01*
X9000000Y-93000000D02*
G75*
G03X9000000Y-93000000I-3500000J0D01*
G01*
X37000000Y-110000000D02*
G75*
G03X37000000Y-110000000I-3500000J0D01*
G01*
X24000000Y-110000000D02*
G75*
G03X24000000Y-110000000I-3500000J0D01*
G01*
X10000000Y-110000000D02*
G75*
G03X10000000Y-110000000I-3500000J0D01*
G01*
X40500000Y-106000000D02*
X40500000Y-26000000D01*
X45000000Y-106000000D02*
X40500000Y-106000000D01*
X45000000Y-26000000D02*
X45000000Y-106000000D01*
X40500000Y-26000000D02*
X45000000Y-26000000D01*
X0Y-128500000D02*
X0Y0D01*
X40500000Y-128500000D02*
X0Y-128500000D01*
X40500000Y-111000000D02*
X40500000Y-128500000D01*
X45000000Y-111000000D02*
X40500000Y-111000000D01*
X45000000Y-119700000D02*
X45000000Y-111000000D01*
X84500000Y-119700000D02*
X45000000Y-119700000D01*
X84500000Y-8800000D02*
X84500000Y-119700000D01*
X45000000Y-8800000D02*
X84500000Y-8800000D01*
X45000000Y-21000000D02*
X45000000Y-8800000D01*
X40500000Y-21000000D02*
X45000000Y-21000000D01*
X40500000Y0D02*
X40500000Y-21000000D01*
X0Y0D02*
X40500000Y0D01*
M02*
