G04 #@! TF.GenerationSoftware,KiCad,Pcbnew,(5.0.1-3-g963ef8bb5)*
G04 #@! TF.CreationDate,2020-06-22T21:03:06+02:00*
G04 #@! TF.ProjectId,Schraeg,536368726165672E6B696361645F7063,rev?*
G04 #@! TF.SameCoordinates,Original*
G04 #@! TF.FileFunction,Copper,L1,Top,Signal*
G04 #@! TF.FilePolarity,Positive*
%FSLAX46Y46*%
G04 Gerber Fmt 4.6, Leading zero omitted, Abs format (unit mm)*
G04 Created by KiCad (PCBNEW (5.0.1-3-g963ef8bb5)) date Monday, 22 June 2020 at 21:03:06*
%MOMM*%
%LPD*%
G01*
G04 APERTURE LIST*
G04 #@! TA.AperFunction,ComponentPad*
%ADD10C,1.800000*%
G04 #@! TD*
G04 #@! TA.AperFunction,ComponentPad*
%ADD11C,1.300000*%
G04 #@! TD*
G04 #@! TA.AperFunction,ComponentPad*
%ADD12C,2.000000*%
G04 #@! TD*
G04 #@! TA.AperFunction,ComponentPad*
%ADD13R,1.700000X1.700000*%
G04 #@! TD*
G04 #@! TA.AperFunction,ComponentPad*
%ADD14O,1.700000X1.700000*%
G04 #@! TD*
G04 #@! TA.AperFunction,ComponentPad*
%ADD15C,1.440000*%
G04 #@! TD*
G04 #@! TA.AperFunction,ViaPad*
%ADD16C,0.800000*%
G04 #@! TD*
G04 #@! TA.AperFunction,Conductor*
%ADD17C,0.250000*%
G04 #@! TD*
G04 #@! TA.AperFunction,Conductor*
%ADD18C,0.700000*%
G04 #@! TD*
G04 #@! TA.AperFunction,Conductor*
%ADD19C,0.254000*%
G04 #@! TD*
G04 APERTURE END LIST*
D10*
G04 #@! TO.P,AUDIO_IN1,2*
G04 #@! TO.N,GND*
X50000000Y-96380000D03*
G04 #@! TO.P,AUDIO_IN1,1*
X50000000Y-99480000D03*
G04 #@! TO.P,AUDIO_IN1,3*
G04 #@! TO.N,Net-(AUDIO_IN1-Pad3)*
X50000000Y-88080000D03*
G04 #@! TD*
G04 #@! TO.P,BP_OUT1,3*
G04 #@! TO.N,Net-(BP_OUT1-Pad3)*
X65000000Y-105080000D03*
G04 #@! TO.P,BP_OUT1,1*
G04 #@! TO.N,GND*
X65000000Y-116480000D03*
G04 #@! TO.P,BP_OUT1,2*
G04 #@! TO.N,Net-(BP_OUT1-Pad2)*
X65000000Y-113380000D03*
G04 #@! TD*
D11*
G04 #@! TO.P,CUTOFF1,1*
G04 #@! TO.N,-12V*
X67000000Y-27500000D03*
G04 #@! TO.P,CUTOFF1,2*
G04 #@! TO.N,Net-(CUTOFF1-Pad2)*
X69500000Y-27500000D03*
G04 #@! TO.P,CUTOFF1,3*
G04 #@! TO.N,GND*
X72000000Y-27500000D03*
D12*
G04 #@! TO.P,CUTOFF1,*
G04 #@! TO.N,*
X64700000Y-20000000D03*
X74300000Y-20000000D03*
G04 #@! TD*
D11*
G04 #@! TO.P,FM_ATTV1,1*
G04 #@! TO.N,Net-(FM_ATTV1-Pad1)*
X75500000Y-76500000D03*
G04 #@! TO.P,FM_ATTV1,2*
G04 #@! TO.N,Net-(FM_ATTV1-Pad2)*
X78000000Y-76500000D03*
G04 #@! TO.P,FM_ATTV1,3*
G04 #@! TO.N,Net-(FM_ATTV1-Pad3)*
X80500000Y-76500000D03*
D12*
G04 #@! TO.P,FM_ATTV1,*
G04 #@! TO.N,*
X73200000Y-69000000D03*
X82800000Y-69000000D03*
G04 #@! TD*
D10*
G04 #@! TO.P,FM_IN1,3*
G04 #@! TO.N,Net-(FM_ATTV1-Pad2)*
X70000000Y-88080000D03*
G04 #@! TO.P,FM_IN1,1*
G04 #@! TO.N,GND*
X70000000Y-99480000D03*
G04 #@! TO.P,FM_IN1,2*
G04 #@! TO.N,0.16V_REF*
X70000000Y-96380000D03*
G04 #@! TD*
G04 #@! TO.P,HP_OUT1,2*
G04 #@! TO.N,Net-(HP_OUT1-Pad2)*
X78000000Y-113380000D03*
G04 #@! TO.P,HP_OUT1,1*
G04 #@! TO.N,GND*
X78000000Y-116480000D03*
G04 #@! TO.P,HP_OUT1,3*
G04 #@! TO.N,Net-(HP_OUT1-Pad3)*
X78000000Y-105080000D03*
G04 #@! TD*
D12*
G04 #@! TO.P,INPUT_GAIN1,*
G04 #@! TO.N,*
X55800000Y-75000000D03*
X46200000Y-75000000D03*
D11*
G04 #@! TO.P,INPUT_GAIN1,3*
G04 #@! TO.N,Net-(C2-Pad2)*
X53500000Y-82500000D03*
G04 #@! TO.P,INPUT_GAIN1,2*
G04 #@! TO.N,Net-(INPUT_GAIN1-Pad2)*
X51000000Y-82500000D03*
G04 #@! TO.P,INPUT_GAIN1,1*
G04 #@! TO.N,GND*
X48500000Y-82500000D03*
G04 #@! TD*
D10*
G04 #@! TO.P,LP_OUT1,2*
G04 #@! TO.N,Net-(LP_OUT1-Pad2)*
X51000000Y-113380000D03*
G04 #@! TO.P,LP_OUT1,1*
G04 #@! TO.N,GND*
X51000000Y-116480000D03*
G04 #@! TO.P,LP_OUT1,3*
G04 #@! TO.N,Net-(LP_OUT1-Pad3)*
X51000000Y-105080000D03*
G04 #@! TD*
D13*
G04 #@! TO.P,PWR_IN1,1*
G04 #@! TO.N,Net-(F1-Pad2)*
X71840000Y-11400000D03*
D14*
G04 #@! TO.P,PWR_IN1,2*
X71840000Y-13940000D03*
G04 #@! TO.P,PWR_IN1,3*
G04 #@! TO.N,GND*
X74380000Y-11400000D03*
G04 #@! TO.P,PWR_IN1,4*
X74380000Y-13940000D03*
G04 #@! TO.P,PWR_IN1,5*
X76920000Y-11400000D03*
G04 #@! TO.P,PWR_IN1,6*
X76920000Y-13940000D03*
G04 #@! TO.P,PWR_IN1,7*
X79460000Y-11400000D03*
G04 #@! TO.P,PWR_IN1,8*
X79460000Y-13940000D03*
G04 #@! TO.P,PWR_IN1,9*
G04 #@! TO.N,Net-(F2-Pad2)*
X82000000Y-11400000D03*
G04 #@! TO.P,PWR_IN1,10*
X82000000Y-13940000D03*
G04 #@! TD*
D15*
G04 #@! TO.P,RES_ADJ1,1*
G04 #@! TO.N,Net-(R26-Pad1)*
X54000000Y-66200000D03*
G04 #@! TO.P,RES_ADJ1,2*
X51460000Y-66200000D03*
G04 #@! TO.P,RES_ADJ1,3*
G04 #@! TO.N,Net-(R27-Pad2)*
X48920000Y-66200000D03*
G04 #@! TD*
D12*
G04 #@! TO.P,RES_ATTV1,*
G04 #@! TO.N,*
X69300000Y-72000000D03*
X59700000Y-72000000D03*
D11*
G04 #@! TO.P,RES_ATTV1,3*
G04 #@! TO.N,Net-(R11-Pad2)*
X67000000Y-79500000D03*
G04 #@! TO.P,RES_ATTV1,2*
G04 #@! TO.N,Net-(RES_ATTV1-Pad2)*
X64500000Y-79500000D03*
G04 #@! TO.P,RES_ATTV1,1*
G04 #@! TO.N,Net-(R3-Pad2)*
X62000000Y-79500000D03*
G04 #@! TD*
D10*
G04 #@! TO.P,RES_CV1,3*
G04 #@! TO.N,Net-(RES_ATTV1-Pad2)*
X60000000Y-88080000D03*
G04 #@! TO.P,RES_CV1,1*
G04 #@! TO.N,GND*
X60000000Y-99480000D03*
G04 #@! TO.P,RES_CV1,2*
X60000000Y-96380000D03*
G04 #@! TD*
D11*
G04 #@! TO.P,RESONANCE1,1*
G04 #@! TO.N,5V_REF*
X51000000Y-46600000D03*
G04 #@! TO.P,RESONANCE1,2*
G04 #@! TO.N,Net-(R17-Pad2)*
X53500000Y-46600000D03*
G04 #@! TO.P,RESONANCE1,3*
G04 #@! TO.N,GND*
X56000000Y-46600000D03*
D12*
G04 #@! TO.P,RESONANCE1,*
G04 #@! TO.N,*
X48700000Y-39100000D03*
X58300000Y-39100000D03*
G04 #@! TD*
D15*
G04 #@! TO.P,RV_SAW_OCTAVE1,1*
G04 #@! TO.N,Net-(RV_SAW_OCTAVE1-Pad1)*
X55500000Y-116500000D03*
G04 #@! TO.P,RV_SAW_OCTAVE1,2*
G04 #@! TO.N,Net-(R1-Pad2)*
X58040000Y-116500000D03*
G04 #@! TO.P,RV_SAW_OCTAVE1,3*
G04 #@! TO.N,GND*
X60580000Y-116500000D03*
G04 #@! TD*
D14*
G04 #@! TO.P,SW_DRIVE1,3*
G04 #@! TO.N,Net-(R22-Pad2)*
X50500000Y-60540000D03*
G04 #@! TO.P,SW_DRIVE1,2*
G04 #@! TO.N,Net-(R19-Pad1)*
X50500000Y-58000000D03*
D13*
G04 #@! TO.P,SW_DRIVE1,1*
G04 #@! TO.N,Net-(R21-Pad2)*
X50500000Y-55460000D03*
G04 #@! TD*
G04 #@! TO.P,SW_RES_DIST1,1*
G04 #@! TO.N,/Filter Core/RES_MOD*
X78500000Y-44460000D03*
D14*
G04 #@! TO.P,SW_RES_DIST1,2*
G04 #@! TO.N,Net-(D3-Pad2)*
X78500000Y-47000000D03*
G04 #@! TO.P,SW_RES_DIST1,3*
G04 #@! TO.N,Net-(SW_RES_DIST1-Pad3)*
X78500000Y-49540000D03*
G04 #@! TD*
D13*
G04 #@! TO.P,SW_WOBBLE1,1*
G04 #@! TO.N,/Filter Core/RES_MOD*
X64500000Y-50460000D03*
D14*
G04 #@! TO.P,SW_WOBBLE1,2*
G04 #@! TO.N,Net-(RV_SAW_OCTAVE1-Pad1)*
X64500000Y-53000000D03*
G04 #@! TO.P,SW_WOBBLE1,3*
G04 #@! TO.N,Net-(SW_WOBBLE1-Pad3)*
X64500000Y-55540000D03*
G04 #@! TD*
D10*
G04 #@! TO.P,V_OCT_IN1,2*
G04 #@! TO.N,GND*
X80000000Y-96380000D03*
G04 #@! TO.P,V_OCT_IN1,1*
X80000000Y-99480000D03*
G04 #@! TO.P,V_OCT_IN1,3*
G04 #@! TO.N,Net-(R9-Pad2)*
X80000000Y-88080000D03*
G04 #@! TD*
D15*
G04 #@! TO.P,V_OCT_SCALE1,3*
G04 #@! TO.N,/Filter Core/FREQ_CV*
X73980000Y-116600000D03*
G04 #@! TO.P,V_OCT_SCALE1,2*
X71440000Y-116600000D03*
G04 #@! TO.P,V_OCT_SCALE1,1*
G04 #@! TO.N,Net-(R14-Pad1)*
X68900000Y-116600000D03*
G04 #@! TD*
D16*
G04 #@! TO.N,GND*
X74000000Y-26800000D03*
X81800000Y-32800000D03*
X67600000Y-29000000D03*
X62200000Y-29000000D03*
X58400000Y-24800000D03*
X54675001Y-29000000D03*
X48800000Y-29200000D03*
X56000000Y-38400000D03*
X48850000Y-36750000D03*
X69000000Y-42200000D03*
X73400000Y-43000000D03*
X74000000Y-40800000D03*
X74000000Y-47800000D03*
X54600000Y-47800000D03*
X58600000Y-58000000D03*
X78800000Y-61000000D03*
X75550000Y-61000000D03*
X73600000Y-65600000D03*
X80000000Y-68000000D03*
X68800000Y-66200000D03*
X68800000Y-64200000D03*
X67200000Y-72400000D03*
X60943154Y-70256846D03*
X70000000Y-78000000D03*
X60000000Y-74400000D03*
X66325000Y-86600000D03*
X66325000Y-89200000D03*
X67800000Y-96400000D03*
X62200000Y-96400000D03*
X60400000Y-66200000D03*
X75200000Y-32400000D03*
X54599998Y-33000000D03*
X77200000Y-59155000D03*
G04 #@! TO.N,Net-(C3-Pad2)*
X60400000Y-47200000D03*
X62000000Y-45800000D03*
X71000000Y-67000000D03*
X68887347Y-62712653D03*
G04 #@! TO.N,/Filter Core/RES_CV*
X67200000Y-55400000D03*
X64200000Y-42200000D03*
G04 #@! TO.N,/Filter Core/BP_OUT*
X71749999Y-103800000D03*
X83275000Y-101000000D03*
G04 #@! TO.N,/Filter Core/LP_OUT*
X45675000Y-34400000D03*
X48800000Y-34200000D03*
G04 #@! TO.N,Net-(C9-Pad2)*
X70225000Y-57200000D03*
X64687347Y-41312653D03*
G04 #@! TO.N,/Filter Core/RES_MOD*
X59647908Y-42447908D03*
X53950001Y-31450000D03*
X64049999Y-58650000D03*
X78400000Y-53600000D03*
G04 #@! TO.N,Net-(C10-Pad2)*
X65800000Y-49200000D03*
X64200000Y-48400000D03*
G04 #@! TO.N,5V_REF*
X52200000Y-58000000D03*
G04 #@! TO.N,0.16V_REF*
X68800000Y-79000000D03*
G04 #@! TO.N,+12V*
X61800000Y-32400000D03*
X58200000Y-31600000D03*
X70800000Y-86400000D03*
X70800000Y-79800000D03*
X64875000Y-97400000D03*
X64875000Y-89200000D03*
G04 #@! TO.N,-12V*
X79750000Y-29250000D03*
X52500000Y-30500000D03*
X64250000Y-93500000D03*
X63299999Y-88000000D03*
X63099999Y-65000000D03*
X63099999Y-72000000D03*
X63099999Y-42250000D03*
X64000000Y-33000000D03*
X73200000Y-59600000D03*
X74000000Y-38000000D03*
G04 #@! TO.N,Net-(D1-Pad2)*
X82400000Y-72600000D03*
X82400000Y-53600000D03*
G04 #@! TO.N,/Filter Core/FREQ_CV*
X71800000Y-94400000D03*
X64049999Y-37200000D03*
G04 #@! TO.N,Net-(D3-Pad2)*
X81600000Y-45600000D03*
G04 #@! TO.N,Net-(FM_ATTV1-Pad1)*
X75400000Y-89000000D03*
G04 #@! TO.N,Net-(FM_ATTV1-Pad2)*
X70000000Y-81200000D03*
G04 #@! TO.N,Net-(R1-Pad1)*
X56800000Y-88800000D03*
X59400000Y-67400000D03*
G04 #@! TO.N,Net-(R4-Pad1)*
X57600000Y-89800000D03*
X59443154Y-68756846D03*
G04 #@! TO.N,Net-(R11-Pad1)*
X74600000Y-81200000D03*
X74183187Y-70875000D03*
G04 #@! TO.N,/Filter Core/AUDIO_IN*
X60725000Y-32200000D03*
X58600000Y-33000000D03*
G04 #@! TO.N,Net-(R26-Pad1)*
X46400000Y-54000000D03*
G04 #@! TO.N,Net-(R27-Pad2)*
X57375000Y-50875000D03*
X58862653Y-50337347D03*
X54800000Y-62800000D03*
G04 #@! TO.N,Net-(R27-Pad1)*
X61800000Y-58649999D03*
X61800000Y-52800000D03*
G04 #@! TO.N,Net-(R28-Pad1)*
X62149999Y-51600000D03*
X55600000Y-52800000D03*
X57600000Y-34600000D03*
G04 #@! TO.N,Net-(R29-Pad1)*
X59800000Y-46400000D03*
X61400000Y-44800000D03*
G04 #@! TO.N,Net-(RV_SAW_OCTAVE1-Pad1)*
X62000000Y-112200000D03*
X65600000Y-60600000D03*
G04 #@! TD*
D17*
G04 #@! TO.N,GND*
X67600000Y-29000000D02*
X67034315Y-29000000D01*
G04 #@! TO.N,Net-(C3-Pad2)*
X60600000Y-47200000D02*
X62000000Y-45800000D01*
X60400000Y-47200000D02*
X60600000Y-47200000D01*
X71000000Y-67000000D02*
X71000000Y-66434315D01*
X71000000Y-64825306D02*
X68887347Y-62712653D01*
X71000000Y-67000000D02*
X71000000Y-64825306D01*
G04 #@! TO.N,/Filter Core/RES_CV*
X64200000Y-42350001D02*
X64200000Y-42200000D01*
X67200000Y-45350001D02*
X64200000Y-42350001D01*
X67200000Y-55400000D02*
X67200000Y-45350001D01*
G04 #@! TO.N,/Filter Core/BP_OUT*
X71749999Y-103800000D02*
X74549999Y-101000000D01*
X74549999Y-101000000D02*
X83275000Y-101000000D01*
G04 #@! TO.N,/Filter Core/LP_OUT*
X48600000Y-34400000D02*
X48800000Y-34200000D01*
X45675000Y-34400000D02*
X48600000Y-34400000D01*
G04 #@! TO.N,Net-(C9-Pad2)*
X70225000Y-46850306D02*
X64687347Y-41312653D01*
X70225000Y-57200000D02*
X70225000Y-46850306D01*
G04 #@! TO.N,/Filter Core/RES_MOD*
X59625001Y-41859316D02*
X59625001Y-35225001D01*
X59647908Y-41882223D02*
X59625001Y-41859316D01*
X59647908Y-42447908D02*
X59647908Y-41882223D01*
X55850000Y-31450000D02*
X53950001Y-31450000D01*
X59625001Y-35225001D02*
X55850000Y-31450000D01*
X65600000Y-50460000D02*
X64500000Y-50460000D01*
X65675001Y-50535001D02*
X65600000Y-50460000D01*
X65675001Y-57024998D02*
X65675001Y-50535001D01*
X64049999Y-58650000D02*
X65675001Y-57024998D01*
X77400000Y-44460000D02*
X78500000Y-44460000D01*
X77200000Y-44660000D02*
X77400000Y-44460000D01*
X77200000Y-52400000D02*
X77200000Y-44660000D01*
X78400000Y-53600000D02*
X77200000Y-52400000D01*
G04 #@! TO.N,Net-(C10-Pad2)*
X65000000Y-49200000D02*
X64200000Y-48400000D01*
X65800000Y-49200000D02*
X65000000Y-49200000D01*
G04 #@! TO.N,5V_REF*
X52200000Y-47800000D02*
X51000000Y-46600000D01*
X52200000Y-58000000D02*
X52200000Y-47800000D01*
G04 #@! TO.N,0.16V_REF*
X68774999Y-95154999D02*
X70000000Y-96380000D01*
X68774999Y-79025001D02*
X68774999Y-95154999D01*
X68800000Y-79000000D02*
X68774999Y-79025001D01*
G04 #@! TO.N,+12V*
X61440684Y-31474999D02*
X58325001Y-31474999D01*
X58325001Y-31474999D02*
X58200000Y-31600000D01*
X61800000Y-31834315D02*
X61440684Y-31474999D01*
X61800000Y-32400000D02*
X61800000Y-31834315D01*
X70800000Y-86400000D02*
X70800000Y-79800000D01*
X64975001Y-89300001D02*
X64875000Y-89200000D01*
X64975001Y-96734314D02*
X64975001Y-89300001D01*
X64875000Y-96834315D02*
X64975001Y-96734314D01*
X64875000Y-97400000D02*
X64875000Y-96834315D01*
D18*
G04 #@! TO.N,-12V*
X79750000Y-29250000D02*
X78500000Y-30500000D01*
X63299999Y-92549999D02*
X64250000Y-93500000D01*
X63099999Y-78723999D02*
X63299999Y-78923999D01*
X64250000Y-30500000D02*
X63099999Y-31650001D01*
X64250000Y-30500000D02*
X52500000Y-30500000D01*
X63299999Y-78923999D02*
X63299999Y-88000000D01*
X63299999Y-88000000D02*
X63299999Y-92549999D01*
X63099999Y-72000000D02*
X63099999Y-78723999D01*
X63099999Y-65000000D02*
X63099999Y-72000000D01*
X63099999Y-60250000D02*
X63099999Y-65000000D01*
X63500000Y-33500000D02*
X64000000Y-33000000D01*
X63099999Y-33500000D02*
X63500000Y-33500000D01*
X63099999Y-31650001D02*
X63099999Y-33500000D01*
X63099999Y-33500000D02*
X63099999Y-42250000D01*
X78500000Y-30500000D02*
X74000000Y-30500000D01*
X74000000Y-30500000D02*
X64250000Y-30500000D01*
X63299999Y-59600000D02*
X63099999Y-59400000D01*
X73200000Y-59600000D02*
X63299999Y-59600000D01*
X63099999Y-59400000D02*
X63099999Y-60250000D01*
X63099999Y-42250000D02*
X63099999Y-59400000D01*
D17*
X74000000Y-30500000D02*
X74000000Y-38000000D01*
G04 #@! TO.N,Net-(D1-Pad2)*
X81474999Y-54525001D02*
X82400000Y-53600000D01*
X81474999Y-71674999D02*
X81474999Y-54525001D01*
X82400000Y-72600000D02*
X81474999Y-71674999D01*
G04 #@! TO.N,/Filter Core/FREQ_CV*
X73925001Y-49525001D02*
X64200000Y-39800000D01*
X73925001Y-59948001D02*
X73925001Y-49525001D01*
X64200000Y-37915686D02*
X64200000Y-39800000D01*
X64049999Y-37765685D02*
X64200000Y-37915686D01*
X64049999Y-37200000D02*
X64049999Y-37765685D01*
X71800000Y-94400000D02*
X71800000Y-93800000D01*
X71800000Y-93800000D02*
X73400000Y-92200000D01*
X73400000Y-92200000D02*
X73400000Y-71200000D01*
X71874999Y-62001997D02*
X71873002Y-62000000D01*
X71874999Y-69674999D02*
X71874999Y-62001997D01*
X73400000Y-71200000D02*
X71874999Y-69674999D01*
X71873002Y-62000000D02*
X73925001Y-59948001D01*
X71800000Y-62073002D02*
X71873002Y-62000000D01*
G04 #@! TO.N,Net-(D3-Pad2)*
X79900000Y-45600000D02*
X78500000Y-47000000D01*
X81600000Y-45600000D02*
X79900000Y-45600000D01*
G04 #@! TO.N,Net-(FM_ATTV1-Pad1)*
X75500000Y-88900000D02*
X75400000Y-89000000D01*
X75500000Y-76500000D02*
X75500000Y-88900000D01*
G04 #@! TO.N,Net-(FM_ATTV1-Pad2)*
X70000000Y-81200000D02*
X70000000Y-88080000D01*
G04 #@! TO.N,Net-(R1-Pad1)*
X57125001Y-69674999D02*
X59400000Y-67400000D01*
X56800000Y-88234315D02*
X57125001Y-87909314D01*
X57125001Y-87909314D02*
X57125001Y-69674999D01*
X56800000Y-88800000D02*
X56800000Y-88234315D01*
G04 #@! TO.N,Net-(R4-Pad1)*
X57600000Y-70600000D02*
X59443154Y-68756846D01*
X57600000Y-89800000D02*
X57600000Y-70600000D01*
G04 #@! TO.N,Net-(R11-Pad1)*
X74183187Y-80783187D02*
X74183187Y-70875000D01*
X74600000Y-81200000D02*
X74183187Y-80783187D01*
G04 #@! TO.N,/Filter Core/AUDIO_IN*
X59400000Y-32200000D02*
X58600000Y-33000000D01*
X60725000Y-32200000D02*
X59400000Y-32200000D01*
G04 #@! TO.N,Net-(R26-Pad1)*
X46400000Y-65226602D02*
X46400000Y-54000000D01*
X48418399Y-67245001D02*
X46400000Y-65226602D01*
X50414999Y-67245001D02*
X48418399Y-67245001D01*
X51460000Y-66200000D02*
X50414999Y-67245001D01*
G04 #@! TO.N,Net-(R27-Pad2)*
X58325000Y-50875000D02*
X58862653Y-50337347D01*
X57375000Y-50875000D02*
X58325000Y-50875000D01*
X52320000Y-62800000D02*
X48920000Y-66200000D01*
X54800000Y-62800000D02*
X52320000Y-62800000D01*
G04 #@! TO.N,Net-(R27-Pad1)*
X61800000Y-58649999D02*
X61800000Y-52800000D01*
G04 #@! TO.N,Net-(R28-Pad1)*
X62149999Y-51600000D02*
X56800000Y-51600000D01*
X56600000Y-50576998D02*
X56600000Y-51800000D01*
X57026999Y-50149999D02*
X56600000Y-50576998D01*
X57026999Y-46183997D02*
X57026999Y-50149999D01*
X56974999Y-46131997D02*
X57026999Y-46183997D01*
X56974999Y-35225001D02*
X56974999Y-46131997D01*
X56800000Y-51600000D02*
X56600000Y-51800000D01*
X57600000Y-34600000D02*
X56974999Y-35225001D01*
X56600000Y-51800000D02*
X55600000Y-52800000D01*
G04 #@! TO.N,Net-(R29-Pad1)*
X59800000Y-46400000D02*
X61400000Y-44800000D01*
G04 #@! TO.N,Net-(RV_SAW_OCTAVE1-Pad1)*
X65600000Y-103866998D02*
X65600000Y-60600000D01*
X66225001Y-107974999D02*
X66225001Y-104491999D01*
X66225001Y-104491999D02*
X65600000Y-103866998D01*
X62000000Y-112200000D02*
X66225001Y-107974999D01*
G04 #@! TD*
D19*
G04 #@! TO.N,GND*
G36*
X83790001Y-67677762D02*
X83726153Y-67613914D01*
X83125222Y-67365000D01*
X82474778Y-67365000D01*
X82234999Y-67464320D01*
X82234999Y-54839802D01*
X82439801Y-54635000D01*
X82605874Y-54635000D01*
X82986280Y-54477431D01*
X83277431Y-54186280D01*
X83435000Y-53805874D01*
X83435000Y-53394126D01*
X83277431Y-53013720D01*
X82986280Y-52722569D01*
X82605874Y-52565000D01*
X82194126Y-52565000D01*
X81813720Y-52722569D01*
X81522569Y-53013720D01*
X81365000Y-53394126D01*
X81365000Y-53560199D01*
X80990527Y-53934672D01*
X80927071Y-53977072D01*
X80884671Y-54040528D01*
X80884670Y-54040529D01*
X80759096Y-54228464D01*
X80700111Y-54525001D01*
X80715000Y-54599853D01*
X80714999Y-71600152D01*
X80700111Y-71674999D01*
X80714999Y-71749846D01*
X80714999Y-71749850D01*
X80759095Y-71971535D01*
X80927070Y-72222928D01*
X80990529Y-72265330D01*
X81365000Y-72639801D01*
X81365000Y-72805874D01*
X81522569Y-73186280D01*
X81813720Y-73477431D01*
X82194126Y-73635000D01*
X82605874Y-73635000D01*
X82986280Y-73477431D01*
X83277431Y-73186280D01*
X83435000Y-72805874D01*
X83435000Y-72394126D01*
X83277431Y-72013720D01*
X82986280Y-71722569D01*
X82605874Y-71565000D01*
X82439801Y-71565000D01*
X82234999Y-71360198D01*
X82234999Y-70535680D01*
X82474778Y-70635000D01*
X83125222Y-70635000D01*
X83726153Y-70386086D01*
X83790001Y-70322238D01*
X83790001Y-100093044D01*
X83480874Y-99965000D01*
X83069126Y-99965000D01*
X82688720Y-100122569D01*
X82571289Y-100240000D01*
X81356454Y-100240000D01*
X81546458Y-99720664D01*
X81520839Y-99110540D01*
X81336643Y-98665852D01*
X81080159Y-98579446D01*
X80179605Y-99480000D01*
X80193748Y-99494143D01*
X80014143Y-99673748D01*
X80000000Y-99659605D01*
X79985858Y-99673748D01*
X79806253Y-99494143D01*
X79820395Y-99480000D01*
X78919841Y-98579446D01*
X78663357Y-98665852D01*
X78453542Y-99239336D01*
X78479161Y-99849460D01*
X78640928Y-100240000D01*
X74624846Y-100240000D01*
X74549999Y-100225112D01*
X74475152Y-100240000D01*
X74475147Y-100240000D01*
X74253462Y-100284096D01*
X74002070Y-100452071D01*
X73959670Y-100515527D01*
X71710198Y-102765000D01*
X71544125Y-102765000D01*
X71163719Y-102922569D01*
X70872568Y-103213720D01*
X70714999Y-103594126D01*
X70714999Y-104005874D01*
X70872568Y-104386280D01*
X71163719Y-104677431D01*
X71544125Y-104835000D01*
X71955873Y-104835000D01*
X72101522Y-104774670D01*
X76465000Y-104774670D01*
X76465000Y-105385330D01*
X76698690Y-105949507D01*
X77130493Y-106381310D01*
X77694670Y-106615000D01*
X78305330Y-106615000D01*
X78869507Y-106381310D01*
X79301310Y-105949507D01*
X79535000Y-105385330D01*
X79535000Y-104774670D01*
X79301310Y-104210493D01*
X78869507Y-103778690D01*
X78305330Y-103545000D01*
X77694670Y-103545000D01*
X77130493Y-103778690D01*
X76698690Y-104210493D01*
X76465000Y-104774670D01*
X72101522Y-104774670D01*
X72336279Y-104677431D01*
X72627430Y-104386280D01*
X72784999Y-104005874D01*
X72784999Y-103839801D01*
X74864801Y-101760000D01*
X82571289Y-101760000D01*
X82688720Y-101877431D01*
X83069126Y-102035000D01*
X83480874Y-102035000D01*
X83790001Y-101906956D01*
X83790001Y-118990000D01*
X45710000Y-118990000D01*
X45710000Y-117560159D01*
X50099446Y-117560159D01*
X50185852Y-117816643D01*
X50759336Y-118026458D01*
X51369460Y-118000839D01*
X51814148Y-117816643D01*
X51900554Y-117560159D01*
X51000000Y-116659605D01*
X50099446Y-117560159D01*
X45710000Y-117560159D01*
X45710000Y-116239336D01*
X49453542Y-116239336D01*
X49479161Y-116849460D01*
X49663357Y-117294148D01*
X49919841Y-117380554D01*
X50820395Y-116480000D01*
X51179605Y-116480000D01*
X52080159Y-117380554D01*
X52336643Y-117294148D01*
X52546458Y-116720664D01*
X52525876Y-116230474D01*
X54145000Y-116230474D01*
X54145000Y-116769526D01*
X54351286Y-117267546D01*
X54732454Y-117648714D01*
X55230474Y-117855000D01*
X55769526Y-117855000D01*
X56267546Y-117648714D01*
X56648714Y-117267546D01*
X56770000Y-116974735D01*
X56891286Y-117267546D01*
X57272454Y-117648714D01*
X57770474Y-117855000D01*
X58309526Y-117855000D01*
X58807546Y-117648714D01*
X59006486Y-117449774D01*
X59809831Y-117449774D01*
X59874131Y-117687611D01*
X60382342Y-117867333D01*
X60920644Y-117838892D01*
X61285869Y-117687611D01*
X61320326Y-117560159D01*
X64099446Y-117560159D01*
X64185852Y-117816643D01*
X64759336Y-118026458D01*
X65369460Y-118000839D01*
X65814148Y-117816643D01*
X65900554Y-117560159D01*
X65000000Y-116659605D01*
X64099446Y-117560159D01*
X61320326Y-117560159D01*
X61350169Y-117449774D01*
X60580000Y-116679605D01*
X59809831Y-117449774D01*
X59006486Y-117449774D01*
X59188714Y-117267546D01*
X59303325Y-116990849D01*
X59392389Y-117205869D01*
X59630226Y-117270169D01*
X60400395Y-116500000D01*
X60759605Y-116500000D01*
X61529774Y-117270169D01*
X61767611Y-117205869D01*
X61947333Y-116697658D01*
X61923118Y-116239336D01*
X63453542Y-116239336D01*
X63479161Y-116849460D01*
X63663357Y-117294148D01*
X63919841Y-117380554D01*
X64820395Y-116480000D01*
X65179605Y-116480000D01*
X66080159Y-117380554D01*
X66336643Y-117294148D01*
X66546458Y-116720664D01*
X66530074Y-116330474D01*
X67545000Y-116330474D01*
X67545000Y-116869526D01*
X67751286Y-117367546D01*
X68132454Y-117748714D01*
X68630474Y-117955000D01*
X69169526Y-117955000D01*
X69667546Y-117748714D01*
X70048714Y-117367546D01*
X70170000Y-117074735D01*
X70291286Y-117367546D01*
X70672454Y-117748714D01*
X71170474Y-117955000D01*
X71709526Y-117955000D01*
X72207546Y-117748714D01*
X72588714Y-117367546D01*
X72710000Y-117074735D01*
X72831286Y-117367546D01*
X73212454Y-117748714D01*
X73710474Y-117955000D01*
X74249526Y-117955000D01*
X74747546Y-117748714D01*
X74936101Y-117560159D01*
X77099446Y-117560159D01*
X77185852Y-117816643D01*
X77759336Y-118026458D01*
X78369460Y-118000839D01*
X78814148Y-117816643D01*
X78900554Y-117560159D01*
X78000000Y-116659605D01*
X77099446Y-117560159D01*
X74936101Y-117560159D01*
X75128714Y-117367546D01*
X75335000Y-116869526D01*
X75335000Y-116330474D01*
X75297250Y-116239336D01*
X76453542Y-116239336D01*
X76479161Y-116849460D01*
X76663357Y-117294148D01*
X76919841Y-117380554D01*
X77820395Y-116480000D01*
X78179605Y-116480000D01*
X79080159Y-117380554D01*
X79336643Y-117294148D01*
X79546458Y-116720664D01*
X79520839Y-116110540D01*
X79336643Y-115665852D01*
X79080159Y-115579446D01*
X78179605Y-116480000D01*
X77820395Y-116480000D01*
X76919841Y-115579446D01*
X76663357Y-115665852D01*
X76453542Y-116239336D01*
X75297250Y-116239336D01*
X75128714Y-115832454D01*
X74747546Y-115451286D01*
X74623347Y-115399841D01*
X77099446Y-115399841D01*
X78000000Y-116300395D01*
X78900554Y-115399841D01*
X78814148Y-115143357D01*
X78240664Y-114933542D01*
X77630540Y-114959161D01*
X77185852Y-115143357D01*
X77099446Y-115399841D01*
X74623347Y-115399841D01*
X74249526Y-115245000D01*
X73710474Y-115245000D01*
X73212454Y-115451286D01*
X72831286Y-115832454D01*
X72710000Y-116125265D01*
X72588714Y-115832454D01*
X72207546Y-115451286D01*
X71709526Y-115245000D01*
X71170474Y-115245000D01*
X70672454Y-115451286D01*
X70291286Y-115832454D01*
X70170000Y-116125265D01*
X70048714Y-115832454D01*
X69667546Y-115451286D01*
X69169526Y-115245000D01*
X68630474Y-115245000D01*
X68132454Y-115451286D01*
X67751286Y-115832454D01*
X67545000Y-116330474D01*
X66530074Y-116330474D01*
X66520839Y-116110540D01*
X66336643Y-115665852D01*
X66080159Y-115579446D01*
X65179605Y-116480000D01*
X64820395Y-116480000D01*
X63919841Y-115579446D01*
X63663357Y-115665852D01*
X63453542Y-116239336D01*
X61923118Y-116239336D01*
X61918892Y-116159356D01*
X61767611Y-115794131D01*
X61529774Y-115729831D01*
X60759605Y-116500000D01*
X60400395Y-116500000D01*
X59630226Y-115729831D01*
X59392389Y-115794131D01*
X59310351Y-116026114D01*
X59188714Y-115732454D01*
X59006486Y-115550226D01*
X59809831Y-115550226D01*
X60580000Y-116320395D01*
X61350169Y-115550226D01*
X61309512Y-115399841D01*
X64099446Y-115399841D01*
X65000000Y-116300395D01*
X65900554Y-115399841D01*
X65814148Y-115143357D01*
X65240664Y-114933542D01*
X64630540Y-114959161D01*
X64185852Y-115143357D01*
X64099446Y-115399841D01*
X61309512Y-115399841D01*
X61285869Y-115312389D01*
X60777658Y-115132667D01*
X60239356Y-115161108D01*
X59874131Y-115312389D01*
X59809831Y-115550226D01*
X59006486Y-115550226D01*
X58807546Y-115351286D01*
X58309526Y-115145000D01*
X57770474Y-115145000D01*
X57272454Y-115351286D01*
X56891286Y-115732454D01*
X56770000Y-116025265D01*
X56648714Y-115732454D01*
X56267546Y-115351286D01*
X55769526Y-115145000D01*
X55230474Y-115145000D01*
X54732454Y-115351286D01*
X54351286Y-115732454D01*
X54145000Y-116230474D01*
X52525876Y-116230474D01*
X52520839Y-116110540D01*
X52336643Y-115665852D01*
X52080159Y-115579446D01*
X51179605Y-116480000D01*
X50820395Y-116480000D01*
X49919841Y-115579446D01*
X49663357Y-115665852D01*
X49453542Y-116239336D01*
X45710000Y-116239336D01*
X45710000Y-115399841D01*
X50099446Y-115399841D01*
X51000000Y-116300395D01*
X51900554Y-115399841D01*
X51814148Y-115143357D01*
X51240664Y-114933542D01*
X50630540Y-114959161D01*
X50185852Y-115143357D01*
X50099446Y-115399841D01*
X45710000Y-115399841D01*
X45710000Y-113074670D01*
X49465000Y-113074670D01*
X49465000Y-113685330D01*
X49698690Y-114249507D01*
X50130493Y-114681310D01*
X50694670Y-114915000D01*
X51305330Y-114915000D01*
X51869507Y-114681310D01*
X52301310Y-114249507D01*
X52535000Y-113685330D01*
X52535000Y-113074670D01*
X52301310Y-112510493D01*
X51869507Y-112078690D01*
X51305330Y-111845000D01*
X50694670Y-111845000D01*
X50130493Y-112078690D01*
X49698690Y-112510493D01*
X49465000Y-113074670D01*
X45710000Y-113074670D01*
X45710000Y-111069926D01*
X45723909Y-111000000D01*
X45686756Y-110813219D01*
X45785000Y-110576037D01*
X45785000Y-110223963D01*
X45650810Y-109900000D01*
X45785000Y-109576037D01*
X45785000Y-109223963D01*
X45650810Y-108900000D01*
X45785000Y-108576037D01*
X45785000Y-108223963D01*
X45650810Y-107900000D01*
X45785000Y-107576037D01*
X45785000Y-107223963D01*
X45650810Y-106900000D01*
X45785000Y-106576037D01*
X45785000Y-106223963D01*
X45713632Y-106051665D01*
X45723909Y-106000000D01*
X45710000Y-105930074D01*
X45710000Y-104774670D01*
X49465000Y-104774670D01*
X49465000Y-105385330D01*
X49698690Y-105949507D01*
X50130493Y-106381310D01*
X50694670Y-106615000D01*
X51305330Y-106615000D01*
X51869507Y-106381310D01*
X52301310Y-105949507D01*
X52535000Y-105385330D01*
X52535000Y-104774670D01*
X52301310Y-104210493D01*
X51869507Y-103778690D01*
X51305330Y-103545000D01*
X50694670Y-103545000D01*
X50130493Y-103778690D01*
X49698690Y-104210493D01*
X49465000Y-104774670D01*
X45710000Y-104774670D01*
X45710000Y-100560159D01*
X49099446Y-100560159D01*
X49185852Y-100816643D01*
X49759336Y-101026458D01*
X50369460Y-101000839D01*
X50814148Y-100816643D01*
X50900554Y-100560159D01*
X59099446Y-100560159D01*
X59185852Y-100816643D01*
X59759336Y-101026458D01*
X60369460Y-101000839D01*
X60814148Y-100816643D01*
X60900554Y-100560159D01*
X60000000Y-99659605D01*
X59099446Y-100560159D01*
X50900554Y-100560159D01*
X50000000Y-99659605D01*
X49099446Y-100560159D01*
X45710000Y-100560159D01*
X45710000Y-99239336D01*
X48453542Y-99239336D01*
X48479161Y-99849460D01*
X48663357Y-100294148D01*
X48919841Y-100380554D01*
X49820395Y-99480000D01*
X50179605Y-99480000D01*
X51080159Y-100380554D01*
X51336643Y-100294148D01*
X51546458Y-99720664D01*
X51526248Y-99239336D01*
X58453542Y-99239336D01*
X58479161Y-99849460D01*
X58663357Y-100294148D01*
X58919841Y-100380554D01*
X59820395Y-99480000D01*
X60179605Y-99480000D01*
X61080159Y-100380554D01*
X61336643Y-100294148D01*
X61546458Y-99720664D01*
X61520839Y-99110540D01*
X61336643Y-98665852D01*
X61080159Y-98579446D01*
X60179605Y-99480000D01*
X59820395Y-99480000D01*
X58919841Y-98579446D01*
X58663357Y-98665852D01*
X58453542Y-99239336D01*
X51526248Y-99239336D01*
X51520839Y-99110540D01*
X51336643Y-98665852D01*
X51080159Y-98579446D01*
X50179605Y-99480000D01*
X49820395Y-99480000D01*
X48919841Y-98579446D01*
X48663357Y-98665852D01*
X48453542Y-99239336D01*
X45710000Y-99239336D01*
X45710000Y-98399841D01*
X49099446Y-98399841D01*
X50000000Y-99300395D01*
X50900554Y-98399841D01*
X59099446Y-98399841D01*
X60000000Y-99300395D01*
X60900554Y-98399841D01*
X60814148Y-98143357D01*
X60240664Y-97933542D01*
X59630540Y-97959161D01*
X59185852Y-98143357D01*
X59099446Y-98399841D01*
X50900554Y-98399841D01*
X50814148Y-98143357D01*
X50240664Y-97933542D01*
X49630540Y-97959161D01*
X49185852Y-98143357D01*
X49099446Y-98399841D01*
X45710000Y-98399841D01*
X45710000Y-97460159D01*
X49099446Y-97460159D01*
X49185852Y-97716643D01*
X49759336Y-97926458D01*
X50369460Y-97900839D01*
X50814148Y-97716643D01*
X50900554Y-97460159D01*
X59099446Y-97460159D01*
X59185852Y-97716643D01*
X59759336Y-97926458D01*
X60369460Y-97900839D01*
X60814148Y-97716643D01*
X60900554Y-97460159D01*
X60000000Y-96559605D01*
X59099446Y-97460159D01*
X50900554Y-97460159D01*
X50000000Y-96559605D01*
X49099446Y-97460159D01*
X45710000Y-97460159D01*
X45710000Y-96139336D01*
X48453542Y-96139336D01*
X48479161Y-96749460D01*
X48663357Y-97194148D01*
X48919841Y-97280554D01*
X49820395Y-96380000D01*
X50179605Y-96380000D01*
X51080159Y-97280554D01*
X51336643Y-97194148D01*
X51546458Y-96620664D01*
X51526248Y-96139336D01*
X58453542Y-96139336D01*
X58479161Y-96749460D01*
X58663357Y-97194148D01*
X58919841Y-97280554D01*
X59820395Y-96380000D01*
X60179605Y-96380000D01*
X61080159Y-97280554D01*
X61336643Y-97194148D01*
X61546458Y-96620664D01*
X61520839Y-96010540D01*
X61336643Y-95565852D01*
X61080159Y-95479446D01*
X60179605Y-96380000D01*
X59820395Y-96380000D01*
X58919841Y-95479446D01*
X58663357Y-95565852D01*
X58453542Y-96139336D01*
X51526248Y-96139336D01*
X51520839Y-96010540D01*
X51336643Y-95565852D01*
X51080159Y-95479446D01*
X50179605Y-96380000D01*
X49820395Y-96380000D01*
X48919841Y-95479446D01*
X48663357Y-95565852D01*
X48453542Y-96139336D01*
X45710000Y-96139336D01*
X45710000Y-95299841D01*
X49099446Y-95299841D01*
X50000000Y-96200395D01*
X50900554Y-95299841D01*
X59099446Y-95299841D01*
X60000000Y-96200395D01*
X60900554Y-95299841D01*
X60814148Y-95043357D01*
X60240664Y-94833542D01*
X59630540Y-94859161D01*
X59185852Y-95043357D01*
X59099446Y-95299841D01*
X50900554Y-95299841D01*
X50814148Y-95043357D01*
X50240664Y-94833542D01*
X49630540Y-94859161D01*
X49185852Y-95043357D01*
X49099446Y-95299841D01*
X45710000Y-95299841D01*
X45710000Y-87774670D01*
X48465000Y-87774670D01*
X48465000Y-88385330D01*
X48698690Y-88949507D01*
X49130493Y-89381310D01*
X49694670Y-89615000D01*
X50305330Y-89615000D01*
X50869507Y-89381310D01*
X51301310Y-88949507D01*
X51535000Y-88385330D01*
X51535000Y-87774670D01*
X51301310Y-87210493D01*
X50869507Y-86778690D01*
X50305330Y-86545000D01*
X49694670Y-86545000D01*
X49130493Y-86778690D01*
X48698690Y-87210493D01*
X48465000Y-87774670D01*
X45710000Y-87774670D01*
X45710000Y-83399016D01*
X47780590Y-83399016D01*
X47836271Y-83629611D01*
X48319078Y-83797622D01*
X48829428Y-83768083D01*
X49163729Y-83629611D01*
X49219410Y-83399016D01*
X48500000Y-82679605D01*
X47780590Y-83399016D01*
X45710000Y-83399016D01*
X45710000Y-82319078D01*
X47202378Y-82319078D01*
X47231917Y-82829428D01*
X47370389Y-83163729D01*
X47600984Y-83219410D01*
X48320395Y-82500000D01*
X48679605Y-82500000D01*
X49399016Y-83219410D01*
X49629611Y-83163729D01*
X49745777Y-82829906D01*
X49910629Y-83227894D01*
X50272106Y-83589371D01*
X50744398Y-83785000D01*
X51255602Y-83785000D01*
X51727894Y-83589371D01*
X52089371Y-83227894D01*
X52250000Y-82840100D01*
X52410629Y-83227894D01*
X52772106Y-83589371D01*
X53244398Y-83785000D01*
X53755602Y-83785000D01*
X54227894Y-83589371D01*
X54589371Y-83227894D01*
X54785000Y-82755602D01*
X54785000Y-82244398D01*
X54589371Y-81772106D01*
X54227894Y-81410629D01*
X53755602Y-81215000D01*
X53244398Y-81215000D01*
X52772106Y-81410629D01*
X52410629Y-81772106D01*
X52250000Y-82159900D01*
X52089371Y-81772106D01*
X51727894Y-81410629D01*
X51255602Y-81215000D01*
X50744398Y-81215000D01*
X50272106Y-81410629D01*
X49910629Y-81772106D01*
X49756831Y-82143408D01*
X49629611Y-81836271D01*
X49399016Y-81780590D01*
X48679605Y-82500000D01*
X48320395Y-82500000D01*
X47600984Y-81780590D01*
X47370389Y-81836271D01*
X47202378Y-82319078D01*
X45710000Y-82319078D01*
X45710000Y-81600984D01*
X47780590Y-81600984D01*
X48500000Y-82320395D01*
X49219410Y-81600984D01*
X49163729Y-81370389D01*
X48680922Y-81202378D01*
X48170572Y-81231917D01*
X47836271Y-81370389D01*
X47780590Y-81600984D01*
X45710000Y-81600984D01*
X45710000Y-76566747D01*
X45874778Y-76635000D01*
X46525222Y-76635000D01*
X47126153Y-76386086D01*
X47586086Y-75926153D01*
X47835000Y-75325222D01*
X47835000Y-74674778D01*
X54165000Y-74674778D01*
X54165000Y-75325222D01*
X54413914Y-75926153D01*
X54873847Y-76386086D01*
X55474778Y-76635000D01*
X56125222Y-76635000D01*
X56365002Y-76535680D01*
X56365001Y-87594513D01*
X56315528Y-87643986D01*
X56252072Y-87686386D01*
X56084096Y-87937778D01*
X56055686Y-88080603D01*
X55922569Y-88213720D01*
X55765000Y-88594126D01*
X55765000Y-89005874D01*
X55922569Y-89386280D01*
X56213720Y-89677431D01*
X56565000Y-89822936D01*
X56565000Y-90005874D01*
X56722569Y-90386280D01*
X57013720Y-90677431D01*
X57394126Y-90835000D01*
X57805874Y-90835000D01*
X58186280Y-90677431D01*
X58477431Y-90386280D01*
X58635000Y-90005874D01*
X58635000Y-89594126D01*
X58477431Y-89213720D01*
X58360000Y-89096289D01*
X58360000Y-87774670D01*
X58465000Y-87774670D01*
X58465000Y-88385330D01*
X58698690Y-88949507D01*
X59130493Y-89381310D01*
X59694670Y-89615000D01*
X60305330Y-89615000D01*
X60869507Y-89381310D01*
X61301310Y-88949507D01*
X61535000Y-88385330D01*
X61535000Y-87774670D01*
X61301310Y-87210493D01*
X60869507Y-86778690D01*
X60305330Y-86545000D01*
X59694670Y-86545000D01*
X59130493Y-86778690D01*
X58698690Y-87210493D01*
X58465000Y-87774670D01*
X58360000Y-87774670D01*
X58360000Y-72972239D01*
X58773847Y-73386086D01*
X59374778Y-73635000D01*
X60025222Y-73635000D01*
X60626153Y-73386086D01*
X61086086Y-72926153D01*
X61335000Y-72325222D01*
X61335000Y-71674778D01*
X61086086Y-71073847D01*
X60626153Y-70613914D01*
X60025222Y-70365000D01*
X59374778Y-70365000D01*
X58773847Y-70613914D01*
X58360000Y-71027761D01*
X58360000Y-70914801D01*
X59482956Y-69791846D01*
X59649028Y-69791846D01*
X60029434Y-69634277D01*
X60320585Y-69343126D01*
X60478154Y-68962720D01*
X60478154Y-68550972D01*
X60320585Y-68170566D01*
X60206865Y-68056846D01*
X60277431Y-67986280D01*
X60435000Y-67605874D01*
X60435000Y-67194126D01*
X60277431Y-66813720D01*
X59986280Y-66522569D01*
X59605874Y-66365000D01*
X59194126Y-66365000D01*
X58813720Y-66522569D01*
X58522569Y-66813720D01*
X58365000Y-67194126D01*
X58365000Y-67360197D01*
X56640529Y-69084670D01*
X56577073Y-69127070D01*
X56534673Y-69190526D01*
X56534672Y-69190527D01*
X56409098Y-69378462D01*
X56350113Y-69674999D01*
X56365002Y-69749850D01*
X56365002Y-73464320D01*
X56125222Y-73365000D01*
X55474778Y-73365000D01*
X54873847Y-73613914D01*
X54413914Y-74073847D01*
X54165000Y-74674778D01*
X47835000Y-74674778D01*
X47586086Y-74073847D01*
X47126153Y-73613914D01*
X46525222Y-73365000D01*
X45874778Y-73365000D01*
X45710000Y-73433253D01*
X45710000Y-65561906D01*
X45852071Y-65774531D01*
X45915530Y-65816933D01*
X47828070Y-67729474D01*
X47870470Y-67792930D01*
X48121862Y-67960905D01*
X48343547Y-68005001D01*
X48343551Y-68005001D01*
X48418398Y-68019889D01*
X48493245Y-68005001D01*
X50340152Y-68005001D01*
X50414999Y-68019889D01*
X50489846Y-68005001D01*
X50489851Y-68005001D01*
X50711536Y-67960905D01*
X50962928Y-67792930D01*
X51005330Y-67729471D01*
X51182927Y-67551874D01*
X51190474Y-67555000D01*
X51729526Y-67555000D01*
X52227546Y-67348714D01*
X52608714Y-66967546D01*
X52730000Y-66674735D01*
X52851286Y-66967546D01*
X53232454Y-67348714D01*
X53730474Y-67555000D01*
X54269526Y-67555000D01*
X54767546Y-67348714D01*
X55148714Y-66967546D01*
X55355000Y-66469526D01*
X55355000Y-65930474D01*
X55148714Y-65432454D01*
X54767546Y-65051286D01*
X54269526Y-64845000D01*
X53730474Y-64845000D01*
X53232454Y-65051286D01*
X52851286Y-65432454D01*
X52730000Y-65725265D01*
X52608714Y-65432454D01*
X52227546Y-65051286D01*
X51729526Y-64845000D01*
X51349802Y-64845000D01*
X52634802Y-63560000D01*
X54096289Y-63560000D01*
X54213720Y-63677431D01*
X54594126Y-63835000D01*
X55005874Y-63835000D01*
X55386280Y-63677431D01*
X55677431Y-63386280D01*
X55835000Y-63005874D01*
X55835000Y-62594126D01*
X55677431Y-62213720D01*
X55386280Y-61922569D01*
X55005874Y-61765000D01*
X54594126Y-61765000D01*
X54213720Y-61922569D01*
X54096289Y-62040000D01*
X52394846Y-62040000D01*
X52319999Y-62025112D01*
X52245152Y-62040000D01*
X52245148Y-62040000D01*
X52023463Y-62084096D01*
X51772071Y-62252071D01*
X51729671Y-62315527D01*
X49197073Y-64848126D01*
X49189526Y-64845000D01*
X48650474Y-64845000D01*
X48152454Y-65051286D01*
X47771286Y-65432454D01*
X47744740Y-65496541D01*
X47160000Y-64911801D01*
X47160000Y-58000000D01*
X48985908Y-58000000D01*
X49101161Y-58579418D01*
X49429375Y-59070625D01*
X49727761Y-59270000D01*
X49429375Y-59469375D01*
X49101161Y-59960582D01*
X48985908Y-60540000D01*
X49101161Y-61119418D01*
X49429375Y-61610625D01*
X49920582Y-61938839D01*
X50353744Y-62025000D01*
X50646256Y-62025000D01*
X51079418Y-61938839D01*
X51570625Y-61610625D01*
X51898839Y-61119418D01*
X52014092Y-60540000D01*
X51898839Y-59960582D01*
X51570625Y-59469375D01*
X51272239Y-59270000D01*
X51570625Y-59070625D01*
X51681072Y-58905329D01*
X51994126Y-59035000D01*
X52405874Y-59035000D01*
X52786280Y-58877431D01*
X53077431Y-58586280D01*
X53235000Y-58205874D01*
X53235000Y-57794126D01*
X53077431Y-57413720D01*
X52960000Y-57296289D01*
X52960000Y-47874846D01*
X52974888Y-47799999D01*
X52969115Y-47770974D01*
X53244398Y-47885000D01*
X53755602Y-47885000D01*
X54227894Y-47689371D01*
X54589371Y-47327894D01*
X54743169Y-46956592D01*
X54870389Y-47263729D01*
X55100984Y-47319410D01*
X55820395Y-46600000D01*
X55100984Y-45880590D01*
X54870389Y-45936271D01*
X54754223Y-46270094D01*
X54589371Y-45872106D01*
X54227894Y-45510629D01*
X53755602Y-45315000D01*
X53244398Y-45315000D01*
X52772106Y-45510629D01*
X52410629Y-45872106D01*
X52250000Y-46259900D01*
X52089371Y-45872106D01*
X51727894Y-45510629D01*
X51255602Y-45315000D01*
X50744398Y-45315000D01*
X50272106Y-45510629D01*
X49910629Y-45872106D01*
X49715000Y-46344398D01*
X49715000Y-46855602D01*
X49910629Y-47327894D01*
X50272106Y-47689371D01*
X50744398Y-47885000D01*
X51210198Y-47885000D01*
X51440001Y-48114803D01*
X51440000Y-53980462D01*
X51350000Y-53962560D01*
X49650000Y-53962560D01*
X49402235Y-54011843D01*
X49192191Y-54152191D01*
X49051843Y-54362235D01*
X49002560Y-54610000D01*
X49002560Y-56310000D01*
X49051843Y-56557765D01*
X49192191Y-56767809D01*
X49402235Y-56908157D01*
X49447619Y-56917184D01*
X49429375Y-56929375D01*
X49101161Y-57420582D01*
X48985908Y-58000000D01*
X47160000Y-58000000D01*
X47160000Y-54703711D01*
X47277431Y-54586280D01*
X47435000Y-54205874D01*
X47435000Y-53794126D01*
X47277431Y-53413720D01*
X46986280Y-53122569D01*
X46605874Y-52965000D01*
X46194126Y-52965000D01*
X45813720Y-53122569D01*
X45710000Y-53226289D01*
X45710000Y-38774778D01*
X47065000Y-38774778D01*
X47065000Y-39425222D01*
X47313914Y-40026153D01*
X47773847Y-40486086D01*
X48374778Y-40735000D01*
X49025222Y-40735000D01*
X49626153Y-40486086D01*
X50086086Y-40026153D01*
X50335000Y-39425222D01*
X50335000Y-38774778D01*
X50086086Y-38173847D01*
X49626153Y-37713914D01*
X49025222Y-37465000D01*
X48374778Y-37465000D01*
X47773847Y-37713914D01*
X47313914Y-38173847D01*
X47065000Y-38774778D01*
X45710000Y-38774778D01*
X45710000Y-35435000D01*
X45880874Y-35435000D01*
X46261280Y-35277431D01*
X46378711Y-35160000D01*
X48413060Y-35160000D01*
X48594126Y-35235000D01*
X49005874Y-35235000D01*
X49386280Y-35077431D01*
X49677431Y-34786280D01*
X49835000Y-34405874D01*
X49835000Y-33994126D01*
X49677431Y-33613720D01*
X49386280Y-33322569D01*
X49005874Y-33165000D01*
X48594126Y-33165000D01*
X48213720Y-33322569D01*
X47922569Y-33613720D01*
X47911683Y-33640000D01*
X46378711Y-33640000D01*
X46261280Y-33522569D01*
X45880874Y-33365000D01*
X45710000Y-33365000D01*
X45710000Y-30294126D01*
X51465000Y-30294126D01*
X51465000Y-30705874D01*
X51622569Y-31086280D01*
X51913720Y-31377431D01*
X52294126Y-31535000D01*
X52705874Y-31535000D01*
X52826585Y-31485000D01*
X52915001Y-31485000D01*
X52915001Y-31655874D01*
X53072570Y-32036280D01*
X53363721Y-32327431D01*
X53744127Y-32485000D01*
X54155875Y-32485000D01*
X54536281Y-32327431D01*
X54653712Y-32210000D01*
X55535199Y-32210000D01*
X57037795Y-33712597D01*
X57013720Y-33722569D01*
X56722569Y-34013720D01*
X56565000Y-34394126D01*
X56565000Y-34560199D01*
X56490529Y-34634670D01*
X56427070Y-34677072D01*
X56259095Y-34928465D01*
X56214999Y-35150150D01*
X56214999Y-35150154D01*
X56200111Y-35225001D01*
X56214999Y-35299848D01*
X56215000Y-45314237D01*
X56180922Y-45302378D01*
X55670572Y-45331917D01*
X55336271Y-45470389D01*
X55280590Y-45700984D01*
X56000000Y-46420395D01*
X56014143Y-46406253D01*
X56193748Y-46585858D01*
X56179605Y-46600000D01*
X56193748Y-46614143D01*
X56014142Y-46793748D01*
X56000000Y-46779605D01*
X55280590Y-47499016D01*
X55336271Y-47729611D01*
X55819078Y-47897622D01*
X56266999Y-47871696D01*
X56267000Y-49835197D01*
X56115530Y-49986667D01*
X56052071Y-50029069D01*
X55884096Y-50280462D01*
X55840000Y-50502147D01*
X55840000Y-50502151D01*
X55825112Y-50576998D01*
X55840000Y-50651845D01*
X55840001Y-51485198D01*
X55560199Y-51765000D01*
X55394126Y-51765000D01*
X55013720Y-51922569D01*
X54722569Y-52213720D01*
X54565000Y-52594126D01*
X54565000Y-53005874D01*
X54722569Y-53386280D01*
X55013720Y-53677431D01*
X55394126Y-53835000D01*
X55805874Y-53835000D01*
X56186280Y-53677431D01*
X56477431Y-53386280D01*
X56635000Y-53005874D01*
X56635000Y-52839801D01*
X57084473Y-52390329D01*
X57129863Y-52360000D01*
X60861978Y-52360000D01*
X60765000Y-52594126D01*
X60765000Y-53005874D01*
X60922569Y-53386280D01*
X61040001Y-53503712D01*
X61040000Y-57946288D01*
X60922569Y-58063719D01*
X60765000Y-58444125D01*
X60765000Y-58855873D01*
X60922569Y-59236279D01*
X61213720Y-59527430D01*
X61594126Y-59684999D01*
X62005874Y-59684999D01*
X62114999Y-59639798D01*
X62114999Y-60152989D01*
X62115000Y-64673413D01*
X62064999Y-64794126D01*
X62064999Y-65205874D01*
X62114999Y-65326585D01*
X62115000Y-71673413D01*
X62064999Y-71794126D01*
X62064999Y-72205874D01*
X62114999Y-72326585D01*
X62115000Y-78215000D01*
X61744398Y-78215000D01*
X61272106Y-78410629D01*
X60910629Y-78772106D01*
X60715000Y-79244398D01*
X60715000Y-79755602D01*
X60910629Y-80227894D01*
X61272106Y-80589371D01*
X61744398Y-80785000D01*
X62255602Y-80785000D01*
X62314999Y-80760397D01*
X62315000Y-87673413D01*
X62264999Y-87794126D01*
X62264999Y-88205874D01*
X62314999Y-88326585D01*
X62315000Y-92452986D01*
X62295703Y-92549999D01*
X62372150Y-92934326D01*
X62534901Y-93177901D01*
X62534904Y-93177904D01*
X62589855Y-93260144D01*
X62672095Y-93315095D01*
X63322569Y-93965569D01*
X63372569Y-94086280D01*
X63663720Y-94377431D01*
X64044126Y-94535000D01*
X64215001Y-94535000D01*
X64215001Y-96454111D01*
X64159096Y-96537778D01*
X64130686Y-96680603D01*
X63997569Y-96813720D01*
X63840000Y-97194126D01*
X63840000Y-97605874D01*
X63997569Y-97986280D01*
X64288720Y-98277431D01*
X64669126Y-98435000D01*
X64840000Y-98435000D01*
X64840000Y-103545000D01*
X64694670Y-103545000D01*
X64130493Y-103778690D01*
X63698690Y-104210493D01*
X63465000Y-104774670D01*
X63465000Y-105385330D01*
X63698690Y-105949507D01*
X64130493Y-106381310D01*
X64694670Y-106615000D01*
X65305330Y-106615000D01*
X65465001Y-106548862D01*
X65465001Y-107660197D01*
X61960199Y-111165000D01*
X61794126Y-111165000D01*
X61413720Y-111322569D01*
X61122569Y-111613720D01*
X60965000Y-111994126D01*
X60965000Y-112405874D01*
X61122569Y-112786280D01*
X61413720Y-113077431D01*
X61794126Y-113235000D01*
X62205874Y-113235000D01*
X62586280Y-113077431D01*
X62589041Y-113074670D01*
X63465000Y-113074670D01*
X63465000Y-113685330D01*
X63698690Y-114249507D01*
X64130493Y-114681310D01*
X64694670Y-114915000D01*
X65305330Y-114915000D01*
X65869507Y-114681310D01*
X66301310Y-114249507D01*
X66535000Y-113685330D01*
X66535000Y-113074670D01*
X76465000Y-113074670D01*
X76465000Y-113685330D01*
X76698690Y-114249507D01*
X77130493Y-114681310D01*
X77694670Y-114915000D01*
X78305330Y-114915000D01*
X78869507Y-114681310D01*
X79301310Y-114249507D01*
X79535000Y-113685330D01*
X79535000Y-113074670D01*
X79301310Y-112510493D01*
X78869507Y-112078690D01*
X78305330Y-111845000D01*
X77694670Y-111845000D01*
X77130493Y-112078690D01*
X76698690Y-112510493D01*
X76465000Y-113074670D01*
X66535000Y-113074670D01*
X66301310Y-112510493D01*
X65869507Y-112078690D01*
X65305330Y-111845000D01*
X64694670Y-111845000D01*
X64130493Y-112078690D01*
X63698690Y-112510493D01*
X63465000Y-113074670D01*
X62589041Y-113074670D01*
X62877431Y-112786280D01*
X63035000Y-112405874D01*
X63035000Y-112239801D01*
X66709474Y-108565328D01*
X66772930Y-108522928D01*
X66815925Y-108458581D01*
X66940905Y-108271537D01*
X66979807Y-108075961D01*
X66985001Y-108049851D01*
X66985001Y-108049847D01*
X66999889Y-107974999D01*
X66985001Y-107900151D01*
X66985001Y-104566846D01*
X66999889Y-104491999D01*
X66985001Y-104417152D01*
X66985001Y-104417147D01*
X66940905Y-104195462D01*
X66772930Y-103944070D01*
X66709474Y-103901670D01*
X66360000Y-103552197D01*
X66360000Y-100560159D01*
X69099446Y-100560159D01*
X69185852Y-100816643D01*
X69759336Y-101026458D01*
X70369460Y-101000839D01*
X70814148Y-100816643D01*
X70900554Y-100560159D01*
X70000000Y-99659605D01*
X69099446Y-100560159D01*
X66360000Y-100560159D01*
X66360000Y-99239336D01*
X68453542Y-99239336D01*
X68479161Y-99849460D01*
X68663357Y-100294148D01*
X68919841Y-100380554D01*
X69820395Y-99480000D01*
X70179605Y-99480000D01*
X71080159Y-100380554D01*
X71336643Y-100294148D01*
X71546458Y-99720664D01*
X71520839Y-99110540D01*
X71336643Y-98665852D01*
X71080159Y-98579446D01*
X70179605Y-99480000D01*
X69820395Y-99480000D01*
X68919841Y-98579446D01*
X68663357Y-98665852D01*
X68453542Y-99239336D01*
X66360000Y-99239336D01*
X66360000Y-98399841D01*
X69099446Y-98399841D01*
X70000000Y-99300395D01*
X70900554Y-98399841D01*
X79099446Y-98399841D01*
X80000000Y-99300395D01*
X80900554Y-98399841D01*
X80814148Y-98143357D01*
X80240664Y-97933542D01*
X79630540Y-97959161D01*
X79185852Y-98143357D01*
X79099446Y-98399841D01*
X70900554Y-98399841D01*
X70814148Y-98143357D01*
X70240664Y-97933542D01*
X69630540Y-97959161D01*
X69185852Y-98143357D01*
X69099446Y-98399841D01*
X66360000Y-98399841D01*
X66360000Y-80625778D01*
X66744398Y-80785000D01*
X67255602Y-80785000D01*
X67727894Y-80589371D01*
X68014999Y-80302266D01*
X68015000Y-95080147D01*
X68000111Y-95154999D01*
X68059096Y-95451536D01*
X68135480Y-95565852D01*
X68227071Y-95702928D01*
X68290527Y-95745328D01*
X68510360Y-95965161D01*
X68465000Y-96074670D01*
X68465000Y-96685330D01*
X68698690Y-97249507D01*
X69130493Y-97681310D01*
X69694670Y-97915000D01*
X70305330Y-97915000D01*
X70869507Y-97681310D01*
X71090658Y-97460159D01*
X79099446Y-97460159D01*
X79185852Y-97716643D01*
X79759336Y-97926458D01*
X80369460Y-97900839D01*
X80814148Y-97716643D01*
X80900554Y-97460159D01*
X80000000Y-96559605D01*
X79099446Y-97460159D01*
X71090658Y-97460159D01*
X71301310Y-97249507D01*
X71535000Y-96685330D01*
X71535000Y-96139336D01*
X78453542Y-96139336D01*
X78479161Y-96749460D01*
X78663357Y-97194148D01*
X78919841Y-97280554D01*
X79820395Y-96380000D01*
X80179605Y-96380000D01*
X81080159Y-97280554D01*
X81336643Y-97194148D01*
X81546458Y-96620664D01*
X81520839Y-96010540D01*
X81336643Y-95565852D01*
X81080159Y-95479446D01*
X80179605Y-96380000D01*
X79820395Y-96380000D01*
X78919841Y-95479446D01*
X78663357Y-95565852D01*
X78453542Y-96139336D01*
X71535000Y-96139336D01*
X71535000Y-96074670D01*
X71301310Y-95510493D01*
X70869507Y-95078690D01*
X70305330Y-94845000D01*
X69694670Y-94845000D01*
X69585161Y-94890360D01*
X69534999Y-94840198D01*
X69534999Y-89548862D01*
X69694670Y-89615000D01*
X70305330Y-89615000D01*
X70869507Y-89381310D01*
X71301310Y-88949507D01*
X71535000Y-88385330D01*
X71535000Y-87774670D01*
X71337420Y-87297670D01*
X71386280Y-87277431D01*
X71677431Y-86986280D01*
X71835000Y-86605874D01*
X71835000Y-86194126D01*
X71677431Y-85813720D01*
X71560000Y-85696289D01*
X71560000Y-80503711D01*
X71677431Y-80386280D01*
X71835000Y-80005874D01*
X71835000Y-79594126D01*
X71677431Y-79213720D01*
X71386280Y-78922569D01*
X71005874Y-78765000D01*
X70594126Y-78765000D01*
X70213720Y-78922569D01*
X69922569Y-79213720D01*
X69765000Y-79594126D01*
X69765000Y-80005874D01*
X69830912Y-80165000D01*
X69794126Y-80165000D01*
X69534999Y-80272334D01*
X69534999Y-79728712D01*
X69677431Y-79586280D01*
X69835000Y-79205874D01*
X69835000Y-78794126D01*
X69677431Y-78413720D01*
X69386280Y-78122569D01*
X69005874Y-77965000D01*
X68594126Y-77965000D01*
X68213720Y-78122569D01*
X67922569Y-78413720D01*
X67866455Y-78549190D01*
X67727894Y-78410629D01*
X67255602Y-78215000D01*
X66744398Y-78215000D01*
X66360000Y-78374222D01*
X66360000Y-71674778D01*
X67665000Y-71674778D01*
X67665000Y-72325222D01*
X67913914Y-72926153D01*
X68373847Y-73386086D01*
X68974778Y-73635000D01*
X69625222Y-73635000D01*
X70226153Y-73386086D01*
X70686086Y-72926153D01*
X70935000Y-72325222D01*
X70935000Y-71674778D01*
X70686086Y-71073847D01*
X70226153Y-70613914D01*
X69625222Y-70365000D01*
X68974778Y-70365000D01*
X68373847Y-70613914D01*
X67913914Y-71073847D01*
X67665000Y-71674778D01*
X66360000Y-71674778D01*
X66360000Y-61303711D01*
X66477431Y-61186280D01*
X66635000Y-60805874D01*
X66635000Y-60585000D01*
X72213201Y-60585000D01*
X71388531Y-61409670D01*
X71325073Y-61452071D01*
X71282673Y-61515528D01*
X71209671Y-61588530D01*
X71084097Y-61776465D01*
X71025112Y-62073002D01*
X71084097Y-62369539D01*
X71115000Y-62415789D01*
X71115000Y-63865504D01*
X69922347Y-62672852D01*
X69922347Y-62506779D01*
X69764778Y-62126373D01*
X69473627Y-61835222D01*
X69093221Y-61677653D01*
X68681473Y-61677653D01*
X68301067Y-61835222D01*
X68009916Y-62126373D01*
X67852347Y-62506779D01*
X67852347Y-62918527D01*
X68009916Y-63298933D01*
X68301067Y-63590084D01*
X68681473Y-63747653D01*
X68847546Y-63747653D01*
X70240001Y-65140109D01*
X70240000Y-66296289D01*
X70122569Y-66413720D01*
X69965000Y-66794126D01*
X69965000Y-67205874D01*
X70122569Y-67586280D01*
X70413720Y-67877431D01*
X70794126Y-68035000D01*
X71114999Y-68035000D01*
X71114999Y-69600152D01*
X71100111Y-69674999D01*
X71114999Y-69749846D01*
X71114999Y-69749850D01*
X71159095Y-69971535D01*
X71327070Y-70222928D01*
X71390529Y-70265330D01*
X72640001Y-71514803D01*
X72640000Y-91885198D01*
X71315528Y-93209671D01*
X71252072Y-93252071D01*
X71084096Y-93503463D01*
X71047166Y-93689123D01*
X70922569Y-93813720D01*
X70765000Y-94194126D01*
X70765000Y-94605874D01*
X70922569Y-94986280D01*
X71213720Y-95277431D01*
X71594126Y-95435000D01*
X72005874Y-95435000D01*
X72332177Y-95299841D01*
X79099446Y-95299841D01*
X80000000Y-96200395D01*
X80900554Y-95299841D01*
X80814148Y-95043357D01*
X80240664Y-94833542D01*
X79630540Y-94859161D01*
X79185852Y-95043357D01*
X79099446Y-95299841D01*
X72332177Y-95299841D01*
X72386280Y-95277431D01*
X72677431Y-94986280D01*
X72835000Y-94605874D01*
X72835000Y-94194126D01*
X72731221Y-93943580D01*
X73884473Y-92790329D01*
X73947929Y-92747929D01*
X74031692Y-92622569D01*
X74115904Y-92496538D01*
X74134930Y-92400888D01*
X74160000Y-92274852D01*
X74160000Y-92274848D01*
X74174888Y-92200000D01*
X74160000Y-92125152D01*
X74160000Y-82138022D01*
X74394126Y-82235000D01*
X74740000Y-82235000D01*
X74740001Y-88196288D01*
X74522569Y-88413720D01*
X74365000Y-88794126D01*
X74365000Y-89205874D01*
X74522569Y-89586280D01*
X74813720Y-89877431D01*
X75194126Y-90035000D01*
X75605874Y-90035000D01*
X75986280Y-89877431D01*
X76277431Y-89586280D01*
X76435000Y-89205874D01*
X76435000Y-88794126D01*
X76277431Y-88413720D01*
X76260000Y-88396289D01*
X76260000Y-87774670D01*
X78465000Y-87774670D01*
X78465000Y-88385330D01*
X78698690Y-88949507D01*
X79130493Y-89381310D01*
X79694670Y-89615000D01*
X80305330Y-89615000D01*
X80869507Y-89381310D01*
X81301310Y-88949507D01*
X81535000Y-88385330D01*
X81535000Y-87774670D01*
X81301310Y-87210493D01*
X80869507Y-86778690D01*
X80305330Y-86545000D01*
X79694670Y-86545000D01*
X79130493Y-86778690D01*
X78698690Y-87210493D01*
X78465000Y-87774670D01*
X76260000Y-87774670D01*
X76260000Y-77557265D01*
X76589371Y-77227894D01*
X76750000Y-76840100D01*
X76910629Y-77227894D01*
X77272106Y-77589371D01*
X77744398Y-77785000D01*
X78255602Y-77785000D01*
X78727894Y-77589371D01*
X79089371Y-77227894D01*
X79250000Y-76840100D01*
X79410629Y-77227894D01*
X79772106Y-77589371D01*
X80244398Y-77785000D01*
X80755602Y-77785000D01*
X81227894Y-77589371D01*
X81589371Y-77227894D01*
X81785000Y-76755602D01*
X81785000Y-76244398D01*
X81589371Y-75772106D01*
X81227894Y-75410629D01*
X80755602Y-75215000D01*
X80244398Y-75215000D01*
X79772106Y-75410629D01*
X79410629Y-75772106D01*
X79250000Y-76159900D01*
X79089371Y-75772106D01*
X78727894Y-75410629D01*
X78255602Y-75215000D01*
X77744398Y-75215000D01*
X77272106Y-75410629D01*
X76910629Y-75772106D01*
X76750000Y-76159900D01*
X76589371Y-75772106D01*
X76227894Y-75410629D01*
X75755602Y-75215000D01*
X75244398Y-75215000D01*
X74943187Y-75339765D01*
X74943187Y-71578711D01*
X75060618Y-71461280D01*
X75218187Y-71080874D01*
X75218187Y-70669126D01*
X75060618Y-70288720D01*
X74769467Y-69997569D01*
X74587692Y-69922276D01*
X74835000Y-69325222D01*
X74835000Y-68674778D01*
X74586086Y-68073847D01*
X74126153Y-67613914D01*
X73525222Y-67365000D01*
X72874778Y-67365000D01*
X72634999Y-67464320D01*
X72634999Y-62312804D01*
X74409474Y-60538330D01*
X74472930Y-60495930D01*
X74549713Y-60381017D01*
X74640905Y-60244539D01*
X74655024Y-60173556D01*
X74685001Y-60022853D01*
X74685001Y-60022849D01*
X74699889Y-59948001D01*
X74685001Y-59873153D01*
X74685001Y-49599847D01*
X74699889Y-49525000D01*
X74685001Y-49450153D01*
X74685001Y-49450149D01*
X74640905Y-49228464D01*
X74547664Y-49088919D01*
X74515330Y-49040527D01*
X74515328Y-49040525D01*
X74472930Y-48977072D01*
X74409477Y-48934674D01*
X70134803Y-44660000D01*
X76425112Y-44660000D01*
X76440001Y-44734852D01*
X76440000Y-52325153D01*
X76425112Y-52400000D01*
X76440000Y-52474847D01*
X76440000Y-52474851D01*
X76484096Y-52696536D01*
X76652071Y-52947929D01*
X76715530Y-52990331D01*
X77365000Y-53639802D01*
X77365000Y-53805874D01*
X77522569Y-54186280D01*
X77813720Y-54477431D01*
X78194126Y-54635000D01*
X78605874Y-54635000D01*
X78986280Y-54477431D01*
X79277431Y-54186280D01*
X79435000Y-53805874D01*
X79435000Y-53394126D01*
X79277431Y-53013720D01*
X78986280Y-52722569D01*
X78605874Y-52565000D01*
X78439802Y-52565000D01*
X77960000Y-52085199D01*
X77960000Y-50946680D01*
X78353744Y-51025000D01*
X78646256Y-51025000D01*
X79079418Y-50938839D01*
X79570625Y-50610625D01*
X79898839Y-50119418D01*
X80014092Y-49540000D01*
X79898839Y-48960582D01*
X79570625Y-48469375D01*
X79272239Y-48270000D01*
X79570625Y-48070625D01*
X79898839Y-47579418D01*
X80014092Y-47000000D01*
X79941209Y-46633592D01*
X80214802Y-46360000D01*
X80896289Y-46360000D01*
X81013720Y-46477431D01*
X81394126Y-46635000D01*
X81805874Y-46635000D01*
X82186280Y-46477431D01*
X82477431Y-46186280D01*
X82635000Y-45805874D01*
X82635000Y-45394126D01*
X82477431Y-45013720D01*
X82186280Y-44722569D01*
X81805874Y-44565000D01*
X81394126Y-44565000D01*
X81013720Y-44722569D01*
X80896289Y-44840000D01*
X79997440Y-44840000D01*
X79997440Y-43610000D01*
X79948157Y-43362235D01*
X79807809Y-43152191D01*
X79597765Y-43011843D01*
X79350000Y-42962560D01*
X77650000Y-42962560D01*
X77402235Y-43011843D01*
X77192191Y-43152191D01*
X77051843Y-43362235D01*
X77002560Y-43610000D01*
X77002560Y-43811517D01*
X76852071Y-43912071D01*
X76809669Y-43975530D01*
X76715528Y-44069671D01*
X76652072Y-44112071D01*
X76609672Y-44175527D01*
X76609671Y-44175528D01*
X76484097Y-44363463D01*
X76425112Y-44660000D01*
X70134803Y-44660000D01*
X64960000Y-39485199D01*
X64960000Y-37990532D01*
X64974888Y-37915685D01*
X64960000Y-37840838D01*
X64960000Y-37840834D01*
X64942102Y-37750857D01*
X65084999Y-37405874D01*
X65084999Y-36994126D01*
X64927430Y-36613720D01*
X64636279Y-36322569D01*
X64255873Y-36165000D01*
X64084999Y-36165000D01*
X64084999Y-34293765D01*
X64210145Y-34210145D01*
X64265098Y-34127902D01*
X64465569Y-33927431D01*
X64586280Y-33877431D01*
X64877431Y-33586280D01*
X65035000Y-33205874D01*
X65035000Y-32794126D01*
X64877431Y-32413720D01*
X64586280Y-32122569D01*
X64205874Y-31965000D01*
X64178000Y-31965000D01*
X64658001Y-31485000D01*
X73240000Y-31485000D01*
X73240001Y-37296288D01*
X73122569Y-37413720D01*
X72965000Y-37794126D01*
X72965000Y-38205874D01*
X73122569Y-38586280D01*
X73413720Y-38877431D01*
X73794126Y-39035000D01*
X74205874Y-39035000D01*
X74586280Y-38877431D01*
X74877431Y-38586280D01*
X75035000Y-38205874D01*
X75035000Y-37794126D01*
X74877431Y-37413720D01*
X74760000Y-37296289D01*
X74760000Y-31485000D01*
X78402992Y-31485000D01*
X78500000Y-31504296D01*
X78597008Y-31485000D01*
X78597012Y-31485000D01*
X78884328Y-31427849D01*
X79210145Y-31210145D01*
X79265098Y-31127902D01*
X80215570Y-30177430D01*
X80336280Y-30127431D01*
X80627431Y-29836280D01*
X80785000Y-29455874D01*
X80785000Y-29044126D01*
X80627431Y-28663720D01*
X80336280Y-28372569D01*
X79955874Y-28215000D01*
X79544126Y-28215000D01*
X79163720Y-28372569D01*
X78872569Y-28663720D01*
X78822570Y-28784430D01*
X78092000Y-29515000D01*
X64347007Y-29515000D01*
X64249999Y-29495704D01*
X64152991Y-29515000D01*
X52826585Y-29515000D01*
X52705874Y-29465000D01*
X52294126Y-29465000D01*
X51913720Y-29622569D01*
X51622569Y-29913720D01*
X51465000Y-30294126D01*
X45710000Y-30294126D01*
X45710000Y-27244398D01*
X65715000Y-27244398D01*
X65715000Y-27755602D01*
X65910629Y-28227894D01*
X66272106Y-28589371D01*
X66744398Y-28785000D01*
X67255602Y-28785000D01*
X67727894Y-28589371D01*
X68089371Y-28227894D01*
X68250000Y-27840100D01*
X68410629Y-28227894D01*
X68772106Y-28589371D01*
X69244398Y-28785000D01*
X69755602Y-28785000D01*
X70227894Y-28589371D01*
X70418249Y-28399016D01*
X71280590Y-28399016D01*
X71336271Y-28629611D01*
X71819078Y-28797622D01*
X72329428Y-28768083D01*
X72663729Y-28629611D01*
X72719410Y-28399016D01*
X72000000Y-27679605D01*
X71280590Y-28399016D01*
X70418249Y-28399016D01*
X70589371Y-28227894D01*
X70743169Y-27856592D01*
X70870389Y-28163729D01*
X71100984Y-28219410D01*
X71820395Y-27500000D01*
X72179605Y-27500000D01*
X72899016Y-28219410D01*
X73129611Y-28163729D01*
X73297622Y-27680922D01*
X73268083Y-27170572D01*
X73129611Y-26836271D01*
X72899016Y-26780590D01*
X72179605Y-27500000D01*
X71820395Y-27500000D01*
X71100984Y-26780590D01*
X70870389Y-26836271D01*
X70754223Y-27170094D01*
X70589371Y-26772106D01*
X70418249Y-26600984D01*
X71280590Y-26600984D01*
X72000000Y-27320395D01*
X72719410Y-26600984D01*
X72663729Y-26370389D01*
X72180922Y-26202378D01*
X71670572Y-26231917D01*
X71336271Y-26370389D01*
X71280590Y-26600984D01*
X70418249Y-26600984D01*
X70227894Y-26410629D01*
X69755602Y-26215000D01*
X69244398Y-26215000D01*
X68772106Y-26410629D01*
X68410629Y-26772106D01*
X68250000Y-27159900D01*
X68089371Y-26772106D01*
X67727894Y-26410629D01*
X67255602Y-26215000D01*
X66744398Y-26215000D01*
X66272106Y-26410629D01*
X65910629Y-26772106D01*
X65715000Y-27244398D01*
X45710000Y-27244398D01*
X45710000Y-26069926D01*
X45717039Y-26034540D01*
X45750267Y-26001312D01*
X45885000Y-25676037D01*
X45885000Y-25323963D01*
X45750810Y-25000000D01*
X45885000Y-24676037D01*
X45885000Y-24323963D01*
X45750810Y-24000000D01*
X45885000Y-23676037D01*
X45885000Y-23323963D01*
X45750810Y-23000000D01*
X45885000Y-22676037D01*
X45885000Y-22323963D01*
X45750810Y-22000000D01*
X45885000Y-21676037D01*
X45885000Y-21323963D01*
X45750267Y-20998688D01*
X45717039Y-20965460D01*
X45710000Y-20930074D01*
X45710000Y-19674778D01*
X63065000Y-19674778D01*
X63065000Y-20325222D01*
X63313914Y-20926153D01*
X63773847Y-21386086D01*
X64374778Y-21635000D01*
X65025222Y-21635000D01*
X65626153Y-21386086D01*
X66086086Y-20926153D01*
X66335000Y-20325222D01*
X66335000Y-19674778D01*
X72665000Y-19674778D01*
X72665000Y-20325222D01*
X72913914Y-20926153D01*
X73373847Y-21386086D01*
X73974778Y-21635000D01*
X74625222Y-21635000D01*
X75226153Y-21386086D01*
X75686086Y-20926153D01*
X75935000Y-20325222D01*
X75935000Y-19674778D01*
X75686086Y-19073847D01*
X75226153Y-18613914D01*
X74625222Y-18365000D01*
X73974778Y-18365000D01*
X73373847Y-18613914D01*
X72913914Y-19073847D01*
X72665000Y-19674778D01*
X66335000Y-19674778D01*
X66086086Y-19073847D01*
X65626153Y-18613914D01*
X65025222Y-18365000D01*
X64374778Y-18365000D01*
X63773847Y-18613914D01*
X63313914Y-19073847D01*
X63065000Y-19674778D01*
X45710000Y-19674778D01*
X45710000Y-13940000D01*
X70325908Y-13940000D01*
X70441161Y-14519418D01*
X70769375Y-15010625D01*
X71260582Y-15338839D01*
X71693744Y-15425000D01*
X71986256Y-15425000D01*
X72419418Y-15338839D01*
X72910625Y-15010625D01*
X73123843Y-14691522D01*
X73184817Y-14821358D01*
X73613076Y-15211645D01*
X74023110Y-15381476D01*
X74253000Y-15260155D01*
X74253000Y-14067000D01*
X74507000Y-14067000D01*
X74507000Y-15260155D01*
X74736890Y-15381476D01*
X75146924Y-15211645D01*
X75575183Y-14821358D01*
X75650000Y-14662046D01*
X75724817Y-14821358D01*
X76153076Y-15211645D01*
X76563110Y-15381476D01*
X76793000Y-15260155D01*
X76793000Y-14067000D01*
X77047000Y-14067000D01*
X77047000Y-15260155D01*
X77276890Y-15381476D01*
X77686924Y-15211645D01*
X78115183Y-14821358D01*
X78190000Y-14662046D01*
X78264817Y-14821358D01*
X78693076Y-15211645D01*
X79103110Y-15381476D01*
X79333000Y-15260155D01*
X79333000Y-14067000D01*
X77047000Y-14067000D01*
X76793000Y-14067000D01*
X74507000Y-14067000D01*
X74253000Y-14067000D01*
X74233000Y-14067000D01*
X74233000Y-13813000D01*
X74253000Y-13813000D01*
X74253000Y-11527000D01*
X74507000Y-11527000D01*
X74507000Y-13813000D01*
X76793000Y-13813000D01*
X76793000Y-11527000D01*
X77047000Y-11527000D01*
X77047000Y-13813000D01*
X79333000Y-13813000D01*
X79333000Y-11527000D01*
X77047000Y-11527000D01*
X76793000Y-11527000D01*
X74507000Y-11527000D01*
X74253000Y-11527000D01*
X74233000Y-11527000D01*
X74233000Y-11273000D01*
X74253000Y-11273000D01*
X74253000Y-10079845D01*
X74507000Y-10079845D01*
X74507000Y-11273000D01*
X76793000Y-11273000D01*
X76793000Y-10079845D01*
X77047000Y-10079845D01*
X77047000Y-11273000D01*
X79333000Y-11273000D01*
X79333000Y-10079845D01*
X79587000Y-10079845D01*
X79587000Y-11273000D01*
X79607000Y-11273000D01*
X79607000Y-11527000D01*
X79587000Y-11527000D01*
X79587000Y-13813000D01*
X79607000Y-13813000D01*
X79607000Y-14067000D01*
X79587000Y-14067000D01*
X79587000Y-15260155D01*
X79816890Y-15381476D01*
X80226924Y-15211645D01*
X80655183Y-14821358D01*
X80716157Y-14691522D01*
X80929375Y-15010625D01*
X81420582Y-15338839D01*
X81853744Y-15425000D01*
X82146256Y-15425000D01*
X82579418Y-15338839D01*
X83070625Y-15010625D01*
X83398839Y-14519418D01*
X83514092Y-13940000D01*
X83398839Y-13360582D01*
X83070625Y-12869375D01*
X82772239Y-12670000D01*
X83070625Y-12470625D01*
X83398839Y-11979418D01*
X83514092Y-11400000D01*
X83398839Y-10820582D01*
X83070625Y-10329375D01*
X82579418Y-10001161D01*
X82146256Y-9915000D01*
X81853744Y-9915000D01*
X81420582Y-10001161D01*
X80929375Y-10329375D01*
X80716157Y-10648478D01*
X80655183Y-10518642D01*
X80226924Y-10128355D01*
X79816890Y-9958524D01*
X79587000Y-10079845D01*
X79333000Y-10079845D01*
X79103110Y-9958524D01*
X78693076Y-10128355D01*
X78264817Y-10518642D01*
X78190000Y-10677954D01*
X78115183Y-10518642D01*
X77686924Y-10128355D01*
X77276890Y-9958524D01*
X77047000Y-10079845D01*
X76793000Y-10079845D01*
X76563110Y-9958524D01*
X76153076Y-10128355D01*
X75724817Y-10518642D01*
X75650000Y-10677954D01*
X75575183Y-10518642D01*
X75146924Y-10128355D01*
X74736890Y-9958524D01*
X74507000Y-10079845D01*
X74253000Y-10079845D01*
X74023110Y-9958524D01*
X73613076Y-10128355D01*
X73308739Y-10405708D01*
X73288157Y-10302235D01*
X73147809Y-10092191D01*
X72937765Y-9951843D01*
X72690000Y-9902560D01*
X70990000Y-9902560D01*
X70742235Y-9951843D01*
X70532191Y-10092191D01*
X70391843Y-10302235D01*
X70342560Y-10550000D01*
X70342560Y-12250000D01*
X70391843Y-12497765D01*
X70532191Y-12707809D01*
X70742235Y-12848157D01*
X70787619Y-12857184D01*
X70769375Y-12869375D01*
X70441161Y-13360582D01*
X70325908Y-13940000D01*
X45710000Y-13940000D01*
X45710000Y-9510000D01*
X83790000Y-9510000D01*
X83790001Y-67677762D01*
X83790001Y-67677762D01*
G37*
X83790001Y-67677762D02*
X83726153Y-67613914D01*
X83125222Y-67365000D01*
X82474778Y-67365000D01*
X82234999Y-67464320D01*
X82234999Y-54839802D01*
X82439801Y-54635000D01*
X82605874Y-54635000D01*
X82986280Y-54477431D01*
X83277431Y-54186280D01*
X83435000Y-53805874D01*
X83435000Y-53394126D01*
X83277431Y-53013720D01*
X82986280Y-52722569D01*
X82605874Y-52565000D01*
X82194126Y-52565000D01*
X81813720Y-52722569D01*
X81522569Y-53013720D01*
X81365000Y-53394126D01*
X81365000Y-53560199D01*
X80990527Y-53934672D01*
X80927071Y-53977072D01*
X80884671Y-54040528D01*
X80884670Y-54040529D01*
X80759096Y-54228464D01*
X80700111Y-54525001D01*
X80715000Y-54599853D01*
X80714999Y-71600152D01*
X80700111Y-71674999D01*
X80714999Y-71749846D01*
X80714999Y-71749850D01*
X80759095Y-71971535D01*
X80927070Y-72222928D01*
X80990529Y-72265330D01*
X81365000Y-72639801D01*
X81365000Y-72805874D01*
X81522569Y-73186280D01*
X81813720Y-73477431D01*
X82194126Y-73635000D01*
X82605874Y-73635000D01*
X82986280Y-73477431D01*
X83277431Y-73186280D01*
X83435000Y-72805874D01*
X83435000Y-72394126D01*
X83277431Y-72013720D01*
X82986280Y-71722569D01*
X82605874Y-71565000D01*
X82439801Y-71565000D01*
X82234999Y-71360198D01*
X82234999Y-70535680D01*
X82474778Y-70635000D01*
X83125222Y-70635000D01*
X83726153Y-70386086D01*
X83790001Y-70322238D01*
X83790001Y-100093044D01*
X83480874Y-99965000D01*
X83069126Y-99965000D01*
X82688720Y-100122569D01*
X82571289Y-100240000D01*
X81356454Y-100240000D01*
X81546458Y-99720664D01*
X81520839Y-99110540D01*
X81336643Y-98665852D01*
X81080159Y-98579446D01*
X80179605Y-99480000D01*
X80193748Y-99494143D01*
X80014143Y-99673748D01*
X80000000Y-99659605D01*
X79985858Y-99673748D01*
X79806253Y-99494143D01*
X79820395Y-99480000D01*
X78919841Y-98579446D01*
X78663357Y-98665852D01*
X78453542Y-99239336D01*
X78479161Y-99849460D01*
X78640928Y-100240000D01*
X74624846Y-100240000D01*
X74549999Y-100225112D01*
X74475152Y-100240000D01*
X74475147Y-100240000D01*
X74253462Y-100284096D01*
X74002070Y-100452071D01*
X73959670Y-100515527D01*
X71710198Y-102765000D01*
X71544125Y-102765000D01*
X71163719Y-102922569D01*
X70872568Y-103213720D01*
X70714999Y-103594126D01*
X70714999Y-104005874D01*
X70872568Y-104386280D01*
X71163719Y-104677431D01*
X71544125Y-104835000D01*
X71955873Y-104835000D01*
X72101522Y-104774670D01*
X76465000Y-104774670D01*
X76465000Y-105385330D01*
X76698690Y-105949507D01*
X77130493Y-106381310D01*
X77694670Y-106615000D01*
X78305330Y-106615000D01*
X78869507Y-106381310D01*
X79301310Y-105949507D01*
X79535000Y-105385330D01*
X79535000Y-104774670D01*
X79301310Y-104210493D01*
X78869507Y-103778690D01*
X78305330Y-103545000D01*
X77694670Y-103545000D01*
X77130493Y-103778690D01*
X76698690Y-104210493D01*
X76465000Y-104774670D01*
X72101522Y-104774670D01*
X72336279Y-104677431D01*
X72627430Y-104386280D01*
X72784999Y-104005874D01*
X72784999Y-103839801D01*
X74864801Y-101760000D01*
X82571289Y-101760000D01*
X82688720Y-101877431D01*
X83069126Y-102035000D01*
X83480874Y-102035000D01*
X83790001Y-101906956D01*
X83790001Y-118990000D01*
X45710000Y-118990000D01*
X45710000Y-117560159D01*
X50099446Y-117560159D01*
X50185852Y-117816643D01*
X50759336Y-118026458D01*
X51369460Y-118000839D01*
X51814148Y-117816643D01*
X51900554Y-117560159D01*
X51000000Y-116659605D01*
X50099446Y-117560159D01*
X45710000Y-117560159D01*
X45710000Y-116239336D01*
X49453542Y-116239336D01*
X49479161Y-116849460D01*
X49663357Y-117294148D01*
X49919841Y-117380554D01*
X50820395Y-116480000D01*
X51179605Y-116480000D01*
X52080159Y-117380554D01*
X52336643Y-117294148D01*
X52546458Y-116720664D01*
X52525876Y-116230474D01*
X54145000Y-116230474D01*
X54145000Y-116769526D01*
X54351286Y-117267546D01*
X54732454Y-117648714D01*
X55230474Y-117855000D01*
X55769526Y-117855000D01*
X56267546Y-117648714D01*
X56648714Y-117267546D01*
X56770000Y-116974735D01*
X56891286Y-117267546D01*
X57272454Y-117648714D01*
X57770474Y-117855000D01*
X58309526Y-117855000D01*
X58807546Y-117648714D01*
X59006486Y-117449774D01*
X59809831Y-117449774D01*
X59874131Y-117687611D01*
X60382342Y-117867333D01*
X60920644Y-117838892D01*
X61285869Y-117687611D01*
X61320326Y-117560159D01*
X64099446Y-117560159D01*
X64185852Y-117816643D01*
X64759336Y-118026458D01*
X65369460Y-118000839D01*
X65814148Y-117816643D01*
X65900554Y-117560159D01*
X65000000Y-116659605D01*
X64099446Y-117560159D01*
X61320326Y-117560159D01*
X61350169Y-117449774D01*
X60580000Y-116679605D01*
X59809831Y-117449774D01*
X59006486Y-117449774D01*
X59188714Y-117267546D01*
X59303325Y-116990849D01*
X59392389Y-117205869D01*
X59630226Y-117270169D01*
X60400395Y-116500000D01*
X60759605Y-116500000D01*
X61529774Y-117270169D01*
X61767611Y-117205869D01*
X61947333Y-116697658D01*
X61923118Y-116239336D01*
X63453542Y-116239336D01*
X63479161Y-116849460D01*
X63663357Y-117294148D01*
X63919841Y-117380554D01*
X64820395Y-116480000D01*
X65179605Y-116480000D01*
X66080159Y-117380554D01*
X66336643Y-117294148D01*
X66546458Y-116720664D01*
X66530074Y-116330474D01*
X67545000Y-116330474D01*
X67545000Y-116869526D01*
X67751286Y-117367546D01*
X68132454Y-117748714D01*
X68630474Y-117955000D01*
X69169526Y-117955000D01*
X69667546Y-117748714D01*
X70048714Y-117367546D01*
X70170000Y-117074735D01*
X70291286Y-117367546D01*
X70672454Y-117748714D01*
X71170474Y-117955000D01*
X71709526Y-117955000D01*
X72207546Y-117748714D01*
X72588714Y-117367546D01*
X72710000Y-117074735D01*
X72831286Y-117367546D01*
X73212454Y-117748714D01*
X73710474Y-117955000D01*
X74249526Y-117955000D01*
X74747546Y-117748714D01*
X74936101Y-117560159D01*
X77099446Y-117560159D01*
X77185852Y-117816643D01*
X77759336Y-118026458D01*
X78369460Y-118000839D01*
X78814148Y-117816643D01*
X78900554Y-117560159D01*
X78000000Y-116659605D01*
X77099446Y-117560159D01*
X74936101Y-117560159D01*
X75128714Y-117367546D01*
X75335000Y-116869526D01*
X75335000Y-116330474D01*
X75297250Y-116239336D01*
X76453542Y-116239336D01*
X76479161Y-116849460D01*
X76663357Y-117294148D01*
X76919841Y-117380554D01*
X77820395Y-116480000D01*
X78179605Y-116480000D01*
X79080159Y-117380554D01*
X79336643Y-117294148D01*
X79546458Y-116720664D01*
X79520839Y-116110540D01*
X79336643Y-115665852D01*
X79080159Y-115579446D01*
X78179605Y-116480000D01*
X77820395Y-116480000D01*
X76919841Y-115579446D01*
X76663357Y-115665852D01*
X76453542Y-116239336D01*
X75297250Y-116239336D01*
X75128714Y-115832454D01*
X74747546Y-115451286D01*
X74623347Y-115399841D01*
X77099446Y-115399841D01*
X78000000Y-116300395D01*
X78900554Y-115399841D01*
X78814148Y-115143357D01*
X78240664Y-114933542D01*
X77630540Y-114959161D01*
X77185852Y-115143357D01*
X77099446Y-115399841D01*
X74623347Y-115399841D01*
X74249526Y-115245000D01*
X73710474Y-115245000D01*
X73212454Y-115451286D01*
X72831286Y-115832454D01*
X72710000Y-116125265D01*
X72588714Y-115832454D01*
X72207546Y-115451286D01*
X71709526Y-115245000D01*
X71170474Y-115245000D01*
X70672454Y-115451286D01*
X70291286Y-115832454D01*
X70170000Y-116125265D01*
X70048714Y-115832454D01*
X69667546Y-115451286D01*
X69169526Y-115245000D01*
X68630474Y-115245000D01*
X68132454Y-115451286D01*
X67751286Y-115832454D01*
X67545000Y-116330474D01*
X66530074Y-116330474D01*
X66520839Y-116110540D01*
X66336643Y-115665852D01*
X66080159Y-115579446D01*
X65179605Y-116480000D01*
X64820395Y-116480000D01*
X63919841Y-115579446D01*
X63663357Y-115665852D01*
X63453542Y-116239336D01*
X61923118Y-116239336D01*
X61918892Y-116159356D01*
X61767611Y-115794131D01*
X61529774Y-115729831D01*
X60759605Y-116500000D01*
X60400395Y-116500000D01*
X59630226Y-115729831D01*
X59392389Y-115794131D01*
X59310351Y-116026114D01*
X59188714Y-115732454D01*
X59006486Y-115550226D01*
X59809831Y-115550226D01*
X60580000Y-116320395D01*
X61350169Y-115550226D01*
X61309512Y-115399841D01*
X64099446Y-115399841D01*
X65000000Y-116300395D01*
X65900554Y-115399841D01*
X65814148Y-115143357D01*
X65240664Y-114933542D01*
X64630540Y-114959161D01*
X64185852Y-115143357D01*
X64099446Y-115399841D01*
X61309512Y-115399841D01*
X61285869Y-115312389D01*
X60777658Y-115132667D01*
X60239356Y-115161108D01*
X59874131Y-115312389D01*
X59809831Y-115550226D01*
X59006486Y-115550226D01*
X58807546Y-115351286D01*
X58309526Y-115145000D01*
X57770474Y-115145000D01*
X57272454Y-115351286D01*
X56891286Y-115732454D01*
X56770000Y-116025265D01*
X56648714Y-115732454D01*
X56267546Y-115351286D01*
X55769526Y-115145000D01*
X55230474Y-115145000D01*
X54732454Y-115351286D01*
X54351286Y-115732454D01*
X54145000Y-116230474D01*
X52525876Y-116230474D01*
X52520839Y-116110540D01*
X52336643Y-115665852D01*
X52080159Y-115579446D01*
X51179605Y-116480000D01*
X50820395Y-116480000D01*
X49919841Y-115579446D01*
X49663357Y-115665852D01*
X49453542Y-116239336D01*
X45710000Y-116239336D01*
X45710000Y-115399841D01*
X50099446Y-115399841D01*
X51000000Y-116300395D01*
X51900554Y-115399841D01*
X51814148Y-115143357D01*
X51240664Y-114933542D01*
X50630540Y-114959161D01*
X50185852Y-115143357D01*
X50099446Y-115399841D01*
X45710000Y-115399841D01*
X45710000Y-113074670D01*
X49465000Y-113074670D01*
X49465000Y-113685330D01*
X49698690Y-114249507D01*
X50130493Y-114681310D01*
X50694670Y-114915000D01*
X51305330Y-114915000D01*
X51869507Y-114681310D01*
X52301310Y-114249507D01*
X52535000Y-113685330D01*
X52535000Y-113074670D01*
X52301310Y-112510493D01*
X51869507Y-112078690D01*
X51305330Y-111845000D01*
X50694670Y-111845000D01*
X50130493Y-112078690D01*
X49698690Y-112510493D01*
X49465000Y-113074670D01*
X45710000Y-113074670D01*
X45710000Y-111069926D01*
X45723909Y-111000000D01*
X45686756Y-110813219D01*
X45785000Y-110576037D01*
X45785000Y-110223963D01*
X45650810Y-109900000D01*
X45785000Y-109576037D01*
X45785000Y-109223963D01*
X45650810Y-108900000D01*
X45785000Y-108576037D01*
X45785000Y-108223963D01*
X45650810Y-107900000D01*
X45785000Y-107576037D01*
X45785000Y-107223963D01*
X45650810Y-106900000D01*
X45785000Y-106576037D01*
X45785000Y-106223963D01*
X45713632Y-106051665D01*
X45723909Y-106000000D01*
X45710000Y-105930074D01*
X45710000Y-104774670D01*
X49465000Y-104774670D01*
X49465000Y-105385330D01*
X49698690Y-105949507D01*
X50130493Y-106381310D01*
X50694670Y-106615000D01*
X51305330Y-106615000D01*
X51869507Y-106381310D01*
X52301310Y-105949507D01*
X52535000Y-105385330D01*
X52535000Y-104774670D01*
X52301310Y-104210493D01*
X51869507Y-103778690D01*
X51305330Y-103545000D01*
X50694670Y-103545000D01*
X50130493Y-103778690D01*
X49698690Y-104210493D01*
X49465000Y-104774670D01*
X45710000Y-104774670D01*
X45710000Y-100560159D01*
X49099446Y-100560159D01*
X49185852Y-100816643D01*
X49759336Y-101026458D01*
X50369460Y-101000839D01*
X50814148Y-100816643D01*
X50900554Y-100560159D01*
X59099446Y-100560159D01*
X59185852Y-100816643D01*
X59759336Y-101026458D01*
X60369460Y-101000839D01*
X60814148Y-100816643D01*
X60900554Y-100560159D01*
X60000000Y-99659605D01*
X59099446Y-100560159D01*
X50900554Y-100560159D01*
X50000000Y-99659605D01*
X49099446Y-100560159D01*
X45710000Y-100560159D01*
X45710000Y-99239336D01*
X48453542Y-99239336D01*
X48479161Y-99849460D01*
X48663357Y-100294148D01*
X48919841Y-100380554D01*
X49820395Y-99480000D01*
X50179605Y-99480000D01*
X51080159Y-100380554D01*
X51336643Y-100294148D01*
X51546458Y-99720664D01*
X51526248Y-99239336D01*
X58453542Y-99239336D01*
X58479161Y-99849460D01*
X58663357Y-100294148D01*
X58919841Y-100380554D01*
X59820395Y-99480000D01*
X60179605Y-99480000D01*
X61080159Y-100380554D01*
X61336643Y-100294148D01*
X61546458Y-99720664D01*
X61520839Y-99110540D01*
X61336643Y-98665852D01*
X61080159Y-98579446D01*
X60179605Y-99480000D01*
X59820395Y-99480000D01*
X58919841Y-98579446D01*
X58663357Y-98665852D01*
X58453542Y-99239336D01*
X51526248Y-99239336D01*
X51520839Y-99110540D01*
X51336643Y-98665852D01*
X51080159Y-98579446D01*
X50179605Y-99480000D01*
X49820395Y-99480000D01*
X48919841Y-98579446D01*
X48663357Y-98665852D01*
X48453542Y-99239336D01*
X45710000Y-99239336D01*
X45710000Y-98399841D01*
X49099446Y-98399841D01*
X50000000Y-99300395D01*
X50900554Y-98399841D01*
X59099446Y-98399841D01*
X60000000Y-99300395D01*
X60900554Y-98399841D01*
X60814148Y-98143357D01*
X60240664Y-97933542D01*
X59630540Y-97959161D01*
X59185852Y-98143357D01*
X59099446Y-98399841D01*
X50900554Y-98399841D01*
X50814148Y-98143357D01*
X50240664Y-97933542D01*
X49630540Y-97959161D01*
X49185852Y-98143357D01*
X49099446Y-98399841D01*
X45710000Y-98399841D01*
X45710000Y-97460159D01*
X49099446Y-97460159D01*
X49185852Y-97716643D01*
X49759336Y-97926458D01*
X50369460Y-97900839D01*
X50814148Y-97716643D01*
X50900554Y-97460159D01*
X59099446Y-97460159D01*
X59185852Y-97716643D01*
X59759336Y-97926458D01*
X60369460Y-97900839D01*
X60814148Y-97716643D01*
X60900554Y-97460159D01*
X60000000Y-96559605D01*
X59099446Y-97460159D01*
X50900554Y-97460159D01*
X50000000Y-96559605D01*
X49099446Y-97460159D01*
X45710000Y-97460159D01*
X45710000Y-96139336D01*
X48453542Y-96139336D01*
X48479161Y-96749460D01*
X48663357Y-97194148D01*
X48919841Y-97280554D01*
X49820395Y-96380000D01*
X50179605Y-96380000D01*
X51080159Y-97280554D01*
X51336643Y-97194148D01*
X51546458Y-96620664D01*
X51526248Y-96139336D01*
X58453542Y-96139336D01*
X58479161Y-96749460D01*
X58663357Y-97194148D01*
X58919841Y-97280554D01*
X59820395Y-96380000D01*
X60179605Y-96380000D01*
X61080159Y-97280554D01*
X61336643Y-97194148D01*
X61546458Y-96620664D01*
X61520839Y-96010540D01*
X61336643Y-95565852D01*
X61080159Y-95479446D01*
X60179605Y-96380000D01*
X59820395Y-96380000D01*
X58919841Y-95479446D01*
X58663357Y-95565852D01*
X58453542Y-96139336D01*
X51526248Y-96139336D01*
X51520839Y-96010540D01*
X51336643Y-95565852D01*
X51080159Y-95479446D01*
X50179605Y-96380000D01*
X49820395Y-96380000D01*
X48919841Y-95479446D01*
X48663357Y-95565852D01*
X48453542Y-96139336D01*
X45710000Y-96139336D01*
X45710000Y-95299841D01*
X49099446Y-95299841D01*
X50000000Y-96200395D01*
X50900554Y-95299841D01*
X59099446Y-95299841D01*
X60000000Y-96200395D01*
X60900554Y-95299841D01*
X60814148Y-95043357D01*
X60240664Y-94833542D01*
X59630540Y-94859161D01*
X59185852Y-95043357D01*
X59099446Y-95299841D01*
X50900554Y-95299841D01*
X50814148Y-95043357D01*
X50240664Y-94833542D01*
X49630540Y-94859161D01*
X49185852Y-95043357D01*
X49099446Y-95299841D01*
X45710000Y-95299841D01*
X45710000Y-87774670D01*
X48465000Y-87774670D01*
X48465000Y-88385330D01*
X48698690Y-88949507D01*
X49130493Y-89381310D01*
X49694670Y-89615000D01*
X50305330Y-89615000D01*
X50869507Y-89381310D01*
X51301310Y-88949507D01*
X51535000Y-88385330D01*
X51535000Y-87774670D01*
X51301310Y-87210493D01*
X50869507Y-86778690D01*
X50305330Y-86545000D01*
X49694670Y-86545000D01*
X49130493Y-86778690D01*
X48698690Y-87210493D01*
X48465000Y-87774670D01*
X45710000Y-87774670D01*
X45710000Y-83399016D01*
X47780590Y-83399016D01*
X47836271Y-83629611D01*
X48319078Y-83797622D01*
X48829428Y-83768083D01*
X49163729Y-83629611D01*
X49219410Y-83399016D01*
X48500000Y-82679605D01*
X47780590Y-83399016D01*
X45710000Y-83399016D01*
X45710000Y-82319078D01*
X47202378Y-82319078D01*
X47231917Y-82829428D01*
X47370389Y-83163729D01*
X47600984Y-83219410D01*
X48320395Y-82500000D01*
X48679605Y-82500000D01*
X49399016Y-83219410D01*
X49629611Y-83163729D01*
X49745777Y-82829906D01*
X49910629Y-83227894D01*
X50272106Y-83589371D01*
X50744398Y-83785000D01*
X51255602Y-83785000D01*
X51727894Y-83589371D01*
X52089371Y-83227894D01*
X52250000Y-82840100D01*
X52410629Y-83227894D01*
X52772106Y-83589371D01*
X53244398Y-83785000D01*
X53755602Y-83785000D01*
X54227894Y-83589371D01*
X54589371Y-83227894D01*
X54785000Y-82755602D01*
X54785000Y-82244398D01*
X54589371Y-81772106D01*
X54227894Y-81410629D01*
X53755602Y-81215000D01*
X53244398Y-81215000D01*
X52772106Y-81410629D01*
X52410629Y-81772106D01*
X52250000Y-82159900D01*
X52089371Y-81772106D01*
X51727894Y-81410629D01*
X51255602Y-81215000D01*
X50744398Y-81215000D01*
X50272106Y-81410629D01*
X49910629Y-81772106D01*
X49756831Y-82143408D01*
X49629611Y-81836271D01*
X49399016Y-81780590D01*
X48679605Y-82500000D01*
X48320395Y-82500000D01*
X47600984Y-81780590D01*
X47370389Y-81836271D01*
X47202378Y-82319078D01*
X45710000Y-82319078D01*
X45710000Y-81600984D01*
X47780590Y-81600984D01*
X48500000Y-82320395D01*
X49219410Y-81600984D01*
X49163729Y-81370389D01*
X48680922Y-81202378D01*
X48170572Y-81231917D01*
X47836271Y-81370389D01*
X47780590Y-81600984D01*
X45710000Y-81600984D01*
X45710000Y-76566747D01*
X45874778Y-76635000D01*
X46525222Y-76635000D01*
X47126153Y-76386086D01*
X47586086Y-75926153D01*
X47835000Y-75325222D01*
X47835000Y-74674778D01*
X54165000Y-74674778D01*
X54165000Y-75325222D01*
X54413914Y-75926153D01*
X54873847Y-76386086D01*
X55474778Y-76635000D01*
X56125222Y-76635000D01*
X56365002Y-76535680D01*
X56365001Y-87594513D01*
X56315528Y-87643986D01*
X56252072Y-87686386D01*
X56084096Y-87937778D01*
X56055686Y-88080603D01*
X55922569Y-88213720D01*
X55765000Y-88594126D01*
X55765000Y-89005874D01*
X55922569Y-89386280D01*
X56213720Y-89677431D01*
X56565000Y-89822936D01*
X56565000Y-90005874D01*
X56722569Y-90386280D01*
X57013720Y-90677431D01*
X57394126Y-90835000D01*
X57805874Y-90835000D01*
X58186280Y-90677431D01*
X58477431Y-90386280D01*
X58635000Y-90005874D01*
X58635000Y-89594126D01*
X58477431Y-89213720D01*
X58360000Y-89096289D01*
X58360000Y-87774670D01*
X58465000Y-87774670D01*
X58465000Y-88385330D01*
X58698690Y-88949507D01*
X59130493Y-89381310D01*
X59694670Y-89615000D01*
X60305330Y-89615000D01*
X60869507Y-89381310D01*
X61301310Y-88949507D01*
X61535000Y-88385330D01*
X61535000Y-87774670D01*
X61301310Y-87210493D01*
X60869507Y-86778690D01*
X60305330Y-86545000D01*
X59694670Y-86545000D01*
X59130493Y-86778690D01*
X58698690Y-87210493D01*
X58465000Y-87774670D01*
X58360000Y-87774670D01*
X58360000Y-72972239D01*
X58773847Y-73386086D01*
X59374778Y-73635000D01*
X60025222Y-73635000D01*
X60626153Y-73386086D01*
X61086086Y-72926153D01*
X61335000Y-72325222D01*
X61335000Y-71674778D01*
X61086086Y-71073847D01*
X60626153Y-70613914D01*
X60025222Y-70365000D01*
X59374778Y-70365000D01*
X58773847Y-70613914D01*
X58360000Y-71027761D01*
X58360000Y-70914801D01*
X59482956Y-69791846D01*
X59649028Y-69791846D01*
X60029434Y-69634277D01*
X60320585Y-69343126D01*
X60478154Y-68962720D01*
X60478154Y-68550972D01*
X60320585Y-68170566D01*
X60206865Y-68056846D01*
X60277431Y-67986280D01*
X60435000Y-67605874D01*
X60435000Y-67194126D01*
X60277431Y-66813720D01*
X59986280Y-66522569D01*
X59605874Y-66365000D01*
X59194126Y-66365000D01*
X58813720Y-66522569D01*
X58522569Y-66813720D01*
X58365000Y-67194126D01*
X58365000Y-67360197D01*
X56640529Y-69084670D01*
X56577073Y-69127070D01*
X56534673Y-69190526D01*
X56534672Y-69190527D01*
X56409098Y-69378462D01*
X56350113Y-69674999D01*
X56365002Y-69749850D01*
X56365002Y-73464320D01*
X56125222Y-73365000D01*
X55474778Y-73365000D01*
X54873847Y-73613914D01*
X54413914Y-74073847D01*
X54165000Y-74674778D01*
X47835000Y-74674778D01*
X47586086Y-74073847D01*
X47126153Y-73613914D01*
X46525222Y-73365000D01*
X45874778Y-73365000D01*
X45710000Y-73433253D01*
X45710000Y-65561906D01*
X45852071Y-65774531D01*
X45915530Y-65816933D01*
X47828070Y-67729474D01*
X47870470Y-67792930D01*
X48121862Y-67960905D01*
X48343547Y-68005001D01*
X48343551Y-68005001D01*
X48418398Y-68019889D01*
X48493245Y-68005001D01*
X50340152Y-68005001D01*
X50414999Y-68019889D01*
X50489846Y-68005001D01*
X50489851Y-68005001D01*
X50711536Y-67960905D01*
X50962928Y-67792930D01*
X51005330Y-67729471D01*
X51182927Y-67551874D01*
X51190474Y-67555000D01*
X51729526Y-67555000D01*
X52227546Y-67348714D01*
X52608714Y-66967546D01*
X52730000Y-66674735D01*
X52851286Y-66967546D01*
X53232454Y-67348714D01*
X53730474Y-67555000D01*
X54269526Y-67555000D01*
X54767546Y-67348714D01*
X55148714Y-66967546D01*
X55355000Y-66469526D01*
X55355000Y-65930474D01*
X55148714Y-65432454D01*
X54767546Y-65051286D01*
X54269526Y-64845000D01*
X53730474Y-64845000D01*
X53232454Y-65051286D01*
X52851286Y-65432454D01*
X52730000Y-65725265D01*
X52608714Y-65432454D01*
X52227546Y-65051286D01*
X51729526Y-64845000D01*
X51349802Y-64845000D01*
X52634802Y-63560000D01*
X54096289Y-63560000D01*
X54213720Y-63677431D01*
X54594126Y-63835000D01*
X55005874Y-63835000D01*
X55386280Y-63677431D01*
X55677431Y-63386280D01*
X55835000Y-63005874D01*
X55835000Y-62594126D01*
X55677431Y-62213720D01*
X55386280Y-61922569D01*
X55005874Y-61765000D01*
X54594126Y-61765000D01*
X54213720Y-61922569D01*
X54096289Y-62040000D01*
X52394846Y-62040000D01*
X52319999Y-62025112D01*
X52245152Y-62040000D01*
X52245148Y-62040000D01*
X52023463Y-62084096D01*
X51772071Y-62252071D01*
X51729671Y-62315527D01*
X49197073Y-64848126D01*
X49189526Y-64845000D01*
X48650474Y-64845000D01*
X48152454Y-65051286D01*
X47771286Y-65432454D01*
X47744740Y-65496541D01*
X47160000Y-64911801D01*
X47160000Y-58000000D01*
X48985908Y-58000000D01*
X49101161Y-58579418D01*
X49429375Y-59070625D01*
X49727761Y-59270000D01*
X49429375Y-59469375D01*
X49101161Y-59960582D01*
X48985908Y-60540000D01*
X49101161Y-61119418D01*
X49429375Y-61610625D01*
X49920582Y-61938839D01*
X50353744Y-62025000D01*
X50646256Y-62025000D01*
X51079418Y-61938839D01*
X51570625Y-61610625D01*
X51898839Y-61119418D01*
X52014092Y-60540000D01*
X51898839Y-59960582D01*
X51570625Y-59469375D01*
X51272239Y-59270000D01*
X51570625Y-59070625D01*
X51681072Y-58905329D01*
X51994126Y-59035000D01*
X52405874Y-59035000D01*
X52786280Y-58877431D01*
X53077431Y-58586280D01*
X53235000Y-58205874D01*
X53235000Y-57794126D01*
X53077431Y-57413720D01*
X52960000Y-57296289D01*
X52960000Y-47874846D01*
X52974888Y-47799999D01*
X52969115Y-47770974D01*
X53244398Y-47885000D01*
X53755602Y-47885000D01*
X54227894Y-47689371D01*
X54589371Y-47327894D01*
X54743169Y-46956592D01*
X54870389Y-47263729D01*
X55100984Y-47319410D01*
X55820395Y-46600000D01*
X55100984Y-45880590D01*
X54870389Y-45936271D01*
X54754223Y-46270094D01*
X54589371Y-45872106D01*
X54227894Y-45510629D01*
X53755602Y-45315000D01*
X53244398Y-45315000D01*
X52772106Y-45510629D01*
X52410629Y-45872106D01*
X52250000Y-46259900D01*
X52089371Y-45872106D01*
X51727894Y-45510629D01*
X51255602Y-45315000D01*
X50744398Y-45315000D01*
X50272106Y-45510629D01*
X49910629Y-45872106D01*
X49715000Y-46344398D01*
X49715000Y-46855602D01*
X49910629Y-47327894D01*
X50272106Y-47689371D01*
X50744398Y-47885000D01*
X51210198Y-47885000D01*
X51440001Y-48114803D01*
X51440000Y-53980462D01*
X51350000Y-53962560D01*
X49650000Y-53962560D01*
X49402235Y-54011843D01*
X49192191Y-54152191D01*
X49051843Y-54362235D01*
X49002560Y-54610000D01*
X49002560Y-56310000D01*
X49051843Y-56557765D01*
X49192191Y-56767809D01*
X49402235Y-56908157D01*
X49447619Y-56917184D01*
X49429375Y-56929375D01*
X49101161Y-57420582D01*
X48985908Y-58000000D01*
X47160000Y-58000000D01*
X47160000Y-54703711D01*
X47277431Y-54586280D01*
X47435000Y-54205874D01*
X47435000Y-53794126D01*
X47277431Y-53413720D01*
X46986280Y-53122569D01*
X46605874Y-52965000D01*
X46194126Y-52965000D01*
X45813720Y-53122569D01*
X45710000Y-53226289D01*
X45710000Y-38774778D01*
X47065000Y-38774778D01*
X47065000Y-39425222D01*
X47313914Y-40026153D01*
X47773847Y-40486086D01*
X48374778Y-40735000D01*
X49025222Y-40735000D01*
X49626153Y-40486086D01*
X50086086Y-40026153D01*
X50335000Y-39425222D01*
X50335000Y-38774778D01*
X50086086Y-38173847D01*
X49626153Y-37713914D01*
X49025222Y-37465000D01*
X48374778Y-37465000D01*
X47773847Y-37713914D01*
X47313914Y-38173847D01*
X47065000Y-38774778D01*
X45710000Y-38774778D01*
X45710000Y-35435000D01*
X45880874Y-35435000D01*
X46261280Y-35277431D01*
X46378711Y-35160000D01*
X48413060Y-35160000D01*
X48594126Y-35235000D01*
X49005874Y-35235000D01*
X49386280Y-35077431D01*
X49677431Y-34786280D01*
X49835000Y-34405874D01*
X49835000Y-33994126D01*
X49677431Y-33613720D01*
X49386280Y-33322569D01*
X49005874Y-33165000D01*
X48594126Y-33165000D01*
X48213720Y-33322569D01*
X47922569Y-33613720D01*
X47911683Y-33640000D01*
X46378711Y-33640000D01*
X46261280Y-33522569D01*
X45880874Y-33365000D01*
X45710000Y-33365000D01*
X45710000Y-30294126D01*
X51465000Y-30294126D01*
X51465000Y-30705874D01*
X51622569Y-31086280D01*
X51913720Y-31377431D01*
X52294126Y-31535000D01*
X52705874Y-31535000D01*
X52826585Y-31485000D01*
X52915001Y-31485000D01*
X52915001Y-31655874D01*
X53072570Y-32036280D01*
X53363721Y-32327431D01*
X53744127Y-32485000D01*
X54155875Y-32485000D01*
X54536281Y-32327431D01*
X54653712Y-32210000D01*
X55535199Y-32210000D01*
X57037795Y-33712597D01*
X57013720Y-33722569D01*
X56722569Y-34013720D01*
X56565000Y-34394126D01*
X56565000Y-34560199D01*
X56490529Y-34634670D01*
X56427070Y-34677072D01*
X56259095Y-34928465D01*
X56214999Y-35150150D01*
X56214999Y-35150154D01*
X56200111Y-35225001D01*
X56214999Y-35299848D01*
X56215000Y-45314237D01*
X56180922Y-45302378D01*
X55670572Y-45331917D01*
X55336271Y-45470389D01*
X55280590Y-45700984D01*
X56000000Y-46420395D01*
X56014143Y-46406253D01*
X56193748Y-46585858D01*
X56179605Y-46600000D01*
X56193748Y-46614143D01*
X56014142Y-46793748D01*
X56000000Y-46779605D01*
X55280590Y-47499016D01*
X55336271Y-47729611D01*
X55819078Y-47897622D01*
X56266999Y-47871696D01*
X56267000Y-49835197D01*
X56115530Y-49986667D01*
X56052071Y-50029069D01*
X55884096Y-50280462D01*
X55840000Y-50502147D01*
X55840000Y-50502151D01*
X55825112Y-50576998D01*
X55840000Y-50651845D01*
X55840001Y-51485198D01*
X55560199Y-51765000D01*
X55394126Y-51765000D01*
X55013720Y-51922569D01*
X54722569Y-52213720D01*
X54565000Y-52594126D01*
X54565000Y-53005874D01*
X54722569Y-53386280D01*
X55013720Y-53677431D01*
X55394126Y-53835000D01*
X55805874Y-53835000D01*
X56186280Y-53677431D01*
X56477431Y-53386280D01*
X56635000Y-53005874D01*
X56635000Y-52839801D01*
X57084473Y-52390329D01*
X57129863Y-52360000D01*
X60861978Y-52360000D01*
X60765000Y-52594126D01*
X60765000Y-53005874D01*
X60922569Y-53386280D01*
X61040001Y-53503712D01*
X61040000Y-57946288D01*
X60922569Y-58063719D01*
X60765000Y-58444125D01*
X60765000Y-58855873D01*
X60922569Y-59236279D01*
X61213720Y-59527430D01*
X61594126Y-59684999D01*
X62005874Y-59684999D01*
X62114999Y-59639798D01*
X62114999Y-60152989D01*
X62115000Y-64673413D01*
X62064999Y-64794126D01*
X62064999Y-65205874D01*
X62114999Y-65326585D01*
X62115000Y-71673413D01*
X62064999Y-71794126D01*
X62064999Y-72205874D01*
X62114999Y-72326585D01*
X62115000Y-78215000D01*
X61744398Y-78215000D01*
X61272106Y-78410629D01*
X60910629Y-78772106D01*
X60715000Y-79244398D01*
X60715000Y-79755602D01*
X60910629Y-80227894D01*
X61272106Y-80589371D01*
X61744398Y-80785000D01*
X62255602Y-80785000D01*
X62314999Y-80760397D01*
X62315000Y-87673413D01*
X62264999Y-87794126D01*
X62264999Y-88205874D01*
X62314999Y-88326585D01*
X62315000Y-92452986D01*
X62295703Y-92549999D01*
X62372150Y-92934326D01*
X62534901Y-93177901D01*
X62534904Y-93177904D01*
X62589855Y-93260144D01*
X62672095Y-93315095D01*
X63322569Y-93965569D01*
X63372569Y-94086280D01*
X63663720Y-94377431D01*
X64044126Y-94535000D01*
X64215001Y-94535000D01*
X64215001Y-96454111D01*
X64159096Y-96537778D01*
X64130686Y-96680603D01*
X63997569Y-96813720D01*
X63840000Y-97194126D01*
X63840000Y-97605874D01*
X63997569Y-97986280D01*
X64288720Y-98277431D01*
X64669126Y-98435000D01*
X64840000Y-98435000D01*
X64840000Y-103545000D01*
X64694670Y-103545000D01*
X64130493Y-103778690D01*
X63698690Y-104210493D01*
X63465000Y-104774670D01*
X63465000Y-105385330D01*
X63698690Y-105949507D01*
X64130493Y-106381310D01*
X64694670Y-106615000D01*
X65305330Y-106615000D01*
X65465001Y-106548862D01*
X65465001Y-107660197D01*
X61960199Y-111165000D01*
X61794126Y-111165000D01*
X61413720Y-111322569D01*
X61122569Y-111613720D01*
X60965000Y-111994126D01*
X60965000Y-112405874D01*
X61122569Y-112786280D01*
X61413720Y-113077431D01*
X61794126Y-113235000D01*
X62205874Y-113235000D01*
X62586280Y-113077431D01*
X62589041Y-113074670D01*
X63465000Y-113074670D01*
X63465000Y-113685330D01*
X63698690Y-114249507D01*
X64130493Y-114681310D01*
X64694670Y-114915000D01*
X65305330Y-114915000D01*
X65869507Y-114681310D01*
X66301310Y-114249507D01*
X66535000Y-113685330D01*
X66535000Y-113074670D01*
X76465000Y-113074670D01*
X76465000Y-113685330D01*
X76698690Y-114249507D01*
X77130493Y-114681310D01*
X77694670Y-114915000D01*
X78305330Y-114915000D01*
X78869507Y-114681310D01*
X79301310Y-114249507D01*
X79535000Y-113685330D01*
X79535000Y-113074670D01*
X79301310Y-112510493D01*
X78869507Y-112078690D01*
X78305330Y-111845000D01*
X77694670Y-111845000D01*
X77130493Y-112078690D01*
X76698690Y-112510493D01*
X76465000Y-113074670D01*
X66535000Y-113074670D01*
X66301310Y-112510493D01*
X65869507Y-112078690D01*
X65305330Y-111845000D01*
X64694670Y-111845000D01*
X64130493Y-112078690D01*
X63698690Y-112510493D01*
X63465000Y-113074670D01*
X62589041Y-113074670D01*
X62877431Y-112786280D01*
X63035000Y-112405874D01*
X63035000Y-112239801D01*
X66709474Y-108565328D01*
X66772930Y-108522928D01*
X66815925Y-108458581D01*
X66940905Y-108271537D01*
X66979807Y-108075961D01*
X66985001Y-108049851D01*
X66985001Y-108049847D01*
X66999889Y-107974999D01*
X66985001Y-107900151D01*
X66985001Y-104566846D01*
X66999889Y-104491999D01*
X66985001Y-104417152D01*
X66985001Y-104417147D01*
X66940905Y-104195462D01*
X66772930Y-103944070D01*
X66709474Y-103901670D01*
X66360000Y-103552197D01*
X66360000Y-100560159D01*
X69099446Y-100560159D01*
X69185852Y-100816643D01*
X69759336Y-101026458D01*
X70369460Y-101000839D01*
X70814148Y-100816643D01*
X70900554Y-100560159D01*
X70000000Y-99659605D01*
X69099446Y-100560159D01*
X66360000Y-100560159D01*
X66360000Y-99239336D01*
X68453542Y-99239336D01*
X68479161Y-99849460D01*
X68663357Y-100294148D01*
X68919841Y-100380554D01*
X69820395Y-99480000D01*
X70179605Y-99480000D01*
X71080159Y-100380554D01*
X71336643Y-100294148D01*
X71546458Y-99720664D01*
X71520839Y-99110540D01*
X71336643Y-98665852D01*
X71080159Y-98579446D01*
X70179605Y-99480000D01*
X69820395Y-99480000D01*
X68919841Y-98579446D01*
X68663357Y-98665852D01*
X68453542Y-99239336D01*
X66360000Y-99239336D01*
X66360000Y-98399841D01*
X69099446Y-98399841D01*
X70000000Y-99300395D01*
X70900554Y-98399841D01*
X79099446Y-98399841D01*
X80000000Y-99300395D01*
X80900554Y-98399841D01*
X80814148Y-98143357D01*
X80240664Y-97933542D01*
X79630540Y-97959161D01*
X79185852Y-98143357D01*
X79099446Y-98399841D01*
X70900554Y-98399841D01*
X70814148Y-98143357D01*
X70240664Y-97933542D01*
X69630540Y-97959161D01*
X69185852Y-98143357D01*
X69099446Y-98399841D01*
X66360000Y-98399841D01*
X66360000Y-80625778D01*
X66744398Y-80785000D01*
X67255602Y-80785000D01*
X67727894Y-80589371D01*
X68014999Y-80302266D01*
X68015000Y-95080147D01*
X68000111Y-95154999D01*
X68059096Y-95451536D01*
X68135480Y-95565852D01*
X68227071Y-95702928D01*
X68290527Y-95745328D01*
X68510360Y-95965161D01*
X68465000Y-96074670D01*
X68465000Y-96685330D01*
X68698690Y-97249507D01*
X69130493Y-97681310D01*
X69694670Y-97915000D01*
X70305330Y-97915000D01*
X70869507Y-97681310D01*
X71090658Y-97460159D01*
X79099446Y-97460159D01*
X79185852Y-97716643D01*
X79759336Y-97926458D01*
X80369460Y-97900839D01*
X80814148Y-97716643D01*
X80900554Y-97460159D01*
X80000000Y-96559605D01*
X79099446Y-97460159D01*
X71090658Y-97460159D01*
X71301310Y-97249507D01*
X71535000Y-96685330D01*
X71535000Y-96139336D01*
X78453542Y-96139336D01*
X78479161Y-96749460D01*
X78663357Y-97194148D01*
X78919841Y-97280554D01*
X79820395Y-96380000D01*
X80179605Y-96380000D01*
X81080159Y-97280554D01*
X81336643Y-97194148D01*
X81546458Y-96620664D01*
X81520839Y-96010540D01*
X81336643Y-95565852D01*
X81080159Y-95479446D01*
X80179605Y-96380000D01*
X79820395Y-96380000D01*
X78919841Y-95479446D01*
X78663357Y-95565852D01*
X78453542Y-96139336D01*
X71535000Y-96139336D01*
X71535000Y-96074670D01*
X71301310Y-95510493D01*
X70869507Y-95078690D01*
X70305330Y-94845000D01*
X69694670Y-94845000D01*
X69585161Y-94890360D01*
X69534999Y-94840198D01*
X69534999Y-89548862D01*
X69694670Y-89615000D01*
X70305330Y-89615000D01*
X70869507Y-89381310D01*
X71301310Y-88949507D01*
X71535000Y-88385330D01*
X71535000Y-87774670D01*
X71337420Y-87297670D01*
X71386280Y-87277431D01*
X71677431Y-86986280D01*
X71835000Y-86605874D01*
X71835000Y-86194126D01*
X71677431Y-85813720D01*
X71560000Y-85696289D01*
X71560000Y-80503711D01*
X71677431Y-80386280D01*
X71835000Y-80005874D01*
X71835000Y-79594126D01*
X71677431Y-79213720D01*
X71386280Y-78922569D01*
X71005874Y-78765000D01*
X70594126Y-78765000D01*
X70213720Y-78922569D01*
X69922569Y-79213720D01*
X69765000Y-79594126D01*
X69765000Y-80005874D01*
X69830912Y-80165000D01*
X69794126Y-80165000D01*
X69534999Y-80272334D01*
X69534999Y-79728712D01*
X69677431Y-79586280D01*
X69835000Y-79205874D01*
X69835000Y-78794126D01*
X69677431Y-78413720D01*
X69386280Y-78122569D01*
X69005874Y-77965000D01*
X68594126Y-77965000D01*
X68213720Y-78122569D01*
X67922569Y-78413720D01*
X67866455Y-78549190D01*
X67727894Y-78410629D01*
X67255602Y-78215000D01*
X66744398Y-78215000D01*
X66360000Y-78374222D01*
X66360000Y-71674778D01*
X67665000Y-71674778D01*
X67665000Y-72325222D01*
X67913914Y-72926153D01*
X68373847Y-73386086D01*
X68974778Y-73635000D01*
X69625222Y-73635000D01*
X70226153Y-73386086D01*
X70686086Y-72926153D01*
X70935000Y-72325222D01*
X70935000Y-71674778D01*
X70686086Y-71073847D01*
X70226153Y-70613914D01*
X69625222Y-70365000D01*
X68974778Y-70365000D01*
X68373847Y-70613914D01*
X67913914Y-71073847D01*
X67665000Y-71674778D01*
X66360000Y-71674778D01*
X66360000Y-61303711D01*
X66477431Y-61186280D01*
X66635000Y-60805874D01*
X66635000Y-60585000D01*
X72213201Y-60585000D01*
X71388531Y-61409670D01*
X71325073Y-61452071D01*
X71282673Y-61515528D01*
X71209671Y-61588530D01*
X71084097Y-61776465D01*
X71025112Y-62073002D01*
X71084097Y-62369539D01*
X71115000Y-62415789D01*
X71115000Y-63865504D01*
X69922347Y-62672852D01*
X69922347Y-62506779D01*
X69764778Y-62126373D01*
X69473627Y-61835222D01*
X69093221Y-61677653D01*
X68681473Y-61677653D01*
X68301067Y-61835222D01*
X68009916Y-62126373D01*
X67852347Y-62506779D01*
X67852347Y-62918527D01*
X68009916Y-63298933D01*
X68301067Y-63590084D01*
X68681473Y-63747653D01*
X68847546Y-63747653D01*
X70240001Y-65140109D01*
X70240000Y-66296289D01*
X70122569Y-66413720D01*
X69965000Y-66794126D01*
X69965000Y-67205874D01*
X70122569Y-67586280D01*
X70413720Y-67877431D01*
X70794126Y-68035000D01*
X71114999Y-68035000D01*
X71114999Y-69600152D01*
X71100111Y-69674999D01*
X71114999Y-69749846D01*
X71114999Y-69749850D01*
X71159095Y-69971535D01*
X71327070Y-70222928D01*
X71390529Y-70265330D01*
X72640001Y-71514803D01*
X72640000Y-91885198D01*
X71315528Y-93209671D01*
X71252072Y-93252071D01*
X71084096Y-93503463D01*
X71047166Y-93689123D01*
X70922569Y-93813720D01*
X70765000Y-94194126D01*
X70765000Y-94605874D01*
X70922569Y-94986280D01*
X71213720Y-95277431D01*
X71594126Y-95435000D01*
X72005874Y-95435000D01*
X72332177Y-95299841D01*
X79099446Y-95299841D01*
X80000000Y-96200395D01*
X80900554Y-95299841D01*
X80814148Y-95043357D01*
X80240664Y-94833542D01*
X79630540Y-94859161D01*
X79185852Y-95043357D01*
X79099446Y-95299841D01*
X72332177Y-95299841D01*
X72386280Y-95277431D01*
X72677431Y-94986280D01*
X72835000Y-94605874D01*
X72835000Y-94194126D01*
X72731221Y-93943580D01*
X73884473Y-92790329D01*
X73947929Y-92747929D01*
X74031692Y-92622569D01*
X74115904Y-92496538D01*
X74134930Y-92400888D01*
X74160000Y-92274852D01*
X74160000Y-92274848D01*
X74174888Y-92200000D01*
X74160000Y-92125152D01*
X74160000Y-82138022D01*
X74394126Y-82235000D01*
X74740000Y-82235000D01*
X74740001Y-88196288D01*
X74522569Y-88413720D01*
X74365000Y-88794126D01*
X74365000Y-89205874D01*
X74522569Y-89586280D01*
X74813720Y-89877431D01*
X75194126Y-90035000D01*
X75605874Y-90035000D01*
X75986280Y-89877431D01*
X76277431Y-89586280D01*
X76435000Y-89205874D01*
X76435000Y-88794126D01*
X76277431Y-88413720D01*
X76260000Y-88396289D01*
X76260000Y-87774670D01*
X78465000Y-87774670D01*
X78465000Y-88385330D01*
X78698690Y-88949507D01*
X79130493Y-89381310D01*
X79694670Y-89615000D01*
X80305330Y-89615000D01*
X80869507Y-89381310D01*
X81301310Y-88949507D01*
X81535000Y-88385330D01*
X81535000Y-87774670D01*
X81301310Y-87210493D01*
X80869507Y-86778690D01*
X80305330Y-86545000D01*
X79694670Y-86545000D01*
X79130493Y-86778690D01*
X78698690Y-87210493D01*
X78465000Y-87774670D01*
X76260000Y-87774670D01*
X76260000Y-77557265D01*
X76589371Y-77227894D01*
X76750000Y-76840100D01*
X76910629Y-77227894D01*
X77272106Y-77589371D01*
X77744398Y-77785000D01*
X78255602Y-77785000D01*
X78727894Y-77589371D01*
X79089371Y-77227894D01*
X79250000Y-76840100D01*
X79410629Y-77227894D01*
X79772106Y-77589371D01*
X80244398Y-77785000D01*
X80755602Y-77785000D01*
X81227894Y-77589371D01*
X81589371Y-77227894D01*
X81785000Y-76755602D01*
X81785000Y-76244398D01*
X81589371Y-75772106D01*
X81227894Y-75410629D01*
X80755602Y-75215000D01*
X80244398Y-75215000D01*
X79772106Y-75410629D01*
X79410629Y-75772106D01*
X79250000Y-76159900D01*
X79089371Y-75772106D01*
X78727894Y-75410629D01*
X78255602Y-75215000D01*
X77744398Y-75215000D01*
X77272106Y-75410629D01*
X76910629Y-75772106D01*
X76750000Y-76159900D01*
X76589371Y-75772106D01*
X76227894Y-75410629D01*
X75755602Y-75215000D01*
X75244398Y-75215000D01*
X74943187Y-75339765D01*
X74943187Y-71578711D01*
X75060618Y-71461280D01*
X75218187Y-71080874D01*
X75218187Y-70669126D01*
X75060618Y-70288720D01*
X74769467Y-69997569D01*
X74587692Y-69922276D01*
X74835000Y-69325222D01*
X74835000Y-68674778D01*
X74586086Y-68073847D01*
X74126153Y-67613914D01*
X73525222Y-67365000D01*
X72874778Y-67365000D01*
X72634999Y-67464320D01*
X72634999Y-62312804D01*
X74409474Y-60538330D01*
X74472930Y-60495930D01*
X74549713Y-60381017D01*
X74640905Y-60244539D01*
X74655024Y-60173556D01*
X74685001Y-60022853D01*
X74685001Y-60022849D01*
X74699889Y-59948001D01*
X74685001Y-59873153D01*
X74685001Y-49599847D01*
X74699889Y-49525000D01*
X74685001Y-49450153D01*
X74685001Y-49450149D01*
X74640905Y-49228464D01*
X74547664Y-49088919D01*
X74515330Y-49040527D01*
X74515328Y-49040525D01*
X74472930Y-48977072D01*
X74409477Y-48934674D01*
X70134803Y-44660000D01*
X76425112Y-44660000D01*
X76440001Y-44734852D01*
X76440000Y-52325153D01*
X76425112Y-52400000D01*
X76440000Y-52474847D01*
X76440000Y-52474851D01*
X76484096Y-52696536D01*
X76652071Y-52947929D01*
X76715530Y-52990331D01*
X77365000Y-53639802D01*
X77365000Y-53805874D01*
X77522569Y-54186280D01*
X77813720Y-54477431D01*
X78194126Y-54635000D01*
X78605874Y-54635000D01*
X78986280Y-54477431D01*
X79277431Y-54186280D01*
X79435000Y-53805874D01*
X79435000Y-53394126D01*
X79277431Y-53013720D01*
X78986280Y-52722569D01*
X78605874Y-52565000D01*
X78439802Y-52565000D01*
X77960000Y-52085199D01*
X77960000Y-50946680D01*
X78353744Y-51025000D01*
X78646256Y-51025000D01*
X79079418Y-50938839D01*
X79570625Y-50610625D01*
X79898839Y-50119418D01*
X80014092Y-49540000D01*
X79898839Y-48960582D01*
X79570625Y-48469375D01*
X79272239Y-48270000D01*
X79570625Y-48070625D01*
X79898839Y-47579418D01*
X80014092Y-47000000D01*
X79941209Y-46633592D01*
X80214802Y-46360000D01*
X80896289Y-46360000D01*
X81013720Y-46477431D01*
X81394126Y-46635000D01*
X81805874Y-46635000D01*
X82186280Y-46477431D01*
X82477431Y-46186280D01*
X82635000Y-45805874D01*
X82635000Y-45394126D01*
X82477431Y-45013720D01*
X82186280Y-44722569D01*
X81805874Y-44565000D01*
X81394126Y-44565000D01*
X81013720Y-44722569D01*
X80896289Y-44840000D01*
X79997440Y-44840000D01*
X79997440Y-43610000D01*
X79948157Y-43362235D01*
X79807809Y-43152191D01*
X79597765Y-43011843D01*
X79350000Y-42962560D01*
X77650000Y-42962560D01*
X77402235Y-43011843D01*
X77192191Y-43152191D01*
X77051843Y-43362235D01*
X77002560Y-43610000D01*
X77002560Y-43811517D01*
X76852071Y-43912071D01*
X76809669Y-43975530D01*
X76715528Y-44069671D01*
X76652072Y-44112071D01*
X76609672Y-44175527D01*
X76609671Y-44175528D01*
X76484097Y-44363463D01*
X76425112Y-44660000D01*
X70134803Y-44660000D01*
X64960000Y-39485199D01*
X64960000Y-37990532D01*
X64974888Y-37915685D01*
X64960000Y-37840838D01*
X64960000Y-37840834D01*
X64942102Y-37750857D01*
X65084999Y-37405874D01*
X65084999Y-36994126D01*
X64927430Y-36613720D01*
X64636279Y-36322569D01*
X64255873Y-36165000D01*
X64084999Y-36165000D01*
X64084999Y-34293765D01*
X64210145Y-34210145D01*
X64265098Y-34127902D01*
X64465569Y-33927431D01*
X64586280Y-33877431D01*
X64877431Y-33586280D01*
X65035000Y-33205874D01*
X65035000Y-32794126D01*
X64877431Y-32413720D01*
X64586280Y-32122569D01*
X64205874Y-31965000D01*
X64178000Y-31965000D01*
X64658001Y-31485000D01*
X73240000Y-31485000D01*
X73240001Y-37296288D01*
X73122569Y-37413720D01*
X72965000Y-37794126D01*
X72965000Y-38205874D01*
X73122569Y-38586280D01*
X73413720Y-38877431D01*
X73794126Y-39035000D01*
X74205874Y-39035000D01*
X74586280Y-38877431D01*
X74877431Y-38586280D01*
X75035000Y-38205874D01*
X75035000Y-37794126D01*
X74877431Y-37413720D01*
X74760000Y-37296289D01*
X74760000Y-31485000D01*
X78402992Y-31485000D01*
X78500000Y-31504296D01*
X78597008Y-31485000D01*
X78597012Y-31485000D01*
X78884328Y-31427849D01*
X79210145Y-31210145D01*
X79265098Y-31127902D01*
X80215570Y-30177430D01*
X80336280Y-30127431D01*
X80627431Y-29836280D01*
X80785000Y-29455874D01*
X80785000Y-29044126D01*
X80627431Y-28663720D01*
X80336280Y-28372569D01*
X79955874Y-28215000D01*
X79544126Y-28215000D01*
X79163720Y-28372569D01*
X78872569Y-28663720D01*
X78822570Y-28784430D01*
X78092000Y-29515000D01*
X64347007Y-29515000D01*
X64249999Y-29495704D01*
X64152991Y-29515000D01*
X52826585Y-29515000D01*
X52705874Y-29465000D01*
X52294126Y-29465000D01*
X51913720Y-29622569D01*
X51622569Y-29913720D01*
X51465000Y-30294126D01*
X45710000Y-30294126D01*
X45710000Y-27244398D01*
X65715000Y-27244398D01*
X65715000Y-27755602D01*
X65910629Y-28227894D01*
X66272106Y-28589371D01*
X66744398Y-28785000D01*
X67255602Y-28785000D01*
X67727894Y-28589371D01*
X68089371Y-28227894D01*
X68250000Y-27840100D01*
X68410629Y-28227894D01*
X68772106Y-28589371D01*
X69244398Y-28785000D01*
X69755602Y-28785000D01*
X70227894Y-28589371D01*
X70418249Y-28399016D01*
X71280590Y-28399016D01*
X71336271Y-28629611D01*
X71819078Y-28797622D01*
X72329428Y-28768083D01*
X72663729Y-28629611D01*
X72719410Y-28399016D01*
X72000000Y-27679605D01*
X71280590Y-28399016D01*
X70418249Y-28399016D01*
X70589371Y-28227894D01*
X70743169Y-27856592D01*
X70870389Y-28163729D01*
X71100984Y-28219410D01*
X71820395Y-27500000D01*
X72179605Y-27500000D01*
X72899016Y-28219410D01*
X73129611Y-28163729D01*
X73297622Y-27680922D01*
X73268083Y-27170572D01*
X73129611Y-26836271D01*
X72899016Y-26780590D01*
X72179605Y-27500000D01*
X71820395Y-27500000D01*
X71100984Y-26780590D01*
X70870389Y-26836271D01*
X70754223Y-27170094D01*
X70589371Y-26772106D01*
X70418249Y-26600984D01*
X71280590Y-26600984D01*
X72000000Y-27320395D01*
X72719410Y-26600984D01*
X72663729Y-26370389D01*
X72180922Y-26202378D01*
X71670572Y-26231917D01*
X71336271Y-26370389D01*
X71280590Y-26600984D01*
X70418249Y-26600984D01*
X70227894Y-26410629D01*
X69755602Y-26215000D01*
X69244398Y-26215000D01*
X68772106Y-26410629D01*
X68410629Y-26772106D01*
X68250000Y-27159900D01*
X68089371Y-26772106D01*
X67727894Y-26410629D01*
X67255602Y-26215000D01*
X66744398Y-26215000D01*
X66272106Y-26410629D01*
X65910629Y-26772106D01*
X65715000Y-27244398D01*
X45710000Y-27244398D01*
X45710000Y-26069926D01*
X45717039Y-26034540D01*
X45750267Y-26001312D01*
X45885000Y-25676037D01*
X45885000Y-25323963D01*
X45750810Y-25000000D01*
X45885000Y-24676037D01*
X45885000Y-24323963D01*
X45750810Y-24000000D01*
X45885000Y-23676037D01*
X45885000Y-23323963D01*
X45750810Y-23000000D01*
X45885000Y-22676037D01*
X45885000Y-22323963D01*
X45750810Y-22000000D01*
X45885000Y-21676037D01*
X45885000Y-21323963D01*
X45750267Y-20998688D01*
X45717039Y-20965460D01*
X45710000Y-20930074D01*
X45710000Y-19674778D01*
X63065000Y-19674778D01*
X63065000Y-20325222D01*
X63313914Y-20926153D01*
X63773847Y-21386086D01*
X64374778Y-21635000D01*
X65025222Y-21635000D01*
X65626153Y-21386086D01*
X66086086Y-20926153D01*
X66335000Y-20325222D01*
X66335000Y-19674778D01*
X72665000Y-19674778D01*
X72665000Y-20325222D01*
X72913914Y-20926153D01*
X73373847Y-21386086D01*
X73974778Y-21635000D01*
X74625222Y-21635000D01*
X75226153Y-21386086D01*
X75686086Y-20926153D01*
X75935000Y-20325222D01*
X75935000Y-19674778D01*
X75686086Y-19073847D01*
X75226153Y-18613914D01*
X74625222Y-18365000D01*
X73974778Y-18365000D01*
X73373847Y-18613914D01*
X72913914Y-19073847D01*
X72665000Y-19674778D01*
X66335000Y-19674778D01*
X66086086Y-19073847D01*
X65626153Y-18613914D01*
X65025222Y-18365000D01*
X64374778Y-18365000D01*
X63773847Y-18613914D01*
X63313914Y-19073847D01*
X63065000Y-19674778D01*
X45710000Y-19674778D01*
X45710000Y-13940000D01*
X70325908Y-13940000D01*
X70441161Y-14519418D01*
X70769375Y-15010625D01*
X71260582Y-15338839D01*
X71693744Y-15425000D01*
X71986256Y-15425000D01*
X72419418Y-15338839D01*
X72910625Y-15010625D01*
X73123843Y-14691522D01*
X73184817Y-14821358D01*
X73613076Y-15211645D01*
X74023110Y-15381476D01*
X74253000Y-15260155D01*
X74253000Y-14067000D01*
X74507000Y-14067000D01*
X74507000Y-15260155D01*
X74736890Y-15381476D01*
X75146924Y-15211645D01*
X75575183Y-14821358D01*
X75650000Y-14662046D01*
X75724817Y-14821358D01*
X76153076Y-15211645D01*
X76563110Y-15381476D01*
X76793000Y-15260155D01*
X76793000Y-14067000D01*
X77047000Y-14067000D01*
X77047000Y-15260155D01*
X77276890Y-15381476D01*
X77686924Y-15211645D01*
X78115183Y-14821358D01*
X78190000Y-14662046D01*
X78264817Y-14821358D01*
X78693076Y-15211645D01*
X79103110Y-15381476D01*
X79333000Y-15260155D01*
X79333000Y-14067000D01*
X77047000Y-14067000D01*
X76793000Y-14067000D01*
X74507000Y-14067000D01*
X74253000Y-14067000D01*
X74233000Y-14067000D01*
X74233000Y-13813000D01*
X74253000Y-13813000D01*
X74253000Y-11527000D01*
X74507000Y-11527000D01*
X74507000Y-13813000D01*
X76793000Y-13813000D01*
X76793000Y-11527000D01*
X77047000Y-11527000D01*
X77047000Y-13813000D01*
X79333000Y-13813000D01*
X79333000Y-11527000D01*
X77047000Y-11527000D01*
X76793000Y-11527000D01*
X74507000Y-11527000D01*
X74253000Y-11527000D01*
X74233000Y-11527000D01*
X74233000Y-11273000D01*
X74253000Y-11273000D01*
X74253000Y-10079845D01*
X74507000Y-10079845D01*
X74507000Y-11273000D01*
X76793000Y-11273000D01*
X76793000Y-10079845D01*
X77047000Y-10079845D01*
X77047000Y-11273000D01*
X79333000Y-11273000D01*
X79333000Y-10079845D01*
X79587000Y-10079845D01*
X79587000Y-11273000D01*
X79607000Y-11273000D01*
X79607000Y-11527000D01*
X79587000Y-11527000D01*
X79587000Y-13813000D01*
X79607000Y-13813000D01*
X79607000Y-14067000D01*
X79587000Y-14067000D01*
X79587000Y-15260155D01*
X79816890Y-15381476D01*
X80226924Y-15211645D01*
X80655183Y-14821358D01*
X80716157Y-14691522D01*
X80929375Y-15010625D01*
X81420582Y-15338839D01*
X81853744Y-15425000D01*
X82146256Y-15425000D01*
X82579418Y-15338839D01*
X83070625Y-15010625D01*
X83398839Y-14519418D01*
X83514092Y-13940000D01*
X83398839Y-13360582D01*
X83070625Y-12869375D01*
X82772239Y-12670000D01*
X83070625Y-12470625D01*
X83398839Y-11979418D01*
X83514092Y-11400000D01*
X83398839Y-10820582D01*
X83070625Y-10329375D01*
X82579418Y-10001161D01*
X82146256Y-9915000D01*
X81853744Y-9915000D01*
X81420582Y-10001161D01*
X80929375Y-10329375D01*
X80716157Y-10648478D01*
X80655183Y-10518642D01*
X80226924Y-10128355D01*
X79816890Y-9958524D01*
X79587000Y-10079845D01*
X79333000Y-10079845D01*
X79103110Y-9958524D01*
X78693076Y-10128355D01*
X78264817Y-10518642D01*
X78190000Y-10677954D01*
X78115183Y-10518642D01*
X77686924Y-10128355D01*
X77276890Y-9958524D01*
X77047000Y-10079845D01*
X76793000Y-10079845D01*
X76563110Y-9958524D01*
X76153076Y-10128355D01*
X75724817Y-10518642D01*
X75650000Y-10677954D01*
X75575183Y-10518642D01*
X75146924Y-10128355D01*
X74736890Y-9958524D01*
X74507000Y-10079845D01*
X74253000Y-10079845D01*
X74023110Y-9958524D01*
X73613076Y-10128355D01*
X73308739Y-10405708D01*
X73288157Y-10302235D01*
X73147809Y-10092191D01*
X72937765Y-9951843D01*
X72690000Y-9902560D01*
X70990000Y-9902560D01*
X70742235Y-9951843D01*
X70532191Y-10092191D01*
X70391843Y-10302235D01*
X70342560Y-10550000D01*
X70342560Y-12250000D01*
X70391843Y-12497765D01*
X70532191Y-12707809D01*
X70742235Y-12848157D01*
X70787619Y-12857184D01*
X70769375Y-12869375D01*
X70441161Y-13360582D01*
X70325908Y-13940000D01*
X45710000Y-13940000D01*
X45710000Y-9510000D01*
X83790000Y-9510000D01*
X83790001Y-67677762D01*
G04 #@! TD*
M02*
