M48
;DRILL file {KiCad (5.0.1-3-g963ef8bb5)} date Monday, 22 June 2020 at 21:02:28
;FORMAT={-:-/ absolute / metric / decimal}
FMAT,2
METRIC,TZ
T1C0.400
T2C0.800
T3C1.000
T4C1.600
T5C1.800
T6C0.500
%
G90
G05
M71
T1
X45.675Y-34.4
X46.4Y-54.
X48.8Y-29.2
X48.8Y-34.2
X48.85Y-36.75
X52.2Y-58.
X52.5Y-30.5
X53.95Y-31.45
X54.6Y-33.
X54.6Y-47.8
X54.675Y-29.
X54.8Y-62.8
X55.6Y-52.8
X56.Y-38.4
X56.8Y-88.8
X57.375Y-50.875
X57.6Y-34.6
X57.6Y-89.8
X58.2Y-31.6
X58.4Y-24.8
X58.6Y-33.
X58.6Y-58.
X58.863Y-50.337
X59.4Y-67.4
X59.443Y-68.757
X59.648Y-42.448
X59.8Y-46.4
X60.Y-74.4
X60.4Y-47.2
X60.4Y-66.2
X60.725Y-32.2
X60.943Y-70.257
X61.4Y-44.8
X61.8Y-32.4
X61.8Y-52.8
X61.8Y-58.65
X62.Y-45.8
X62.Y-112.2
X62.15Y-51.6
X62.2Y-29.
X62.2Y-96.4
X63.1Y-42.25
X63.1Y-65.
X63.1Y-72.
X63.3Y-88.
X64.Y-33.
X64.05Y-37.2
X64.05Y-58.65
X64.2Y-42.2
X64.2Y-48.4
X64.25Y-93.5
X64.687Y-41.313
X64.875Y-89.2
X64.875Y-97.4
X65.6Y-60.6
X65.8Y-49.2
X66.325Y-86.6
X66.325Y-89.2
X67.2Y-55.4
X67.2Y-72.4
X67.6Y-29.
X67.8Y-96.4
X68.8Y-64.2
X68.8Y-66.2
X68.8Y-79.
X68.887Y-62.713
X69.Y-42.2
X70.Y-78.
X70.Y-81.2
X70.225Y-57.2
X70.8Y-79.8
X70.8Y-86.4
X71.Y-67.
X71.75Y-103.8
X71.8Y-94.4
X73.2Y-59.6
X73.4Y-43.
X73.6Y-65.6
X74.Y-26.8
X74.Y-38.
X74.Y-40.8
X74.Y-47.8
X74.183Y-70.875
X74.6Y-81.2
X75.2Y-32.4
X75.4Y-89.
X75.55Y-61.
X77.2Y-59.155
X78.4Y-53.6
X78.8Y-61.
X79.75Y-29.25
X80.Y-68.
X81.6Y-45.6
X81.8Y-32.8
X82.4Y-53.6
X82.4Y-72.6
X83.275Y-101.
T2
X48.92Y-66.2
X51.46Y-66.2
X54.Y-66.2
X68.9Y-116.6
X71.44Y-116.6
X73.98Y-116.6
X55.5Y-116.5
X58.04Y-116.5
X60.58Y-116.5
T3
X78.5Y-44.46
X78.5Y-47.
X78.5Y-49.54
X62.Y-79.5
X64.5Y-79.5
X67.Y-79.5
X71.84Y-11.4
X71.84Y-13.94
X74.38Y-11.4
X74.38Y-13.94
X76.92Y-11.4
X76.92Y-13.94
X79.46Y-11.4
X79.46Y-13.94
X82.Y-11.4
X82.Y-13.94
X64.5Y-50.46
X64.5Y-53.
X64.5Y-55.54
X51.Y-46.6
X53.5Y-46.6
X56.Y-46.6
X67.Y-27.5
X69.5Y-27.5
X72.Y-27.5
X50.5Y-55.46
X50.5Y-58.
X50.5Y-60.54
X75.5Y-76.5
X78.Y-76.5
X80.5Y-76.5
X48.5Y-82.5
X51.Y-82.5
X53.5Y-82.5
T4
X50.Y-88.08
X50.Y-96.38
X50.Y-99.48
X80.Y-88.08
X80.Y-96.38
X60.Y-88.08
X60.Y-96.38
X60.Y-99.48
X70.Y-88.08
X70.Y-96.38
X70.Y-99.48
X80.Y-99.48
X51.Y-105.08
X51.Y-113.38
X51.Y-116.48
X78.Y-105.08
X78.Y-113.38
X78.Y-116.48
X65.Y-105.08
X65.Y-113.38
X65.Y-116.48
T5
X59.7Y-72.
X69.3Y-72.
X48.7Y-39.1
X58.3Y-39.1
X64.7Y-20.
X74.3Y-20.
X73.2Y-69.
X82.8Y-69.
X46.2Y-75.
X55.8Y-75.
T6
X40.9Y-21.5
X40.9Y-22.5
X40.9Y-23.5
X40.9Y-24.5
X40.9Y-25.5
X45.Y-21.5
X45.Y-22.5
X45.Y-23.5
X45.Y-24.5
X45.Y-25.5
X40.9Y-106.5
X40.9Y-107.5
X40.9Y-108.5
X40.9Y-109.5
X40.9Y-110.5
X44.9Y-106.4
X44.9Y-107.4
X44.9Y-108.4
X44.9Y-109.4
X44.9Y-110.4
T0
M30
