G04 #@! TF.GenerationSoftware,KiCad,Pcbnew,(5.0.1-3-g963ef8bb5)*
G04 #@! TF.CreationDate,2021-05-28T19:59:00+02:00*
G04 #@! TF.ProjectId,Schraeg,536368726165672E6B696361645F7063,rev?*
G04 #@! TF.SameCoordinates,Original*
G04 #@! TF.FileFunction,Legend,Bot*
G04 #@! TF.FilePolarity,Positive*
%FSLAX46Y46*%
G04 Gerber Fmt 4.6, Leading zero omitted, Abs format (unit mm)*
G04 Created by KiCad (PCBNEW (5.0.1-3-g963ef8bb5)) date Friday, 28 May 2021 at 19:59:00*
%MOMM*%
%LPD*%
G01*
G04 APERTURE LIST*
%ADD10C,0.200000*%
%ADD11C,0.250000*%
%ADD12C,0.300000*%
%ADD13C,0.150000*%
%ADD14C,0.120000*%
G04 APERTURE END LIST*
D10*
X68238516Y-118100000D02*
G75*
G03X68238516Y-118100000I-538516J0D01*
G01*
X54838516Y-118000000D02*
G75*
G03X54838516Y-118000000I-538516J0D01*
G01*
X55838516Y-64800000D02*
G75*
G03X55838516Y-64800000I-538516J0D01*
G01*
D11*
X58033333Y-10979761D02*
X57890476Y-11027380D01*
X57652380Y-11027380D01*
X57557142Y-10979761D01*
X57509523Y-10932142D01*
X57461904Y-10836904D01*
X57461904Y-10741666D01*
X57509523Y-10646428D01*
X57557142Y-10598809D01*
X57652380Y-10551190D01*
X57842857Y-10503571D01*
X57938095Y-10455952D01*
X57985714Y-10408333D01*
X58033333Y-10313095D01*
X58033333Y-10217857D01*
X57985714Y-10122619D01*
X57938095Y-10075000D01*
X57842857Y-10027380D01*
X57604761Y-10027380D01*
X57461904Y-10075000D01*
X56604761Y-10979761D02*
X56700000Y-11027380D01*
X56890476Y-11027380D01*
X56985714Y-10979761D01*
X57033333Y-10932142D01*
X57080952Y-10836904D01*
X57080952Y-10551190D01*
X57033333Y-10455952D01*
X56985714Y-10408333D01*
X56890476Y-10360714D01*
X56700000Y-10360714D01*
X56604761Y-10408333D01*
X56176190Y-11027380D02*
X56176190Y-10027380D01*
X55747619Y-11027380D02*
X55747619Y-10503571D01*
X55795238Y-10408333D01*
X55890476Y-10360714D01*
X56033333Y-10360714D01*
X56128571Y-10408333D01*
X56176190Y-10455952D01*
X55271428Y-11027380D02*
X55271428Y-10360714D01*
X55271428Y-10551190D02*
X55223809Y-10455952D01*
X55176190Y-10408333D01*
X55080952Y-10360714D01*
X54985714Y-10360714D01*
X54223809Y-11027380D02*
X54223809Y-10503571D01*
X54271428Y-10408333D01*
X54366666Y-10360714D01*
X54557142Y-10360714D01*
X54652380Y-10408333D01*
X54223809Y-10979761D02*
X54319047Y-11027380D01*
X54557142Y-11027380D01*
X54652380Y-10979761D01*
X54700000Y-10884523D01*
X54700000Y-10789285D01*
X54652380Y-10694047D01*
X54557142Y-10646428D01*
X54319047Y-10646428D01*
X54223809Y-10598809D01*
X54652380Y-10027380D02*
X54604761Y-10075000D01*
X54652380Y-10122619D01*
X54700000Y-10075000D01*
X54652380Y-10027380D01*
X54652380Y-10122619D01*
X54271428Y-10027380D02*
X54223809Y-10075000D01*
X54271428Y-10122619D01*
X54319047Y-10075000D01*
X54271428Y-10027380D01*
X54271428Y-10122619D01*
X53319047Y-10360714D02*
X53319047Y-11170238D01*
X53366666Y-11265476D01*
X53414285Y-11313095D01*
X53509523Y-11360714D01*
X53652380Y-11360714D01*
X53747619Y-11313095D01*
X53319047Y-10979761D02*
X53414285Y-11027380D01*
X53604761Y-11027380D01*
X53700000Y-10979761D01*
X53747619Y-10932142D01*
X53795238Y-10836904D01*
X53795238Y-10551190D01*
X53747619Y-10455952D01*
X53700000Y-10408333D01*
X53604761Y-10360714D01*
X53414285Y-10360714D01*
X53319047Y-10408333D01*
X52176190Y-10360714D02*
X51938095Y-11027380D01*
X51700000Y-10360714D01*
X51128571Y-10027380D02*
X51033333Y-10027380D01*
X50938095Y-10075000D01*
X50890476Y-10122619D01*
X50842857Y-10217857D01*
X50795238Y-10408333D01*
X50795238Y-10646428D01*
X50842857Y-10836904D01*
X50890476Y-10932142D01*
X50938095Y-10979761D01*
X51033333Y-11027380D01*
X51128571Y-11027380D01*
X51223809Y-10979761D01*
X51271428Y-10932142D01*
X51319047Y-10836904D01*
X51366666Y-10646428D01*
X51366666Y-10408333D01*
X51319047Y-10217857D01*
X51271428Y-10122619D01*
X51223809Y-10075000D01*
X51128571Y-10027380D01*
X50366666Y-10932142D02*
X50319047Y-10979761D01*
X50366666Y-11027380D01*
X50414285Y-10979761D01*
X50366666Y-10932142D01*
X50366666Y-11027380D01*
X49938095Y-10122619D02*
X49890476Y-10075000D01*
X49795238Y-10027380D01*
X49557142Y-10027380D01*
X49461904Y-10075000D01*
X49414285Y-10122619D01*
X49366666Y-10217857D01*
X49366666Y-10313095D01*
X49414285Y-10455952D01*
X49985714Y-11027380D01*
X49366666Y-11027380D01*
X59223809Y-12253571D02*
X59080952Y-12301190D01*
X59033333Y-12348809D01*
X58985714Y-12444047D01*
X58985714Y-12586904D01*
X59033333Y-12682142D01*
X59080952Y-12729761D01*
X59176190Y-12777380D01*
X59557142Y-12777380D01*
X59557142Y-11777380D01*
X59223809Y-11777380D01*
X59128571Y-11825000D01*
X59080952Y-11872619D01*
X59033333Y-11967857D01*
X59033333Y-12063095D01*
X59080952Y-12158333D01*
X59128571Y-12205952D01*
X59223809Y-12253571D01*
X59557142Y-12253571D01*
X58128571Y-12777380D02*
X58128571Y-12253571D01*
X58176190Y-12158333D01*
X58271428Y-12110714D01*
X58461904Y-12110714D01*
X58557142Y-12158333D01*
X58128571Y-12729761D02*
X58223809Y-12777380D01*
X58461904Y-12777380D01*
X58557142Y-12729761D01*
X58604761Y-12634523D01*
X58604761Y-12539285D01*
X58557142Y-12444047D01*
X58461904Y-12396428D01*
X58223809Y-12396428D01*
X58128571Y-12348809D01*
X57652380Y-12777380D02*
X57652380Y-12110714D01*
X57652380Y-12301190D02*
X57604761Y-12205952D01*
X57557142Y-12158333D01*
X57461904Y-12110714D01*
X57366666Y-12110714D01*
X57033333Y-12110714D02*
X57033333Y-12777380D01*
X57033333Y-12205952D02*
X56985714Y-12158333D01*
X56890476Y-12110714D01*
X56747619Y-12110714D01*
X56652380Y-12158333D01*
X56604761Y-12253571D01*
X56604761Y-12777380D01*
X55700000Y-12777380D02*
X55700000Y-12253571D01*
X55747619Y-12158333D01*
X55842857Y-12110714D01*
X56033333Y-12110714D01*
X56128571Y-12158333D01*
X55700000Y-12729761D02*
X55795238Y-12777380D01*
X56033333Y-12777380D01*
X56128571Y-12729761D01*
X56176190Y-12634523D01*
X56176190Y-12539285D01*
X56128571Y-12444047D01*
X56033333Y-12396428D01*
X55795238Y-12396428D01*
X55700000Y-12348809D01*
X55223809Y-12777380D02*
X55223809Y-11777380D01*
X55223809Y-12158333D02*
X55128571Y-12110714D01*
X54938095Y-12110714D01*
X54842857Y-12158333D01*
X54795238Y-12205952D01*
X54747619Y-12301190D01*
X54747619Y-12586904D01*
X54795238Y-12682142D01*
X54842857Y-12729761D01*
X54938095Y-12777380D01*
X55128571Y-12777380D01*
X55223809Y-12729761D01*
X54414285Y-12110714D02*
X54176190Y-12777380D01*
X53938095Y-12110714D02*
X54176190Y-12777380D01*
X54271428Y-13015476D01*
X54319047Y-13063095D01*
X54414285Y-13110714D01*
X52890476Y-11777380D02*
X52652380Y-12777380D01*
X52461904Y-12063095D01*
X52271428Y-12777380D01*
X52033333Y-11777380D01*
X51223809Y-12777380D02*
X51223809Y-12253571D01*
X51271428Y-12158333D01*
X51366666Y-12110714D01*
X51557142Y-12110714D01*
X51652380Y-12158333D01*
X51223809Y-12729761D02*
X51319047Y-12777380D01*
X51557142Y-12777380D01*
X51652380Y-12729761D01*
X51700000Y-12634523D01*
X51700000Y-12539285D01*
X51652380Y-12444047D01*
X51557142Y-12396428D01*
X51319047Y-12396428D01*
X51223809Y-12348809D01*
X50604761Y-12777380D02*
X50700000Y-12729761D01*
X50747619Y-12634523D01*
X50747619Y-11777380D01*
X50366666Y-12110714D02*
X49985714Y-12110714D01*
X50223809Y-11777380D02*
X50223809Y-12634523D01*
X50176190Y-12729761D01*
X50080952Y-12777380D01*
X49985714Y-12777380D01*
X49271428Y-12729761D02*
X49366666Y-12777380D01*
X49557142Y-12777380D01*
X49652380Y-12729761D01*
X49700000Y-12634523D01*
X49700000Y-12253571D01*
X49652380Y-12158333D01*
X49557142Y-12110714D01*
X49366666Y-12110714D01*
X49271428Y-12158333D01*
X49223809Y-12253571D01*
X49223809Y-12348809D01*
X49700000Y-12444047D01*
X48795238Y-12777380D02*
X48795238Y-12110714D01*
X48795238Y-12301190D02*
X48747619Y-12205952D01*
X48700000Y-12158333D01*
X48604761Y-12110714D01*
X48509523Y-12110714D01*
X48223809Y-12729761D02*
X48128571Y-12777380D01*
X47938095Y-12777380D01*
X47842857Y-12729761D01*
X47795238Y-12634523D01*
X47795238Y-12586904D01*
X47842857Y-12491666D01*
X47938095Y-12444047D01*
X48080952Y-12444047D01*
X48176190Y-12396428D01*
X48223809Y-12301190D01*
X48223809Y-12253571D01*
X48176190Y-12158333D01*
X48080952Y-12110714D01*
X47938095Y-12110714D01*
X47842857Y-12158333D01*
X59319047Y-13860714D02*
X59128571Y-14527380D01*
X58938095Y-14051190D01*
X58747619Y-14527380D01*
X58557142Y-13860714D01*
X57747619Y-14527380D02*
X57747619Y-14003571D01*
X57795238Y-13908333D01*
X57890476Y-13860714D01*
X58080952Y-13860714D01*
X58176190Y-13908333D01*
X57747619Y-14479761D02*
X57842857Y-14527380D01*
X58080952Y-14527380D01*
X58176190Y-14479761D01*
X58223809Y-14384523D01*
X58223809Y-14289285D01*
X58176190Y-14194047D01*
X58080952Y-14146428D01*
X57842857Y-14146428D01*
X57747619Y-14098809D01*
X57414285Y-13860714D02*
X57033333Y-13860714D01*
X57271428Y-13527380D02*
X57271428Y-14384523D01*
X57223809Y-14479761D01*
X57128571Y-14527380D01*
X57033333Y-14527380D01*
X56319047Y-14479761D02*
X56414285Y-14527380D01*
X56604761Y-14527380D01*
X56700000Y-14479761D01*
X56747619Y-14384523D01*
X56747619Y-14003571D01*
X56700000Y-13908333D01*
X56604761Y-13860714D01*
X56414285Y-13860714D01*
X56319047Y-13908333D01*
X56271428Y-14003571D01*
X56271428Y-14098809D01*
X56747619Y-14194047D01*
X55842857Y-14527380D02*
X55842857Y-13860714D01*
X55842857Y-14051190D02*
X55795238Y-13955952D01*
X55747619Y-13908333D01*
X55652380Y-13860714D01*
X55557142Y-13860714D01*
X55223809Y-13860714D02*
X55223809Y-14860714D01*
X55223809Y-13908333D02*
X55128571Y-13860714D01*
X54938095Y-13860714D01*
X54842857Y-13908333D01*
X54795238Y-13955952D01*
X54747619Y-14051190D01*
X54747619Y-14336904D01*
X54795238Y-14432142D01*
X54842857Y-14479761D01*
X54938095Y-14527380D01*
X55128571Y-14527380D01*
X55223809Y-14479761D01*
X54319047Y-14527380D02*
X54319047Y-13860714D01*
X54319047Y-13527380D02*
X54366666Y-13575000D01*
X54319047Y-13622619D01*
X54271428Y-13575000D01*
X54319047Y-13527380D01*
X54319047Y-13622619D01*
X53414285Y-13860714D02*
X53414285Y-14670238D01*
X53461904Y-14765476D01*
X53509523Y-14813095D01*
X53604761Y-14860714D01*
X53747619Y-14860714D01*
X53842857Y-14813095D01*
X53414285Y-14479761D02*
X53509523Y-14527380D01*
X53700000Y-14527380D01*
X53795238Y-14479761D01*
X53842857Y-14432142D01*
X53890476Y-14336904D01*
X53890476Y-14051190D01*
X53842857Y-13955952D01*
X53795238Y-13908333D01*
X53700000Y-13860714D01*
X53509523Y-13860714D01*
X53414285Y-13908333D01*
X52985714Y-14479761D02*
X52890476Y-14527380D01*
X52700000Y-14527380D01*
X52604761Y-14479761D01*
X52557142Y-14384523D01*
X52557142Y-14336904D01*
X52604761Y-14241666D01*
X52700000Y-14194047D01*
X52842857Y-14194047D01*
X52938095Y-14146428D01*
X52985714Y-14051190D01*
X52985714Y-14003571D01*
X52938095Y-13908333D01*
X52842857Y-13860714D01*
X52700000Y-13860714D01*
X52604761Y-13908333D01*
X52128571Y-14432142D02*
X52080952Y-14479761D01*
X52128571Y-14527380D01*
X52176190Y-14479761D01*
X52128571Y-14432142D01*
X52128571Y-14527380D01*
X51223809Y-14479761D02*
X51319047Y-14527380D01*
X51509523Y-14527380D01*
X51604761Y-14479761D01*
X51652380Y-14432142D01*
X51700000Y-14336904D01*
X51700000Y-14051190D01*
X51652380Y-13955952D01*
X51604761Y-13908333D01*
X51509523Y-13860714D01*
X51319047Y-13860714D01*
X51223809Y-13908333D01*
X50652380Y-14527380D02*
X50747619Y-14479761D01*
X50795238Y-14432142D01*
X50842857Y-14336904D01*
X50842857Y-14051190D01*
X50795238Y-13955952D01*
X50747619Y-13908333D01*
X50652380Y-13860714D01*
X50509523Y-13860714D01*
X50414285Y-13908333D01*
X50366666Y-13955952D01*
X50319047Y-14051190D01*
X50319047Y-14336904D01*
X50366666Y-14432142D01*
X50414285Y-14479761D01*
X50509523Y-14527380D01*
X50652380Y-14527380D01*
X49890476Y-14432142D02*
X49842857Y-14479761D01*
X49890476Y-14527380D01*
X49938095Y-14479761D01*
X49890476Y-14432142D01*
X49890476Y-14527380D01*
X48985714Y-13860714D02*
X48985714Y-14527380D01*
X49414285Y-13860714D02*
X49414285Y-14384523D01*
X49366666Y-14479761D01*
X49271428Y-14527380D01*
X49128571Y-14527380D01*
X49033333Y-14479761D01*
X48985714Y-14432142D01*
X48509523Y-14527380D02*
X48509523Y-13527380D01*
X48414285Y-14146428D02*
X48128571Y-14527380D01*
X48128571Y-13860714D02*
X48509523Y-14241666D01*
X59104761Y-16229761D02*
X59200000Y-16277380D01*
X59390476Y-16277380D01*
X59485714Y-16229761D01*
X59533333Y-16182142D01*
X59580952Y-16086904D01*
X59580952Y-15801190D01*
X59533333Y-15705952D01*
X59485714Y-15658333D01*
X59390476Y-15610714D01*
X59200000Y-15610714D01*
X59104761Y-15658333D01*
X58247619Y-16229761D02*
X58342857Y-16277380D01*
X58533333Y-16277380D01*
X58628571Y-16229761D01*
X58676190Y-16182142D01*
X58723809Y-16086904D01*
X58723809Y-15801190D01*
X58676190Y-15705952D01*
X58628571Y-15658333D01*
X58533333Y-15610714D01*
X58342857Y-15610714D01*
X58247619Y-15658333D01*
X57819047Y-15896428D02*
X57057142Y-15896428D01*
X56580952Y-16277380D02*
X56580952Y-15277380D01*
X56580952Y-15658333D02*
X56485714Y-15610714D01*
X56295238Y-15610714D01*
X56200000Y-15658333D01*
X56152380Y-15705952D01*
X56104761Y-15801190D01*
X56104761Y-16086904D01*
X56152380Y-16182142D01*
X56200000Y-16229761D01*
X56295238Y-16277380D01*
X56485714Y-16277380D01*
X56580952Y-16229761D01*
X55771428Y-15610714D02*
X55533333Y-16277380D01*
X55295238Y-15610714D02*
X55533333Y-16277380D01*
X55628571Y-16515476D01*
X55676190Y-16563095D01*
X55771428Y-16610714D01*
X54914285Y-15896428D02*
X54152380Y-15896428D01*
X53723809Y-16229761D02*
X53628571Y-16277380D01*
X53438095Y-16277380D01*
X53342857Y-16229761D01*
X53295238Y-16134523D01*
X53295238Y-16086904D01*
X53342857Y-15991666D01*
X53438095Y-15944047D01*
X53580952Y-15944047D01*
X53676190Y-15896428D01*
X53723809Y-15801190D01*
X53723809Y-15753571D01*
X53676190Y-15658333D01*
X53580952Y-15610714D01*
X53438095Y-15610714D01*
X53342857Y-15658333D01*
X52438095Y-16277380D02*
X52438095Y-15753571D01*
X52485714Y-15658333D01*
X52580952Y-15610714D01*
X52771428Y-15610714D01*
X52866666Y-15658333D01*
X52438095Y-16229761D02*
X52533333Y-16277380D01*
X52771428Y-16277380D01*
X52866666Y-16229761D01*
X52914285Y-16134523D01*
X52914285Y-16039285D01*
X52866666Y-15944047D01*
X52771428Y-15896428D01*
X52533333Y-15896428D01*
X52438095Y-15848809D01*
X51247619Y-15372619D02*
X51200000Y-15325000D01*
X51104761Y-15277380D01*
X50866666Y-15277380D01*
X50771428Y-15325000D01*
X50723809Y-15372619D01*
X50676190Y-15467857D01*
X50676190Y-15563095D01*
X50723809Y-15705952D01*
X51295238Y-16277380D01*
X50676190Y-16277380D01*
X50057142Y-15277380D02*
X49961904Y-15277380D01*
X49866666Y-15325000D01*
X49819047Y-15372619D01*
X49771428Y-15467857D01*
X49723809Y-15658333D01*
X49723809Y-15896428D01*
X49771428Y-16086904D01*
X49819047Y-16182142D01*
X49866666Y-16229761D01*
X49961904Y-16277380D01*
X50057142Y-16277380D01*
X50152380Y-16229761D01*
X50200000Y-16182142D01*
X50247619Y-16086904D01*
X50295238Y-15896428D01*
X50295238Y-15658333D01*
X50247619Y-15467857D01*
X50200000Y-15372619D01*
X50152380Y-15325000D01*
X50057142Y-15277380D01*
X49342857Y-15372619D02*
X49295238Y-15325000D01*
X49200000Y-15277380D01*
X48961904Y-15277380D01*
X48866666Y-15325000D01*
X48819047Y-15372619D01*
X48771428Y-15467857D01*
X48771428Y-15563095D01*
X48819047Y-15705952D01*
X49390476Y-16277380D01*
X48771428Y-16277380D01*
X47819047Y-16277380D02*
X48390476Y-16277380D01*
X48104761Y-16277380D02*
X48104761Y-15277380D01*
X48200000Y-15420238D01*
X48295238Y-15515476D01*
X48390476Y-15563095D01*
X69599404Y-12177380D02*
X69599404Y-11177380D01*
X69218452Y-11177380D01*
X69123214Y-11225000D01*
X69075595Y-11272619D01*
X69027976Y-11367857D01*
X69027976Y-11510714D01*
X69075595Y-11605952D01*
X69123214Y-11653571D01*
X69218452Y-11701190D01*
X69599404Y-11701190D01*
X68456547Y-12177380D02*
X68551785Y-12129761D01*
X68599404Y-12082142D01*
X68647023Y-11986904D01*
X68647023Y-11701190D01*
X68599404Y-11605952D01*
X68551785Y-11558333D01*
X68456547Y-11510714D01*
X68313690Y-11510714D01*
X68218452Y-11558333D01*
X68170833Y-11605952D01*
X68123214Y-11701190D01*
X68123214Y-11986904D01*
X68170833Y-12082142D01*
X68218452Y-12129761D01*
X68313690Y-12177380D01*
X68456547Y-12177380D01*
X67789880Y-11510714D02*
X67599404Y-12177380D01*
X67408928Y-11701190D01*
X67218452Y-12177380D01*
X67027976Y-11510714D01*
X66266071Y-12129761D02*
X66361309Y-12177380D01*
X66551785Y-12177380D01*
X66647023Y-12129761D01*
X66694642Y-12034523D01*
X66694642Y-11653571D01*
X66647023Y-11558333D01*
X66551785Y-11510714D01*
X66361309Y-11510714D01*
X66266071Y-11558333D01*
X66218452Y-11653571D01*
X66218452Y-11748809D01*
X66694642Y-11844047D01*
X65789880Y-12177380D02*
X65789880Y-11510714D01*
X65789880Y-11701190D02*
X65742261Y-11605952D01*
X65694642Y-11558333D01*
X65599404Y-11510714D01*
X65504166Y-11510714D01*
X69599404Y-13403571D02*
X69266071Y-13403571D01*
X69123214Y-13927380D02*
X69599404Y-13927380D01*
X69599404Y-12927380D01*
X69123214Y-12927380D01*
X68694642Y-13927380D02*
X68694642Y-13260714D01*
X68694642Y-12927380D02*
X68742261Y-12975000D01*
X68694642Y-13022619D01*
X68647023Y-12975000D01*
X68694642Y-12927380D01*
X68694642Y-13022619D01*
X68361309Y-13260714D02*
X67980357Y-13260714D01*
X68218452Y-12927380D02*
X68218452Y-13784523D01*
X68170833Y-13879761D01*
X68075595Y-13927380D01*
X67980357Y-13927380D01*
X67647023Y-13927380D02*
X67647023Y-12927380D01*
X67218452Y-13927380D02*
X67218452Y-13403571D01*
X67266071Y-13308333D01*
X67361309Y-13260714D01*
X67504166Y-13260714D01*
X67599404Y-13308333D01*
X67647023Y-13355952D01*
X66361309Y-13879761D02*
X66456547Y-13927380D01*
X66647023Y-13927380D01*
X66742261Y-13879761D01*
X66789880Y-13784523D01*
X66789880Y-13403571D01*
X66742261Y-13308333D01*
X66647023Y-13260714D01*
X66456547Y-13260714D01*
X66361309Y-13308333D01*
X66313690Y-13403571D01*
X66313690Y-13498809D01*
X66789880Y-13594047D01*
X65885119Y-13927380D02*
X65885119Y-13260714D01*
X65885119Y-13451190D02*
X65837500Y-13355952D01*
X65789880Y-13308333D01*
X65694642Y-13260714D01*
X65599404Y-13260714D01*
X64599404Y-12927380D02*
X64361309Y-13927380D01*
X64170833Y-13213095D01*
X63980357Y-13927380D01*
X63742261Y-12927380D01*
X62932738Y-13927380D02*
X62932738Y-13403571D01*
X62980357Y-13308333D01*
X63075595Y-13260714D01*
X63266071Y-13260714D01*
X63361309Y-13308333D01*
X62932738Y-13879761D02*
X63027976Y-13927380D01*
X63266071Y-13927380D01*
X63361309Y-13879761D01*
X63408928Y-13784523D01*
X63408928Y-13689285D01*
X63361309Y-13594047D01*
X63266071Y-13546428D01*
X63027976Y-13546428D01*
X62932738Y-13498809D01*
X62551785Y-13260714D02*
X62313690Y-13927380D01*
X62075595Y-13260714D02*
X62313690Y-13927380D01*
X62408928Y-14165476D01*
X62456547Y-14213095D01*
X62551785Y-14260714D01*
D12*
X55150000Y-71078571D02*
X55650000Y-70364285D01*
X56007142Y-71078571D02*
X56007142Y-69578571D01*
X55435714Y-69578571D01*
X55292857Y-69650000D01*
X55221428Y-69721428D01*
X55150000Y-69864285D01*
X55150000Y-70078571D01*
X55221428Y-70221428D01*
X55292857Y-70292857D01*
X55435714Y-70364285D01*
X56007142Y-70364285D01*
X53935714Y-71007142D02*
X54078571Y-71078571D01*
X54364285Y-71078571D01*
X54507142Y-71007142D01*
X54578571Y-70864285D01*
X54578571Y-70292857D01*
X54507142Y-70150000D01*
X54364285Y-70078571D01*
X54078571Y-70078571D01*
X53935714Y-70150000D01*
X53864285Y-70292857D01*
X53864285Y-70435714D01*
X54578571Y-70578571D01*
X53292857Y-71007142D02*
X53150000Y-71078571D01*
X52864285Y-71078571D01*
X52721428Y-71007142D01*
X52650000Y-70864285D01*
X52650000Y-70792857D01*
X52721428Y-70650000D01*
X52864285Y-70578571D01*
X53078571Y-70578571D01*
X53221428Y-70507142D01*
X53292857Y-70364285D01*
X53292857Y-70292857D01*
X53221428Y-70150000D01*
X53078571Y-70078571D01*
X52864285Y-70078571D01*
X52721428Y-70150000D01*
X52007142Y-70935714D02*
X51935714Y-71007142D01*
X52007142Y-71078571D01*
X52078571Y-71007142D01*
X52007142Y-70935714D01*
X52007142Y-71078571D01*
X50221428Y-70650000D02*
X49507142Y-70650000D01*
X50364285Y-71078571D02*
X49864285Y-69578571D01*
X49364285Y-71078571D01*
X48221428Y-71078571D02*
X48221428Y-69578571D01*
X48221428Y-71007142D02*
X48364285Y-71078571D01*
X48650000Y-71078571D01*
X48792857Y-71007142D01*
X48864285Y-70935714D01*
X48935714Y-70792857D01*
X48935714Y-70364285D01*
X48864285Y-70221428D01*
X48792857Y-70150000D01*
X48650000Y-70078571D01*
X48364285Y-70078571D01*
X48221428Y-70150000D01*
X47507142Y-70078571D02*
X47507142Y-71364285D01*
X47578571Y-71507142D01*
X47721428Y-71578571D01*
X47792857Y-71578571D01*
X47507142Y-69578571D02*
X47578571Y-69650000D01*
X47507142Y-69721428D01*
X47435714Y-69650000D01*
X47507142Y-69578571D01*
X47507142Y-69721428D01*
X46792857Y-70935714D02*
X46721428Y-71007142D01*
X46792857Y-71078571D01*
X46864285Y-71007142D01*
X46792857Y-70935714D01*
X46792857Y-71078571D01*
X61500000Y-113007142D02*
X61285714Y-113078571D01*
X60928571Y-113078571D01*
X60785714Y-113007142D01*
X60714285Y-112935714D01*
X60642857Y-112792857D01*
X60642857Y-112650000D01*
X60714285Y-112507142D01*
X60785714Y-112435714D01*
X60928571Y-112364285D01*
X61214285Y-112292857D01*
X61357142Y-112221428D01*
X61428571Y-112150000D01*
X61500000Y-112007142D01*
X61500000Y-111864285D01*
X61428571Y-111721428D01*
X61357142Y-111650000D01*
X61214285Y-111578571D01*
X60857142Y-111578571D01*
X60642857Y-111650000D01*
X59357142Y-113078571D02*
X59357142Y-112292857D01*
X59428571Y-112150000D01*
X59571428Y-112078571D01*
X59857142Y-112078571D01*
X60000000Y-112150000D01*
X59357142Y-113007142D02*
X59500000Y-113078571D01*
X59857142Y-113078571D01*
X60000000Y-113007142D01*
X60071428Y-112864285D01*
X60071428Y-112721428D01*
X60000000Y-112578571D01*
X59857142Y-112507142D01*
X59500000Y-112507142D01*
X59357142Y-112435714D01*
X58785714Y-112078571D02*
X58500000Y-113078571D01*
X58214285Y-112364285D01*
X57928571Y-113078571D01*
X57642857Y-112078571D01*
X56000000Y-112650000D02*
X55285714Y-112650000D01*
X56142857Y-113078571D02*
X55642857Y-111578571D01*
X55142857Y-113078571D01*
X54000000Y-113078571D02*
X54000000Y-111578571D01*
X54000000Y-113007142D02*
X54142857Y-113078571D01*
X54428571Y-113078571D01*
X54571428Y-113007142D01*
X54642857Y-112935714D01*
X54714285Y-112792857D01*
X54714285Y-112364285D01*
X54642857Y-112221428D01*
X54571428Y-112150000D01*
X54428571Y-112078571D01*
X54142857Y-112078571D01*
X54000000Y-112150000D01*
X53285714Y-112078571D02*
X53285714Y-113364285D01*
X53357142Y-113507142D01*
X53500000Y-113578571D01*
X53571428Y-113578571D01*
X53285714Y-111578571D02*
X53357142Y-111650000D01*
X53285714Y-111721428D01*
X53214285Y-111650000D01*
X53285714Y-111578571D01*
X53285714Y-111721428D01*
X52571428Y-112935714D02*
X52500000Y-113007142D01*
X52571428Y-113078571D01*
X52642857Y-113007142D01*
X52571428Y-112935714D01*
X52571428Y-113078571D01*
X77042857Y-111578571D02*
X76542857Y-113078571D01*
X76042857Y-111578571D01*
X74471428Y-111507142D02*
X75757142Y-113435714D01*
X73757142Y-113078571D02*
X73900000Y-113007142D01*
X73971428Y-112935714D01*
X74042857Y-112792857D01*
X74042857Y-112364285D01*
X73971428Y-112221428D01*
X73900000Y-112150000D01*
X73757142Y-112078571D01*
X73542857Y-112078571D01*
X73400000Y-112150000D01*
X73328571Y-112221428D01*
X73257142Y-112364285D01*
X73257142Y-112792857D01*
X73328571Y-112935714D01*
X73400000Y-113007142D01*
X73542857Y-113078571D01*
X73757142Y-113078571D01*
X71971428Y-113007142D02*
X72114285Y-113078571D01*
X72400000Y-113078571D01*
X72542857Y-113007142D01*
X72614285Y-112935714D01*
X72685714Y-112792857D01*
X72685714Y-112364285D01*
X72614285Y-112221428D01*
X72542857Y-112150000D01*
X72400000Y-112078571D01*
X72114285Y-112078571D01*
X71971428Y-112150000D01*
X71542857Y-112078571D02*
X70971428Y-112078571D01*
X71328571Y-111578571D02*
X71328571Y-112864285D01*
X71257142Y-113007142D01*
X71114285Y-113078571D01*
X70971428Y-113078571D01*
X69400000Y-112650000D02*
X68685714Y-112650000D01*
X69542857Y-113078571D02*
X69042857Y-111578571D01*
X68542857Y-113078571D01*
X67400000Y-113078571D02*
X67400000Y-111578571D01*
X67400000Y-113007142D02*
X67542857Y-113078571D01*
X67828571Y-113078571D01*
X67971428Y-113007142D01*
X68042857Y-112935714D01*
X68114285Y-112792857D01*
X68114285Y-112364285D01*
X68042857Y-112221428D01*
X67971428Y-112150000D01*
X67828571Y-112078571D01*
X67542857Y-112078571D01*
X67400000Y-112150000D01*
X66685714Y-112078571D02*
X66685714Y-113364285D01*
X66757142Y-113507142D01*
X66900000Y-113578571D01*
X66971428Y-113578571D01*
X66685714Y-111578571D02*
X66757142Y-111650000D01*
X66685714Y-111721428D01*
X66614285Y-111650000D01*
X66685714Y-111578571D01*
X66685714Y-111721428D01*
X65971428Y-112935714D02*
X65900000Y-113007142D01*
X65971428Y-113078571D01*
X66042857Y-113007142D01*
X65971428Y-112935714D01*
X65971428Y-113078571D01*
D13*
G04 #@! TO.C,U3*
X66775000Y-32725000D02*
X66775000Y-32750000D01*
X62625000Y-32725000D02*
X62625000Y-32830000D01*
X62625000Y-42875000D02*
X62625000Y-42770000D01*
X66775000Y-42875000D02*
X66775000Y-42770000D01*
X66775000Y-32725000D02*
X62625000Y-32725000D01*
X66775000Y-42875000D02*
X62625000Y-42875000D01*
X66775000Y-32750000D02*
X68150000Y-32750000D01*
D14*
G04 #@! TO.C,C1*
X71453733Y-31510000D02*
X71796267Y-31510000D01*
X71453733Y-30490000D02*
X71796267Y-30490000D01*
G04 #@! TO.C,C2*
X53660000Y-75540000D02*
X53660000Y-77240000D01*
X53660000Y-81060000D02*
X53660000Y-79360000D01*
X49204437Y-81060000D02*
X53660000Y-81060000D01*
X49204437Y-75540000D02*
X53660000Y-75540000D01*
X48140000Y-76604437D02*
X48140000Y-77240000D01*
X48140000Y-79995563D02*
X48140000Y-79360000D01*
X48140000Y-79995563D02*
X49204437Y-81060000D01*
X48140000Y-76604437D02*
X49204437Y-75540000D01*
X47275000Y-79985000D02*
X47900000Y-79985000D01*
X47587500Y-80297500D02*
X47587500Y-79672500D01*
G04 #@! TO.C,C3*
X71510000Y-64503733D02*
X71510000Y-64846267D01*
X70490000Y-64503733D02*
X70490000Y-64846267D01*
G04 #@! TO.C,C4*
X83097500Y-113012500D02*
X82472500Y-113012500D01*
X82785000Y-113325000D02*
X82785000Y-112700000D01*
X79404437Y-112460000D02*
X78340000Y-111395563D01*
X82795563Y-112460000D02*
X83860000Y-111395563D01*
X82795563Y-112460000D02*
X82160000Y-112460000D01*
X79404437Y-112460000D02*
X80040000Y-112460000D01*
X78340000Y-111395563D02*
X78340000Y-106940000D01*
X83860000Y-111395563D02*
X83860000Y-106940000D01*
X83860000Y-106940000D02*
X82160000Y-106940000D01*
X78340000Y-106940000D02*
X80040000Y-106940000D01*
G04 #@! TO.C,C5*
X55440000Y-102640000D02*
X57140000Y-102640000D01*
X60960000Y-102640000D02*
X59260000Y-102640000D01*
X60960000Y-107095563D02*
X60960000Y-102640000D01*
X55440000Y-107095563D02*
X55440000Y-102640000D01*
X56504437Y-108160000D02*
X57140000Y-108160000D01*
X59895563Y-108160000D02*
X59260000Y-108160000D01*
X59895563Y-108160000D02*
X60960000Y-107095563D01*
X56504437Y-108160000D02*
X55440000Y-107095563D01*
X59885000Y-109025000D02*
X59885000Y-108400000D01*
X60197500Y-108712500D02*
X59572500Y-108712500D01*
G04 #@! TO.C,C6*
X50097500Y-112712500D02*
X49472500Y-112712500D01*
X49785000Y-113025000D02*
X49785000Y-112400000D01*
X46404437Y-112160000D02*
X45340000Y-111095563D01*
X49795563Y-112160000D02*
X50860000Y-111095563D01*
X49795563Y-112160000D02*
X49160000Y-112160000D01*
X46404437Y-112160000D02*
X47040000Y-112160000D01*
X45340000Y-111095563D02*
X45340000Y-106640000D01*
X50860000Y-111095563D02*
X50860000Y-106640000D01*
X50860000Y-106640000D02*
X49160000Y-106640000D01*
X45340000Y-106640000D02*
X47040000Y-106640000D01*
G04 #@! TO.C,C7*
X60046267Y-57010000D02*
X59703733Y-57010000D01*
X60046267Y-55990000D02*
X59703733Y-55990000D01*
G04 #@! TO.C,C8*
X54869077Y-48490000D02*
X54526543Y-48490000D01*
X54869077Y-49510000D02*
X54526543Y-49510000D01*
G04 #@! TO.C,C9*
X70203733Y-58760000D02*
X70546267Y-58760000D01*
X70203733Y-57740000D02*
X70546267Y-57740000D01*
G04 #@! TO.C,C10*
X55510000Y-43296267D02*
X55510000Y-42953733D01*
X54490000Y-43296267D02*
X54490000Y-42953733D01*
G04 #@! TO.C,C11*
X56990000Y-43296267D02*
X56990000Y-42953733D01*
X58010000Y-43296267D02*
X58010000Y-42953733D01*
G04 #@! TO.C,C12*
X58260000Y-21953733D02*
X58260000Y-22296267D01*
X57240000Y-21953733D02*
X57240000Y-22296267D01*
G04 #@! TO.C,C13*
X47490000Y-21953733D02*
X47490000Y-22296267D01*
X48510000Y-21953733D02*
X48510000Y-22296267D01*
G04 #@! TO.C,C14*
X68290000Y-75953733D02*
X68290000Y-76296267D01*
X69310000Y-75953733D02*
X69310000Y-76296267D01*
G04 #@! TO.C,C15*
X58090000Y-76296267D02*
X58090000Y-75953733D01*
X59110000Y-76296267D02*
X59110000Y-75953733D01*
G04 #@! TO.C,C16*
X82710000Y-31090000D02*
X82710000Y-33440000D01*
X82710000Y-37910000D02*
X82710000Y-35560000D01*
X76954437Y-37910000D02*
X82710000Y-37910000D01*
X76954437Y-31090000D02*
X82710000Y-31090000D01*
X75890000Y-32154437D02*
X75890000Y-33440000D01*
X75890000Y-36845563D02*
X75890000Y-35560000D01*
X75890000Y-36845563D02*
X76954437Y-37910000D01*
X75890000Y-32154437D02*
X76954437Y-31090000D01*
X74862500Y-36347500D02*
X75650000Y-36347500D01*
X75256250Y-36741250D02*
X75256250Y-35953750D01*
G04 #@! TO.C,C17*
X75256250Y-29041250D02*
X75256250Y-28253750D01*
X74862500Y-28647500D02*
X75650000Y-28647500D01*
X75890000Y-24454437D02*
X76954437Y-23390000D01*
X75890000Y-29145563D02*
X76954437Y-30210000D01*
X75890000Y-29145563D02*
X75890000Y-27860000D01*
X75890000Y-24454437D02*
X75890000Y-25740000D01*
X76954437Y-23390000D02*
X82710000Y-23390000D01*
X76954437Y-30210000D02*
X82710000Y-30210000D01*
X82710000Y-30210000D02*
X82710000Y-27860000D01*
X82710000Y-23390000D02*
X82710000Y-25740000D01*
G04 #@! TO.C,C18*
X71453733Y-41260000D02*
X71796267Y-41260000D01*
X71453733Y-40240000D02*
X71796267Y-40240000D01*
G04 #@! TO.C,C19*
X66703733Y-94490000D02*
X67046267Y-94490000D01*
X66703733Y-95510000D02*
X67046267Y-95510000D01*
G04 #@! TO.C,C20*
X63103733Y-95510000D02*
X63446267Y-95510000D01*
X63103733Y-94490000D02*
X63446267Y-94490000D01*
G04 #@! TO.C,C21*
X66203733Y-71310000D02*
X66546267Y-71310000D01*
X66203733Y-70290000D02*
X66546267Y-70290000D01*
G04 #@! TO.C,C22*
X62703733Y-70290000D02*
X63046267Y-70290000D01*
X62703733Y-71310000D02*
X63046267Y-71310000D01*
G04 #@! TO.C,C23*
X78903733Y-65790000D02*
X79246267Y-65790000D01*
X78903733Y-66810000D02*
X79246267Y-66810000D01*
G04 #@! TO.C,C24*
X75453733Y-66810000D02*
X75796267Y-66810000D01*
X75453733Y-65790000D02*
X75796267Y-65790000D01*
G04 #@! TO.C,C25*
X66503733Y-30490000D02*
X66846267Y-30490000D01*
X66503733Y-31510000D02*
X66846267Y-31510000D01*
G04 #@! TO.C,C26*
X63028733Y-31510000D02*
X63371267Y-31510000D01*
X63028733Y-30490000D02*
X63371267Y-30490000D01*
G04 #@! TO.C,C27*
X54953733Y-36240000D02*
X55296267Y-36240000D01*
X54953733Y-37260000D02*
X55296267Y-37260000D01*
G04 #@! TO.C,C28*
X51203733Y-36240000D02*
X51546267Y-36240000D01*
X51203733Y-37260000D02*
X51546267Y-37260000D01*
G04 #@! TO.C,D1*
X77600000Y-99600000D02*
X75600000Y-99600000D01*
X75600000Y-99600000D02*
X75600000Y-95700000D01*
X77600000Y-99600000D02*
X77600000Y-95700000D01*
G04 #@! TO.C,D2*
X72400000Y-95100000D02*
X72400000Y-99000000D01*
X74400000Y-95100000D02*
X74400000Y-99000000D01*
X72400000Y-95100000D02*
X74400000Y-95100000D01*
G04 #@! TO.C,D3*
X83383365Y-47674999D02*
X81383365Y-47674999D01*
X81383365Y-47674999D02*
X81383365Y-43774999D01*
X83383365Y-47674999D02*
X83383365Y-43774999D01*
G04 #@! TO.C,D5*
X77800000Y-21700000D02*
X77800000Y-21200000D01*
X77800000Y-21200000D02*
X76400000Y-21200000D01*
X82200000Y-20000000D02*
X82200000Y-18400000D01*
X77800000Y-20000000D02*
X77800000Y-18400000D01*
X82200000Y-20900000D02*
X82200000Y-21700000D01*
X82200000Y-21700000D02*
X77800000Y-21700000D01*
X82200000Y-17500000D02*
X82200000Y-16700000D01*
X82200000Y-16700000D02*
X77800000Y-16700000D01*
X77800000Y-16700000D02*
X77800000Y-17500000D01*
G04 #@! TO.C,F1*
X67340000Y-19089564D02*
X67340000Y-17885436D01*
X69160000Y-19089564D02*
X69160000Y-17885436D01*
G04 #@! TO.C,F2*
X72310000Y-19089564D02*
X72310000Y-17885436D01*
X70490000Y-19089564D02*
X70490000Y-17885436D01*
G04 #@! TO.C,PWR_IN1*
X83330000Y-10070000D02*
X83330000Y-15270000D01*
X73110000Y-10070000D02*
X83330000Y-10070000D01*
X70510000Y-15270000D02*
X83330000Y-15270000D01*
X73110000Y-10070000D02*
X73110000Y-12670000D01*
X73110000Y-12670000D02*
X70510000Y-12670000D01*
X70510000Y-12670000D02*
X70510000Y-15270000D01*
X71840000Y-10070000D02*
X70510000Y-10070000D01*
X70510000Y-10070000D02*
X70510000Y-11400000D01*
G04 #@! TO.C,R1*
X54310000Y-91696267D02*
X54310000Y-91353733D01*
X53290000Y-91696267D02*
X53290000Y-91353733D01*
G04 #@! TO.C,R2*
X71510000Y-91696267D02*
X71510000Y-91353733D01*
X70490000Y-91696267D02*
X70490000Y-91353733D01*
G04 #@! TO.C,R3*
X70490000Y-83953733D02*
X70490000Y-84296267D01*
X71510000Y-83953733D02*
X71510000Y-84296267D01*
G04 #@! TO.C,R4*
X55690000Y-91353733D02*
X55690000Y-91696267D01*
X56710000Y-91353733D02*
X56710000Y-91696267D01*
G04 #@! TO.C,R5*
X74110000Y-91353733D02*
X74110000Y-91696267D01*
X73090000Y-91353733D02*
X73090000Y-91696267D01*
G04 #@! TO.C,R6*
X73090000Y-84296267D02*
X73090000Y-83953733D01*
X74110000Y-84296267D02*
X74110000Y-83953733D01*
G04 #@! TO.C,R7*
X58290000Y-91696267D02*
X58290000Y-91353733D01*
X59310000Y-91696267D02*
X59310000Y-91353733D01*
G04 #@! TO.C,R8*
X76710000Y-91696267D02*
X76710000Y-91353733D01*
X75690000Y-91696267D02*
X75690000Y-91353733D01*
G04 #@! TO.C,R9*
X79310000Y-91696267D02*
X79310000Y-91353733D01*
X78290000Y-91696267D02*
X78290000Y-91353733D01*
G04 #@! TO.C,R10*
X82910000Y-40296267D02*
X82910000Y-39953733D01*
X81890000Y-40296267D02*
X81890000Y-39953733D01*
G04 #@! TO.C,R11*
X75690000Y-83953733D02*
X75690000Y-84296267D01*
X76710000Y-83953733D02*
X76710000Y-84296267D01*
G04 #@! TO.C,R12*
X71796267Y-36260000D02*
X71453733Y-36260000D01*
X71796267Y-35240000D02*
X71453733Y-35240000D01*
G04 #@! TO.C,R13*
X79310000Y-84296267D02*
X79310000Y-83953733D01*
X78290000Y-84296267D02*
X78290000Y-83953733D01*
G04 #@! TO.C,R14*
X81710000Y-91696267D02*
X81710000Y-91353733D01*
X80690000Y-91696267D02*
X80690000Y-91353733D01*
G04 #@! TO.C,R15*
X71453733Y-32740000D02*
X71796267Y-32740000D01*
X71453733Y-33760000D02*
X71796267Y-33760000D01*
G04 #@! TO.C,R16*
X81710000Y-83953733D02*
X81710000Y-84296267D01*
X80690000Y-83953733D02*
X80690000Y-84296267D01*
G04 #@! TO.C,R17*
X57696267Y-60110000D02*
X57353733Y-60110000D01*
X57696267Y-59090000D02*
X57353733Y-59090000D01*
G04 #@! TO.C,R18*
X55490000Y-84296267D02*
X55490000Y-83953733D01*
X56510000Y-84296267D02*
X56510000Y-83953733D01*
G04 #@! TO.C,R19*
X59110000Y-83953733D02*
X59110000Y-84296267D01*
X58090000Y-83953733D02*
X58090000Y-84296267D01*
G04 #@! TO.C,R20*
X82910000Y-51046267D02*
X82910000Y-50703733D01*
X81890000Y-51046267D02*
X81890000Y-50703733D01*
G04 #@! TO.C,R21*
X46990000Y-59528733D02*
X46990000Y-59871267D01*
X48010000Y-59528733D02*
X48010000Y-59871267D01*
G04 #@! TO.C,R22*
X46990000Y-56346267D02*
X46990000Y-56003733D01*
X48010000Y-56346267D02*
X48010000Y-56003733D01*
G04 #@! TO.C,R23*
X81303733Y-103910000D02*
X81646267Y-103910000D01*
X81303733Y-102890000D02*
X81646267Y-102890000D01*
G04 #@! TO.C,R24*
X64296267Y-101690000D02*
X63953733Y-101690000D01*
X64296267Y-102710000D02*
X63953733Y-102710000D01*
G04 #@! TO.C,R25*
X48046267Y-102490000D02*
X47703733Y-102490000D01*
X48046267Y-103510000D02*
X47703733Y-103510000D01*
G04 #@! TO.C,R26*
X46990000Y-52046267D02*
X46990000Y-51703733D01*
X48010000Y-52046267D02*
X48010000Y-51703733D01*
G04 #@! TO.C,R27*
X60046267Y-49510000D02*
X59703733Y-49510000D01*
X60046267Y-48490000D02*
X59703733Y-48490000D01*
G04 #@! TO.C,R28*
X54796267Y-57010000D02*
X54453733Y-57010000D01*
X54796267Y-55990000D02*
X54453733Y-55990000D01*
G04 #@! TO.C,R29*
X59703733Y-50990000D02*
X60046267Y-50990000D01*
X59703733Y-52010000D02*
X60046267Y-52010000D01*
G04 #@! TO.C,R30*
X60046267Y-53490000D02*
X59703733Y-53490000D01*
X60046267Y-54510000D02*
X59703733Y-54510000D01*
G04 #@! TO.C,R31*
X54453733Y-54510000D02*
X54796267Y-54510000D01*
X54453733Y-53490000D02*
X54796267Y-53490000D01*
G04 #@! TO.C,R32*
X54796267Y-50990000D02*
X54453733Y-50990000D01*
X54796267Y-52010000D02*
X54453733Y-52010000D01*
G04 #@! TO.C,R33*
X70203733Y-61260000D02*
X70546267Y-61260000D01*
X70203733Y-60240000D02*
X70546267Y-60240000D01*
G04 #@! TO.C,R34*
X60760000Y-21953733D02*
X60760000Y-22296267D01*
X59740000Y-21953733D02*
X59740000Y-22296267D01*
G04 #@! TO.C,R35*
X70546267Y-56010000D02*
X70203733Y-56010000D01*
X70546267Y-54990000D02*
X70203733Y-54990000D01*
G04 #@! TO.C,R36*
X70203733Y-52490000D02*
X70546267Y-52490000D01*
X70203733Y-53510000D02*
X70546267Y-53510000D01*
G04 #@! TO.C,R37*
X83110000Y-56696267D02*
X83110000Y-56353733D01*
X82090000Y-56696267D02*
X82090000Y-56353733D01*
G04 #@! TO.C,R38*
X53260000Y-21953733D02*
X53260000Y-22296267D01*
X52240000Y-21953733D02*
X52240000Y-22296267D01*
G04 #@! TO.C,R39*
X55760000Y-21953733D02*
X55760000Y-22296267D01*
X54740000Y-21953733D02*
X54740000Y-22296267D01*
G04 #@! TO.C,R40*
X70546267Y-49990000D02*
X70203733Y-49990000D01*
X70546267Y-51010000D02*
X70203733Y-51010000D01*
G04 #@! TO.C,R41*
X70546267Y-47240000D02*
X70203733Y-47240000D01*
X70546267Y-48260000D02*
X70203733Y-48260000D01*
G04 #@! TO.C,R42*
X82090000Y-63846267D02*
X82090000Y-63503733D01*
X83110000Y-63846267D02*
X83110000Y-63503733D01*
G04 #@! TO.C,R43*
X49740000Y-21953733D02*
X49740000Y-22296267D01*
X50760000Y-21953733D02*
X50760000Y-22296267D01*
G04 #@! TO.C,R44*
X66710000Y-76003733D02*
X66710000Y-76346267D01*
X65690000Y-76003733D02*
X65690000Y-76346267D01*
G04 #@! TO.C,R45*
X64210000Y-76003733D02*
X64210000Y-76346267D01*
X63190000Y-76003733D02*
X63190000Y-76346267D01*
G04 #@! TO.C,R46*
X61710000Y-76296267D02*
X61710000Y-75953733D01*
X60690000Y-76296267D02*
X60690000Y-75953733D01*
G04 #@! TO.C,R47*
X71796267Y-38660000D02*
X71453733Y-38660000D01*
X71796267Y-37640000D02*
X71453733Y-37640000D01*
G04 #@! TO.C,RES_ADJ1*
X46575000Y-68730000D02*
X56345000Y-68730000D01*
X46575000Y-63660000D02*
X56345000Y-63660000D01*
X46575000Y-68730000D02*
X46575000Y-63660000D01*
X56345000Y-68730000D02*
X56345000Y-63660000D01*
G04 #@! TO.C,RV_SAW_OCTAVE1*
X62925000Y-113970000D02*
X53155000Y-113970000D01*
X62925000Y-119040000D02*
X53155000Y-119040000D01*
X62925000Y-113970000D02*
X62925000Y-119040000D01*
X53155000Y-113970000D02*
X53155000Y-119040000D01*
D13*
G04 #@! TO.C,U1*
X66975000Y-83450000D02*
X66975000Y-83475000D01*
X62825000Y-83450000D02*
X62825000Y-83565000D01*
X62825000Y-92350000D02*
X62825000Y-92235000D01*
X66975000Y-92350000D02*
X66975000Y-92235000D01*
X66975000Y-83450000D02*
X62825000Y-83450000D01*
X66975000Y-92350000D02*
X62825000Y-92350000D01*
X66975000Y-83475000D02*
X68350000Y-83475000D01*
G04 #@! TO.C,U2*
X66675000Y-60475000D02*
X68050000Y-60475000D01*
X66675000Y-69350000D02*
X62525000Y-69350000D01*
X66675000Y-60450000D02*
X62525000Y-60450000D01*
X66675000Y-69350000D02*
X66675000Y-69235000D01*
X62525000Y-69350000D02*
X62525000Y-69235000D01*
X62525000Y-60450000D02*
X62525000Y-60565000D01*
X66675000Y-60450000D02*
X66675000Y-60475000D01*
G04 #@! TO.C,U4*
X79475000Y-55275000D02*
X80850000Y-55275000D01*
X79475000Y-64150000D02*
X75325000Y-64150000D01*
X79475000Y-55250000D02*
X75325000Y-55250000D01*
X79475000Y-64150000D02*
X79475000Y-64035000D01*
X75325000Y-64150000D02*
X75325000Y-64035000D01*
X75325000Y-55250000D02*
X75325000Y-55365000D01*
X79475000Y-55250000D02*
X79475000Y-55275000D01*
G04 #@! TO.C,U5*
X55325000Y-26050000D02*
X55325000Y-26075000D01*
X51175000Y-26050000D02*
X51175000Y-26165000D01*
X51175000Y-34950000D02*
X51175000Y-34835000D01*
X55325000Y-34950000D02*
X55325000Y-34835000D01*
X55325000Y-26050000D02*
X51175000Y-26050000D01*
X55325000Y-34950000D02*
X51175000Y-34950000D01*
X55325000Y-26075000D02*
X56700000Y-26075000D01*
D14*
G04 #@! TO.C,V_OCT_SCALE1*
X66555000Y-114070000D02*
X66555000Y-119140000D01*
X76325000Y-114070000D02*
X76325000Y-119140000D01*
X76325000Y-119140000D02*
X66555000Y-119140000D01*
X76325000Y-114070000D02*
X66555000Y-114070000D01*
G04 #@! TO.C,D4*
X70270000Y-74840000D02*
X70270000Y-76300000D01*
X73430000Y-74840000D02*
X73430000Y-78000000D01*
X73430000Y-74840000D02*
X72500000Y-74840000D01*
X70270000Y-74840000D02*
X71200000Y-74840000D01*
G04 #@! TO.C,D6*
X73660000Y-42470000D02*
X73660000Y-43400000D01*
X73660000Y-45630000D02*
X73660000Y-44700000D01*
X73660000Y-45630000D02*
X70500000Y-45630000D01*
X73660000Y-42470000D02*
X72200000Y-42470000D01*
G04 #@! TO.C,R48*
X77490000Y-79896267D02*
X77490000Y-79553733D01*
X78510000Y-79896267D02*
X78510000Y-79553733D01*
G04 #@! TO.C,R49*
X59390000Y-80203733D02*
X59390000Y-80546267D01*
X60410000Y-80203733D02*
X60410000Y-80546267D01*
G04 #@! TD*
G04 #@! TO.C,U3*
D13*
X65361904Y-43252380D02*
X65361904Y-44061904D01*
X65314285Y-44157142D01*
X65266666Y-44204761D01*
X65171428Y-44252380D01*
X64980952Y-44252380D01*
X64885714Y-44204761D01*
X64838095Y-44157142D01*
X64790476Y-44061904D01*
X64790476Y-43252380D01*
X64409523Y-43252380D02*
X63790476Y-43252380D01*
X64123809Y-43633333D01*
X63980952Y-43633333D01*
X63885714Y-43680952D01*
X63838095Y-43728571D01*
X63790476Y-43823809D01*
X63790476Y-44061904D01*
X63838095Y-44157142D01*
X63885714Y-44204761D01*
X63980952Y-44252380D01*
X64266666Y-44252380D01*
X64361904Y-44204761D01*
X64409523Y-44157142D01*
G04 #@! TO.C,C1*
X71966666Y-29957142D02*
X72014285Y-30004761D01*
X72157142Y-30052380D01*
X72252380Y-30052380D01*
X72395238Y-30004761D01*
X72490476Y-29909523D01*
X72538095Y-29814285D01*
X72585714Y-29623809D01*
X72585714Y-29480952D01*
X72538095Y-29290476D01*
X72490476Y-29195238D01*
X72395238Y-29100000D01*
X72252380Y-29052380D01*
X72157142Y-29052380D01*
X72014285Y-29100000D01*
X71966666Y-29147619D01*
X71014285Y-30052380D02*
X71585714Y-30052380D01*
X71300000Y-30052380D02*
X71300000Y-29052380D01*
X71395238Y-29195238D01*
X71490476Y-29290476D01*
X71585714Y-29338095D01*
G04 #@! TO.C,C2*
X51066666Y-74857142D02*
X51114285Y-74904761D01*
X51257142Y-74952380D01*
X51352380Y-74952380D01*
X51495238Y-74904761D01*
X51590476Y-74809523D01*
X51638095Y-74714285D01*
X51685714Y-74523809D01*
X51685714Y-74380952D01*
X51638095Y-74190476D01*
X51590476Y-74095238D01*
X51495238Y-74000000D01*
X51352380Y-73952380D01*
X51257142Y-73952380D01*
X51114285Y-74000000D01*
X51066666Y-74047619D01*
X50685714Y-74047619D02*
X50638095Y-74000000D01*
X50542857Y-73952380D01*
X50304761Y-73952380D01*
X50209523Y-74000000D01*
X50161904Y-74047619D01*
X50114285Y-74142857D01*
X50114285Y-74238095D01*
X50161904Y-74380952D01*
X50733333Y-74952380D01*
X50114285Y-74952380D01*
G04 #@! TO.C,C3*
X69927142Y-64508333D02*
X69974761Y-64460714D01*
X70022380Y-64317857D01*
X70022380Y-64222619D01*
X69974761Y-64079761D01*
X69879523Y-63984523D01*
X69784285Y-63936904D01*
X69593809Y-63889285D01*
X69450952Y-63889285D01*
X69260476Y-63936904D01*
X69165238Y-63984523D01*
X69070000Y-64079761D01*
X69022380Y-64222619D01*
X69022380Y-64317857D01*
X69070000Y-64460714D01*
X69117619Y-64508333D01*
X69022380Y-64841666D02*
X69022380Y-65460714D01*
X69403333Y-65127380D01*
X69403333Y-65270238D01*
X69450952Y-65365476D01*
X69498571Y-65413095D01*
X69593809Y-65460714D01*
X69831904Y-65460714D01*
X69927142Y-65413095D01*
X69974761Y-65365476D01*
X70022380Y-65270238D01*
X70022380Y-64984523D01*
X69974761Y-64889285D01*
X69927142Y-64841666D01*
G04 #@! TO.C,C4*
X77757142Y-109433333D02*
X77804761Y-109385714D01*
X77852380Y-109242857D01*
X77852380Y-109147619D01*
X77804761Y-109004761D01*
X77709523Y-108909523D01*
X77614285Y-108861904D01*
X77423809Y-108814285D01*
X77280952Y-108814285D01*
X77090476Y-108861904D01*
X76995238Y-108909523D01*
X76900000Y-109004761D01*
X76852380Y-109147619D01*
X76852380Y-109242857D01*
X76900000Y-109385714D01*
X76947619Y-109433333D01*
X77185714Y-110290476D02*
X77852380Y-110290476D01*
X76804761Y-110052380D02*
X77519047Y-109814285D01*
X77519047Y-110433333D01*
G04 #@! TO.C,C5*
X62257142Y-105233333D02*
X62304761Y-105185714D01*
X62352380Y-105042857D01*
X62352380Y-104947619D01*
X62304761Y-104804761D01*
X62209523Y-104709523D01*
X62114285Y-104661904D01*
X61923809Y-104614285D01*
X61780952Y-104614285D01*
X61590476Y-104661904D01*
X61495238Y-104709523D01*
X61400000Y-104804761D01*
X61352380Y-104947619D01*
X61352380Y-105042857D01*
X61400000Y-105185714D01*
X61447619Y-105233333D01*
X61352380Y-106138095D02*
X61352380Y-105661904D01*
X61828571Y-105614285D01*
X61780952Y-105661904D01*
X61733333Y-105757142D01*
X61733333Y-105995238D01*
X61780952Y-106090476D01*
X61828571Y-106138095D01*
X61923809Y-106185714D01*
X62161904Y-106185714D01*
X62257142Y-106138095D01*
X62304761Y-106090476D01*
X62352380Y-105995238D01*
X62352380Y-105757142D01*
X62304761Y-105661904D01*
X62257142Y-105614285D01*
G04 #@! TO.C,C6*
X52157142Y-109233333D02*
X52204761Y-109185714D01*
X52252380Y-109042857D01*
X52252380Y-108947619D01*
X52204761Y-108804761D01*
X52109523Y-108709523D01*
X52014285Y-108661904D01*
X51823809Y-108614285D01*
X51680952Y-108614285D01*
X51490476Y-108661904D01*
X51395238Y-108709523D01*
X51300000Y-108804761D01*
X51252380Y-108947619D01*
X51252380Y-109042857D01*
X51300000Y-109185714D01*
X51347619Y-109233333D01*
X51252380Y-110090476D02*
X51252380Y-109900000D01*
X51300000Y-109804761D01*
X51347619Y-109757142D01*
X51490476Y-109661904D01*
X51680952Y-109614285D01*
X52061904Y-109614285D01*
X52157142Y-109661904D01*
X52204761Y-109709523D01*
X52252380Y-109804761D01*
X52252380Y-109995238D01*
X52204761Y-110090476D01*
X52157142Y-110138095D01*
X52061904Y-110185714D01*
X51823809Y-110185714D01*
X51728571Y-110138095D01*
X51680952Y-110090476D01*
X51633333Y-109995238D01*
X51633333Y-109804761D01*
X51680952Y-109709523D01*
X51728571Y-109661904D01*
X51823809Y-109614285D01*
G04 #@! TO.C,C7*
X60041666Y-55557142D02*
X60089285Y-55604761D01*
X60232142Y-55652380D01*
X60327380Y-55652380D01*
X60470238Y-55604761D01*
X60565476Y-55509523D01*
X60613095Y-55414285D01*
X60660714Y-55223809D01*
X60660714Y-55080952D01*
X60613095Y-54890476D01*
X60565476Y-54795238D01*
X60470238Y-54700000D01*
X60327380Y-54652380D01*
X60232142Y-54652380D01*
X60089285Y-54700000D01*
X60041666Y-54747619D01*
X59708333Y-54652380D02*
X59041666Y-54652380D01*
X59470238Y-55652380D01*
G04 #@! TO.C,C8*
X52166666Y-49357142D02*
X52214285Y-49404761D01*
X52357142Y-49452380D01*
X52452380Y-49452380D01*
X52595238Y-49404761D01*
X52690476Y-49309523D01*
X52738095Y-49214285D01*
X52785714Y-49023809D01*
X52785714Y-48880952D01*
X52738095Y-48690476D01*
X52690476Y-48595238D01*
X52595238Y-48500000D01*
X52452380Y-48452380D01*
X52357142Y-48452380D01*
X52214285Y-48500000D01*
X52166666Y-48547619D01*
X51595238Y-48880952D02*
X51690476Y-48833333D01*
X51738095Y-48785714D01*
X51785714Y-48690476D01*
X51785714Y-48642857D01*
X51738095Y-48547619D01*
X51690476Y-48500000D01*
X51595238Y-48452380D01*
X51404761Y-48452380D01*
X51309523Y-48500000D01*
X51261904Y-48547619D01*
X51214285Y-48642857D01*
X51214285Y-48690476D01*
X51261904Y-48785714D01*
X51309523Y-48833333D01*
X51404761Y-48880952D01*
X51595238Y-48880952D01*
X51690476Y-48928571D01*
X51738095Y-48976190D01*
X51785714Y-49071428D01*
X51785714Y-49261904D01*
X51738095Y-49357142D01*
X51690476Y-49404761D01*
X51595238Y-49452380D01*
X51404761Y-49452380D01*
X51309523Y-49404761D01*
X51261904Y-49357142D01*
X51214285Y-49261904D01*
X51214285Y-49071428D01*
X51261904Y-48976190D01*
X51309523Y-48928571D01*
X51404761Y-48880952D01*
G04 #@! TO.C,C9*
X67766666Y-58557142D02*
X67814285Y-58604761D01*
X67957142Y-58652380D01*
X68052380Y-58652380D01*
X68195238Y-58604761D01*
X68290476Y-58509523D01*
X68338095Y-58414285D01*
X68385714Y-58223809D01*
X68385714Y-58080952D01*
X68338095Y-57890476D01*
X68290476Y-57795238D01*
X68195238Y-57700000D01*
X68052380Y-57652380D01*
X67957142Y-57652380D01*
X67814285Y-57700000D01*
X67766666Y-57747619D01*
X67290476Y-58652380D02*
X67100000Y-58652380D01*
X67004761Y-58604761D01*
X66957142Y-58557142D01*
X66861904Y-58414285D01*
X66814285Y-58223809D01*
X66814285Y-57842857D01*
X66861904Y-57747619D01*
X66909523Y-57700000D01*
X67004761Y-57652380D01*
X67195238Y-57652380D01*
X67290476Y-57700000D01*
X67338095Y-57747619D01*
X67385714Y-57842857D01*
X67385714Y-58080952D01*
X67338095Y-58176190D01*
X67290476Y-58223809D01*
X67195238Y-58271428D01*
X67004761Y-58271428D01*
X66909523Y-58223809D01*
X66861904Y-58176190D01*
X66814285Y-58080952D01*
G04 #@! TO.C,C10*
X53757142Y-42482142D02*
X53804761Y-42434523D01*
X53852380Y-42291666D01*
X53852380Y-42196428D01*
X53804761Y-42053571D01*
X53709523Y-41958333D01*
X53614285Y-41910714D01*
X53423809Y-41863095D01*
X53280952Y-41863095D01*
X53090476Y-41910714D01*
X52995238Y-41958333D01*
X52900000Y-42053571D01*
X52852380Y-42196428D01*
X52852380Y-42291666D01*
X52900000Y-42434523D01*
X52947619Y-42482142D01*
X53852380Y-43434523D02*
X53852380Y-42863095D01*
X53852380Y-43148809D02*
X52852380Y-43148809D01*
X52995238Y-43053571D01*
X53090476Y-42958333D01*
X53138095Y-42863095D01*
X52852380Y-44053571D02*
X52852380Y-44148809D01*
X52900000Y-44244047D01*
X52947619Y-44291666D01*
X53042857Y-44339285D01*
X53233333Y-44386904D01*
X53471428Y-44386904D01*
X53661904Y-44339285D01*
X53757142Y-44291666D01*
X53804761Y-44244047D01*
X53852380Y-44148809D01*
X53852380Y-44053571D01*
X53804761Y-43958333D01*
X53757142Y-43910714D01*
X53661904Y-43863095D01*
X53471428Y-43815476D01*
X53233333Y-43815476D01*
X53042857Y-43863095D01*
X52947619Y-43910714D01*
X52900000Y-43958333D01*
X52852380Y-44053571D01*
G04 #@! TO.C,C11*
X59357142Y-42357142D02*
X59404761Y-42309523D01*
X59452380Y-42166666D01*
X59452380Y-42071428D01*
X59404761Y-41928571D01*
X59309523Y-41833333D01*
X59214285Y-41785714D01*
X59023809Y-41738095D01*
X58880952Y-41738095D01*
X58690476Y-41785714D01*
X58595238Y-41833333D01*
X58500000Y-41928571D01*
X58452380Y-42071428D01*
X58452380Y-42166666D01*
X58500000Y-42309523D01*
X58547619Y-42357142D01*
X59452380Y-43309523D02*
X59452380Y-42738095D01*
X59452380Y-43023809D02*
X58452380Y-43023809D01*
X58595238Y-42928571D01*
X58690476Y-42833333D01*
X58738095Y-42738095D01*
X59452380Y-44261904D02*
X59452380Y-43690476D01*
X59452380Y-43976190D02*
X58452380Y-43976190D01*
X58595238Y-43880952D01*
X58690476Y-43785714D01*
X58738095Y-43690476D01*
G04 #@! TO.C,C12*
X58157142Y-17957142D02*
X58204761Y-17909523D01*
X58252380Y-17766666D01*
X58252380Y-17671428D01*
X58204761Y-17528571D01*
X58109523Y-17433333D01*
X58014285Y-17385714D01*
X57823809Y-17338095D01*
X57680952Y-17338095D01*
X57490476Y-17385714D01*
X57395238Y-17433333D01*
X57300000Y-17528571D01*
X57252380Y-17671428D01*
X57252380Y-17766666D01*
X57300000Y-17909523D01*
X57347619Y-17957142D01*
X58252380Y-18909523D02*
X58252380Y-18338095D01*
X58252380Y-18623809D02*
X57252380Y-18623809D01*
X57395238Y-18528571D01*
X57490476Y-18433333D01*
X57538095Y-18338095D01*
X57347619Y-19290476D02*
X57300000Y-19338095D01*
X57252380Y-19433333D01*
X57252380Y-19671428D01*
X57300000Y-19766666D01*
X57347619Y-19814285D01*
X57442857Y-19861904D01*
X57538095Y-19861904D01*
X57680952Y-19814285D01*
X58252380Y-19242857D01*
X58252380Y-19861904D01*
G04 #@! TO.C,C13*
X48357142Y-17957142D02*
X48404761Y-17909523D01*
X48452380Y-17766666D01*
X48452380Y-17671428D01*
X48404761Y-17528571D01*
X48309523Y-17433333D01*
X48214285Y-17385714D01*
X48023809Y-17338095D01*
X47880952Y-17338095D01*
X47690476Y-17385714D01*
X47595238Y-17433333D01*
X47500000Y-17528571D01*
X47452380Y-17671428D01*
X47452380Y-17766666D01*
X47500000Y-17909523D01*
X47547619Y-17957142D01*
X48452380Y-18909523D02*
X48452380Y-18338095D01*
X48452380Y-18623809D02*
X47452380Y-18623809D01*
X47595238Y-18528571D01*
X47690476Y-18433333D01*
X47738095Y-18338095D01*
X47452380Y-19242857D02*
X47452380Y-19861904D01*
X47833333Y-19528571D01*
X47833333Y-19671428D01*
X47880952Y-19766666D01*
X47928571Y-19814285D01*
X48023809Y-19861904D01*
X48261904Y-19861904D01*
X48357142Y-19814285D01*
X48404761Y-19766666D01*
X48452380Y-19671428D01*
X48452380Y-19385714D01*
X48404761Y-19290476D01*
X48357142Y-19242857D01*
G04 #@! TO.C,C14*
X69157142Y-78657142D02*
X69204761Y-78609523D01*
X69252380Y-78466666D01*
X69252380Y-78371428D01*
X69204761Y-78228571D01*
X69109523Y-78133333D01*
X69014285Y-78085714D01*
X68823809Y-78038095D01*
X68680952Y-78038095D01*
X68490476Y-78085714D01*
X68395238Y-78133333D01*
X68300000Y-78228571D01*
X68252380Y-78371428D01*
X68252380Y-78466666D01*
X68300000Y-78609523D01*
X68347619Y-78657142D01*
X69252380Y-79609523D02*
X69252380Y-79038095D01*
X69252380Y-79323809D02*
X68252380Y-79323809D01*
X68395238Y-79228571D01*
X68490476Y-79133333D01*
X68538095Y-79038095D01*
X68585714Y-80466666D02*
X69252380Y-80466666D01*
X68204761Y-80228571D02*
X68919047Y-79990476D01*
X68919047Y-80609523D01*
G04 #@! TO.C,C15*
X58257142Y-72557142D02*
X58304761Y-72509523D01*
X58352380Y-72366666D01*
X58352380Y-72271428D01*
X58304761Y-72128571D01*
X58209523Y-72033333D01*
X58114285Y-71985714D01*
X57923809Y-71938095D01*
X57780952Y-71938095D01*
X57590476Y-71985714D01*
X57495238Y-72033333D01*
X57400000Y-72128571D01*
X57352380Y-72271428D01*
X57352380Y-72366666D01*
X57400000Y-72509523D01*
X57447619Y-72557142D01*
X58352380Y-73509523D02*
X58352380Y-72938095D01*
X58352380Y-73223809D02*
X57352380Y-73223809D01*
X57495238Y-73128571D01*
X57590476Y-73033333D01*
X57638095Y-72938095D01*
X57352380Y-74414285D02*
X57352380Y-73938095D01*
X57828571Y-73890476D01*
X57780952Y-73938095D01*
X57733333Y-74033333D01*
X57733333Y-74271428D01*
X57780952Y-74366666D01*
X57828571Y-74414285D01*
X57923809Y-74461904D01*
X58161904Y-74461904D01*
X58257142Y-74414285D01*
X58304761Y-74366666D01*
X58352380Y-74271428D01*
X58352380Y-74033333D01*
X58304761Y-73938095D01*
X58257142Y-73890476D01*
G04 #@! TO.C,C16*
X83957142Y-31257142D02*
X84004761Y-31209523D01*
X84052380Y-31066666D01*
X84052380Y-30971428D01*
X84004761Y-30828571D01*
X83909523Y-30733333D01*
X83814285Y-30685714D01*
X83623809Y-30638095D01*
X83480952Y-30638095D01*
X83290476Y-30685714D01*
X83195238Y-30733333D01*
X83100000Y-30828571D01*
X83052380Y-30971428D01*
X83052380Y-31066666D01*
X83100000Y-31209523D01*
X83147619Y-31257142D01*
X84052380Y-32209523D02*
X84052380Y-31638095D01*
X84052380Y-31923809D02*
X83052380Y-31923809D01*
X83195238Y-31828571D01*
X83290476Y-31733333D01*
X83338095Y-31638095D01*
X83052380Y-33066666D02*
X83052380Y-32876190D01*
X83100000Y-32780952D01*
X83147619Y-32733333D01*
X83290476Y-32638095D01*
X83480952Y-32590476D01*
X83861904Y-32590476D01*
X83957142Y-32638095D01*
X84004761Y-32685714D01*
X84052380Y-32780952D01*
X84052380Y-32971428D01*
X84004761Y-33066666D01*
X83957142Y-33114285D01*
X83861904Y-33161904D01*
X83623809Y-33161904D01*
X83528571Y-33114285D01*
X83480952Y-33066666D01*
X83433333Y-32971428D01*
X83433333Y-32780952D01*
X83480952Y-32685714D01*
X83528571Y-32638095D01*
X83623809Y-32590476D01*
G04 #@! TO.C,C17*
X75457142Y-23557142D02*
X75504761Y-23509523D01*
X75552380Y-23366666D01*
X75552380Y-23271428D01*
X75504761Y-23128571D01*
X75409523Y-23033333D01*
X75314285Y-22985714D01*
X75123809Y-22938095D01*
X74980952Y-22938095D01*
X74790476Y-22985714D01*
X74695238Y-23033333D01*
X74600000Y-23128571D01*
X74552380Y-23271428D01*
X74552380Y-23366666D01*
X74600000Y-23509523D01*
X74647619Y-23557142D01*
X75552380Y-24509523D02*
X75552380Y-23938095D01*
X75552380Y-24223809D02*
X74552380Y-24223809D01*
X74695238Y-24128571D01*
X74790476Y-24033333D01*
X74838095Y-23938095D01*
X74552380Y-24842857D02*
X74552380Y-25509523D01*
X75552380Y-25080952D01*
G04 #@! TO.C,C18*
X75742857Y-41157142D02*
X75790476Y-41204761D01*
X75933333Y-41252380D01*
X76028571Y-41252380D01*
X76171428Y-41204761D01*
X76266666Y-41109523D01*
X76314285Y-41014285D01*
X76361904Y-40823809D01*
X76361904Y-40680952D01*
X76314285Y-40490476D01*
X76266666Y-40395238D01*
X76171428Y-40300000D01*
X76028571Y-40252380D01*
X75933333Y-40252380D01*
X75790476Y-40300000D01*
X75742857Y-40347619D01*
X74790476Y-41252380D02*
X75361904Y-41252380D01*
X75076190Y-41252380D02*
X75076190Y-40252380D01*
X75171428Y-40395238D01*
X75266666Y-40490476D01*
X75361904Y-40538095D01*
X74219047Y-40680952D02*
X74314285Y-40633333D01*
X74361904Y-40585714D01*
X74409523Y-40490476D01*
X74409523Y-40442857D01*
X74361904Y-40347619D01*
X74314285Y-40300000D01*
X74219047Y-40252380D01*
X74028571Y-40252380D01*
X73933333Y-40300000D01*
X73885714Y-40347619D01*
X73838095Y-40442857D01*
X73838095Y-40490476D01*
X73885714Y-40585714D01*
X73933333Y-40633333D01*
X74028571Y-40680952D01*
X74219047Y-40680952D01*
X74314285Y-40728571D01*
X74361904Y-40776190D01*
X74409523Y-40871428D01*
X74409523Y-41061904D01*
X74361904Y-41157142D01*
X74314285Y-41204761D01*
X74219047Y-41252380D01*
X74028571Y-41252380D01*
X73933333Y-41204761D01*
X73885714Y-41157142D01*
X73838095Y-41061904D01*
X73838095Y-40871428D01*
X73885714Y-40776190D01*
X73933333Y-40728571D01*
X74028571Y-40680952D01*
G04 #@! TO.C,C19*
X67517857Y-96787142D02*
X67565476Y-96834761D01*
X67708333Y-96882380D01*
X67803571Y-96882380D01*
X67946428Y-96834761D01*
X68041666Y-96739523D01*
X68089285Y-96644285D01*
X68136904Y-96453809D01*
X68136904Y-96310952D01*
X68089285Y-96120476D01*
X68041666Y-96025238D01*
X67946428Y-95930000D01*
X67803571Y-95882380D01*
X67708333Y-95882380D01*
X67565476Y-95930000D01*
X67517857Y-95977619D01*
X66565476Y-96882380D02*
X67136904Y-96882380D01*
X66851190Y-96882380D02*
X66851190Y-95882380D01*
X66946428Y-96025238D01*
X67041666Y-96120476D01*
X67136904Y-96168095D01*
X66089285Y-96882380D02*
X65898809Y-96882380D01*
X65803571Y-96834761D01*
X65755952Y-96787142D01*
X65660714Y-96644285D01*
X65613095Y-96453809D01*
X65613095Y-96072857D01*
X65660714Y-95977619D01*
X65708333Y-95930000D01*
X65803571Y-95882380D01*
X65994047Y-95882380D01*
X66089285Y-95930000D01*
X66136904Y-95977619D01*
X66184523Y-96072857D01*
X66184523Y-96310952D01*
X66136904Y-96406190D01*
X66089285Y-96453809D01*
X65994047Y-96501428D01*
X65803571Y-96501428D01*
X65708333Y-96453809D01*
X65660714Y-96406190D01*
X65613095Y-96310952D01*
G04 #@! TO.C,C20*
X63917857Y-96787142D02*
X63965476Y-96834761D01*
X64108333Y-96882380D01*
X64203571Y-96882380D01*
X64346428Y-96834761D01*
X64441666Y-96739523D01*
X64489285Y-96644285D01*
X64536904Y-96453809D01*
X64536904Y-96310952D01*
X64489285Y-96120476D01*
X64441666Y-96025238D01*
X64346428Y-95930000D01*
X64203571Y-95882380D01*
X64108333Y-95882380D01*
X63965476Y-95930000D01*
X63917857Y-95977619D01*
X63536904Y-95977619D02*
X63489285Y-95930000D01*
X63394047Y-95882380D01*
X63155952Y-95882380D01*
X63060714Y-95930000D01*
X63013095Y-95977619D01*
X62965476Y-96072857D01*
X62965476Y-96168095D01*
X63013095Y-96310952D01*
X63584523Y-96882380D01*
X62965476Y-96882380D01*
X62346428Y-95882380D02*
X62251190Y-95882380D01*
X62155952Y-95930000D01*
X62108333Y-95977619D01*
X62060714Y-96072857D01*
X62013095Y-96263333D01*
X62013095Y-96501428D01*
X62060714Y-96691904D01*
X62108333Y-96787142D01*
X62155952Y-96834761D01*
X62251190Y-96882380D01*
X62346428Y-96882380D01*
X62441666Y-96834761D01*
X62489285Y-96787142D01*
X62536904Y-96691904D01*
X62584523Y-96501428D01*
X62584523Y-96263333D01*
X62536904Y-96072857D01*
X62489285Y-95977619D01*
X62441666Y-95930000D01*
X62346428Y-95882380D01*
G04 #@! TO.C,C21*
X67042857Y-72757142D02*
X67090476Y-72804761D01*
X67233333Y-72852380D01*
X67328571Y-72852380D01*
X67471428Y-72804761D01*
X67566666Y-72709523D01*
X67614285Y-72614285D01*
X67661904Y-72423809D01*
X67661904Y-72280952D01*
X67614285Y-72090476D01*
X67566666Y-71995238D01*
X67471428Y-71900000D01*
X67328571Y-71852380D01*
X67233333Y-71852380D01*
X67090476Y-71900000D01*
X67042857Y-71947619D01*
X66661904Y-71947619D02*
X66614285Y-71900000D01*
X66519047Y-71852380D01*
X66280952Y-71852380D01*
X66185714Y-71900000D01*
X66138095Y-71947619D01*
X66090476Y-72042857D01*
X66090476Y-72138095D01*
X66138095Y-72280952D01*
X66709523Y-72852380D01*
X66090476Y-72852380D01*
X65138095Y-72852380D02*
X65709523Y-72852380D01*
X65423809Y-72852380D02*
X65423809Y-71852380D01*
X65519047Y-71995238D01*
X65614285Y-72090476D01*
X65709523Y-72138095D01*
G04 #@! TO.C,C22*
X63242857Y-72757142D02*
X63290476Y-72804761D01*
X63433333Y-72852380D01*
X63528571Y-72852380D01*
X63671428Y-72804761D01*
X63766666Y-72709523D01*
X63814285Y-72614285D01*
X63861904Y-72423809D01*
X63861904Y-72280952D01*
X63814285Y-72090476D01*
X63766666Y-71995238D01*
X63671428Y-71900000D01*
X63528571Y-71852380D01*
X63433333Y-71852380D01*
X63290476Y-71900000D01*
X63242857Y-71947619D01*
X62861904Y-71947619D02*
X62814285Y-71900000D01*
X62719047Y-71852380D01*
X62480952Y-71852380D01*
X62385714Y-71900000D01*
X62338095Y-71947619D01*
X62290476Y-72042857D01*
X62290476Y-72138095D01*
X62338095Y-72280952D01*
X62909523Y-72852380D01*
X62290476Y-72852380D01*
X61909523Y-71947619D02*
X61861904Y-71900000D01*
X61766666Y-71852380D01*
X61528571Y-71852380D01*
X61433333Y-71900000D01*
X61385714Y-71947619D01*
X61338095Y-72042857D01*
X61338095Y-72138095D01*
X61385714Y-72280952D01*
X61957142Y-72852380D01*
X61338095Y-72852380D01*
G04 #@! TO.C,C23*
X79842857Y-68357142D02*
X79890476Y-68404761D01*
X80033333Y-68452380D01*
X80128571Y-68452380D01*
X80271428Y-68404761D01*
X80366666Y-68309523D01*
X80414285Y-68214285D01*
X80461904Y-68023809D01*
X80461904Y-67880952D01*
X80414285Y-67690476D01*
X80366666Y-67595238D01*
X80271428Y-67500000D01*
X80128571Y-67452380D01*
X80033333Y-67452380D01*
X79890476Y-67500000D01*
X79842857Y-67547619D01*
X79461904Y-67547619D02*
X79414285Y-67500000D01*
X79319047Y-67452380D01*
X79080952Y-67452380D01*
X78985714Y-67500000D01*
X78938095Y-67547619D01*
X78890476Y-67642857D01*
X78890476Y-67738095D01*
X78938095Y-67880952D01*
X79509523Y-68452380D01*
X78890476Y-68452380D01*
X78557142Y-67452380D02*
X77938095Y-67452380D01*
X78271428Y-67833333D01*
X78128571Y-67833333D01*
X78033333Y-67880952D01*
X77985714Y-67928571D01*
X77938095Y-68023809D01*
X77938095Y-68261904D01*
X77985714Y-68357142D01*
X78033333Y-68404761D01*
X78128571Y-68452380D01*
X78414285Y-68452380D01*
X78509523Y-68404761D01*
X78557142Y-68357142D01*
G04 #@! TO.C,C24*
X76442857Y-68357142D02*
X76490476Y-68404761D01*
X76633333Y-68452380D01*
X76728571Y-68452380D01*
X76871428Y-68404761D01*
X76966666Y-68309523D01*
X77014285Y-68214285D01*
X77061904Y-68023809D01*
X77061904Y-67880952D01*
X77014285Y-67690476D01*
X76966666Y-67595238D01*
X76871428Y-67500000D01*
X76728571Y-67452380D01*
X76633333Y-67452380D01*
X76490476Y-67500000D01*
X76442857Y-67547619D01*
X76061904Y-67547619D02*
X76014285Y-67500000D01*
X75919047Y-67452380D01*
X75680952Y-67452380D01*
X75585714Y-67500000D01*
X75538095Y-67547619D01*
X75490476Y-67642857D01*
X75490476Y-67738095D01*
X75538095Y-67880952D01*
X76109523Y-68452380D01*
X75490476Y-68452380D01*
X74633333Y-67785714D02*
X74633333Y-68452380D01*
X74871428Y-67404761D02*
X75109523Y-68119047D01*
X74490476Y-68119047D01*
G04 #@! TO.C,C25*
X66142857Y-29857142D02*
X66190476Y-29904761D01*
X66333333Y-29952380D01*
X66428571Y-29952380D01*
X66571428Y-29904761D01*
X66666666Y-29809523D01*
X66714285Y-29714285D01*
X66761904Y-29523809D01*
X66761904Y-29380952D01*
X66714285Y-29190476D01*
X66666666Y-29095238D01*
X66571428Y-29000000D01*
X66428571Y-28952380D01*
X66333333Y-28952380D01*
X66190476Y-29000000D01*
X66142857Y-29047619D01*
X65761904Y-29047619D02*
X65714285Y-29000000D01*
X65619047Y-28952380D01*
X65380952Y-28952380D01*
X65285714Y-29000000D01*
X65238095Y-29047619D01*
X65190476Y-29142857D01*
X65190476Y-29238095D01*
X65238095Y-29380952D01*
X65809523Y-29952380D01*
X65190476Y-29952380D01*
X64285714Y-28952380D02*
X64761904Y-28952380D01*
X64809523Y-29428571D01*
X64761904Y-29380952D01*
X64666666Y-29333333D01*
X64428571Y-29333333D01*
X64333333Y-29380952D01*
X64285714Y-29428571D01*
X64238095Y-29523809D01*
X64238095Y-29761904D01*
X64285714Y-29857142D01*
X64333333Y-29904761D01*
X64428571Y-29952380D01*
X64666666Y-29952380D01*
X64761904Y-29904761D01*
X64809523Y-29857142D01*
G04 #@! TO.C,C26*
X60642857Y-31357142D02*
X60690476Y-31404761D01*
X60833333Y-31452380D01*
X60928571Y-31452380D01*
X61071428Y-31404761D01*
X61166666Y-31309523D01*
X61214285Y-31214285D01*
X61261904Y-31023809D01*
X61261904Y-30880952D01*
X61214285Y-30690476D01*
X61166666Y-30595238D01*
X61071428Y-30500000D01*
X60928571Y-30452380D01*
X60833333Y-30452380D01*
X60690476Y-30500000D01*
X60642857Y-30547619D01*
X60261904Y-30547619D02*
X60214285Y-30500000D01*
X60119047Y-30452380D01*
X59880952Y-30452380D01*
X59785714Y-30500000D01*
X59738095Y-30547619D01*
X59690476Y-30642857D01*
X59690476Y-30738095D01*
X59738095Y-30880952D01*
X60309523Y-31452380D01*
X59690476Y-31452380D01*
X58833333Y-30452380D02*
X59023809Y-30452380D01*
X59119047Y-30500000D01*
X59166666Y-30547619D01*
X59261904Y-30690476D01*
X59309523Y-30880952D01*
X59309523Y-31261904D01*
X59261904Y-31357142D01*
X59214285Y-31404761D01*
X59119047Y-31452380D01*
X58928571Y-31452380D01*
X58833333Y-31404761D01*
X58785714Y-31357142D01*
X58738095Y-31261904D01*
X58738095Y-31023809D01*
X58785714Y-30928571D01*
X58833333Y-30880952D01*
X58928571Y-30833333D01*
X59119047Y-30833333D01*
X59214285Y-30880952D01*
X59261904Y-30928571D01*
X59309523Y-31023809D01*
G04 #@! TO.C,C27*
X55767857Y-38757142D02*
X55815476Y-38804761D01*
X55958333Y-38852380D01*
X56053571Y-38852380D01*
X56196428Y-38804761D01*
X56291666Y-38709523D01*
X56339285Y-38614285D01*
X56386904Y-38423809D01*
X56386904Y-38280952D01*
X56339285Y-38090476D01*
X56291666Y-37995238D01*
X56196428Y-37900000D01*
X56053571Y-37852380D01*
X55958333Y-37852380D01*
X55815476Y-37900000D01*
X55767857Y-37947619D01*
X55386904Y-37947619D02*
X55339285Y-37900000D01*
X55244047Y-37852380D01*
X55005952Y-37852380D01*
X54910714Y-37900000D01*
X54863095Y-37947619D01*
X54815476Y-38042857D01*
X54815476Y-38138095D01*
X54863095Y-38280952D01*
X55434523Y-38852380D01*
X54815476Y-38852380D01*
X54482142Y-37852380D02*
X53815476Y-37852380D01*
X54244047Y-38852380D01*
G04 #@! TO.C,C28*
X52042857Y-38757142D02*
X52090476Y-38804761D01*
X52233333Y-38852380D01*
X52328571Y-38852380D01*
X52471428Y-38804761D01*
X52566666Y-38709523D01*
X52614285Y-38614285D01*
X52661904Y-38423809D01*
X52661904Y-38280952D01*
X52614285Y-38090476D01*
X52566666Y-37995238D01*
X52471428Y-37900000D01*
X52328571Y-37852380D01*
X52233333Y-37852380D01*
X52090476Y-37900000D01*
X52042857Y-37947619D01*
X51661904Y-37947619D02*
X51614285Y-37900000D01*
X51519047Y-37852380D01*
X51280952Y-37852380D01*
X51185714Y-37900000D01*
X51138095Y-37947619D01*
X51090476Y-38042857D01*
X51090476Y-38138095D01*
X51138095Y-38280952D01*
X51709523Y-38852380D01*
X51090476Y-38852380D01*
X50519047Y-38280952D02*
X50614285Y-38233333D01*
X50661904Y-38185714D01*
X50709523Y-38090476D01*
X50709523Y-38042857D01*
X50661904Y-37947619D01*
X50614285Y-37900000D01*
X50519047Y-37852380D01*
X50328571Y-37852380D01*
X50233333Y-37900000D01*
X50185714Y-37947619D01*
X50138095Y-38042857D01*
X50138095Y-38090476D01*
X50185714Y-38185714D01*
X50233333Y-38233333D01*
X50328571Y-38280952D01*
X50519047Y-38280952D01*
X50614285Y-38328571D01*
X50661904Y-38376190D01*
X50709523Y-38471428D01*
X50709523Y-38661904D01*
X50661904Y-38757142D01*
X50614285Y-38804761D01*
X50519047Y-38852380D01*
X50328571Y-38852380D01*
X50233333Y-38804761D01*
X50185714Y-38757142D01*
X50138095Y-38661904D01*
X50138095Y-38471428D01*
X50185714Y-38376190D01*
X50233333Y-38328571D01*
X50328571Y-38280952D01*
G04 #@! TO.C,D1*
X77052380Y-100061904D02*
X76052380Y-100061904D01*
X76052380Y-100300000D01*
X76100000Y-100442857D01*
X76195238Y-100538095D01*
X76290476Y-100585714D01*
X76480952Y-100633333D01*
X76623809Y-100633333D01*
X76814285Y-100585714D01*
X76909523Y-100538095D01*
X77004761Y-100442857D01*
X77052380Y-100300000D01*
X77052380Y-100061904D01*
X77052380Y-101585714D02*
X77052380Y-101014285D01*
X77052380Y-101300000D02*
X76052380Y-101300000D01*
X76195238Y-101204761D01*
X76290476Y-101109523D01*
X76338095Y-101014285D01*
G04 #@! TO.C,D2*
X73852380Y-100061904D02*
X72852380Y-100061904D01*
X72852380Y-100300000D01*
X72900000Y-100442857D01*
X72995238Y-100538095D01*
X73090476Y-100585714D01*
X73280952Y-100633333D01*
X73423809Y-100633333D01*
X73614285Y-100585714D01*
X73709523Y-100538095D01*
X73804761Y-100442857D01*
X73852380Y-100300000D01*
X73852380Y-100061904D01*
X72947619Y-101014285D02*
X72900000Y-101061904D01*
X72852380Y-101157142D01*
X72852380Y-101395238D01*
X72900000Y-101490476D01*
X72947619Y-101538095D01*
X73042857Y-101585714D01*
X73138095Y-101585714D01*
X73280952Y-101538095D01*
X73852380Y-100966666D01*
X73852380Y-101585714D01*
G04 #@! TO.C,D3*
X81052380Y-44861904D02*
X80052380Y-44861904D01*
X80052380Y-45100000D01*
X80100000Y-45242857D01*
X80195238Y-45338095D01*
X80290476Y-45385714D01*
X80480952Y-45433333D01*
X80623809Y-45433333D01*
X80814285Y-45385714D01*
X80909523Y-45338095D01*
X81004761Y-45242857D01*
X81052380Y-45100000D01*
X81052380Y-44861904D01*
X80052380Y-45766666D02*
X80052380Y-46385714D01*
X80433333Y-46052380D01*
X80433333Y-46195238D01*
X80480952Y-46290476D01*
X80528571Y-46338095D01*
X80623809Y-46385714D01*
X80861904Y-46385714D01*
X80957142Y-46338095D01*
X81004761Y-46290476D01*
X81052380Y-46195238D01*
X81052380Y-45909523D01*
X81004761Y-45814285D01*
X80957142Y-45766666D01*
G04 #@! TO.C,D5*
X80738095Y-23052380D02*
X80738095Y-22052380D01*
X80500000Y-22052380D01*
X80357142Y-22100000D01*
X80261904Y-22195238D01*
X80214285Y-22290476D01*
X80166666Y-22480952D01*
X80166666Y-22623809D01*
X80214285Y-22814285D01*
X80261904Y-22909523D01*
X80357142Y-23004761D01*
X80500000Y-23052380D01*
X80738095Y-23052380D01*
X79261904Y-22052380D02*
X79738095Y-22052380D01*
X79785714Y-22528571D01*
X79738095Y-22480952D01*
X79642857Y-22433333D01*
X79404761Y-22433333D01*
X79309523Y-22480952D01*
X79261904Y-22528571D01*
X79214285Y-22623809D01*
X79214285Y-22861904D01*
X79261904Y-22957142D01*
X79309523Y-23004761D01*
X79404761Y-23052380D01*
X79642857Y-23052380D01*
X79738095Y-23004761D01*
X79785714Y-22957142D01*
G04 #@! TO.C,F1*
X68128571Y-21866666D02*
X68128571Y-21533333D01*
X68652380Y-21533333D02*
X67652380Y-21533333D01*
X67652380Y-22009523D01*
X68652380Y-22914285D02*
X68652380Y-22342857D01*
X68652380Y-22628571D02*
X67652380Y-22628571D01*
X67795238Y-22533333D01*
X67890476Y-22438095D01*
X67938095Y-22342857D01*
G04 #@! TO.C,F2*
X71328571Y-21866666D02*
X71328571Y-21533333D01*
X71852380Y-21533333D02*
X70852380Y-21533333D01*
X70852380Y-22009523D01*
X70947619Y-22342857D02*
X70900000Y-22390476D01*
X70852380Y-22485714D01*
X70852380Y-22723809D01*
X70900000Y-22819047D01*
X70947619Y-22866666D01*
X71042857Y-22914285D01*
X71138095Y-22914285D01*
X71280952Y-22866666D01*
X71852380Y-22295238D01*
X71852380Y-22914285D01*
G04 #@! TO.C,R1*
X54252380Y-94233333D02*
X53776190Y-93900000D01*
X54252380Y-93661904D02*
X53252380Y-93661904D01*
X53252380Y-94042857D01*
X53300000Y-94138095D01*
X53347619Y-94185714D01*
X53442857Y-94233333D01*
X53585714Y-94233333D01*
X53680952Y-94185714D01*
X53728571Y-94138095D01*
X53776190Y-94042857D01*
X53776190Y-93661904D01*
X54252380Y-95185714D02*
X54252380Y-94614285D01*
X54252380Y-94900000D02*
X53252380Y-94900000D01*
X53395238Y-94804761D01*
X53490476Y-94709523D01*
X53538095Y-94614285D01*
G04 #@! TO.C,R2*
X72252380Y-88633333D02*
X71776190Y-88300000D01*
X72252380Y-88061904D02*
X71252380Y-88061904D01*
X71252380Y-88442857D01*
X71300000Y-88538095D01*
X71347619Y-88585714D01*
X71442857Y-88633333D01*
X71585714Y-88633333D01*
X71680952Y-88585714D01*
X71728571Y-88538095D01*
X71776190Y-88442857D01*
X71776190Y-88061904D01*
X71347619Y-89014285D02*
X71300000Y-89061904D01*
X71252380Y-89157142D01*
X71252380Y-89395238D01*
X71300000Y-89490476D01*
X71347619Y-89538095D01*
X71442857Y-89585714D01*
X71538095Y-89585714D01*
X71680952Y-89538095D01*
X72252380Y-88966666D01*
X72252380Y-89585714D01*
G04 #@! TO.C,R3*
X71452380Y-81033333D02*
X70976190Y-80700000D01*
X71452380Y-80461904D02*
X70452380Y-80461904D01*
X70452380Y-80842857D01*
X70500000Y-80938095D01*
X70547619Y-80985714D01*
X70642857Y-81033333D01*
X70785714Y-81033333D01*
X70880952Y-80985714D01*
X70928571Y-80938095D01*
X70976190Y-80842857D01*
X70976190Y-80461904D01*
X70452380Y-81366666D02*
X70452380Y-81985714D01*
X70833333Y-81652380D01*
X70833333Y-81795238D01*
X70880952Y-81890476D01*
X70928571Y-81938095D01*
X71023809Y-81985714D01*
X71261904Y-81985714D01*
X71357142Y-81938095D01*
X71404761Y-81890476D01*
X71452380Y-81795238D01*
X71452380Y-81509523D01*
X71404761Y-81414285D01*
X71357142Y-81366666D01*
G04 #@! TO.C,R4*
X56652380Y-94233333D02*
X56176190Y-93900000D01*
X56652380Y-93661904D02*
X55652380Y-93661904D01*
X55652380Y-94042857D01*
X55700000Y-94138095D01*
X55747619Y-94185714D01*
X55842857Y-94233333D01*
X55985714Y-94233333D01*
X56080952Y-94185714D01*
X56128571Y-94138095D01*
X56176190Y-94042857D01*
X56176190Y-93661904D01*
X55985714Y-95090476D02*
X56652380Y-95090476D01*
X55604761Y-94852380D02*
X56319047Y-94614285D01*
X56319047Y-95233333D01*
G04 #@! TO.C,R5*
X74052380Y-88633333D02*
X73576190Y-88300000D01*
X74052380Y-88061904D02*
X73052380Y-88061904D01*
X73052380Y-88442857D01*
X73100000Y-88538095D01*
X73147619Y-88585714D01*
X73242857Y-88633333D01*
X73385714Y-88633333D01*
X73480952Y-88585714D01*
X73528571Y-88538095D01*
X73576190Y-88442857D01*
X73576190Y-88061904D01*
X73052380Y-89538095D02*
X73052380Y-89061904D01*
X73528571Y-89014285D01*
X73480952Y-89061904D01*
X73433333Y-89157142D01*
X73433333Y-89395238D01*
X73480952Y-89490476D01*
X73528571Y-89538095D01*
X73623809Y-89585714D01*
X73861904Y-89585714D01*
X73957142Y-89538095D01*
X74004761Y-89490476D01*
X74052380Y-89395238D01*
X74052380Y-89157142D01*
X74004761Y-89061904D01*
X73957142Y-89014285D01*
G04 #@! TO.C,R6*
X74052380Y-81033333D02*
X73576190Y-80700000D01*
X74052380Y-80461904D02*
X73052380Y-80461904D01*
X73052380Y-80842857D01*
X73100000Y-80938095D01*
X73147619Y-80985714D01*
X73242857Y-81033333D01*
X73385714Y-81033333D01*
X73480952Y-80985714D01*
X73528571Y-80938095D01*
X73576190Y-80842857D01*
X73576190Y-80461904D01*
X73052380Y-81890476D02*
X73052380Y-81700000D01*
X73100000Y-81604761D01*
X73147619Y-81557142D01*
X73290476Y-81461904D01*
X73480952Y-81414285D01*
X73861904Y-81414285D01*
X73957142Y-81461904D01*
X74004761Y-81509523D01*
X74052380Y-81604761D01*
X74052380Y-81795238D01*
X74004761Y-81890476D01*
X73957142Y-81938095D01*
X73861904Y-81985714D01*
X73623809Y-81985714D01*
X73528571Y-81938095D01*
X73480952Y-81890476D01*
X73433333Y-81795238D01*
X73433333Y-81604761D01*
X73480952Y-81509523D01*
X73528571Y-81461904D01*
X73623809Y-81414285D01*
G04 #@! TO.C,R7*
X59252380Y-94233333D02*
X58776190Y-93900000D01*
X59252380Y-93661904D02*
X58252380Y-93661904D01*
X58252380Y-94042857D01*
X58300000Y-94138095D01*
X58347619Y-94185714D01*
X58442857Y-94233333D01*
X58585714Y-94233333D01*
X58680952Y-94185714D01*
X58728571Y-94138095D01*
X58776190Y-94042857D01*
X58776190Y-93661904D01*
X58252380Y-94566666D02*
X58252380Y-95233333D01*
X59252380Y-94804761D01*
G04 #@! TO.C,R8*
X77052380Y-88633333D02*
X76576190Y-88300000D01*
X77052380Y-88061904D02*
X76052380Y-88061904D01*
X76052380Y-88442857D01*
X76100000Y-88538095D01*
X76147619Y-88585714D01*
X76242857Y-88633333D01*
X76385714Y-88633333D01*
X76480952Y-88585714D01*
X76528571Y-88538095D01*
X76576190Y-88442857D01*
X76576190Y-88061904D01*
X76480952Y-89204761D02*
X76433333Y-89109523D01*
X76385714Y-89061904D01*
X76290476Y-89014285D01*
X76242857Y-89014285D01*
X76147619Y-89061904D01*
X76100000Y-89109523D01*
X76052380Y-89204761D01*
X76052380Y-89395238D01*
X76100000Y-89490476D01*
X76147619Y-89538095D01*
X76242857Y-89585714D01*
X76290476Y-89585714D01*
X76385714Y-89538095D01*
X76433333Y-89490476D01*
X76480952Y-89395238D01*
X76480952Y-89204761D01*
X76528571Y-89109523D01*
X76576190Y-89061904D01*
X76671428Y-89014285D01*
X76861904Y-89014285D01*
X76957142Y-89061904D01*
X77004761Y-89109523D01*
X77052380Y-89204761D01*
X77052380Y-89395238D01*
X77004761Y-89490476D01*
X76957142Y-89538095D01*
X76861904Y-89585714D01*
X76671428Y-89585714D01*
X76576190Y-89538095D01*
X76528571Y-89490476D01*
X76480952Y-89395238D01*
G04 #@! TO.C,R9*
X78652380Y-88633333D02*
X78176190Y-88300000D01*
X78652380Y-88061904D02*
X77652380Y-88061904D01*
X77652380Y-88442857D01*
X77700000Y-88538095D01*
X77747619Y-88585714D01*
X77842857Y-88633333D01*
X77985714Y-88633333D01*
X78080952Y-88585714D01*
X78128571Y-88538095D01*
X78176190Y-88442857D01*
X78176190Y-88061904D01*
X78652380Y-89109523D02*
X78652380Y-89300000D01*
X78604761Y-89395238D01*
X78557142Y-89442857D01*
X78414285Y-89538095D01*
X78223809Y-89585714D01*
X77842857Y-89585714D01*
X77747619Y-89538095D01*
X77700000Y-89490476D01*
X77652380Y-89395238D01*
X77652380Y-89204761D01*
X77700000Y-89109523D01*
X77747619Y-89061904D01*
X77842857Y-89014285D01*
X78080952Y-89014285D01*
X78176190Y-89061904D01*
X78223809Y-89109523D01*
X78271428Y-89204761D01*
X78271428Y-89395238D01*
X78223809Y-89490476D01*
X78176190Y-89538095D01*
X78080952Y-89585714D01*
G04 #@! TO.C,R10*
X81252380Y-40157142D02*
X80776190Y-39823809D01*
X81252380Y-39585714D02*
X80252380Y-39585714D01*
X80252380Y-39966666D01*
X80300000Y-40061904D01*
X80347619Y-40109523D01*
X80442857Y-40157142D01*
X80585714Y-40157142D01*
X80680952Y-40109523D01*
X80728571Y-40061904D01*
X80776190Y-39966666D01*
X80776190Y-39585714D01*
X81252380Y-41109523D02*
X81252380Y-40538095D01*
X81252380Y-40823809D02*
X80252380Y-40823809D01*
X80395238Y-40728571D01*
X80490476Y-40633333D01*
X80538095Y-40538095D01*
X80252380Y-41728571D02*
X80252380Y-41823809D01*
X80300000Y-41919047D01*
X80347619Y-41966666D01*
X80442857Y-42014285D01*
X80633333Y-42061904D01*
X80871428Y-42061904D01*
X81061904Y-42014285D01*
X81157142Y-41966666D01*
X81204761Y-41919047D01*
X81252380Y-41823809D01*
X81252380Y-41728571D01*
X81204761Y-41633333D01*
X81157142Y-41585714D01*
X81061904Y-41538095D01*
X80871428Y-41490476D01*
X80633333Y-41490476D01*
X80442857Y-41538095D01*
X80347619Y-41585714D01*
X80300000Y-41633333D01*
X80252380Y-41728571D01*
G04 #@! TO.C,R11*
X76552380Y-80257142D02*
X76076190Y-79923809D01*
X76552380Y-79685714D02*
X75552380Y-79685714D01*
X75552380Y-80066666D01*
X75600000Y-80161904D01*
X75647619Y-80209523D01*
X75742857Y-80257142D01*
X75885714Y-80257142D01*
X75980952Y-80209523D01*
X76028571Y-80161904D01*
X76076190Y-80066666D01*
X76076190Y-79685714D01*
X76552380Y-81209523D02*
X76552380Y-80638095D01*
X76552380Y-80923809D02*
X75552380Y-80923809D01*
X75695238Y-80828571D01*
X75790476Y-80733333D01*
X75838095Y-80638095D01*
X76552380Y-82161904D02*
X76552380Y-81590476D01*
X76552380Y-81876190D02*
X75552380Y-81876190D01*
X75695238Y-81780952D01*
X75790476Y-81685714D01*
X75838095Y-81590476D01*
G04 #@! TO.C,R12*
X69652380Y-34957142D02*
X69176190Y-34623809D01*
X69652380Y-34385714D02*
X68652380Y-34385714D01*
X68652380Y-34766666D01*
X68700000Y-34861904D01*
X68747619Y-34909523D01*
X68842857Y-34957142D01*
X68985714Y-34957142D01*
X69080952Y-34909523D01*
X69128571Y-34861904D01*
X69176190Y-34766666D01*
X69176190Y-34385714D01*
X69652380Y-35909523D02*
X69652380Y-35338095D01*
X69652380Y-35623809D02*
X68652380Y-35623809D01*
X68795238Y-35528571D01*
X68890476Y-35433333D01*
X68938095Y-35338095D01*
X68747619Y-36290476D02*
X68700000Y-36338095D01*
X68652380Y-36433333D01*
X68652380Y-36671428D01*
X68700000Y-36766666D01*
X68747619Y-36814285D01*
X68842857Y-36861904D01*
X68938095Y-36861904D01*
X69080952Y-36814285D01*
X69652380Y-36242857D01*
X69652380Y-36861904D01*
G04 #@! TO.C,R13*
X80152380Y-80157142D02*
X79676190Y-79823809D01*
X80152380Y-79585714D02*
X79152380Y-79585714D01*
X79152380Y-79966666D01*
X79200000Y-80061904D01*
X79247619Y-80109523D01*
X79342857Y-80157142D01*
X79485714Y-80157142D01*
X79580952Y-80109523D01*
X79628571Y-80061904D01*
X79676190Y-79966666D01*
X79676190Y-79585714D01*
X80152380Y-81109523D02*
X80152380Y-80538095D01*
X80152380Y-80823809D02*
X79152380Y-80823809D01*
X79295238Y-80728571D01*
X79390476Y-80633333D01*
X79438095Y-80538095D01*
X79152380Y-81442857D02*
X79152380Y-82061904D01*
X79533333Y-81728571D01*
X79533333Y-81871428D01*
X79580952Y-81966666D01*
X79628571Y-82014285D01*
X79723809Y-82061904D01*
X79961904Y-82061904D01*
X80057142Y-82014285D01*
X80104761Y-81966666D01*
X80152380Y-81871428D01*
X80152380Y-81585714D01*
X80104761Y-81490476D01*
X80057142Y-81442857D01*
G04 #@! TO.C,R14*
X82252380Y-87757142D02*
X81776190Y-87423809D01*
X82252380Y-87185714D02*
X81252380Y-87185714D01*
X81252380Y-87566666D01*
X81300000Y-87661904D01*
X81347619Y-87709523D01*
X81442857Y-87757142D01*
X81585714Y-87757142D01*
X81680952Y-87709523D01*
X81728571Y-87661904D01*
X81776190Y-87566666D01*
X81776190Y-87185714D01*
X82252380Y-88709523D02*
X82252380Y-88138095D01*
X82252380Y-88423809D02*
X81252380Y-88423809D01*
X81395238Y-88328571D01*
X81490476Y-88233333D01*
X81538095Y-88138095D01*
X81585714Y-89566666D02*
X82252380Y-89566666D01*
X81204761Y-89328571D02*
X81919047Y-89090476D01*
X81919047Y-89709523D01*
G04 #@! TO.C,R15*
X69652380Y-31757142D02*
X69176190Y-31423809D01*
X69652380Y-31185714D02*
X68652380Y-31185714D01*
X68652380Y-31566666D01*
X68700000Y-31661904D01*
X68747619Y-31709523D01*
X68842857Y-31757142D01*
X68985714Y-31757142D01*
X69080952Y-31709523D01*
X69128571Y-31661904D01*
X69176190Y-31566666D01*
X69176190Y-31185714D01*
X69652380Y-32709523D02*
X69652380Y-32138095D01*
X69652380Y-32423809D02*
X68652380Y-32423809D01*
X68795238Y-32328571D01*
X68890476Y-32233333D01*
X68938095Y-32138095D01*
X68652380Y-33614285D02*
X68652380Y-33138095D01*
X69128571Y-33090476D01*
X69080952Y-33138095D01*
X69033333Y-33233333D01*
X69033333Y-33471428D01*
X69080952Y-33566666D01*
X69128571Y-33614285D01*
X69223809Y-33661904D01*
X69461904Y-33661904D01*
X69557142Y-33614285D01*
X69604761Y-33566666D01*
X69652380Y-33471428D01*
X69652380Y-33233333D01*
X69604761Y-33138095D01*
X69557142Y-33090476D01*
G04 #@! TO.C,R16*
X81652380Y-80157142D02*
X81176190Y-79823809D01*
X81652380Y-79585714D02*
X80652380Y-79585714D01*
X80652380Y-79966666D01*
X80700000Y-80061904D01*
X80747619Y-80109523D01*
X80842857Y-80157142D01*
X80985714Y-80157142D01*
X81080952Y-80109523D01*
X81128571Y-80061904D01*
X81176190Y-79966666D01*
X81176190Y-79585714D01*
X81652380Y-81109523D02*
X81652380Y-80538095D01*
X81652380Y-80823809D02*
X80652380Y-80823809D01*
X80795238Y-80728571D01*
X80890476Y-80633333D01*
X80938095Y-80538095D01*
X80652380Y-81966666D02*
X80652380Y-81776190D01*
X80700000Y-81680952D01*
X80747619Y-81633333D01*
X80890476Y-81538095D01*
X81080952Y-81490476D01*
X81461904Y-81490476D01*
X81557142Y-81538095D01*
X81604761Y-81585714D01*
X81652380Y-81680952D01*
X81652380Y-81871428D01*
X81604761Y-81966666D01*
X81557142Y-82014285D01*
X81461904Y-82061904D01*
X81223809Y-82061904D01*
X81128571Y-82014285D01*
X81080952Y-81966666D01*
X81033333Y-81871428D01*
X81033333Y-81680952D01*
X81080952Y-81585714D01*
X81128571Y-81538095D01*
X81223809Y-81490476D01*
G04 #@! TO.C,R17*
X58167857Y-61652380D02*
X58501190Y-61176190D01*
X58739285Y-61652380D02*
X58739285Y-60652380D01*
X58358333Y-60652380D01*
X58263095Y-60700000D01*
X58215476Y-60747619D01*
X58167857Y-60842857D01*
X58167857Y-60985714D01*
X58215476Y-61080952D01*
X58263095Y-61128571D01*
X58358333Y-61176190D01*
X58739285Y-61176190D01*
X57215476Y-61652380D02*
X57786904Y-61652380D01*
X57501190Y-61652380D02*
X57501190Y-60652380D01*
X57596428Y-60795238D01*
X57691666Y-60890476D01*
X57786904Y-60938095D01*
X56882142Y-60652380D02*
X56215476Y-60652380D01*
X56644047Y-61652380D01*
G04 #@! TO.C,R18*
X55952380Y-86457142D02*
X55476190Y-86123809D01*
X55952380Y-85885714D02*
X54952380Y-85885714D01*
X54952380Y-86266666D01*
X55000000Y-86361904D01*
X55047619Y-86409523D01*
X55142857Y-86457142D01*
X55285714Y-86457142D01*
X55380952Y-86409523D01*
X55428571Y-86361904D01*
X55476190Y-86266666D01*
X55476190Y-85885714D01*
X55952380Y-87409523D02*
X55952380Y-86838095D01*
X55952380Y-87123809D02*
X54952380Y-87123809D01*
X55095238Y-87028571D01*
X55190476Y-86933333D01*
X55238095Y-86838095D01*
X55380952Y-87980952D02*
X55333333Y-87885714D01*
X55285714Y-87838095D01*
X55190476Y-87790476D01*
X55142857Y-87790476D01*
X55047619Y-87838095D01*
X55000000Y-87885714D01*
X54952380Y-87980952D01*
X54952380Y-88171428D01*
X55000000Y-88266666D01*
X55047619Y-88314285D01*
X55142857Y-88361904D01*
X55190476Y-88361904D01*
X55285714Y-88314285D01*
X55333333Y-88266666D01*
X55380952Y-88171428D01*
X55380952Y-87980952D01*
X55428571Y-87885714D01*
X55476190Y-87838095D01*
X55571428Y-87790476D01*
X55761904Y-87790476D01*
X55857142Y-87838095D01*
X55904761Y-87885714D01*
X55952380Y-87980952D01*
X55952380Y-88171428D01*
X55904761Y-88266666D01*
X55857142Y-88314285D01*
X55761904Y-88361904D01*
X55571428Y-88361904D01*
X55476190Y-88314285D01*
X55428571Y-88266666D01*
X55380952Y-88171428D01*
G04 #@! TO.C,R19*
X58352380Y-86457142D02*
X57876190Y-86123809D01*
X58352380Y-85885714D02*
X57352380Y-85885714D01*
X57352380Y-86266666D01*
X57400000Y-86361904D01*
X57447619Y-86409523D01*
X57542857Y-86457142D01*
X57685714Y-86457142D01*
X57780952Y-86409523D01*
X57828571Y-86361904D01*
X57876190Y-86266666D01*
X57876190Y-85885714D01*
X58352380Y-87409523D02*
X58352380Y-86838095D01*
X58352380Y-87123809D02*
X57352380Y-87123809D01*
X57495238Y-87028571D01*
X57590476Y-86933333D01*
X57638095Y-86838095D01*
X58352380Y-87885714D02*
X58352380Y-88076190D01*
X58304761Y-88171428D01*
X58257142Y-88219047D01*
X58114285Y-88314285D01*
X57923809Y-88361904D01*
X57542857Y-88361904D01*
X57447619Y-88314285D01*
X57400000Y-88266666D01*
X57352380Y-88171428D01*
X57352380Y-87980952D01*
X57400000Y-87885714D01*
X57447619Y-87838095D01*
X57542857Y-87790476D01*
X57780952Y-87790476D01*
X57876190Y-87838095D01*
X57923809Y-87885714D01*
X57971428Y-87980952D01*
X57971428Y-88171428D01*
X57923809Y-88266666D01*
X57876190Y-88314285D01*
X57780952Y-88361904D01*
G04 #@! TO.C,R20*
X81252380Y-50232142D02*
X80776190Y-49898809D01*
X81252380Y-49660714D02*
X80252380Y-49660714D01*
X80252380Y-50041666D01*
X80300000Y-50136904D01*
X80347619Y-50184523D01*
X80442857Y-50232142D01*
X80585714Y-50232142D01*
X80680952Y-50184523D01*
X80728571Y-50136904D01*
X80776190Y-50041666D01*
X80776190Y-49660714D01*
X80347619Y-50613095D02*
X80300000Y-50660714D01*
X80252380Y-50755952D01*
X80252380Y-50994047D01*
X80300000Y-51089285D01*
X80347619Y-51136904D01*
X80442857Y-51184523D01*
X80538095Y-51184523D01*
X80680952Y-51136904D01*
X81252380Y-50565476D01*
X81252380Y-51184523D01*
X80252380Y-51803571D02*
X80252380Y-51898809D01*
X80300000Y-51994047D01*
X80347619Y-52041666D01*
X80442857Y-52089285D01*
X80633333Y-52136904D01*
X80871428Y-52136904D01*
X81061904Y-52089285D01*
X81157142Y-52041666D01*
X81204761Y-51994047D01*
X81252380Y-51898809D01*
X81252380Y-51803571D01*
X81204761Y-51708333D01*
X81157142Y-51660714D01*
X81061904Y-51613095D01*
X80871428Y-51565476D01*
X80633333Y-51565476D01*
X80442857Y-51613095D01*
X80347619Y-51660714D01*
X80300000Y-51708333D01*
X80252380Y-51803571D01*
G04 #@! TO.C,R21*
X49452380Y-58923133D02*
X48976190Y-58589800D01*
X49452380Y-58351705D02*
X48452380Y-58351705D01*
X48452380Y-58732657D01*
X48500000Y-58827895D01*
X48547619Y-58875514D01*
X48642857Y-58923133D01*
X48785714Y-58923133D01*
X48880952Y-58875514D01*
X48928571Y-58827895D01*
X48976190Y-58732657D01*
X48976190Y-58351705D01*
X48547619Y-59304086D02*
X48500000Y-59351705D01*
X48452380Y-59446943D01*
X48452380Y-59685038D01*
X48500000Y-59780276D01*
X48547619Y-59827895D01*
X48642857Y-59875514D01*
X48738095Y-59875514D01*
X48880952Y-59827895D01*
X49452380Y-59256467D01*
X49452380Y-59875514D01*
X49452380Y-60827895D02*
X49452380Y-60256467D01*
X49452380Y-60542181D02*
X48452380Y-60542181D01*
X48595238Y-60446943D01*
X48690476Y-60351705D01*
X48738095Y-60256467D01*
G04 #@! TO.C,R22*
X49382380Y-55532142D02*
X48906190Y-55198809D01*
X49382380Y-54960714D02*
X48382380Y-54960714D01*
X48382380Y-55341666D01*
X48430000Y-55436904D01*
X48477619Y-55484523D01*
X48572857Y-55532142D01*
X48715714Y-55532142D01*
X48810952Y-55484523D01*
X48858571Y-55436904D01*
X48906190Y-55341666D01*
X48906190Y-54960714D01*
X48477619Y-55913095D02*
X48430000Y-55960714D01*
X48382380Y-56055952D01*
X48382380Y-56294047D01*
X48430000Y-56389285D01*
X48477619Y-56436904D01*
X48572857Y-56484523D01*
X48668095Y-56484523D01*
X48810952Y-56436904D01*
X49382380Y-55865476D01*
X49382380Y-56484523D01*
X48477619Y-56865476D02*
X48430000Y-56913095D01*
X48382380Y-57008333D01*
X48382380Y-57246428D01*
X48430000Y-57341666D01*
X48477619Y-57389285D01*
X48572857Y-57436904D01*
X48668095Y-57436904D01*
X48810952Y-57389285D01*
X49382380Y-56817857D01*
X49382380Y-57436904D01*
G04 #@! TO.C,R23*
X82042857Y-102252380D02*
X82376190Y-101776190D01*
X82614285Y-102252380D02*
X82614285Y-101252380D01*
X82233333Y-101252380D01*
X82138095Y-101300000D01*
X82090476Y-101347619D01*
X82042857Y-101442857D01*
X82042857Y-101585714D01*
X82090476Y-101680952D01*
X82138095Y-101728571D01*
X82233333Y-101776190D01*
X82614285Y-101776190D01*
X81661904Y-101347619D02*
X81614285Y-101300000D01*
X81519047Y-101252380D01*
X81280952Y-101252380D01*
X81185714Y-101300000D01*
X81138095Y-101347619D01*
X81090476Y-101442857D01*
X81090476Y-101538095D01*
X81138095Y-101680952D01*
X81709523Y-102252380D01*
X81090476Y-102252380D01*
X80757142Y-101252380D02*
X80138095Y-101252380D01*
X80471428Y-101633333D01*
X80328571Y-101633333D01*
X80233333Y-101680952D01*
X80185714Y-101728571D01*
X80138095Y-101823809D01*
X80138095Y-102061904D01*
X80185714Y-102157142D01*
X80233333Y-102204761D01*
X80328571Y-102252380D01*
X80614285Y-102252380D01*
X80709523Y-102204761D01*
X80757142Y-102157142D01*
G04 #@! TO.C,R24*
X64842857Y-101052380D02*
X65176190Y-100576190D01*
X65414285Y-101052380D02*
X65414285Y-100052380D01*
X65033333Y-100052380D01*
X64938095Y-100100000D01*
X64890476Y-100147619D01*
X64842857Y-100242857D01*
X64842857Y-100385714D01*
X64890476Y-100480952D01*
X64938095Y-100528571D01*
X65033333Y-100576190D01*
X65414285Y-100576190D01*
X64461904Y-100147619D02*
X64414285Y-100100000D01*
X64319047Y-100052380D01*
X64080952Y-100052380D01*
X63985714Y-100100000D01*
X63938095Y-100147619D01*
X63890476Y-100242857D01*
X63890476Y-100338095D01*
X63938095Y-100480952D01*
X64509523Y-101052380D01*
X63890476Y-101052380D01*
X63033333Y-100385714D02*
X63033333Y-101052380D01*
X63271428Y-100004761D02*
X63509523Y-100719047D01*
X62890476Y-100719047D01*
G04 #@! TO.C,R25*
X48517857Y-101852380D02*
X48851190Y-101376190D01*
X49089285Y-101852380D02*
X49089285Y-100852380D01*
X48708333Y-100852380D01*
X48613095Y-100900000D01*
X48565476Y-100947619D01*
X48517857Y-101042857D01*
X48517857Y-101185714D01*
X48565476Y-101280952D01*
X48613095Y-101328571D01*
X48708333Y-101376190D01*
X49089285Y-101376190D01*
X48136904Y-100947619D02*
X48089285Y-100900000D01*
X47994047Y-100852380D01*
X47755952Y-100852380D01*
X47660714Y-100900000D01*
X47613095Y-100947619D01*
X47565476Y-101042857D01*
X47565476Y-101138095D01*
X47613095Y-101280952D01*
X48184523Y-101852380D01*
X47565476Y-101852380D01*
X46660714Y-100852380D02*
X47136904Y-100852380D01*
X47184523Y-101328571D01*
X47136904Y-101280952D01*
X47041666Y-101233333D01*
X46803571Y-101233333D01*
X46708333Y-101280952D01*
X46660714Y-101328571D01*
X46613095Y-101423809D01*
X46613095Y-101661904D01*
X46660714Y-101757142D01*
X46708333Y-101804761D01*
X46803571Y-101852380D01*
X47041666Y-101852380D01*
X47136904Y-101804761D01*
X47184523Y-101757142D01*
G04 #@! TO.C,R26*
X46452380Y-51157142D02*
X45976190Y-50823809D01*
X46452380Y-50585714D02*
X45452380Y-50585714D01*
X45452380Y-50966666D01*
X45500000Y-51061904D01*
X45547619Y-51109523D01*
X45642857Y-51157142D01*
X45785714Y-51157142D01*
X45880952Y-51109523D01*
X45928571Y-51061904D01*
X45976190Y-50966666D01*
X45976190Y-50585714D01*
X45547619Y-51538095D02*
X45500000Y-51585714D01*
X45452380Y-51680952D01*
X45452380Y-51919047D01*
X45500000Y-52014285D01*
X45547619Y-52061904D01*
X45642857Y-52109523D01*
X45738095Y-52109523D01*
X45880952Y-52061904D01*
X46452380Y-51490476D01*
X46452380Y-52109523D01*
X45452380Y-52966666D02*
X45452380Y-52776190D01*
X45500000Y-52680952D01*
X45547619Y-52633333D01*
X45690476Y-52538095D01*
X45880952Y-52490476D01*
X46261904Y-52490476D01*
X46357142Y-52538095D01*
X46404761Y-52585714D01*
X46452380Y-52680952D01*
X46452380Y-52871428D01*
X46404761Y-52966666D01*
X46357142Y-53014285D01*
X46261904Y-53061904D01*
X46023809Y-53061904D01*
X45928571Y-53014285D01*
X45880952Y-52966666D01*
X45833333Y-52871428D01*
X45833333Y-52680952D01*
X45880952Y-52585714D01*
X45928571Y-52538095D01*
X46023809Y-52490476D01*
G04 #@! TO.C,R27*
X60517857Y-48022380D02*
X60851190Y-47546190D01*
X61089285Y-48022380D02*
X61089285Y-47022380D01*
X60708333Y-47022380D01*
X60613095Y-47070000D01*
X60565476Y-47117619D01*
X60517857Y-47212857D01*
X60517857Y-47355714D01*
X60565476Y-47450952D01*
X60613095Y-47498571D01*
X60708333Y-47546190D01*
X61089285Y-47546190D01*
X60136904Y-47117619D02*
X60089285Y-47070000D01*
X59994047Y-47022380D01*
X59755952Y-47022380D01*
X59660714Y-47070000D01*
X59613095Y-47117619D01*
X59565476Y-47212857D01*
X59565476Y-47308095D01*
X59613095Y-47450952D01*
X60184523Y-48022380D01*
X59565476Y-48022380D01*
X59232142Y-47022380D02*
X58565476Y-47022380D01*
X58994047Y-48022380D01*
G04 #@! TO.C,R28*
X55267857Y-55852380D02*
X55601190Y-55376190D01*
X55839285Y-55852380D02*
X55839285Y-54852380D01*
X55458333Y-54852380D01*
X55363095Y-54900000D01*
X55315476Y-54947619D01*
X55267857Y-55042857D01*
X55267857Y-55185714D01*
X55315476Y-55280952D01*
X55363095Y-55328571D01*
X55458333Y-55376190D01*
X55839285Y-55376190D01*
X54886904Y-54947619D02*
X54839285Y-54900000D01*
X54744047Y-54852380D01*
X54505952Y-54852380D01*
X54410714Y-54900000D01*
X54363095Y-54947619D01*
X54315476Y-55042857D01*
X54315476Y-55138095D01*
X54363095Y-55280952D01*
X54934523Y-55852380D01*
X54315476Y-55852380D01*
X53744047Y-55280952D02*
X53839285Y-55233333D01*
X53886904Y-55185714D01*
X53934523Y-55090476D01*
X53934523Y-55042857D01*
X53886904Y-54947619D01*
X53839285Y-54900000D01*
X53744047Y-54852380D01*
X53553571Y-54852380D01*
X53458333Y-54900000D01*
X53410714Y-54947619D01*
X53363095Y-55042857D01*
X53363095Y-55090476D01*
X53410714Y-55185714D01*
X53458333Y-55233333D01*
X53553571Y-55280952D01*
X53744047Y-55280952D01*
X53839285Y-55328571D01*
X53886904Y-55376190D01*
X53934523Y-55471428D01*
X53934523Y-55661904D01*
X53886904Y-55757142D01*
X53839285Y-55804761D01*
X53744047Y-55852380D01*
X53553571Y-55852380D01*
X53458333Y-55804761D01*
X53410714Y-55757142D01*
X53363095Y-55661904D01*
X53363095Y-55471428D01*
X53410714Y-55376190D01*
X53458333Y-55328571D01*
X53553571Y-55280952D01*
G04 #@! TO.C,R29*
X62042857Y-50852380D02*
X62376190Y-50376190D01*
X62614285Y-50852380D02*
X62614285Y-49852380D01*
X62233333Y-49852380D01*
X62138095Y-49900000D01*
X62090476Y-49947619D01*
X62042857Y-50042857D01*
X62042857Y-50185714D01*
X62090476Y-50280952D01*
X62138095Y-50328571D01*
X62233333Y-50376190D01*
X62614285Y-50376190D01*
X61661904Y-49947619D02*
X61614285Y-49900000D01*
X61519047Y-49852380D01*
X61280952Y-49852380D01*
X61185714Y-49900000D01*
X61138095Y-49947619D01*
X61090476Y-50042857D01*
X61090476Y-50138095D01*
X61138095Y-50280952D01*
X61709523Y-50852380D01*
X61090476Y-50852380D01*
X60614285Y-50852380D02*
X60423809Y-50852380D01*
X60328571Y-50804761D01*
X60280952Y-50757142D01*
X60185714Y-50614285D01*
X60138095Y-50423809D01*
X60138095Y-50042857D01*
X60185714Y-49947619D01*
X60233333Y-49900000D01*
X60328571Y-49852380D01*
X60519047Y-49852380D01*
X60614285Y-49900000D01*
X60661904Y-49947619D01*
X60709523Y-50042857D01*
X60709523Y-50280952D01*
X60661904Y-50376190D01*
X60614285Y-50423809D01*
X60519047Y-50471428D01*
X60328571Y-50471428D01*
X60233333Y-50423809D01*
X60185714Y-50376190D01*
X60138095Y-50280952D01*
G04 #@! TO.C,R30*
X60517857Y-53252380D02*
X60851190Y-52776190D01*
X61089285Y-53252380D02*
X61089285Y-52252380D01*
X60708333Y-52252380D01*
X60613095Y-52300000D01*
X60565476Y-52347619D01*
X60517857Y-52442857D01*
X60517857Y-52585714D01*
X60565476Y-52680952D01*
X60613095Y-52728571D01*
X60708333Y-52776190D01*
X61089285Y-52776190D01*
X60184523Y-52252380D02*
X59565476Y-52252380D01*
X59898809Y-52633333D01*
X59755952Y-52633333D01*
X59660714Y-52680952D01*
X59613095Y-52728571D01*
X59565476Y-52823809D01*
X59565476Y-53061904D01*
X59613095Y-53157142D01*
X59660714Y-53204761D01*
X59755952Y-53252380D01*
X60041666Y-53252380D01*
X60136904Y-53204761D01*
X60184523Y-53157142D01*
X58946428Y-52252380D02*
X58851190Y-52252380D01*
X58755952Y-52300000D01*
X58708333Y-52347619D01*
X58660714Y-52442857D01*
X58613095Y-52633333D01*
X58613095Y-52871428D01*
X58660714Y-53061904D01*
X58708333Y-53157142D01*
X58755952Y-53204761D01*
X58851190Y-53252380D01*
X58946428Y-53252380D01*
X59041666Y-53204761D01*
X59089285Y-53157142D01*
X59136904Y-53061904D01*
X59184523Y-52871428D01*
X59184523Y-52633333D01*
X59136904Y-52442857D01*
X59089285Y-52347619D01*
X59041666Y-52300000D01*
X58946428Y-52252380D01*
G04 #@! TO.C,R31*
X52242857Y-53852380D02*
X52576190Y-53376190D01*
X52814285Y-53852380D02*
X52814285Y-52852380D01*
X52433333Y-52852380D01*
X52338095Y-52900000D01*
X52290476Y-52947619D01*
X52242857Y-53042857D01*
X52242857Y-53185714D01*
X52290476Y-53280952D01*
X52338095Y-53328571D01*
X52433333Y-53376190D01*
X52814285Y-53376190D01*
X51909523Y-52852380D02*
X51290476Y-52852380D01*
X51623809Y-53233333D01*
X51480952Y-53233333D01*
X51385714Y-53280952D01*
X51338095Y-53328571D01*
X51290476Y-53423809D01*
X51290476Y-53661904D01*
X51338095Y-53757142D01*
X51385714Y-53804761D01*
X51480952Y-53852380D01*
X51766666Y-53852380D01*
X51861904Y-53804761D01*
X51909523Y-53757142D01*
X50338095Y-53852380D02*
X50909523Y-53852380D01*
X50623809Y-53852380D02*
X50623809Y-52852380D01*
X50719047Y-52995238D01*
X50814285Y-53090476D01*
X50909523Y-53138095D01*
G04 #@! TO.C,R32*
X52242857Y-52052380D02*
X52576190Y-51576190D01*
X52814285Y-52052380D02*
X52814285Y-51052380D01*
X52433333Y-51052380D01*
X52338095Y-51100000D01*
X52290476Y-51147619D01*
X52242857Y-51242857D01*
X52242857Y-51385714D01*
X52290476Y-51480952D01*
X52338095Y-51528571D01*
X52433333Y-51576190D01*
X52814285Y-51576190D01*
X51909523Y-51052380D02*
X51290476Y-51052380D01*
X51623809Y-51433333D01*
X51480952Y-51433333D01*
X51385714Y-51480952D01*
X51338095Y-51528571D01*
X51290476Y-51623809D01*
X51290476Y-51861904D01*
X51338095Y-51957142D01*
X51385714Y-52004761D01*
X51480952Y-52052380D01*
X51766666Y-52052380D01*
X51861904Y-52004761D01*
X51909523Y-51957142D01*
X50909523Y-51147619D02*
X50861904Y-51100000D01*
X50766666Y-51052380D01*
X50528571Y-51052380D01*
X50433333Y-51100000D01*
X50385714Y-51147619D01*
X50338095Y-51242857D01*
X50338095Y-51338095D01*
X50385714Y-51480952D01*
X50957142Y-52052380D01*
X50338095Y-52052380D01*
G04 #@! TO.C,R33*
X71642857Y-62852380D02*
X71976190Y-62376190D01*
X72214285Y-62852380D02*
X72214285Y-61852380D01*
X71833333Y-61852380D01*
X71738095Y-61900000D01*
X71690476Y-61947619D01*
X71642857Y-62042857D01*
X71642857Y-62185714D01*
X71690476Y-62280952D01*
X71738095Y-62328571D01*
X71833333Y-62376190D01*
X72214285Y-62376190D01*
X71309523Y-61852380D02*
X70690476Y-61852380D01*
X71023809Y-62233333D01*
X70880952Y-62233333D01*
X70785714Y-62280952D01*
X70738095Y-62328571D01*
X70690476Y-62423809D01*
X70690476Y-62661904D01*
X70738095Y-62757142D01*
X70785714Y-62804761D01*
X70880952Y-62852380D01*
X71166666Y-62852380D01*
X71261904Y-62804761D01*
X71309523Y-62757142D01*
X70357142Y-61852380D02*
X69738095Y-61852380D01*
X70071428Y-62233333D01*
X69928571Y-62233333D01*
X69833333Y-62280952D01*
X69785714Y-62328571D01*
X69738095Y-62423809D01*
X69738095Y-62661904D01*
X69785714Y-62757142D01*
X69833333Y-62804761D01*
X69928571Y-62852380D01*
X70214285Y-62852380D01*
X70309523Y-62804761D01*
X70357142Y-62757142D01*
G04 #@! TO.C,R34*
X60652380Y-17957142D02*
X60176190Y-17623809D01*
X60652380Y-17385714D02*
X59652380Y-17385714D01*
X59652380Y-17766666D01*
X59700000Y-17861904D01*
X59747619Y-17909523D01*
X59842857Y-17957142D01*
X59985714Y-17957142D01*
X60080952Y-17909523D01*
X60128571Y-17861904D01*
X60176190Y-17766666D01*
X60176190Y-17385714D01*
X59652380Y-18290476D02*
X59652380Y-18909523D01*
X60033333Y-18576190D01*
X60033333Y-18719047D01*
X60080952Y-18814285D01*
X60128571Y-18861904D01*
X60223809Y-18909523D01*
X60461904Y-18909523D01*
X60557142Y-18861904D01*
X60604761Y-18814285D01*
X60652380Y-18719047D01*
X60652380Y-18433333D01*
X60604761Y-18338095D01*
X60557142Y-18290476D01*
X59985714Y-19766666D02*
X60652380Y-19766666D01*
X59604761Y-19528571D02*
X60319047Y-19290476D01*
X60319047Y-19909523D01*
G04 #@! TO.C,R35*
X68042857Y-56052380D02*
X68376190Y-55576190D01*
X68614285Y-56052380D02*
X68614285Y-55052380D01*
X68233333Y-55052380D01*
X68138095Y-55100000D01*
X68090476Y-55147619D01*
X68042857Y-55242857D01*
X68042857Y-55385714D01*
X68090476Y-55480952D01*
X68138095Y-55528571D01*
X68233333Y-55576190D01*
X68614285Y-55576190D01*
X67709523Y-55052380D02*
X67090476Y-55052380D01*
X67423809Y-55433333D01*
X67280952Y-55433333D01*
X67185714Y-55480952D01*
X67138095Y-55528571D01*
X67090476Y-55623809D01*
X67090476Y-55861904D01*
X67138095Y-55957142D01*
X67185714Y-56004761D01*
X67280952Y-56052380D01*
X67566666Y-56052380D01*
X67661904Y-56004761D01*
X67709523Y-55957142D01*
X66185714Y-55052380D02*
X66661904Y-55052380D01*
X66709523Y-55528571D01*
X66661904Y-55480952D01*
X66566666Y-55433333D01*
X66328571Y-55433333D01*
X66233333Y-55480952D01*
X66185714Y-55528571D01*
X66138095Y-55623809D01*
X66138095Y-55861904D01*
X66185714Y-55957142D01*
X66233333Y-56004761D01*
X66328571Y-56052380D01*
X66566666Y-56052380D01*
X66661904Y-56004761D01*
X66709523Y-55957142D01*
G04 #@! TO.C,R36*
X74242857Y-53452380D02*
X74576190Y-52976190D01*
X74814285Y-53452380D02*
X74814285Y-52452380D01*
X74433333Y-52452380D01*
X74338095Y-52500000D01*
X74290476Y-52547619D01*
X74242857Y-52642857D01*
X74242857Y-52785714D01*
X74290476Y-52880952D01*
X74338095Y-52928571D01*
X74433333Y-52976190D01*
X74814285Y-52976190D01*
X73909523Y-52452380D02*
X73290476Y-52452380D01*
X73623809Y-52833333D01*
X73480952Y-52833333D01*
X73385714Y-52880952D01*
X73338095Y-52928571D01*
X73290476Y-53023809D01*
X73290476Y-53261904D01*
X73338095Y-53357142D01*
X73385714Y-53404761D01*
X73480952Y-53452380D01*
X73766666Y-53452380D01*
X73861904Y-53404761D01*
X73909523Y-53357142D01*
X72433333Y-52452380D02*
X72623809Y-52452380D01*
X72719047Y-52500000D01*
X72766666Y-52547619D01*
X72861904Y-52690476D01*
X72909523Y-52880952D01*
X72909523Y-53261904D01*
X72861904Y-53357142D01*
X72814285Y-53404761D01*
X72719047Y-53452380D01*
X72528571Y-53452380D01*
X72433333Y-53404761D01*
X72385714Y-53357142D01*
X72338095Y-53261904D01*
X72338095Y-53023809D01*
X72385714Y-52928571D01*
X72433333Y-52880952D01*
X72528571Y-52833333D01*
X72719047Y-52833333D01*
X72814285Y-52880952D01*
X72861904Y-52928571D01*
X72909523Y-53023809D01*
G04 #@! TO.C,R37*
X83052380Y-59057142D02*
X82576190Y-58723809D01*
X83052380Y-58485714D02*
X82052380Y-58485714D01*
X82052380Y-58866666D01*
X82100000Y-58961904D01*
X82147619Y-59009523D01*
X82242857Y-59057142D01*
X82385714Y-59057142D01*
X82480952Y-59009523D01*
X82528571Y-58961904D01*
X82576190Y-58866666D01*
X82576190Y-58485714D01*
X82052380Y-59390476D02*
X82052380Y-60009523D01*
X82433333Y-59676190D01*
X82433333Y-59819047D01*
X82480952Y-59914285D01*
X82528571Y-59961904D01*
X82623809Y-60009523D01*
X82861904Y-60009523D01*
X82957142Y-59961904D01*
X83004761Y-59914285D01*
X83052380Y-59819047D01*
X83052380Y-59533333D01*
X83004761Y-59438095D01*
X82957142Y-59390476D01*
X82052380Y-60342857D02*
X82052380Y-61009523D01*
X83052380Y-60580952D01*
G04 #@! TO.C,R38*
X53252380Y-17957142D02*
X52776190Y-17623809D01*
X53252380Y-17385714D02*
X52252380Y-17385714D01*
X52252380Y-17766666D01*
X52300000Y-17861904D01*
X52347619Y-17909523D01*
X52442857Y-17957142D01*
X52585714Y-17957142D01*
X52680952Y-17909523D01*
X52728571Y-17861904D01*
X52776190Y-17766666D01*
X52776190Y-17385714D01*
X52252380Y-18290476D02*
X52252380Y-18909523D01*
X52633333Y-18576190D01*
X52633333Y-18719047D01*
X52680952Y-18814285D01*
X52728571Y-18861904D01*
X52823809Y-18909523D01*
X53061904Y-18909523D01*
X53157142Y-18861904D01*
X53204761Y-18814285D01*
X53252380Y-18719047D01*
X53252380Y-18433333D01*
X53204761Y-18338095D01*
X53157142Y-18290476D01*
X52680952Y-19480952D02*
X52633333Y-19385714D01*
X52585714Y-19338095D01*
X52490476Y-19290476D01*
X52442857Y-19290476D01*
X52347619Y-19338095D01*
X52300000Y-19385714D01*
X52252380Y-19480952D01*
X52252380Y-19671428D01*
X52300000Y-19766666D01*
X52347619Y-19814285D01*
X52442857Y-19861904D01*
X52490476Y-19861904D01*
X52585714Y-19814285D01*
X52633333Y-19766666D01*
X52680952Y-19671428D01*
X52680952Y-19480952D01*
X52728571Y-19385714D01*
X52776190Y-19338095D01*
X52871428Y-19290476D01*
X53061904Y-19290476D01*
X53157142Y-19338095D01*
X53204761Y-19385714D01*
X53252380Y-19480952D01*
X53252380Y-19671428D01*
X53204761Y-19766666D01*
X53157142Y-19814285D01*
X53061904Y-19861904D01*
X52871428Y-19861904D01*
X52776190Y-19814285D01*
X52728571Y-19766666D01*
X52680952Y-19671428D01*
G04 #@! TO.C,R39*
X55852380Y-17957142D02*
X55376190Y-17623809D01*
X55852380Y-17385714D02*
X54852380Y-17385714D01*
X54852380Y-17766666D01*
X54900000Y-17861904D01*
X54947619Y-17909523D01*
X55042857Y-17957142D01*
X55185714Y-17957142D01*
X55280952Y-17909523D01*
X55328571Y-17861904D01*
X55376190Y-17766666D01*
X55376190Y-17385714D01*
X54852380Y-18290476D02*
X54852380Y-18909523D01*
X55233333Y-18576190D01*
X55233333Y-18719047D01*
X55280952Y-18814285D01*
X55328571Y-18861904D01*
X55423809Y-18909523D01*
X55661904Y-18909523D01*
X55757142Y-18861904D01*
X55804761Y-18814285D01*
X55852380Y-18719047D01*
X55852380Y-18433333D01*
X55804761Y-18338095D01*
X55757142Y-18290476D01*
X55852380Y-19385714D02*
X55852380Y-19576190D01*
X55804761Y-19671428D01*
X55757142Y-19719047D01*
X55614285Y-19814285D01*
X55423809Y-19861904D01*
X55042857Y-19861904D01*
X54947619Y-19814285D01*
X54900000Y-19766666D01*
X54852380Y-19671428D01*
X54852380Y-19480952D01*
X54900000Y-19385714D01*
X54947619Y-19338095D01*
X55042857Y-19290476D01*
X55280952Y-19290476D01*
X55376190Y-19338095D01*
X55423809Y-19385714D01*
X55471428Y-19480952D01*
X55471428Y-19671428D01*
X55423809Y-19766666D01*
X55376190Y-19814285D01*
X55280952Y-19861904D01*
G04 #@! TO.C,R40*
X74242857Y-51052380D02*
X74576190Y-50576190D01*
X74814285Y-51052380D02*
X74814285Y-50052380D01*
X74433333Y-50052380D01*
X74338095Y-50100000D01*
X74290476Y-50147619D01*
X74242857Y-50242857D01*
X74242857Y-50385714D01*
X74290476Y-50480952D01*
X74338095Y-50528571D01*
X74433333Y-50576190D01*
X74814285Y-50576190D01*
X73385714Y-50385714D02*
X73385714Y-51052380D01*
X73623809Y-50004761D02*
X73861904Y-50719047D01*
X73242857Y-50719047D01*
X72671428Y-50052380D02*
X72576190Y-50052380D01*
X72480952Y-50100000D01*
X72433333Y-50147619D01*
X72385714Y-50242857D01*
X72338095Y-50433333D01*
X72338095Y-50671428D01*
X72385714Y-50861904D01*
X72433333Y-50957142D01*
X72480952Y-51004761D01*
X72576190Y-51052380D01*
X72671428Y-51052380D01*
X72766666Y-51004761D01*
X72814285Y-50957142D01*
X72861904Y-50861904D01*
X72909523Y-50671428D01*
X72909523Y-50433333D01*
X72861904Y-50242857D01*
X72814285Y-50147619D01*
X72766666Y-50100000D01*
X72671428Y-50052380D01*
G04 #@! TO.C,R41*
X74242857Y-48152380D02*
X74576190Y-47676190D01*
X74814285Y-48152380D02*
X74814285Y-47152380D01*
X74433333Y-47152380D01*
X74338095Y-47200000D01*
X74290476Y-47247619D01*
X74242857Y-47342857D01*
X74242857Y-47485714D01*
X74290476Y-47580952D01*
X74338095Y-47628571D01*
X74433333Y-47676190D01*
X74814285Y-47676190D01*
X73385714Y-47485714D02*
X73385714Y-48152380D01*
X73623809Y-47104761D02*
X73861904Y-47819047D01*
X73242857Y-47819047D01*
X72338095Y-48152380D02*
X72909523Y-48152380D01*
X72623809Y-48152380D02*
X72623809Y-47152380D01*
X72719047Y-47295238D01*
X72814285Y-47390476D01*
X72909523Y-47438095D01*
G04 #@! TO.C,R42*
X83342857Y-66552380D02*
X83676190Y-66076190D01*
X83914285Y-66552380D02*
X83914285Y-65552380D01*
X83533333Y-65552380D01*
X83438095Y-65600000D01*
X83390476Y-65647619D01*
X83342857Y-65742857D01*
X83342857Y-65885714D01*
X83390476Y-65980952D01*
X83438095Y-66028571D01*
X83533333Y-66076190D01*
X83914285Y-66076190D01*
X82485714Y-65885714D02*
X82485714Y-66552380D01*
X82723809Y-65504761D02*
X82961904Y-66219047D01*
X82342857Y-66219047D01*
X82009523Y-65647619D02*
X81961904Y-65600000D01*
X81866666Y-65552380D01*
X81628571Y-65552380D01*
X81533333Y-65600000D01*
X81485714Y-65647619D01*
X81438095Y-65742857D01*
X81438095Y-65838095D01*
X81485714Y-65980952D01*
X82057142Y-66552380D01*
X81438095Y-66552380D01*
G04 #@! TO.C,R43*
X50652380Y-17957142D02*
X50176190Y-17623809D01*
X50652380Y-17385714D02*
X49652380Y-17385714D01*
X49652380Y-17766666D01*
X49700000Y-17861904D01*
X49747619Y-17909523D01*
X49842857Y-17957142D01*
X49985714Y-17957142D01*
X50080952Y-17909523D01*
X50128571Y-17861904D01*
X50176190Y-17766666D01*
X50176190Y-17385714D01*
X49985714Y-18814285D02*
X50652380Y-18814285D01*
X49604761Y-18576190D02*
X50319047Y-18338095D01*
X50319047Y-18957142D01*
X49652380Y-19242857D02*
X49652380Y-19861904D01*
X50033333Y-19528571D01*
X50033333Y-19671428D01*
X50080952Y-19766666D01*
X50128571Y-19814285D01*
X50223809Y-19861904D01*
X50461904Y-19861904D01*
X50557142Y-19814285D01*
X50604761Y-19766666D01*
X50652380Y-19671428D01*
X50652380Y-19385714D01*
X50604761Y-19290476D01*
X50557142Y-19242857D01*
G04 #@! TO.C,R44*
X65452380Y-75532142D02*
X64976190Y-75198809D01*
X65452380Y-74960714D02*
X64452380Y-74960714D01*
X64452380Y-75341666D01*
X64500000Y-75436904D01*
X64547619Y-75484523D01*
X64642857Y-75532142D01*
X64785714Y-75532142D01*
X64880952Y-75484523D01*
X64928571Y-75436904D01*
X64976190Y-75341666D01*
X64976190Y-74960714D01*
X64785714Y-76389285D02*
X65452380Y-76389285D01*
X64404761Y-76151190D02*
X65119047Y-75913095D01*
X65119047Y-76532142D01*
X64785714Y-77341666D02*
X65452380Y-77341666D01*
X64404761Y-77103571D02*
X65119047Y-76865476D01*
X65119047Y-77484523D01*
G04 #@! TO.C,R45*
X63052380Y-75557142D02*
X62576190Y-75223809D01*
X63052380Y-74985714D02*
X62052380Y-74985714D01*
X62052380Y-75366666D01*
X62100000Y-75461904D01*
X62147619Y-75509523D01*
X62242857Y-75557142D01*
X62385714Y-75557142D01*
X62480952Y-75509523D01*
X62528571Y-75461904D01*
X62576190Y-75366666D01*
X62576190Y-74985714D01*
X62385714Y-76414285D02*
X63052380Y-76414285D01*
X62004761Y-76176190D02*
X62719047Y-75938095D01*
X62719047Y-76557142D01*
X62052380Y-77414285D02*
X62052380Y-76938095D01*
X62528571Y-76890476D01*
X62480952Y-76938095D01*
X62433333Y-77033333D01*
X62433333Y-77271428D01*
X62480952Y-77366666D01*
X62528571Y-77414285D01*
X62623809Y-77461904D01*
X62861904Y-77461904D01*
X62957142Y-77414285D01*
X63004761Y-77366666D01*
X63052380Y-77271428D01*
X63052380Y-77033333D01*
X63004761Y-76938095D01*
X62957142Y-76890476D01*
G04 #@! TO.C,R46*
X60452380Y-75557142D02*
X59976190Y-75223809D01*
X60452380Y-74985714D02*
X59452380Y-74985714D01*
X59452380Y-75366666D01*
X59500000Y-75461904D01*
X59547619Y-75509523D01*
X59642857Y-75557142D01*
X59785714Y-75557142D01*
X59880952Y-75509523D01*
X59928571Y-75461904D01*
X59976190Y-75366666D01*
X59976190Y-74985714D01*
X59785714Y-76414285D02*
X60452380Y-76414285D01*
X59404761Y-76176190D02*
X60119047Y-75938095D01*
X60119047Y-76557142D01*
X59452380Y-77366666D02*
X59452380Y-77176190D01*
X59500000Y-77080952D01*
X59547619Y-77033333D01*
X59690476Y-76938095D01*
X59880952Y-76890476D01*
X60261904Y-76890476D01*
X60357142Y-76938095D01*
X60404761Y-76985714D01*
X60452380Y-77080952D01*
X60452380Y-77271428D01*
X60404761Y-77366666D01*
X60357142Y-77414285D01*
X60261904Y-77461904D01*
X60023809Y-77461904D01*
X59928571Y-77414285D01*
X59880952Y-77366666D01*
X59833333Y-77271428D01*
X59833333Y-77080952D01*
X59880952Y-76985714D01*
X59928571Y-76938095D01*
X60023809Y-76890476D01*
G04 #@! TO.C,R47*
X75642857Y-38752380D02*
X75976190Y-38276190D01*
X76214285Y-38752380D02*
X76214285Y-37752380D01*
X75833333Y-37752380D01*
X75738095Y-37800000D01*
X75690476Y-37847619D01*
X75642857Y-37942857D01*
X75642857Y-38085714D01*
X75690476Y-38180952D01*
X75738095Y-38228571D01*
X75833333Y-38276190D01*
X76214285Y-38276190D01*
X74785714Y-38085714D02*
X74785714Y-38752380D01*
X75023809Y-37704761D02*
X75261904Y-38419047D01*
X74642857Y-38419047D01*
X74357142Y-37752380D02*
X73690476Y-37752380D01*
X74119047Y-38752380D01*
G04 #@! TO.C,U1*
X65661904Y-81977380D02*
X65661904Y-82786904D01*
X65614285Y-82882142D01*
X65566666Y-82929761D01*
X65471428Y-82977380D01*
X65280952Y-82977380D01*
X65185714Y-82929761D01*
X65138095Y-82882142D01*
X65090476Y-82786904D01*
X65090476Y-81977380D01*
X64090476Y-82977380D02*
X64661904Y-82977380D01*
X64376190Y-82977380D02*
X64376190Y-81977380D01*
X64471428Y-82120238D01*
X64566666Y-82215476D01*
X64661904Y-82263095D01*
G04 #@! TO.C,U2*
X65361904Y-58977380D02*
X65361904Y-59786904D01*
X65314285Y-59882142D01*
X65266666Y-59929761D01*
X65171428Y-59977380D01*
X64980952Y-59977380D01*
X64885714Y-59929761D01*
X64838095Y-59882142D01*
X64790476Y-59786904D01*
X64790476Y-58977380D01*
X64361904Y-59072619D02*
X64314285Y-59025000D01*
X64219047Y-58977380D01*
X63980952Y-58977380D01*
X63885714Y-59025000D01*
X63838095Y-59072619D01*
X63790476Y-59167857D01*
X63790476Y-59263095D01*
X63838095Y-59405952D01*
X64409523Y-59977380D01*
X63790476Y-59977380D01*
G04 #@! TO.C,U4*
X77261904Y-53777380D02*
X77261904Y-54586904D01*
X77214285Y-54682142D01*
X77166666Y-54729761D01*
X77071428Y-54777380D01*
X76880952Y-54777380D01*
X76785714Y-54729761D01*
X76738095Y-54682142D01*
X76690476Y-54586904D01*
X76690476Y-53777380D01*
X75785714Y-54110714D02*
X75785714Y-54777380D01*
X76023809Y-53729761D02*
X76261904Y-54444047D01*
X75642857Y-54444047D01*
G04 #@! TO.C,U5*
X54011904Y-24577380D02*
X54011904Y-25386904D01*
X53964285Y-25482142D01*
X53916666Y-25529761D01*
X53821428Y-25577380D01*
X53630952Y-25577380D01*
X53535714Y-25529761D01*
X53488095Y-25482142D01*
X53440476Y-25386904D01*
X53440476Y-24577380D01*
X52488095Y-24577380D02*
X52964285Y-24577380D01*
X53011904Y-25053571D01*
X52964285Y-25005952D01*
X52869047Y-24958333D01*
X52630952Y-24958333D01*
X52535714Y-25005952D01*
X52488095Y-25053571D01*
X52440476Y-25148809D01*
X52440476Y-25386904D01*
X52488095Y-25482142D01*
X52535714Y-25529761D01*
X52630952Y-25577380D01*
X52869047Y-25577380D01*
X52964285Y-25529761D01*
X53011904Y-25482142D01*
G04 #@! TO.C,D4*
X74252380Y-72861904D02*
X73252380Y-72861904D01*
X73252380Y-73100000D01*
X73300000Y-73242857D01*
X73395238Y-73338095D01*
X73490476Y-73385714D01*
X73680952Y-73433333D01*
X73823809Y-73433333D01*
X74014285Y-73385714D01*
X74109523Y-73338095D01*
X74204761Y-73242857D01*
X74252380Y-73100000D01*
X74252380Y-72861904D01*
X73585714Y-74290476D02*
X74252380Y-74290476D01*
X73204761Y-74052380D02*
X73919047Y-73814285D01*
X73919047Y-74433333D01*
G04 #@! TO.C,D6*
X69638095Y-45552380D02*
X69638095Y-44552380D01*
X69400000Y-44552380D01*
X69257142Y-44600000D01*
X69161904Y-44695238D01*
X69114285Y-44790476D01*
X69066666Y-44980952D01*
X69066666Y-45123809D01*
X69114285Y-45314285D01*
X69161904Y-45409523D01*
X69257142Y-45504761D01*
X69400000Y-45552380D01*
X69638095Y-45552380D01*
X68209523Y-44552380D02*
X68400000Y-44552380D01*
X68495238Y-44600000D01*
X68542857Y-44647619D01*
X68638095Y-44790476D01*
X68685714Y-44980952D01*
X68685714Y-45361904D01*
X68638095Y-45457142D01*
X68590476Y-45504761D01*
X68495238Y-45552380D01*
X68304761Y-45552380D01*
X68209523Y-45504761D01*
X68161904Y-45457142D01*
X68114285Y-45361904D01*
X68114285Y-45123809D01*
X68161904Y-45028571D01*
X68209523Y-44980952D01*
X68304761Y-44933333D01*
X68495238Y-44933333D01*
X68590476Y-44980952D01*
X68638095Y-45028571D01*
X68685714Y-45123809D01*
G04 #@! TO.C,R48*
X76542857Y-78852380D02*
X76876190Y-78376190D01*
X77114285Y-78852380D02*
X77114285Y-77852380D01*
X76733333Y-77852380D01*
X76638095Y-77900000D01*
X76590476Y-77947619D01*
X76542857Y-78042857D01*
X76542857Y-78185714D01*
X76590476Y-78280952D01*
X76638095Y-78328571D01*
X76733333Y-78376190D01*
X77114285Y-78376190D01*
X75685714Y-78185714D02*
X75685714Y-78852380D01*
X75923809Y-77804761D02*
X76161904Y-78519047D01*
X75542857Y-78519047D01*
X75019047Y-78280952D02*
X75114285Y-78233333D01*
X75161904Y-78185714D01*
X75209523Y-78090476D01*
X75209523Y-78042857D01*
X75161904Y-77947619D01*
X75114285Y-77900000D01*
X75019047Y-77852380D01*
X74828571Y-77852380D01*
X74733333Y-77900000D01*
X74685714Y-77947619D01*
X74638095Y-78042857D01*
X74638095Y-78090476D01*
X74685714Y-78185714D01*
X74733333Y-78233333D01*
X74828571Y-78280952D01*
X75019047Y-78280952D01*
X75114285Y-78328571D01*
X75161904Y-78376190D01*
X75209523Y-78471428D01*
X75209523Y-78661904D01*
X75161904Y-78757142D01*
X75114285Y-78804761D01*
X75019047Y-78852380D01*
X74828571Y-78852380D01*
X74733333Y-78804761D01*
X74685714Y-78757142D01*
X74638095Y-78661904D01*
X74638095Y-78471428D01*
X74685714Y-78376190D01*
X74733333Y-78328571D01*
X74828571Y-78280952D01*
G04 #@! TO.C,R49*
X58852380Y-79657142D02*
X58376190Y-79323809D01*
X58852380Y-79085714D02*
X57852380Y-79085714D01*
X57852380Y-79466666D01*
X57900000Y-79561904D01*
X57947619Y-79609523D01*
X58042857Y-79657142D01*
X58185714Y-79657142D01*
X58280952Y-79609523D01*
X58328571Y-79561904D01*
X58376190Y-79466666D01*
X58376190Y-79085714D01*
X58185714Y-80514285D02*
X58852380Y-80514285D01*
X57804761Y-80276190D02*
X58519047Y-80038095D01*
X58519047Y-80657142D01*
X58852380Y-81085714D02*
X58852380Y-81276190D01*
X58804761Y-81371428D01*
X58757142Y-81419047D01*
X58614285Y-81514285D01*
X58423809Y-81561904D01*
X58042857Y-81561904D01*
X57947619Y-81514285D01*
X57900000Y-81466666D01*
X57852380Y-81371428D01*
X57852380Y-81180952D01*
X57900000Y-81085714D01*
X57947619Y-81038095D01*
X58042857Y-80990476D01*
X58280952Y-80990476D01*
X58376190Y-81038095D01*
X58423809Y-81085714D01*
X58471428Y-81180952D01*
X58471428Y-81371428D01*
X58423809Y-81466666D01*
X58376190Y-81514285D01*
X58280952Y-81561904D01*
G04 #@! TD*
M02*
