G04 #@! TF.GenerationSoftware,KiCad,Pcbnew,(5.0.1-3-g963ef8bb5)*
G04 #@! TF.CreationDate,2021-01-15T23:32:27+01:00*
G04 #@! TF.ProjectId,Schraeg,536368726165672E6B696361645F7063,rev?*
G04 #@! TF.SameCoordinates,Original*
G04 #@! TF.FileFunction,Legend,Top*
G04 #@! TF.FilePolarity,Positive*
%FSLAX46Y46*%
G04 Gerber Fmt 4.6, Leading zero omitted, Abs format (unit mm)*
G04 Created by KiCad (PCBNEW (5.0.1-3-g963ef8bb5)) date Friday, 15 January 2021 at 23:32:27*
%MOMM*%
%LPD*%
G01*
G04 APERTURE LIST*
%ADD10C,0.300000*%
%ADD11C,0.150000*%
%ADD12C,0.100000*%
%ADD13C,0.120000*%
G04 APERTURE END LIST*
D10*
X46692857Y-12707142D02*
X46907142Y-12778571D01*
X47264285Y-12778571D01*
X47407142Y-12707142D01*
X47478571Y-12635714D01*
X47550000Y-12492857D01*
X47550000Y-12350000D01*
X47478571Y-12207142D01*
X47407142Y-12135714D01*
X47264285Y-12064285D01*
X46978571Y-11992857D01*
X46835714Y-11921428D01*
X46764285Y-11850000D01*
X46692857Y-11707142D01*
X46692857Y-11564285D01*
X46764285Y-11421428D01*
X46835714Y-11350000D01*
X46978571Y-11278571D01*
X47335714Y-11278571D01*
X47550000Y-11350000D01*
X48835714Y-12707142D02*
X48692857Y-12778571D01*
X48407142Y-12778571D01*
X48264285Y-12707142D01*
X48192857Y-12635714D01*
X48121428Y-12492857D01*
X48121428Y-12064285D01*
X48192857Y-11921428D01*
X48264285Y-11850000D01*
X48407142Y-11778571D01*
X48692857Y-11778571D01*
X48835714Y-11850000D01*
X49478571Y-12778571D02*
X49478571Y-11278571D01*
X50121428Y-12778571D02*
X50121428Y-11992857D01*
X50050000Y-11850000D01*
X49907142Y-11778571D01*
X49692857Y-11778571D01*
X49550000Y-11850000D01*
X49478571Y-11921428D01*
X50835714Y-12778571D02*
X50835714Y-11778571D01*
X50835714Y-12064285D02*
X50907142Y-11921428D01*
X50978571Y-11850000D01*
X51121428Y-11778571D01*
X51264285Y-11778571D01*
X52407142Y-12778571D02*
X52407142Y-11992857D01*
X52335714Y-11850000D01*
X52192857Y-11778571D01*
X51907142Y-11778571D01*
X51764285Y-11850000D01*
X52407142Y-12707142D02*
X52264285Y-12778571D01*
X51907142Y-12778571D01*
X51764285Y-12707142D01*
X51692857Y-12564285D01*
X51692857Y-12421428D01*
X51764285Y-12278571D01*
X51907142Y-12207142D01*
X52264285Y-12207142D01*
X52407142Y-12135714D01*
X51764285Y-11278571D02*
X51835714Y-11350000D01*
X51764285Y-11421428D01*
X51692857Y-11350000D01*
X51764285Y-11278571D01*
X51764285Y-11421428D01*
X52335714Y-11278571D02*
X52407142Y-11350000D01*
X52335714Y-11421428D01*
X52264285Y-11350000D01*
X52335714Y-11278571D01*
X52335714Y-11421428D01*
X53764285Y-11778571D02*
X53764285Y-12992857D01*
X53692857Y-13135714D01*
X53621428Y-13207142D01*
X53478571Y-13278571D01*
X53264285Y-13278571D01*
X53121428Y-13207142D01*
X53764285Y-12707142D02*
X53621428Y-12778571D01*
X53335714Y-12778571D01*
X53192857Y-12707142D01*
X53121428Y-12635714D01*
X53050000Y-12492857D01*
X53050000Y-12064285D01*
X53121428Y-11921428D01*
X53192857Y-11850000D01*
X53335714Y-11778571D01*
X53621428Y-11778571D01*
X53764285Y-11850000D01*
X55621428Y-12778571D02*
X55621428Y-11778571D01*
X55621428Y-11278571D02*
X55550000Y-11350000D01*
X55621428Y-11421428D01*
X55692857Y-11350000D01*
X55621428Y-11278571D01*
X55621428Y-11421428D01*
X56335714Y-11778571D02*
X56335714Y-12778571D01*
X56335714Y-11921428D02*
X56407142Y-11850000D01*
X56550000Y-11778571D01*
X56764285Y-11778571D01*
X56907142Y-11850000D01*
X56978571Y-11992857D01*
X56978571Y-12778571D01*
X57621428Y-12707142D02*
X57764285Y-12778571D01*
X58050000Y-12778571D01*
X58192857Y-12707142D01*
X58264285Y-12564285D01*
X58264285Y-12492857D01*
X58192857Y-12350000D01*
X58050000Y-12278571D01*
X57835714Y-12278571D01*
X57692857Y-12207142D01*
X57621428Y-12064285D01*
X57621428Y-11992857D01*
X57692857Y-11850000D01*
X57835714Y-11778571D01*
X58050000Y-11778571D01*
X58192857Y-11850000D01*
X58907142Y-11778571D02*
X58907142Y-13278571D01*
X58907142Y-11850000D02*
X59050000Y-11778571D01*
X59335714Y-11778571D01*
X59478571Y-11850000D01*
X59550000Y-11921428D01*
X59621428Y-12064285D01*
X59621428Y-12492857D01*
X59550000Y-12635714D01*
X59478571Y-12707142D01*
X59335714Y-12778571D01*
X59050000Y-12778571D01*
X58907142Y-12707142D01*
X60264285Y-12778571D02*
X60264285Y-11778571D01*
X60264285Y-11278571D02*
X60192857Y-11350000D01*
X60264285Y-11421428D01*
X60335714Y-11350000D01*
X60264285Y-11278571D01*
X60264285Y-11421428D01*
X60978571Y-12778571D02*
X60978571Y-11778571D01*
X60978571Y-12064285D02*
X61050000Y-11921428D01*
X61121428Y-11850000D01*
X61264285Y-11778571D01*
X61407142Y-11778571D01*
X62478571Y-12707142D02*
X62335714Y-12778571D01*
X62050000Y-12778571D01*
X61907142Y-12707142D01*
X61835714Y-12564285D01*
X61835714Y-11992857D01*
X61907142Y-11850000D01*
X62050000Y-11778571D01*
X62335714Y-11778571D01*
X62478571Y-11850000D01*
X62550000Y-11992857D01*
X62550000Y-12135714D01*
X61835714Y-12278571D01*
X63835714Y-12778571D02*
X63835714Y-11278571D01*
X63835714Y-12707142D02*
X63692857Y-12778571D01*
X63407142Y-12778571D01*
X63264285Y-12707142D01*
X63192857Y-12635714D01*
X63121428Y-12492857D01*
X63121428Y-12064285D01*
X63192857Y-11921428D01*
X63264285Y-11850000D01*
X63407142Y-11778571D01*
X63692857Y-11778571D01*
X63835714Y-11850000D01*
X48657142Y-15328571D02*
X48657142Y-13828571D01*
X48657142Y-14400000D02*
X48800000Y-14328571D01*
X49085714Y-14328571D01*
X49228571Y-14400000D01*
X49300000Y-14471428D01*
X49371428Y-14614285D01*
X49371428Y-15042857D01*
X49300000Y-15185714D01*
X49228571Y-15257142D01*
X49085714Y-15328571D01*
X48800000Y-15328571D01*
X48657142Y-15257142D01*
X49871428Y-14328571D02*
X50228571Y-15328571D01*
X50585714Y-14328571D02*
X50228571Y-15328571D01*
X50085714Y-15685714D01*
X50014285Y-15757142D01*
X49871428Y-15828571D01*
X52085714Y-14328571D02*
X52657142Y-14328571D01*
X52300000Y-13828571D02*
X52300000Y-15114285D01*
X52371428Y-15257142D01*
X52514285Y-15328571D01*
X52657142Y-15328571D01*
X53157142Y-15328571D02*
X53157142Y-13828571D01*
X53800000Y-15328571D02*
X53800000Y-14542857D01*
X53728571Y-14400000D01*
X53585714Y-14328571D01*
X53371428Y-14328571D01*
X53228571Y-14400000D01*
X53157142Y-14471428D01*
X55085714Y-15257142D02*
X54942857Y-15328571D01*
X54657142Y-15328571D01*
X54514285Y-15257142D01*
X54442857Y-15114285D01*
X54442857Y-14542857D01*
X54514285Y-14400000D01*
X54657142Y-14328571D01*
X54942857Y-14328571D01*
X55085714Y-14400000D01*
X55157142Y-14542857D01*
X55157142Y-14685714D01*
X54442857Y-14828571D01*
X57442857Y-14542857D02*
X57657142Y-14614285D01*
X57728571Y-14685714D01*
X57800000Y-14828571D01*
X57800000Y-15042857D01*
X57728571Y-15185714D01*
X57657142Y-15257142D01*
X57514285Y-15328571D01*
X56942857Y-15328571D01*
X56942857Y-13828571D01*
X57442857Y-13828571D01*
X57585714Y-13900000D01*
X57657142Y-13971428D01*
X57728571Y-14114285D01*
X57728571Y-14257142D01*
X57657142Y-14400000D01*
X57585714Y-14471428D01*
X57442857Y-14542857D01*
X56942857Y-14542857D01*
X59085714Y-15328571D02*
X59085714Y-14542857D01*
X59014285Y-14400000D01*
X58871428Y-14328571D01*
X58585714Y-14328571D01*
X58442857Y-14400000D01*
X59085714Y-15257142D02*
X58942857Y-15328571D01*
X58585714Y-15328571D01*
X58442857Y-15257142D01*
X58371428Y-15114285D01*
X58371428Y-14971428D01*
X58442857Y-14828571D01*
X58585714Y-14757142D01*
X58942857Y-14757142D01*
X59085714Y-14685714D01*
X59728571Y-15257142D02*
X59871428Y-15328571D01*
X60157142Y-15328571D01*
X60300000Y-15257142D01*
X60371428Y-15114285D01*
X60371428Y-15042857D01*
X60300000Y-14900000D01*
X60157142Y-14828571D01*
X59942857Y-14828571D01*
X59800000Y-14757142D01*
X59728571Y-14614285D01*
X59728571Y-14542857D01*
X59800000Y-14400000D01*
X59942857Y-14328571D01*
X60157142Y-14328571D01*
X60300000Y-14400000D01*
X60800000Y-14328571D02*
X61371428Y-14328571D01*
X61014285Y-13828571D02*
X61014285Y-15114285D01*
X61085714Y-15257142D01*
X61228571Y-15328571D01*
X61371428Y-15328571D01*
X62085714Y-15328571D02*
X61942857Y-15257142D01*
X61871428Y-15114285D01*
X61871428Y-13828571D01*
X49585714Y-17735714D02*
X49514285Y-17807142D01*
X49300000Y-17878571D01*
X49157142Y-17878571D01*
X48942857Y-17807142D01*
X48800000Y-17664285D01*
X48728571Y-17521428D01*
X48657142Y-17235714D01*
X48657142Y-17021428D01*
X48728571Y-16735714D01*
X48800000Y-16592857D01*
X48942857Y-16450000D01*
X49157142Y-16378571D01*
X49300000Y-16378571D01*
X49514285Y-16450000D01*
X49585714Y-16521428D01*
X50228571Y-17878571D02*
X50228571Y-16878571D01*
X50228571Y-16378571D02*
X50157142Y-16450000D01*
X50228571Y-16521428D01*
X50300000Y-16450000D01*
X50228571Y-16378571D01*
X50228571Y-16521428D01*
X50942857Y-16878571D02*
X50942857Y-17878571D01*
X50942857Y-17021428D02*
X51014285Y-16950000D01*
X51157142Y-16878571D01*
X51371428Y-16878571D01*
X51514285Y-16950000D01*
X51585714Y-17092857D01*
X51585714Y-17878571D01*
X52300000Y-16878571D02*
X52300000Y-17878571D01*
X52300000Y-17021428D02*
X52371428Y-16950000D01*
X52514285Y-16878571D01*
X52728571Y-16878571D01*
X52871428Y-16950000D01*
X52942857Y-17092857D01*
X52942857Y-17878571D01*
X54300000Y-17878571D02*
X54300000Y-17092857D01*
X54228571Y-16950000D01*
X54085714Y-16878571D01*
X53800000Y-16878571D01*
X53657142Y-16950000D01*
X54300000Y-17807142D02*
X54157142Y-17878571D01*
X53800000Y-17878571D01*
X53657142Y-17807142D01*
X53585714Y-17664285D01*
X53585714Y-17521428D01*
X53657142Y-17378571D01*
X53800000Y-17307142D01*
X54157142Y-17307142D01*
X54300000Y-17235714D01*
X55014285Y-17878571D02*
X55014285Y-16878571D01*
X55014285Y-17021428D02*
X55085714Y-16950000D01*
X55228571Y-16878571D01*
X55442857Y-16878571D01*
X55585714Y-16950000D01*
X55657142Y-17092857D01*
X55657142Y-17878571D01*
X55657142Y-17092857D02*
X55728571Y-16950000D01*
X55871428Y-16878571D01*
X56085714Y-16878571D01*
X56228571Y-16950000D01*
X56300000Y-17092857D01*
X56300000Y-17878571D01*
X57228571Y-17878571D02*
X57085714Y-17807142D01*
X57014285Y-17735714D01*
X56942857Y-17592857D01*
X56942857Y-17164285D01*
X57014285Y-17021428D01*
X57085714Y-16950000D01*
X57228571Y-16878571D01*
X57442857Y-16878571D01*
X57585714Y-16950000D01*
X57657142Y-17021428D01*
X57728571Y-17164285D01*
X57728571Y-17592857D01*
X57657142Y-17735714D01*
X57585714Y-17807142D01*
X57442857Y-17878571D01*
X57228571Y-17878571D01*
X58371428Y-16878571D02*
X58371428Y-17878571D01*
X58371428Y-17021428D02*
X58442857Y-16950000D01*
X58585714Y-16878571D01*
X58800000Y-16878571D01*
X58942857Y-16950000D01*
X59014285Y-17092857D01*
X59014285Y-17878571D01*
X60728571Y-17378571D02*
X62014285Y-17378571D01*
X49621428Y-19428571D02*
X50192857Y-19428571D01*
X49835714Y-18928571D02*
X49835714Y-20214285D01*
X49907142Y-20357142D01*
X50050000Y-20428571D01*
X50192857Y-20428571D01*
X50692857Y-20428571D02*
X50692857Y-18928571D01*
X51335714Y-20428571D02*
X51335714Y-19642857D01*
X51264285Y-19500000D01*
X51121428Y-19428571D01*
X50907142Y-19428571D01*
X50764285Y-19500000D01*
X50692857Y-19571428D01*
X52692857Y-20428571D02*
X52692857Y-19642857D01*
X52621428Y-19500000D01*
X52478571Y-19428571D01*
X52192857Y-19428571D01*
X52050000Y-19500000D01*
X52692857Y-20357142D02*
X52550000Y-20428571D01*
X52192857Y-20428571D01*
X52050000Y-20357142D01*
X51978571Y-20214285D01*
X51978571Y-20071428D01*
X52050000Y-19928571D01*
X52192857Y-19857142D01*
X52550000Y-19857142D01*
X52692857Y-19785714D01*
X53407142Y-19428571D02*
X53407142Y-20428571D01*
X53407142Y-19571428D02*
X53478571Y-19500000D01*
X53621428Y-19428571D01*
X53835714Y-19428571D01*
X53978571Y-19500000D01*
X54050000Y-19642857D01*
X54050000Y-20428571D01*
X54764285Y-20428571D02*
X54764285Y-18928571D01*
X54907142Y-19857142D02*
X55335714Y-20428571D01*
X55335714Y-19428571D02*
X54764285Y-20000000D01*
X55907142Y-20357142D02*
X56050000Y-20428571D01*
X56335714Y-20428571D01*
X56478571Y-20357142D01*
X56550000Y-20214285D01*
X56550000Y-20142857D01*
X56478571Y-20000000D01*
X56335714Y-19928571D01*
X56121428Y-19928571D01*
X55978571Y-19857142D01*
X55907142Y-19714285D01*
X55907142Y-19642857D01*
X55978571Y-19500000D01*
X56121428Y-19428571D01*
X56335714Y-19428571D01*
X56478571Y-19500000D01*
X58121428Y-19428571D02*
X58692857Y-19428571D01*
X58335714Y-20428571D02*
X58335714Y-19142857D01*
X58407142Y-19000000D01*
X58550000Y-18928571D01*
X58692857Y-18928571D01*
X59407142Y-20428571D02*
X59264285Y-20357142D01*
X59192857Y-20285714D01*
X59121428Y-20142857D01*
X59121428Y-19714285D01*
X59192857Y-19571428D01*
X59264285Y-19500000D01*
X59407142Y-19428571D01*
X59621428Y-19428571D01*
X59764285Y-19500000D01*
X59835714Y-19571428D01*
X59907142Y-19714285D01*
X59907142Y-20142857D01*
X59835714Y-20285714D01*
X59764285Y-20357142D01*
X59621428Y-20428571D01*
X59407142Y-20428571D01*
X60550000Y-20428571D02*
X60550000Y-19428571D01*
X60550000Y-19714285D02*
X60621428Y-19571428D01*
X60692857Y-19500000D01*
X60835714Y-19428571D01*
X60978571Y-19428571D01*
X49014285Y-22978571D02*
X49014285Y-21478571D01*
X49014285Y-22050000D02*
X49157142Y-21978571D01*
X49442857Y-21978571D01*
X49585714Y-22050000D01*
X49657142Y-22121428D01*
X49728571Y-22264285D01*
X49728571Y-22692857D01*
X49657142Y-22835714D01*
X49585714Y-22907142D01*
X49442857Y-22978571D01*
X49157142Y-22978571D01*
X49014285Y-22907142D01*
X50942857Y-22907142D02*
X50800000Y-22978571D01*
X50514285Y-22978571D01*
X50371428Y-22907142D01*
X50300000Y-22764285D01*
X50300000Y-22192857D01*
X50371428Y-22050000D01*
X50514285Y-21978571D01*
X50800000Y-21978571D01*
X50942857Y-22050000D01*
X51014285Y-22192857D01*
X51014285Y-22335714D01*
X50300000Y-22478571D01*
X51657142Y-22978571D02*
X51657142Y-21978571D01*
X51657142Y-21478571D02*
X51585714Y-21550000D01*
X51657142Y-21621428D01*
X51728571Y-21550000D01*
X51657142Y-21478571D01*
X51657142Y-21621428D01*
X52371428Y-21978571D02*
X52371428Y-22978571D01*
X52371428Y-22121428D02*
X52442857Y-22050000D01*
X52585714Y-21978571D01*
X52800000Y-21978571D01*
X52942857Y-22050000D01*
X53014285Y-22192857D01*
X53014285Y-22978571D01*
X54371428Y-21978571D02*
X54371428Y-23192857D01*
X54300000Y-23335714D01*
X54228571Y-23407142D01*
X54085714Y-23478571D01*
X53871428Y-23478571D01*
X53728571Y-23407142D01*
X54371428Y-22907142D02*
X54228571Y-22978571D01*
X53942857Y-22978571D01*
X53800000Y-22907142D01*
X53728571Y-22835714D01*
X53657142Y-22692857D01*
X53657142Y-22264285D01*
X53728571Y-22121428D01*
X53800000Y-22050000D01*
X53942857Y-21978571D01*
X54228571Y-21978571D01*
X54371428Y-22050000D01*
X56442857Y-22978571D02*
X56300000Y-22907142D01*
X56228571Y-22835714D01*
X56157142Y-22692857D01*
X56157142Y-22264285D01*
X56228571Y-22121428D01*
X56300000Y-22050000D01*
X56442857Y-21978571D01*
X56657142Y-21978571D01*
X56800000Y-22050000D01*
X56871428Y-22121428D01*
X56942857Y-22264285D01*
X56942857Y-22692857D01*
X56871428Y-22835714D01*
X56800000Y-22907142D01*
X56657142Y-22978571D01*
X56442857Y-22978571D01*
X57585714Y-21978571D02*
X57585714Y-23478571D01*
X57585714Y-22050000D02*
X57728571Y-21978571D01*
X58014285Y-21978571D01*
X58157142Y-22050000D01*
X58228571Y-22121428D01*
X58300000Y-22264285D01*
X58300000Y-22692857D01*
X58228571Y-22835714D01*
X58157142Y-22907142D01*
X58014285Y-22978571D01*
X57728571Y-22978571D01*
X57585714Y-22907142D01*
X59514285Y-22907142D02*
X59371428Y-22978571D01*
X59085714Y-22978571D01*
X58942857Y-22907142D01*
X58871428Y-22764285D01*
X58871428Y-22192857D01*
X58942857Y-22050000D01*
X59085714Y-21978571D01*
X59371428Y-21978571D01*
X59514285Y-22050000D01*
X59585714Y-22192857D01*
X59585714Y-22335714D01*
X58871428Y-22478571D01*
X60228571Y-21978571D02*
X60228571Y-22978571D01*
X60228571Y-22121428D02*
X60300000Y-22050000D01*
X60442857Y-21978571D01*
X60657142Y-21978571D01*
X60800000Y-22050000D01*
X60871428Y-22192857D01*
X60871428Y-22978571D01*
X61585714Y-22835714D02*
X61657142Y-22907142D01*
X61585714Y-22978571D01*
X61514285Y-22907142D01*
X61585714Y-22835714D01*
X61585714Y-22978571D01*
X61585714Y-22407142D02*
X61514285Y-21550000D01*
X61585714Y-21478571D01*
X61657142Y-21550000D01*
X61585714Y-22407142D01*
X61585714Y-21478571D01*
D11*
G36*
X28100000Y-104500000D02*
X39000000Y-104500000D01*
X39000000Y-115500000D01*
X28100000Y-115500000D01*
X28100000Y-104500000D01*
G37*
X28100000Y-104500000D02*
X39000000Y-104500000D01*
X39000000Y-115500000D01*
X28100000Y-115500000D01*
X28100000Y-104500000D01*
G36*
X14800000Y-104500000D02*
X25700000Y-104500000D01*
X25700000Y-115500000D01*
X14800000Y-115500000D01*
X14800000Y-104500000D01*
G37*
X14800000Y-104500000D02*
X25700000Y-104500000D01*
X25700000Y-115500000D01*
X14800000Y-115500000D01*
X14800000Y-104500000D01*
G36*
X1100000Y-104500000D02*
X12000000Y-104500000D01*
X12000000Y-115500000D01*
X1100000Y-115500000D01*
X1100000Y-104500000D01*
G37*
X1100000Y-104500000D02*
X12000000Y-104500000D01*
X12000000Y-115500000D01*
X1100000Y-115500000D01*
X1100000Y-104500000D01*
D10*
X30042857Y-63507142D02*
X31185714Y-63507142D01*
X33399999Y-64578571D02*
X33399999Y-62435714D01*
X35614285Y-63507142D02*
X36757142Y-63507142D01*
X36185714Y-64078571D02*
X36185714Y-62935714D01*
X16642857Y-66307142D02*
X17785714Y-66307142D01*
X20000000Y-67378571D02*
X20000000Y-65235714D01*
X22214285Y-66307142D02*
X23357142Y-66307142D01*
X22785714Y-66878571D02*
X22785714Y-65735714D01*
D11*
G04 #@! TO.C,FM_ATTV1*
X76730000Y-69000000D02*
X79270000Y-69000000D01*
X78000000Y-67730000D02*
X78000000Y-70270000D01*
X81175000Y-69000000D02*
G75*
G03X81175000Y-69000000I-3175000J0D01*
G01*
X73250000Y-64150000D02*
X73250000Y-75500000D01*
X82750000Y-64150000D02*
X82750000Y-75500000D01*
X73250000Y-75500000D02*
X82750000Y-75500000D01*
X73250000Y-64150000D02*
X82750000Y-64150000D01*
G04 #@! TO.C,CUTOFF1*
X68230000Y-20000000D02*
X70770000Y-20000000D01*
X69500000Y-18730000D02*
X69500000Y-21270000D01*
X72675000Y-20000000D02*
G75*
G03X72675000Y-20000000I-3175000J0D01*
G01*
X64750000Y-15150000D02*
X64750000Y-26500000D01*
X74250000Y-15150000D02*
X74250000Y-26500000D01*
X64750000Y-26500000D02*
X74250000Y-26500000D01*
X64750000Y-15150000D02*
X74250000Y-15150000D01*
G04 #@! TO.C,INPUT_GAIN1*
X49730000Y-75000000D02*
X52270000Y-75000000D01*
X51000000Y-73730000D02*
X51000000Y-76270000D01*
X54175000Y-75000000D02*
G75*
G03X54175000Y-75000000I-3175000J0D01*
G01*
X46250000Y-70150000D02*
X46250000Y-81500000D01*
X55750000Y-70150000D02*
X55750000Y-81500000D01*
X46250000Y-81500000D02*
X55750000Y-81500000D01*
X46250000Y-70150000D02*
X55750000Y-70150000D01*
G04 #@! TO.C,RES_ATTV1*
X63230000Y-72000000D02*
X65770000Y-72000000D01*
X64500000Y-70730000D02*
X64500000Y-73270000D01*
X67675000Y-72000000D02*
G75*
G03X67675000Y-72000000I-3175000J0D01*
G01*
X59750000Y-67150000D02*
X59750000Y-78500000D01*
X69250000Y-67150000D02*
X69250000Y-78500000D01*
X59750000Y-78500000D02*
X69250000Y-78500000D01*
X59750000Y-67150000D02*
X69250000Y-67150000D01*
G04 #@! TO.C,RESONANCE1*
X52230000Y-39100000D02*
X54770000Y-39100000D01*
X53500000Y-37830000D02*
X53500000Y-40370000D01*
X56675000Y-39100000D02*
G75*
G03X56675000Y-39100000I-3175000J0D01*
G01*
X48750000Y-34250000D02*
X48750000Y-45600000D01*
X58250000Y-34250000D02*
X58250000Y-45600000D01*
X48750000Y-45600000D02*
X58250000Y-45600000D01*
X48750000Y-34250000D02*
X58250000Y-34250000D01*
D12*
G04 #@! TO.C,svg2mod*
G36*
X17910729Y-40174293D02*
X18083179Y-40172633D01*
X18451189Y-40088933D01*
X18732109Y-39864363D01*
X18911419Y-39537333D01*
X18974619Y-39144563D01*
X18905419Y-38737263D01*
X18711599Y-38403403D01*
X18428119Y-38190793D01*
X18083159Y-38116493D01*
X17714289Y-38200193D01*
X17432509Y-38424753D01*
X17253199Y-38752643D01*
X17189999Y-39144563D01*
X17259199Y-39566373D01*
X17442779Y-39879733D01*
X17727119Y-40088933D01*
X18083179Y-40172633D01*
X17910729Y-40174293D01*
X17474399Y-40025723D01*
X17136269Y-39731133D01*
X16918539Y-39323843D01*
X16841639Y-38838853D01*
X16933039Y-38312873D01*
X17189199Y-37885083D01*
X17581979Y-37598193D01*
X18083199Y-37493163D01*
X18586969Y-37598193D01*
X18979749Y-37885083D01*
X19234199Y-38312873D01*
X19324699Y-38838853D01*
X19245299Y-39328113D01*
X19022439Y-39736263D01*
X18679189Y-40030843D01*
X18238599Y-40175993D01*
X18416199Y-40244293D01*
X18583560Y-40333993D01*
X18785069Y-40384393D01*
X18958399Y-40335693D01*
X19058299Y-40186263D01*
X19317869Y-40304103D01*
X19241869Y-40472303D01*
X19112079Y-40593553D01*
X18952409Y-40666153D01*
X18785049Y-40690053D01*
X18538280Y-40642253D01*
X18296639Y-40526123D01*
X18054139Y-40457823D01*
X17910699Y-40480023D01*
X17910729Y-40174293D01*
X17910729Y-40174293D01*
G37*
G36*
X12341419Y-5524085D02*
X13432539Y-3606987D01*
X14196599Y-4041848D01*
X13990629Y-4403731D01*
X13534689Y-4144234D01*
X12991139Y-5099252D01*
X13858489Y-5592906D01*
X14381949Y-4673193D01*
X14681159Y-4843489D01*
X14157699Y-5763202D01*
X15076699Y-6286252D01*
X15229419Y-6017929D01*
X15535749Y-6192279D01*
X15041429Y-7060799D01*
X14735099Y-6886449D01*
X14879779Y-6632248D01*
X12794219Y-5445248D01*
X12649539Y-5699449D01*
X12341419Y-5524085D01*
X12341419Y-5524085D01*
G37*
G36*
X11088539Y-7725394D02*
X12179659Y-5808296D01*
X12943719Y-6243157D01*
X12737749Y-6605040D01*
X12281809Y-6345543D01*
X11738259Y-7300561D01*
X12605609Y-7794216D01*
X13129069Y-6874503D01*
X13428279Y-7044798D01*
X12904819Y-7964511D01*
X13823819Y-8487561D01*
X13976539Y-8219238D01*
X14282869Y-8393588D01*
X13788549Y-9262108D01*
X13482219Y-9087758D01*
X13626899Y-8833557D01*
X11541339Y-7646557D01*
X11396659Y-7900758D01*
X11088539Y-7725394D01*
X11088539Y-7725394D01*
G37*
G36*
X12865399Y-11008374D02*
X12534149Y-10819836D01*
X12663399Y-10389748D01*
X12594499Y-9966062D01*
X12358930Y-9586591D01*
X11986479Y-9288133D01*
X11519229Y-9116854D01*
X11057509Y-9118154D01*
X10668269Y-9290417D01*
X10389849Y-9599380D01*
X10260099Y-10030350D01*
X10328499Y-10454919D01*
X10564959Y-10834897D01*
X10936529Y-11132848D01*
X11422079Y-11313381D01*
X11855239Y-11306381D01*
X12233389Y-11145330D01*
X12534159Y-10819877D01*
X12534149Y-10819836D01*
X12865399Y-11008374D01*
X12472860Y-11455711D01*
X11943229Y-11696482D01*
X11331559Y-11710602D01*
X10731539Y-11492967D01*
X10236739Y-11086316D01*
X9941309Y-10567601D01*
X9873209Y-9991290D01*
X10058559Y-9410839D01*
X10464479Y-8952420D01*
X10994779Y-8716701D01*
X11590619Y-8707601D01*
X12192419Y-8926249D01*
X12686329Y-9332394D01*
X12981769Y-9851109D01*
X13050769Y-10427926D01*
X12865419Y-11008378D01*
X12865399Y-11008374D01*
X12865399Y-11008374D01*
G37*
G36*
X10717239Y-13945819D02*
X10856899Y-13700445D01*
X8755310Y-12504322D01*
X8407679Y-13115110D01*
X8827996Y-13354335D01*
X8622030Y-13716218D01*
X7909627Y-13310753D01*
X8588814Y-12117420D01*
X9268001Y-10924088D01*
X9980399Y-11329554D01*
X9774439Y-11691437D01*
X9354120Y-11452213D01*
X8952234Y-12158326D01*
X11053819Y-13354449D01*
X11210559Y-13079065D01*
X11516889Y-13253415D01*
X11023579Y-14120169D01*
X10717239Y-13945819D01*
X10717239Y-13945819D01*
G37*
G36*
X6365381Y-16023994D02*
X6858696Y-15157239D01*
X7166810Y-15332603D01*
X7011079Y-15606222D01*
X8268470Y-16321869D01*
X8682693Y-16491016D01*
X9022092Y-16499516D01*
X9289591Y-16371309D01*
X9489119Y-16128459D01*
X9606899Y-15826230D01*
X9592999Y-15529659D01*
X9415135Y-15241454D01*
X9042152Y-14962563D01*
X7784761Y-14246916D01*
X7619987Y-14536423D01*
X7311873Y-14361059D01*
X7805188Y-13494304D01*
X8113302Y-13669668D01*
X7977666Y-13907982D01*
X9195875Y-14601328D01*
X9668429Y-14976624D01*
X9922699Y-15412312D01*
X9968199Y-15872938D01*
X9816369Y-16324061D01*
X9512439Y-16675767D01*
X9099836Y-16866286D01*
X8607701Y-16871286D01*
X8063419Y-16665508D01*
X6813152Y-15953917D01*
X6673497Y-16199291D01*
X6365381Y-16023994D01*
X6365381Y-16023994D01*
G37*
G36*
X6729148Y-17042013D02*
X6232011Y-17173905D01*
X5868583Y-17543159D01*
X5742853Y-17967069D01*
X5811783Y-18390755D01*
X6044953Y-18772367D01*
X6413734Y-19071070D01*
X6903856Y-19251865D01*
X7338015Y-19243065D01*
X7714774Y-19082391D01*
X8011138Y-18762609D01*
X8151187Y-18199611D01*
X7904207Y-17591618D01*
X8228860Y-17365062D01*
X8470592Y-17804132D01*
X8533562Y-18364652D01*
X8346201Y-18948633D01*
X7955668Y-19392440D01*
X7426539Y-19632328D01*
X6814871Y-19646448D01*
X6210787Y-19427669D01*
X5719551Y-19023045D01*
X5424116Y-18504330D01*
X5355996Y-17928019D01*
X5537329Y-17354629D01*
X5848810Y-16971000D01*
X6188533Y-16763539D01*
X6521656Y-16669179D01*
X6628155Y-16482059D01*
X6945174Y-16662491D01*
X6729148Y-17042013D01*
X6729148Y-17042013D01*
G37*
G36*
X33640930Y-73134903D02*
X33630930Y-73308733D01*
X33231141Y-75588413D01*
X32366208Y-77627627D01*
X31182464Y-79486396D01*
X29826240Y-81224743D01*
X28444345Y-82901353D01*
X27191118Y-84576011D01*
X26224202Y-86310387D01*
X25701240Y-88166153D01*
X25679740Y-88339983D01*
X26025440Y-88384883D01*
X26048840Y-88211053D01*
X26550466Y-86447008D01*
X27489592Y-84768997D01*
X28720059Y-83121096D01*
X30095710Y-81447383D01*
X31466900Y-79689901D01*
X32676427Y-77789266D01*
X33566787Y-75687417D01*
X33980480Y-73326293D01*
X33990480Y-73150513D01*
X33640930Y-73134903D01*
X33640930Y-73134903D01*
G37*
G36*
X20094059Y-76109513D02*
X19746399Y-76123213D01*
X19752399Y-76298993D01*
X19524147Y-77885824D01*
X18823542Y-79435542D01*
X17818809Y-81095873D01*
X16687033Y-83009478D01*
X15618063Y-85315072D01*
X14799279Y-88154463D01*
X14764079Y-88326343D01*
X15107829Y-88394743D01*
X15141029Y-88222863D01*
X15943365Y-85439600D01*
X16993878Y-83176322D01*
X18115639Y-81281453D01*
X19134152Y-79600595D01*
X19861797Y-77983614D01*
X20101969Y-76285363D01*
X20094059Y-76109513D01*
X20094059Y-76109513D01*
G37*
G36*
X28784599Y-125379853D02*
X28805700Y-124757233D01*
X28601599Y-125032263D01*
X28334810Y-125221103D01*
X28024670Y-125327493D01*
X27692590Y-125355193D01*
X27136880Y-125234903D01*
X26683900Y-124896643D01*
X26384180Y-124361593D01*
X26295980Y-123725023D01*
X26426740Y-123102013D01*
X26751350Y-122598333D01*
X27234040Y-122270183D01*
X27831190Y-122165303D01*
X28335260Y-122266413D01*
X28690880Y-122482463D01*
X28923809Y-122718963D01*
X29122470Y-122725963D01*
X29110170Y-123090533D01*
X28669830Y-123075633D01*
X28318760Y-122694673D01*
X27816290Y-122546453D01*
X27380750Y-122632253D01*
X27034700Y-122891203D01*
X26803340Y-123275013D01*
X26709740Y-123739343D01*
X26778640Y-124248133D01*
X26984980Y-124634443D01*
X27305560Y-124886213D01*
X27735510Y-124996103D01*
X28387140Y-124826423D01*
X28759600Y-124241313D01*
X27891210Y-124211913D01*
X27903110Y-123859643D01*
X29215940Y-123904043D01*
X29165540Y-125393013D01*
X28784599Y-125379853D01*
X28784599Y-125379853D01*
G37*
G36*
X25196370Y-124893523D02*
X24154790Y-124165253D01*
X25113290Y-124197653D01*
X24676910Y-122792693D01*
X24154790Y-124165253D01*
X25196370Y-124893523D01*
X25454430Y-124902523D01*
X25232490Y-124189663D01*
X24038450Y-124149263D01*
X23774990Y-124845703D01*
X24094490Y-124856503D01*
X24082590Y-125208783D01*
X23074930Y-125174683D01*
X23086830Y-124822413D01*
X24476460Y-120413553D01*
X24501360Y-120312903D01*
X24561560Y-120230903D01*
X24647460Y-120176403D01*
X24749570Y-120158303D01*
X24847170Y-120183103D01*
X24927170Y-120243203D01*
X24979670Y-120329003D01*
X24996670Y-120431073D01*
X24972670Y-120534833D01*
X24914470Y-120620033D01*
X24830570Y-120676633D01*
X24731570Y-120694833D01*
X24630920Y-120669933D01*
X24548920Y-120607733D01*
X24494520Y-120518733D01*
X24476520Y-120413553D01*
X24476460Y-120413553D01*
X23086830Y-124822413D01*
X23357180Y-124831413D01*
X23887075Y-123471438D01*
X24416970Y-122111463D01*
X25441490Y-120344703D01*
X25501690Y-120262703D01*
X25587590Y-120208203D01*
X25689700Y-120190103D01*
X25786300Y-120214903D01*
X25866300Y-120275003D01*
X25919800Y-120360903D01*
X25936800Y-120462973D01*
X25912800Y-120566733D01*
X25853500Y-120651833D01*
X25769600Y-120708433D01*
X25671600Y-120726633D01*
X25570940Y-120701733D01*
X25488940Y-120639533D01*
X25434540Y-120550533D01*
X25416540Y-120445353D01*
X25416590Y-120445353D01*
X25441490Y-120344703D01*
X24416970Y-122111463D01*
X25021160Y-122131863D01*
X25456940Y-123524502D01*
X25892720Y-124917133D01*
X26204030Y-124927633D01*
X26192130Y-125279903D01*
X25184470Y-125245803D01*
X25196370Y-124893523D01*
X25196370Y-124893523D01*
G37*
G36*
X20453899Y-121977343D02*
X21126320Y-122709423D01*
X21093320Y-123686363D01*
X21689310Y-123706563D01*
X21904380Y-123683063D01*
X22075440Y-123596563D01*
X22191200Y-123447723D01*
X22238300Y-123237093D01*
X22111220Y-122871923D01*
X21673200Y-122727933D01*
X21126320Y-122709423D01*
X20453899Y-121977343D01*
X21746250Y-122021043D01*
X22126390Y-122088243D01*
X22424100Y-122258243D01*
X22614890Y-122528173D01*
X22674290Y-122893113D01*
X22624490Y-123122103D01*
X22500610Y-123329113D01*
X22317600Y-123496183D01*
X22090410Y-123605373D01*
X22191660Y-123673373D01*
X22286460Y-123779103D01*
X22365760Y-123919163D01*
X22420660Y-124086073D01*
X22569840Y-124767763D01*
X22838140Y-124776763D01*
X22829140Y-125166043D01*
X22224950Y-125145643D01*
X22025450Y-124193643D01*
X21844550Y-123813323D01*
X21493250Y-123681493D01*
X21093880Y-123667993D01*
X21057180Y-124753483D01*
X21368500Y-124763983D01*
X21356600Y-125116253D01*
X20348939Y-125082153D01*
X20360839Y-124729873D01*
X20655770Y-124739873D01*
X20736870Y-122341553D01*
X20441939Y-122331553D01*
X20453899Y-121977343D01*
X20453899Y-121977343D01*
G37*
G36*
X18860479Y-121923453D02*
X19868149Y-121957553D01*
X19856249Y-122309823D01*
X19561320Y-122299823D01*
X19480119Y-124700193D01*
X19775049Y-124710193D01*
X19763149Y-125062473D01*
X18755479Y-125028373D01*
X18767379Y-124676103D01*
X19078689Y-124686603D01*
X19116489Y-123570383D01*
X17320309Y-123509683D01*
X17282609Y-124625893D01*
X17593919Y-124636393D01*
X17582019Y-124988663D01*
X16574360Y-124954563D01*
X16586259Y-124602283D01*
X16881189Y-124612283D01*
X16962389Y-122211913D01*
X16667469Y-122201913D01*
X16679369Y-121849643D01*
X17687029Y-121883743D01*
X17675129Y-122236013D01*
X17363819Y-122225513D01*
X17332019Y-123165593D01*
X19128199Y-123226293D01*
X19159999Y-122286213D01*
X18848689Y-122275713D01*
X18860479Y-121923453D01*
X18860479Y-121923453D01*
G37*
G36*
X15777019Y-122639343D02*
X15425879Y-122260443D01*
X14925519Y-122110243D01*
X14487929Y-122195943D01*
X14141909Y-122453873D01*
X13910559Y-122837683D01*
X13816959Y-123303043D01*
X13885559Y-123821053D01*
X14097219Y-124201393D01*
X14417559Y-124460323D01*
X14842249Y-124574133D01*
X15410769Y-124436503D01*
X15837809Y-123935263D01*
X16192529Y-124117443D01*
X15913879Y-124535533D01*
X15442859Y-124851773D01*
X14833389Y-124957263D01*
X14253739Y-124817713D01*
X13791129Y-124460673D01*
X13491409Y-123925623D01*
X13403209Y-123289053D01*
X13533979Y-122666043D01*
X13858539Y-122163383D01*
X14341239Y-121835233D01*
X14938429Y-121729323D01*
X15427239Y-121826823D01*
X15771969Y-122031223D01*
X16012609Y-122282333D01*
X16229709Y-122289333D01*
X16217409Y-122653893D01*
X15777019Y-122639343D01*
X15777019Y-122639343D01*
G37*
G36*
X12685609Y-122559403D02*
X12629209Y-122286833D01*
X12489499Y-122143713D01*
X12318919Y-122064113D01*
X12131369Y-122032113D01*
X11857759Y-122058713D01*
X11660919Y-122149413D01*
X11540349Y-122288863D01*
X11495649Y-122459583D01*
X11536449Y-122679343D01*
X11653809Y-122816583D01*
X11813959Y-122900983D01*
X11983039Y-122964083D01*
X12392179Y-123113253D01*
X12716329Y-123259543D01*
X12948869Y-123446823D01*
X13087239Y-123690373D01*
X13126839Y-124005433D01*
X13035939Y-124359133D01*
X12806139Y-124636373D01*
X12462820Y-124814433D01*
X12031429Y-124868533D01*
X11623639Y-124800433D01*
X11342849Y-124645353D01*
X11164529Y-124431203D01*
X11064079Y-124187903D01*
X10908429Y-124182903D01*
X10920329Y-123830633D01*
X11436449Y-123848033D01*
X11473749Y-124171213D01*
X11602599Y-124332423D01*
X11804219Y-124433563D01*
X12065299Y-124474163D01*
X12317299Y-124449863D01*
X12511000Y-124361063D01*
X12636959Y-124213583D01*
X12685759Y-124013273D01*
X12640659Y-123799523D01*
X12511529Y-123646503D01*
X12335719Y-123540083D01*
X12150599Y-123466183D01*
X11706369Y-123324043D01*
X11440919Y-123200233D01*
X11237759Y-123023173D01*
X11111539Y-122784133D01*
X11074939Y-122472253D01*
X11155839Y-122140763D01*
X11369859Y-121875303D01*
X11706829Y-121703183D01*
X12156589Y-121651783D01*
X12461460Y-121701083D01*
X12711719Y-121819243D01*
X12906679Y-121996023D01*
X13045749Y-122219093D01*
X13199349Y-122224093D01*
X13187449Y-122576363D01*
X12685609Y-122559403D01*
X12685609Y-122559403D01*
G37*
G36*
X16778109Y-45011820D02*
X16778109Y-47416290D01*
X16778109Y-47591160D01*
X17127849Y-47591160D01*
X17127849Y-47416290D01*
X17127849Y-45856110D01*
X18935309Y-47663570D01*
X19961309Y-46637570D01*
X22084350Y-47699090D01*
X22084350Y-45856110D01*
X22777680Y-46548770D01*
X22901320Y-46672410D01*
X23148600Y-46425130D01*
X23024960Y-46301490D01*
X21734610Y-45011820D01*
X21734610Y-47133490D01*
X19892309Y-46212000D01*
X18935309Y-47169010D01*
X16778109Y-45011820D01*
X16778109Y-45011820D01*
G37*
G36*
X35536320Y-38012420D02*
X35536320Y-40986590D01*
X33903740Y-40986590D01*
X33903740Y-39004260D01*
X32737020Y-39004260D01*
X31570990Y-39004260D01*
X31570990Y-39995420D01*
X30754010Y-39995420D01*
X30579140Y-39995420D01*
X30579140Y-40345170D01*
X30754010Y-40345170D01*
X31920730Y-40345170D01*
X31920730Y-39354000D01*
X32737020Y-39354000D01*
X33554000Y-39354000D01*
X33554000Y-41336330D01*
X35886070Y-41336330D01*
X35886070Y-38362160D01*
X36528170Y-38362160D01*
X36528170Y-41161460D01*
X36528170Y-41336330D01*
X36877910Y-41336330D01*
X36877910Y-41161460D01*
X36877910Y-38012420D01*
X35536320Y-38012420D01*
X35536320Y-38012420D01*
G37*
G36*
X6601890Y-51216123D02*
X6798278Y-51117923D01*
X7028821Y-51084623D01*
X7380612Y-51152923D01*
X7656409Y-51337353D01*
X7835720Y-51608023D01*
X7899760Y-51935053D01*
X7836570Y-52265503D01*
X7657259Y-52539593D01*
X7378046Y-52726593D01*
X7015155Y-52795793D01*
X6731673Y-52755693D01*
X6494299Y-52642993D01*
X6310719Y-52469653D01*
X6186909Y-52249353D01*
X6466976Y-52109323D01*
X6547236Y-52270703D01*
X6671900Y-52398783D01*
X6830718Y-52482483D01*
X7015152Y-52512383D01*
X7243133Y-52467083D01*
X7425859Y-52343273D01*
X7547962Y-52159693D01*
X7592362Y-51935123D01*
X7547962Y-51710553D01*
X7425006Y-51531253D01*
X7241426Y-51411703D01*
X7015152Y-51368203D01*
X6763263Y-51416903D01*
X6571144Y-51547543D01*
X6320108Y-51508243D01*
X6320108Y-50154023D01*
X7778505Y-50154023D01*
X7778505Y-50437503D01*
X6601883Y-50437503D01*
X6601890Y-51216123D01*
X6601890Y-51216123D01*
G37*
G36*
X3965164Y-51588403D02*
X3328183Y-50823343D01*
X3575803Y-50613293D01*
X4178630Y-51333953D01*
X4760964Y-50637203D01*
X5034200Y-50833593D01*
X4397218Y-51596943D01*
X5041030Y-52365413D01*
X4783164Y-52568633D01*
X4185461Y-51851393D01*
X3579219Y-52578883D01*
X3295737Y-52389323D01*
X3965164Y-51588403D01*
X3965164Y-51588403D01*
G37*
G36*
X9963515Y-82995426D02*
X10212843Y-82995426D01*
X10212843Y-82187666D01*
X10109525Y-81879426D01*
X9813235Y-81774396D01*
X9589524Y-81827396D01*
X9376058Y-81958886D01*
X9376058Y-82995476D01*
X9625386Y-82995476D01*
X9625386Y-83289196D01*
X8798848Y-83289196D01*
X8798848Y-82995476D01*
X9044760Y-82995476D01*
X9044760Y-81813726D01*
X8798848Y-81813726D01*
X8798848Y-81519996D01*
X9362396Y-81519996D01*
X9362396Y-81728336D01*
X9365796Y-81728336D01*
X9486191Y-81634436D01*
X9620247Y-81557536D01*
X9766257Y-81506336D01*
X9925929Y-81487536D01*
X10182088Y-81526836D01*
X10376765Y-81646376D01*
X10500575Y-81852156D01*
X10544075Y-82148446D01*
X10544075Y-82995476D01*
X10789985Y-82995476D01*
X10789985Y-83289206D01*
X9963449Y-83289206D01*
X9963515Y-82995426D01*
X9963515Y-82995426D01*
G37*
G36*
X7663211Y-81519946D02*
X7859599Y-81186946D01*
X7877529Y-81102446D01*
X7925349Y-81032446D01*
X7996219Y-80984646D01*
X8083309Y-80966746D01*
X8167839Y-80984646D01*
X8237859Y-81032446D01*
X8285679Y-81102446D01*
X8303609Y-81186946D01*
X8285679Y-81274046D01*
X8237859Y-81346646D01*
X8167839Y-81396146D01*
X8083309Y-81414046D01*
X7996219Y-81396146D01*
X7925349Y-81346646D01*
X7877529Y-81274046D01*
X7859599Y-81186946D01*
X7663211Y-81519946D01*
X8240422Y-81519946D01*
X8240422Y-82995426D01*
X8506827Y-82995426D01*
X8506827Y-83289146D01*
X7666627Y-83289146D01*
X7666627Y-82995426D01*
X7919370Y-82995426D01*
X7919370Y-81813676D01*
X7663211Y-81813676D01*
X7663211Y-81519946D01*
X7663211Y-81519946D01*
G37*
G36*
X6804226Y-83125206D02*
X6500240Y-83221036D01*
X6619781Y-83179236D01*
X6723952Y-83117736D01*
X6804212Y-83045136D01*
X6805912Y-82645526D01*
X6437044Y-82645526D01*
X6268833Y-82666026D01*
X6137338Y-82725826D01*
X6051098Y-82823126D01*
X6020358Y-82956326D01*
X6045978Y-83078426D01*
X6118558Y-83165526D01*
X6230415Y-83218426D01*
X6373863Y-83236326D01*
X6373869Y-83236436D01*
X6500240Y-83221036D01*
X6804226Y-83125206D01*
X6581368Y-83278906D01*
X6303863Y-83338706D01*
X6065635Y-83297706D01*
X5878640Y-83185856D01*
X5756537Y-83021056D01*
X5712987Y-82821256D01*
X5746287Y-82621446D01*
X5835087Y-82470316D01*
X5964873Y-82362736D01*
X6120276Y-82292736D01*
X6285926Y-82255136D01*
X6447306Y-82244036D01*
X6653940Y-82252036D01*
X6805927Y-82273336D01*
X6807627Y-82128176D01*
X6780297Y-81965096D01*
X6703447Y-81850676D01*
X6584760Y-81783176D01*
X6430212Y-81760976D01*
X6276516Y-81772076D01*
X6139044Y-81801076D01*
X6021212Y-81842076D01*
X5929852Y-81890776D01*
X5825680Y-81670476D01*
X5964006Y-81594476D01*
X6121970Y-81534676D01*
X6291035Y-81495376D01*
X6460953Y-81480876D01*
X6737605Y-81517576D01*
X6945947Y-81631136D01*
X7077442Y-81826666D01*
X7123552Y-82111006D01*
X7121852Y-82995606D01*
X7318240Y-82995606D01*
X7318240Y-83289336D01*
X6804215Y-83289336D01*
X6804226Y-83125206D01*
X6804226Y-83125206D01*
G37*
G36*
X4971838Y-83299396D02*
X4971838Y-82780256D01*
X4809605Y-83015056D01*
X4592724Y-83179856D01*
X4337419Y-83277156D01*
X4061622Y-83309656D01*
X3595413Y-83225156D01*
X3208614Y-82956196D01*
X2943916Y-82519016D01*
X2852556Y-81991326D01*
X2943916Y-81468766D01*
X3200075Y-81040126D01*
X3592851Y-80753226D01*
X4087237Y-80649056D01*
X4509899Y-80719056D01*
X4812166Y-80888976D01*
X5012824Y-81079386D01*
X5178473Y-81079386D01*
X5178473Y-81383356D01*
X4811312Y-81383356D01*
X4508191Y-81075966D01*
X4085530Y-80966676D01*
X3725200Y-81050376D01*
X3444279Y-81275796D01*
X3262407Y-81601966D01*
X3197517Y-81991326D01*
X3269247Y-82413136D01*
X3451973Y-82729066D01*
X3726063Y-82929726D01*
X4087246Y-83009126D01*
X4625180Y-82849456D01*
X4918908Y-82351656D01*
X4194833Y-82351656D01*
X4194833Y-82057926D01*
X5289484Y-82057926D01*
X5289484Y-83299446D01*
X4971838Y-83299396D01*
X4971838Y-83299396D01*
G37*
G36*
X14936539Y-101640723D02*
X14752949Y-101555403D01*
X15109009Y-101639103D01*
X15109009Y-101639093D01*
X15477029Y-101555393D01*
X15757949Y-101330823D01*
X15937259Y-101003793D01*
X16000459Y-100611013D01*
X15931259Y-100203723D01*
X15737439Y-99869863D01*
X15453949Y-99657253D01*
X15108989Y-99582953D01*
X14740129Y-99666653D01*
X14458349Y-99891223D01*
X14279039Y-100219103D01*
X14215839Y-100611023D01*
X14285039Y-101032833D01*
X14468619Y-101346203D01*
X14752949Y-101555403D01*
X14936539Y-101640723D01*
X14500219Y-101492153D01*
X14162089Y-101197573D01*
X13944359Y-100790283D01*
X13867459Y-100305283D01*
X13958859Y-99779313D01*
X14215019Y-99351523D01*
X14607799Y-99064623D01*
X15109009Y-98959603D01*
X15612789Y-99064623D01*
X16005569Y-99351523D01*
X16260019Y-99779313D01*
X16350519Y-100305283D01*
X16271119Y-100794553D01*
X16048259Y-101202693D01*
X15705009Y-101497283D01*
X15264419Y-101642433D01*
X15442019Y-101710733D01*
X15609379Y-101800433D01*
X15810889Y-101850833D01*
X15984219Y-101802133D01*
X16084119Y-101652703D01*
X16343699Y-101770533D01*
X16267699Y-101938743D01*
X16137919Y-102059993D01*
X15978239Y-102132593D01*
X15810889Y-102156493D01*
X15564119Y-102108693D01*
X15322479Y-101992573D01*
X15079979Y-101924273D01*
X14936529Y-101946473D01*
X14936539Y-101640723D01*
X14936539Y-101640723D01*
G37*
G36*
X24278840Y-101306013D02*
X24524750Y-101306013D01*
X24524750Y-99337013D01*
X24278840Y-99337013D01*
X24278840Y-99010833D01*
X25098540Y-99010833D01*
X25919960Y-101246243D01*
X26751620Y-99010833D01*
X27528630Y-99010833D01*
X27528630Y-99337013D01*
X27284430Y-99337013D01*
X27284430Y-101306013D01*
X27528630Y-101306013D01*
X27528630Y-101599743D01*
X26688430Y-101599743D01*
X26688430Y-101306013D01*
X26965080Y-101306013D01*
X26965080Y-99318223D01*
X26059990Y-101599743D01*
X25769680Y-101599743D01*
X24852630Y-99313103D01*
X24852630Y-101306013D01*
X25119040Y-101306013D01*
X25119040Y-101599743D01*
X24278840Y-101599743D01*
X24278840Y-101306013D01*
X24278840Y-101306013D01*
G37*
G36*
X22149300Y-99010833D02*
X24003889Y-99010833D01*
X24003889Y-99743453D01*
X23653810Y-99743453D01*
X23653810Y-99306273D01*
X22729930Y-99306273D01*
X22729930Y-100137933D01*
X23619650Y-100137933D01*
X23619650Y-100424833D01*
X22729930Y-100424833D01*
X22729930Y-101306013D01*
X22989500Y-101306013D01*
X22989500Y-101599743D01*
X22149300Y-101599743D01*
X22149300Y-101306013D01*
X22395220Y-101306013D01*
X22395220Y-99306273D01*
X22149300Y-99306273D01*
X22149300Y-99010833D01*
X22149300Y-99010833D01*
G37*
G36*
X38697990Y-99830543D02*
X39112960Y-99830543D01*
X39112960Y-100088413D01*
X38694570Y-100088413D01*
X38689570Y-101109623D01*
X38713470Y-101278693D01*
X38790370Y-101368293D01*
X38909910Y-101393093D01*
X39036280Y-101380293D01*
X39155820Y-101336793D01*
X39229220Y-101550253D01*
X39056730Y-101617753D01*
X38843270Y-101642553D01*
X38640900Y-101614353D01*
X38495750Y-101519553D01*
X38407750Y-101341103D01*
X38378750Y-101061883D01*
X38383750Y-100088483D01*
X38101980Y-100088483D01*
X38101980Y-99830613D01*
X38387170Y-99830613D01*
X38387170Y-99407103D01*
X38697970Y-99260233D01*
X38697990Y-99830543D01*
X38697990Y-99830543D01*
G37*
G36*
X37557230Y-100301873D02*
X37375360Y-100114023D01*
X37120049Y-100054223D01*
X36911710Y-100100323D01*
X36741790Y-100231813D01*
X36627369Y-100439303D01*
X36585570Y-100711683D01*
X36627369Y-100979793D01*
X36742640Y-101183873D01*
X36912559Y-101313653D01*
X37120049Y-101358953D01*
X37405240Y-101279553D01*
X37598210Y-101046453D01*
X37861200Y-101176243D01*
X37734830Y-101372623D01*
X37564910Y-101521203D01*
X37356570Y-101616003D01*
X37116630Y-101649303D01*
X36775939Y-101580103D01*
X36506120Y-101386283D01*
X36329370Y-101089133D01*
X36266170Y-100711733D01*
X36332770Y-100334323D01*
X36515500Y-100038033D01*
X36787020Y-99844203D01*
X37120030Y-99774203D01*
X37436810Y-99832303D01*
X37698950Y-100008193D01*
X37878260Y-100008193D01*
X37878260Y-100301923D01*
X37557230Y-100301873D01*
X37557230Y-100301873D01*
G37*
G36*
X34174230Y-100715143D02*
X34510700Y-100715193D01*
X34554200Y-100990133D01*
X34673740Y-101199333D01*
X34849630Y-101332533D01*
X35062240Y-101379533D01*
X35281690Y-101333433D01*
X35458440Y-101201083D01*
X35576270Y-100991883D01*
X35618970Y-100715233D01*
X35576270Y-100430043D01*
X35459290Y-100221703D01*
X35282540Y-100095333D01*
X35062240Y-100052633D01*
X34849630Y-100095333D01*
X34673740Y-100221703D01*
X34554200Y-100430043D01*
X34510700Y-100715233D01*
X34510700Y-100715193D01*
X34174230Y-100715143D01*
X34241730Y-100332613D01*
X34425310Y-100036323D01*
X34705380Y-99845913D01*
X35062290Y-99779313D01*
X35421770Y-99845913D01*
X35700980Y-100034613D01*
X35882000Y-100329193D01*
X35946900Y-100711723D01*
X35882000Y-101091693D01*
X35700980Y-101389693D01*
X35421770Y-101583523D01*
X35062290Y-101652723D01*
X34700260Y-101584423D01*
X34421900Y-101392303D01*
X34240880Y-101096013D01*
X34174280Y-100715193D01*
X34174230Y-100715143D01*
X34174230Y-100715143D01*
G37*
G36*
X33941980Y-98920323D02*
X34239120Y-98920323D01*
X33726805Y-100284798D01*
X33214490Y-101649273D01*
X32917340Y-101649273D01*
X33941980Y-98920323D01*
X33941980Y-98920323D01*
G37*
G36*
X32328180Y-99010833D02*
X33168380Y-99010833D01*
X33168380Y-99306273D01*
X32944670Y-99306273D01*
X32106170Y-101599743D01*
X31636550Y-101599743D01*
X30810010Y-99306273D01*
X30581180Y-99306273D01*
X30581180Y-99010833D01*
X31421380Y-99010833D01*
X31421380Y-99306273D01*
X31195960Y-99306273D01*
X31860260Y-101302603D01*
X32572380Y-99306273D01*
X32328180Y-99306273D01*
X32328180Y-99010833D01*
X32328180Y-99010833D01*
G37*
G36*
X33968340Y-116744456D02*
X34548920Y-117335326D01*
X34548920Y-118149906D01*
X35015130Y-118149906D01*
X35193580Y-118123406D01*
X35333620Y-118045706D01*
X35425820Y-117917626D01*
X35459120Y-117740016D01*
X35342990Y-117442026D01*
X34972420Y-117335286D01*
X34548920Y-117335326D01*
X33968340Y-116744456D01*
X35015180Y-116744456D01*
X35335370Y-116789756D01*
X35588120Y-116922956D01*
X35753770Y-117142396D01*
X35812670Y-117444666D01*
X35754570Y-117711926D01*
X35590630Y-117931366D01*
X35337030Y-118079936D01*
X35008300Y-118134536D01*
X34548920Y-118134536D01*
X34548920Y-119039626D01*
X34808490Y-119039626D01*
X34808490Y-119333356D01*
X33968290Y-119333356D01*
X33968290Y-119039626D01*
X34214200Y-119039626D01*
X34214200Y-117039886D01*
X33968290Y-117039886D01*
X33968340Y-116744456D01*
X33968340Y-116744456D01*
G37*
G36*
X32639730Y-116744456D02*
X33479930Y-116744456D01*
X33479930Y-117038186D01*
X33234020Y-117038186D01*
X33234020Y-119039636D01*
X33479930Y-119039636D01*
X33479930Y-119333366D01*
X32639730Y-119333366D01*
X32639730Y-119039636D01*
X32899310Y-119039636D01*
X32899310Y-118108926D01*
X31401630Y-118108926D01*
X31401630Y-119039636D01*
X31661210Y-119039636D01*
X31661210Y-119333366D01*
X30821010Y-119333366D01*
X30821010Y-119039636D01*
X31066920Y-119039636D01*
X31066920Y-117038186D01*
X30821010Y-117038186D01*
X30821010Y-116744456D01*
X31661210Y-116744456D01*
X31661210Y-117038186D01*
X31401630Y-117038186D01*
X31401630Y-117822026D01*
X32899310Y-117822026D01*
X32899310Y-117038186D01*
X32639730Y-117038186D01*
X32639730Y-116744456D01*
X32639730Y-116744456D01*
G37*
G36*
X20471120Y-116490456D02*
X21051700Y-117081326D01*
X21051700Y-117895906D01*
X21517900Y-117895906D01*
X21696360Y-117869406D01*
X21836399Y-117791706D01*
X21928600Y-117663626D01*
X21961900Y-117486016D01*
X21845780Y-117188026D01*
X21475200Y-117081286D01*
X21051700Y-117081326D01*
X20471120Y-116490456D01*
X21517950Y-116490456D01*
X21838150Y-116535756D01*
X22090900Y-116668956D01*
X22256550Y-116888396D01*
X22315450Y-117190666D01*
X22257350Y-117457926D01*
X22093410Y-117677366D01*
X21839810Y-117825936D01*
X21511070Y-117880536D01*
X21051700Y-117880536D01*
X21051700Y-118785626D01*
X21311270Y-118785626D01*
X21311270Y-119079356D01*
X20471070Y-119079356D01*
X20471070Y-118785626D01*
X20716980Y-118785626D01*
X20716980Y-116785886D01*
X20471070Y-116785886D01*
X20471120Y-116490456D01*
X20471120Y-116490456D01*
G37*
G36*
X18162279Y-118785636D02*
X18408189Y-118785636D01*
X18742959Y-118221696D01*
X18742959Y-119078966D01*
X19345789Y-119078966D01*
X19497779Y-119037966D01*
X19620729Y-118931226D01*
X19703529Y-118781806D01*
X19733429Y-118611036D01*
X19702729Y-118465876D01*
X19619929Y-118341206D01*
X19496969Y-118254106D01*
X19345839Y-118221606D01*
X18742959Y-118221696D01*
X18408189Y-118785636D01*
X19345839Y-117079136D01*
X19345839Y-117924456D01*
X19933300Y-117924456D01*
X20086140Y-117891956D01*
X20209100Y-117804856D01*
X20291900Y-117678486D01*
X20322600Y-117529916D01*
X20291900Y-117365126D01*
X20208200Y-117220816D01*
X20084390Y-117118356D01*
X19933260Y-117079056D01*
X19345839Y-117079136D01*
X18408189Y-118785636D01*
X18408189Y-116785896D01*
X18162279Y-116785896D01*
X18162279Y-116487046D01*
X19326949Y-116490046D01*
X19622379Y-116548946D01*
X19863170Y-116709466D01*
X20024550Y-116949406D01*
X20083450Y-117246546D01*
X19991250Y-117548816D01*
X19728259Y-117767406D01*
X19880250Y-117870726D01*
X19996370Y-117999656D01*
X20070670Y-118148226D01*
X20097170Y-118308756D01*
X20038270Y-118611016D01*
X19876890Y-118855226D01*
X19636959Y-119019166D01*
X19342369Y-119078966D01*
X18162339Y-119078966D01*
X18162279Y-118785636D01*
X18162279Y-118785636D01*
G37*
G36*
X7028574Y-116490456D02*
X7609206Y-117081326D01*
X7609206Y-117895906D01*
X8075415Y-117895906D01*
X8253872Y-117869406D01*
X8393905Y-117791706D01*
X8486125Y-117663626D01*
X8519425Y-117486016D01*
X8403300Y-117188026D01*
X8032724Y-117081286D01*
X7609206Y-117081326D01*
X7028574Y-116490456D01*
X8075409Y-116490456D01*
X8395607Y-116535756D01*
X8648350Y-116668956D01*
X8813999Y-116888396D01*
X8872919Y-117190666D01*
X8814859Y-117457926D01*
X8650917Y-117677366D01*
X8397321Y-117825936D01*
X8068584Y-117880536D01*
X7609206Y-117880536D01*
X7609206Y-118785626D01*
X7868780Y-118785626D01*
X7868780Y-119079356D01*
X7028580Y-119079356D01*
X7028580Y-118785626D01*
X7274492Y-118785626D01*
X7274492Y-116785886D01*
X7028580Y-116785886D01*
X7028574Y-116490456D01*
X7028574Y-116490456D01*
G37*
G36*
X4815364Y-116490456D02*
X5655564Y-116490456D01*
X5655564Y-116785896D01*
X5395990Y-116785896D01*
X5395990Y-118785636D01*
X6289130Y-118785636D01*
X6343780Y-118772836D01*
X6393300Y-118739536D01*
X6429160Y-118692536D01*
X6442820Y-118638736D01*
X6442820Y-118312566D01*
X6767287Y-118312566D01*
X6767287Y-119079326D01*
X4815359Y-119079326D01*
X4815359Y-118785606D01*
X5061271Y-118785606D01*
X5061271Y-116785856D01*
X4815359Y-116785856D01*
X4815364Y-116490456D01*
X4815364Y-116490456D01*
G37*
G36*
X6278926Y-101306013D02*
X6528254Y-101306013D01*
X6528254Y-100498263D01*
X6424936Y-100190013D01*
X6128646Y-100084993D01*
X5904935Y-100137893D01*
X5691469Y-100269383D01*
X5691469Y-101305973D01*
X5940797Y-101305973D01*
X5940797Y-101599703D01*
X5114260Y-101599703D01*
X5114260Y-101305973D01*
X5360172Y-101305973D01*
X5360172Y-100124233D01*
X5114260Y-100124233D01*
X5114260Y-99830503D01*
X5677807Y-99830503D01*
X5677807Y-100038843D01*
X5681207Y-100038843D01*
X5801602Y-99944943D01*
X5935658Y-99868043D01*
X6081668Y-99816843D01*
X6241341Y-99798043D01*
X6497499Y-99837343D01*
X6692179Y-99956883D01*
X6815989Y-100162663D01*
X6859539Y-100458963D01*
X6859539Y-101305983D01*
X7105452Y-101305983D01*
X7105452Y-101599723D01*
X6278913Y-101599723D01*
X6278926Y-101306013D01*
X6278926Y-101306013D01*
G37*
G36*
X3845420Y-99010833D02*
X4671958Y-99010833D01*
X4671958Y-99306273D01*
X4426046Y-99306273D01*
X4426046Y-101306013D01*
X4671958Y-101306013D01*
X4671958Y-101599743D01*
X3845420Y-101599743D01*
X3845420Y-101306013D01*
X4091332Y-101306013D01*
X4091332Y-99306273D01*
X3845420Y-99306273D01*
X3845420Y-99010833D01*
X3845420Y-99010833D01*
G37*
D11*
G04 #@! TO.C,AUDIO_IN1*
X48200000Y-93000000D02*
X51800000Y-93000000D01*
X50000000Y-91200000D02*
X50000000Y-94800000D01*
X51800000Y-93000000D02*
G75*
G03X51800000Y-93000000I-1800000J0D01*
G01*
X54500000Y-86800000D02*
X54500000Y-97700000D01*
X45500000Y-86800000D02*
X45500000Y-97700000D01*
X45500000Y-97700000D02*
X54500000Y-97700000D01*
X45500000Y-86800000D02*
X54500000Y-86800000D01*
G04 #@! TO.C,BP_OUT1*
X60500000Y-103800000D02*
X69500000Y-103800000D01*
X60500000Y-114700000D02*
X69500000Y-114700000D01*
X60500000Y-103800000D02*
X60500000Y-114700000D01*
X69500000Y-103800000D02*
X69500000Y-114700000D01*
X66800000Y-110000000D02*
G75*
G03X66800000Y-110000000I-1800000J0D01*
G01*
X65000000Y-108200000D02*
X65000000Y-111800000D01*
X63200000Y-110000000D02*
X66800000Y-110000000D01*
G04 #@! TO.C,FM_IN1*
X65500000Y-86800000D02*
X74500000Y-86800000D01*
X65500000Y-97700000D02*
X74500000Y-97700000D01*
X65500000Y-86800000D02*
X65500000Y-97700000D01*
X74500000Y-86800000D02*
X74500000Y-97700000D01*
X71800000Y-93000000D02*
G75*
G03X71800000Y-93000000I-1800000J0D01*
G01*
X70000000Y-91200000D02*
X70000000Y-94800000D01*
X68200000Y-93000000D02*
X71800000Y-93000000D01*
G04 #@! TO.C,HP_OUT1*
X76200000Y-110000000D02*
X79800000Y-110000000D01*
X78000000Y-108200000D02*
X78000000Y-111800000D01*
X79800000Y-110000000D02*
G75*
G03X79800000Y-110000000I-1800000J0D01*
G01*
X82500000Y-103800000D02*
X82500000Y-114700000D01*
X73500000Y-103800000D02*
X73500000Y-114700000D01*
X73500000Y-114700000D02*
X82500000Y-114700000D01*
X73500000Y-103800000D02*
X82500000Y-103800000D01*
G04 #@! TO.C,LP_OUT1*
X49200000Y-110000000D02*
X52800000Y-110000000D01*
X51000000Y-108200000D02*
X51000000Y-111800000D01*
X52800000Y-110000000D02*
G75*
G03X52800000Y-110000000I-1800000J0D01*
G01*
X55500000Y-103800000D02*
X55500000Y-114700000D01*
X46500000Y-103800000D02*
X46500000Y-114700000D01*
X46500000Y-114700000D02*
X55500000Y-114700000D01*
X46500000Y-103800000D02*
X55500000Y-103800000D01*
G04 #@! TO.C,RES_CV1*
X55500000Y-86800000D02*
X64500000Y-86800000D01*
X55500000Y-97700000D02*
X64500000Y-97700000D01*
X55500000Y-86800000D02*
X55500000Y-97700000D01*
X64500000Y-86800000D02*
X64500000Y-97700000D01*
X61800000Y-93000000D02*
G75*
G03X61800000Y-93000000I-1800000J0D01*
G01*
X60000000Y-91200000D02*
X60000000Y-94800000D01*
X58200000Y-93000000D02*
X61800000Y-93000000D01*
D13*
G04 #@! TO.C,SW_DRIVE1*
X49170000Y-54130000D02*
X50500000Y-54130000D01*
X49170000Y-55460000D02*
X49170000Y-54130000D01*
X49170000Y-56730000D02*
X51830000Y-56730000D01*
X51830000Y-56730000D02*
X51830000Y-61870000D01*
X49170000Y-56730000D02*
X49170000Y-61870000D01*
X49170000Y-61870000D02*
X51830000Y-61870000D01*
G04 #@! TO.C,SW_RES_DIST1*
X77170000Y-50870000D02*
X79830000Y-50870000D01*
X77170000Y-45730000D02*
X77170000Y-50870000D01*
X79830000Y-45730000D02*
X79830000Y-50870000D01*
X77170000Y-45730000D02*
X79830000Y-45730000D01*
X77170000Y-44460000D02*
X77170000Y-43130000D01*
X77170000Y-43130000D02*
X78500000Y-43130000D01*
G04 #@! TO.C,SW_WOBBLE1*
X63170000Y-56870000D02*
X65830000Y-56870000D01*
X63170000Y-51730000D02*
X63170000Y-56870000D01*
X65830000Y-51730000D02*
X65830000Y-56870000D01*
X63170000Y-51730000D02*
X65830000Y-51730000D01*
X63170000Y-50460000D02*
X63170000Y-49130000D01*
X63170000Y-49130000D02*
X64500000Y-49130000D01*
D11*
G04 #@! TO.C,V_OCT_IN1*
X78200000Y-93000000D02*
X81800000Y-93000000D01*
X80000000Y-91200000D02*
X80000000Y-94800000D01*
X81800000Y-93000000D02*
G75*
G03X81800000Y-93000000I-1800000J0D01*
G01*
X84500000Y-86800000D02*
X84500000Y-97700000D01*
X75500000Y-86800000D02*
X75500000Y-97700000D01*
X75500000Y-97700000D02*
X84500000Y-97700000D01*
X75500000Y-86800000D02*
X84500000Y-86800000D01*
G04 #@! TD*
D12*
G04 #@! TO.C,FM_ATTV1*
X73718104Y-67302228D02*
X73761783Y-67308706D01*
X73804611Y-67319435D01*
X73846185Y-67334309D01*
X73886101Y-67353188D01*
X73923972Y-67375887D01*
X73959440Y-67402192D01*
X73992155Y-67431845D01*
X74021808Y-67464560D01*
X74048113Y-67500028D01*
X74070812Y-67537899D01*
X74089691Y-67577815D01*
X74104565Y-67619389D01*
X74115294Y-67662217D01*
X74121772Y-67705896D01*
X74124000Y-67751233D01*
X74124000Y-70248767D01*
X74121772Y-70294104D01*
X74115294Y-70337783D01*
X74104565Y-70380611D01*
X74089691Y-70422185D01*
X74070812Y-70462101D01*
X74048113Y-70499972D01*
X74021808Y-70535440D01*
X73992155Y-70568155D01*
X73959440Y-70597808D01*
X73923972Y-70624113D01*
X73886101Y-70646812D01*
X73846185Y-70665691D01*
X73804611Y-70680565D01*
X73761783Y-70691294D01*
X73718104Y-70697772D01*
X73672767Y-70700000D01*
X72675233Y-70700000D01*
X72629896Y-70697772D01*
X72586217Y-70691294D01*
X72543389Y-70680565D01*
X72501815Y-70665691D01*
X72461899Y-70646812D01*
X72424028Y-70624113D01*
X72388560Y-70597808D01*
X72355845Y-70568155D01*
X72326192Y-70535440D01*
X72299887Y-70499972D01*
X72277188Y-70462101D01*
X72258309Y-70422185D01*
X72243435Y-70380611D01*
X72232706Y-70337783D01*
X72226228Y-70294104D01*
X72224000Y-70248767D01*
X72224000Y-67751233D01*
X72226228Y-67705896D01*
X72232706Y-67662217D01*
X72243435Y-67619389D01*
X72258309Y-67577815D01*
X72277188Y-67537899D01*
X72299887Y-67500028D01*
X72326192Y-67464560D01*
X72355845Y-67431845D01*
X72388560Y-67402192D01*
X72424028Y-67375887D01*
X72461899Y-67353188D01*
X72501815Y-67334309D01*
X72543389Y-67319435D01*
X72586217Y-67308706D01*
X72629896Y-67302228D01*
X72675233Y-67300000D01*
X73672767Y-67300000D01*
X73718104Y-67302228D01*
X76100000Y-76500000D02*
G75*
G03X76100000Y-76500000I-600000J0D01*
G01*
X78600000Y-76500000D02*
G75*
G03X78600000Y-76500000I-600000J0D01*
G01*
X81100000Y-76500000D02*
G75*
G03X81100000Y-76500000I-600000J0D01*
G01*
X83344104Y-67302228D02*
X83387783Y-67308706D01*
X83430611Y-67319435D01*
X83472185Y-67334309D01*
X83512101Y-67353188D01*
X83549972Y-67375887D01*
X83585440Y-67402192D01*
X83618155Y-67431845D01*
X83647808Y-67464560D01*
X83674113Y-67500028D01*
X83696812Y-67537899D01*
X83715691Y-67577815D01*
X83730565Y-67619389D01*
X83741294Y-67662217D01*
X83747772Y-67705896D01*
X83750000Y-67751233D01*
X83750000Y-70248767D01*
X83747772Y-70294104D01*
X83741294Y-70337783D01*
X83730565Y-70380611D01*
X83715691Y-70422185D01*
X83696812Y-70462101D01*
X83674113Y-70499972D01*
X83647808Y-70535440D01*
X83618155Y-70568155D01*
X83585440Y-70597808D01*
X83549972Y-70624113D01*
X83512101Y-70646812D01*
X83472185Y-70665691D01*
X83430611Y-70680565D01*
X83387783Y-70691294D01*
X83344104Y-70697772D01*
X83298767Y-70700000D01*
X82301233Y-70700000D01*
X82255896Y-70697772D01*
X82212217Y-70691294D01*
X82169389Y-70680565D01*
X82127815Y-70665691D01*
X82087899Y-70646812D01*
X82050028Y-70624113D01*
X82014560Y-70597808D01*
X81981845Y-70568155D01*
X81952192Y-70535440D01*
X81925887Y-70499972D01*
X81903188Y-70462101D01*
X81884309Y-70422185D01*
X81869435Y-70380611D01*
X81858706Y-70337783D01*
X81852228Y-70294104D01*
X81850000Y-70248767D01*
X81850000Y-67751233D01*
X81852228Y-67705896D01*
X81858706Y-67662217D01*
X81869435Y-67619389D01*
X81884309Y-67577815D01*
X81903188Y-67537899D01*
X81925887Y-67500028D01*
X81952192Y-67464560D01*
X81981845Y-67431845D01*
X82014560Y-67402192D01*
X82050028Y-67375887D01*
X82087899Y-67353188D01*
X82127815Y-67334309D01*
X82169389Y-67319435D01*
X82212217Y-67308706D01*
X82255896Y-67302228D01*
X82301233Y-67300000D01*
X83298767Y-67300000D01*
X83344104Y-67302228D01*
G04 #@! TD*
G04 #@! TO.C,CUTOFF1*
X65218104Y-18302228D02*
X65261783Y-18308706D01*
X65304611Y-18319435D01*
X65346185Y-18334309D01*
X65386101Y-18353188D01*
X65423972Y-18375887D01*
X65459440Y-18402192D01*
X65492155Y-18431845D01*
X65521808Y-18464560D01*
X65548113Y-18500028D01*
X65570812Y-18537899D01*
X65589691Y-18577815D01*
X65604565Y-18619389D01*
X65615294Y-18662217D01*
X65621772Y-18705896D01*
X65624000Y-18751233D01*
X65624000Y-21248767D01*
X65621772Y-21294104D01*
X65615294Y-21337783D01*
X65604565Y-21380611D01*
X65589691Y-21422185D01*
X65570812Y-21462101D01*
X65548113Y-21499972D01*
X65521808Y-21535440D01*
X65492155Y-21568155D01*
X65459440Y-21597808D01*
X65423972Y-21624113D01*
X65386101Y-21646812D01*
X65346185Y-21665691D01*
X65304611Y-21680565D01*
X65261783Y-21691294D01*
X65218104Y-21697772D01*
X65172767Y-21700000D01*
X64175233Y-21700000D01*
X64129896Y-21697772D01*
X64086217Y-21691294D01*
X64043389Y-21680565D01*
X64001815Y-21665691D01*
X63961899Y-21646812D01*
X63924028Y-21624113D01*
X63888560Y-21597808D01*
X63855845Y-21568155D01*
X63826192Y-21535440D01*
X63799887Y-21499972D01*
X63777188Y-21462101D01*
X63758309Y-21422185D01*
X63743435Y-21380611D01*
X63732706Y-21337783D01*
X63726228Y-21294104D01*
X63724000Y-21248767D01*
X63724000Y-18751233D01*
X63726228Y-18705896D01*
X63732706Y-18662217D01*
X63743435Y-18619389D01*
X63758309Y-18577815D01*
X63777188Y-18537899D01*
X63799887Y-18500028D01*
X63826192Y-18464560D01*
X63855845Y-18431845D01*
X63888560Y-18402192D01*
X63924028Y-18375887D01*
X63961899Y-18353188D01*
X64001815Y-18334309D01*
X64043389Y-18319435D01*
X64086217Y-18308706D01*
X64129896Y-18302228D01*
X64175233Y-18300000D01*
X65172767Y-18300000D01*
X65218104Y-18302228D01*
X67600000Y-27500000D02*
G75*
G03X67600000Y-27500000I-600000J0D01*
G01*
X70100000Y-27500000D02*
G75*
G03X70100000Y-27500000I-600000J0D01*
G01*
X72600000Y-27500000D02*
G75*
G03X72600000Y-27500000I-600000J0D01*
G01*
X74844104Y-18302228D02*
X74887783Y-18308706D01*
X74930611Y-18319435D01*
X74972185Y-18334309D01*
X75012101Y-18353188D01*
X75049972Y-18375887D01*
X75085440Y-18402192D01*
X75118155Y-18431845D01*
X75147808Y-18464560D01*
X75174113Y-18500028D01*
X75196812Y-18537899D01*
X75215691Y-18577815D01*
X75230565Y-18619389D01*
X75241294Y-18662217D01*
X75247772Y-18705896D01*
X75250000Y-18751233D01*
X75250000Y-21248767D01*
X75247772Y-21294104D01*
X75241294Y-21337783D01*
X75230565Y-21380611D01*
X75215691Y-21422185D01*
X75196812Y-21462101D01*
X75174113Y-21499972D01*
X75147808Y-21535440D01*
X75118155Y-21568155D01*
X75085440Y-21597808D01*
X75049972Y-21624113D01*
X75012101Y-21646812D01*
X74972185Y-21665691D01*
X74930611Y-21680565D01*
X74887783Y-21691294D01*
X74844104Y-21697772D01*
X74798767Y-21700000D01*
X73801233Y-21700000D01*
X73755896Y-21697772D01*
X73712217Y-21691294D01*
X73669389Y-21680565D01*
X73627815Y-21665691D01*
X73587899Y-21646812D01*
X73550028Y-21624113D01*
X73514560Y-21597808D01*
X73481845Y-21568155D01*
X73452192Y-21535440D01*
X73425887Y-21499972D01*
X73403188Y-21462101D01*
X73384309Y-21422185D01*
X73369435Y-21380611D01*
X73358706Y-21337783D01*
X73352228Y-21294104D01*
X73350000Y-21248767D01*
X73350000Y-18751233D01*
X73352228Y-18705896D01*
X73358706Y-18662217D01*
X73369435Y-18619389D01*
X73384309Y-18577815D01*
X73403188Y-18537899D01*
X73425887Y-18500028D01*
X73452192Y-18464560D01*
X73481845Y-18431845D01*
X73514560Y-18402192D01*
X73550028Y-18375887D01*
X73587899Y-18353188D01*
X73627815Y-18334309D01*
X73669389Y-18319435D01*
X73712217Y-18308706D01*
X73755896Y-18302228D01*
X73801233Y-18300000D01*
X74798767Y-18300000D01*
X74844104Y-18302228D01*
G04 #@! TD*
G04 #@! TO.C,INPUT_GAIN1*
X46718104Y-73302228D02*
X46761783Y-73308706D01*
X46804611Y-73319435D01*
X46846185Y-73334309D01*
X46886101Y-73353188D01*
X46923972Y-73375887D01*
X46959440Y-73402192D01*
X46992155Y-73431845D01*
X47021808Y-73464560D01*
X47048113Y-73500028D01*
X47070812Y-73537899D01*
X47089691Y-73577815D01*
X47104565Y-73619389D01*
X47115294Y-73662217D01*
X47121772Y-73705896D01*
X47124000Y-73751233D01*
X47124000Y-76248767D01*
X47121772Y-76294104D01*
X47115294Y-76337783D01*
X47104565Y-76380611D01*
X47089691Y-76422185D01*
X47070812Y-76462101D01*
X47048113Y-76499972D01*
X47021808Y-76535440D01*
X46992155Y-76568155D01*
X46959440Y-76597808D01*
X46923972Y-76624113D01*
X46886101Y-76646812D01*
X46846185Y-76665691D01*
X46804611Y-76680565D01*
X46761783Y-76691294D01*
X46718104Y-76697772D01*
X46672767Y-76700000D01*
X45675233Y-76700000D01*
X45629896Y-76697772D01*
X45586217Y-76691294D01*
X45543389Y-76680565D01*
X45501815Y-76665691D01*
X45461899Y-76646812D01*
X45424028Y-76624113D01*
X45388560Y-76597808D01*
X45355845Y-76568155D01*
X45326192Y-76535440D01*
X45299887Y-76499972D01*
X45277188Y-76462101D01*
X45258309Y-76422185D01*
X45243435Y-76380611D01*
X45232706Y-76337783D01*
X45226228Y-76294104D01*
X45224000Y-76248767D01*
X45224000Y-73751233D01*
X45226228Y-73705896D01*
X45232706Y-73662217D01*
X45243435Y-73619389D01*
X45258309Y-73577815D01*
X45277188Y-73537899D01*
X45299887Y-73500028D01*
X45326192Y-73464560D01*
X45355845Y-73431845D01*
X45388560Y-73402192D01*
X45424028Y-73375887D01*
X45461899Y-73353188D01*
X45501815Y-73334309D01*
X45543389Y-73319435D01*
X45586217Y-73308706D01*
X45629896Y-73302228D01*
X45675233Y-73300000D01*
X46672767Y-73300000D01*
X46718104Y-73302228D01*
X49100000Y-82500000D02*
G75*
G03X49100000Y-82500000I-600000J0D01*
G01*
X51600000Y-82500000D02*
G75*
G03X51600000Y-82500000I-600000J0D01*
G01*
X54100000Y-82500000D02*
G75*
G03X54100000Y-82500000I-600000J0D01*
G01*
X56344104Y-73302228D02*
X56387783Y-73308706D01*
X56430611Y-73319435D01*
X56472185Y-73334309D01*
X56512101Y-73353188D01*
X56549972Y-73375887D01*
X56585440Y-73402192D01*
X56618155Y-73431845D01*
X56647808Y-73464560D01*
X56674113Y-73500028D01*
X56696812Y-73537899D01*
X56715691Y-73577815D01*
X56730565Y-73619389D01*
X56741294Y-73662217D01*
X56747772Y-73705896D01*
X56750000Y-73751233D01*
X56750000Y-76248767D01*
X56747772Y-76294104D01*
X56741294Y-76337783D01*
X56730565Y-76380611D01*
X56715691Y-76422185D01*
X56696812Y-76462101D01*
X56674113Y-76499972D01*
X56647808Y-76535440D01*
X56618155Y-76568155D01*
X56585440Y-76597808D01*
X56549972Y-76624113D01*
X56512101Y-76646812D01*
X56472185Y-76665691D01*
X56430611Y-76680565D01*
X56387783Y-76691294D01*
X56344104Y-76697772D01*
X56298767Y-76700000D01*
X55301233Y-76700000D01*
X55255896Y-76697772D01*
X55212217Y-76691294D01*
X55169389Y-76680565D01*
X55127815Y-76665691D01*
X55087899Y-76646812D01*
X55050028Y-76624113D01*
X55014560Y-76597808D01*
X54981845Y-76568155D01*
X54952192Y-76535440D01*
X54925887Y-76499972D01*
X54903188Y-76462101D01*
X54884309Y-76422185D01*
X54869435Y-76380611D01*
X54858706Y-76337783D01*
X54852228Y-76294104D01*
X54850000Y-76248767D01*
X54850000Y-73751233D01*
X54852228Y-73705896D01*
X54858706Y-73662217D01*
X54869435Y-73619389D01*
X54884309Y-73577815D01*
X54903188Y-73537899D01*
X54925887Y-73500028D01*
X54952192Y-73464560D01*
X54981845Y-73431845D01*
X55014560Y-73402192D01*
X55050028Y-73375887D01*
X55087899Y-73353188D01*
X55127815Y-73334309D01*
X55169389Y-73319435D01*
X55212217Y-73308706D01*
X55255896Y-73302228D01*
X55301233Y-73300000D01*
X56298767Y-73300000D01*
X56344104Y-73302228D01*
G04 #@! TD*
G04 #@! TO.C,RES_ATTV1*
X60218104Y-70302228D02*
X60261783Y-70308706D01*
X60304611Y-70319435D01*
X60346185Y-70334309D01*
X60386101Y-70353188D01*
X60423972Y-70375887D01*
X60459440Y-70402192D01*
X60492155Y-70431845D01*
X60521808Y-70464560D01*
X60548113Y-70500028D01*
X60570812Y-70537899D01*
X60589691Y-70577815D01*
X60604565Y-70619389D01*
X60615294Y-70662217D01*
X60621772Y-70705896D01*
X60624000Y-70751233D01*
X60624000Y-73248767D01*
X60621772Y-73294104D01*
X60615294Y-73337783D01*
X60604565Y-73380611D01*
X60589691Y-73422185D01*
X60570812Y-73462101D01*
X60548113Y-73499972D01*
X60521808Y-73535440D01*
X60492155Y-73568155D01*
X60459440Y-73597808D01*
X60423972Y-73624113D01*
X60386101Y-73646812D01*
X60346185Y-73665691D01*
X60304611Y-73680565D01*
X60261783Y-73691294D01*
X60218104Y-73697772D01*
X60172767Y-73700000D01*
X59175233Y-73700000D01*
X59129896Y-73697772D01*
X59086217Y-73691294D01*
X59043389Y-73680565D01*
X59001815Y-73665691D01*
X58961899Y-73646812D01*
X58924028Y-73624113D01*
X58888560Y-73597808D01*
X58855845Y-73568155D01*
X58826192Y-73535440D01*
X58799887Y-73499972D01*
X58777188Y-73462101D01*
X58758309Y-73422185D01*
X58743435Y-73380611D01*
X58732706Y-73337783D01*
X58726228Y-73294104D01*
X58724000Y-73248767D01*
X58724000Y-70751233D01*
X58726228Y-70705896D01*
X58732706Y-70662217D01*
X58743435Y-70619389D01*
X58758309Y-70577815D01*
X58777188Y-70537899D01*
X58799887Y-70500028D01*
X58826192Y-70464560D01*
X58855845Y-70431845D01*
X58888560Y-70402192D01*
X58924028Y-70375887D01*
X58961899Y-70353188D01*
X59001815Y-70334309D01*
X59043389Y-70319435D01*
X59086217Y-70308706D01*
X59129896Y-70302228D01*
X59175233Y-70300000D01*
X60172767Y-70300000D01*
X60218104Y-70302228D01*
X62600000Y-79500000D02*
G75*
G03X62600000Y-79500000I-600000J0D01*
G01*
X65100000Y-79500000D02*
G75*
G03X65100000Y-79500000I-600000J0D01*
G01*
X67600000Y-79500000D02*
G75*
G03X67600000Y-79500000I-600000J0D01*
G01*
X69844104Y-70302228D02*
X69887783Y-70308706D01*
X69930611Y-70319435D01*
X69972185Y-70334309D01*
X70012101Y-70353188D01*
X70049972Y-70375887D01*
X70085440Y-70402192D01*
X70118155Y-70431845D01*
X70147808Y-70464560D01*
X70174113Y-70500028D01*
X70196812Y-70537899D01*
X70215691Y-70577815D01*
X70230565Y-70619389D01*
X70241294Y-70662217D01*
X70247772Y-70705896D01*
X70250000Y-70751233D01*
X70250000Y-73248767D01*
X70247772Y-73294104D01*
X70241294Y-73337783D01*
X70230565Y-73380611D01*
X70215691Y-73422185D01*
X70196812Y-73462101D01*
X70174113Y-73499972D01*
X70147808Y-73535440D01*
X70118155Y-73568155D01*
X70085440Y-73597808D01*
X70049972Y-73624113D01*
X70012101Y-73646812D01*
X69972185Y-73665691D01*
X69930611Y-73680565D01*
X69887783Y-73691294D01*
X69844104Y-73697772D01*
X69798767Y-73700000D01*
X68801233Y-73700000D01*
X68755896Y-73697772D01*
X68712217Y-73691294D01*
X68669389Y-73680565D01*
X68627815Y-73665691D01*
X68587899Y-73646812D01*
X68550028Y-73624113D01*
X68514560Y-73597808D01*
X68481845Y-73568155D01*
X68452192Y-73535440D01*
X68425887Y-73499972D01*
X68403188Y-73462101D01*
X68384309Y-73422185D01*
X68369435Y-73380611D01*
X68358706Y-73337783D01*
X68352228Y-73294104D01*
X68350000Y-73248767D01*
X68350000Y-70751233D01*
X68352228Y-70705896D01*
X68358706Y-70662217D01*
X68369435Y-70619389D01*
X68384309Y-70577815D01*
X68403188Y-70537899D01*
X68425887Y-70500028D01*
X68452192Y-70464560D01*
X68481845Y-70431845D01*
X68514560Y-70402192D01*
X68550028Y-70375887D01*
X68587899Y-70353188D01*
X68627815Y-70334309D01*
X68669389Y-70319435D01*
X68712217Y-70308706D01*
X68755896Y-70302228D01*
X68801233Y-70300000D01*
X69798767Y-70300000D01*
X69844104Y-70302228D01*
G04 #@! TD*
G04 #@! TO.C,RESONANCE1*
X49218104Y-37402228D02*
X49261783Y-37408706D01*
X49304611Y-37419435D01*
X49346185Y-37434309D01*
X49386101Y-37453188D01*
X49423972Y-37475887D01*
X49459440Y-37502192D01*
X49492155Y-37531845D01*
X49521808Y-37564560D01*
X49548113Y-37600028D01*
X49570812Y-37637899D01*
X49589691Y-37677815D01*
X49604565Y-37719389D01*
X49615294Y-37762217D01*
X49621772Y-37805896D01*
X49624000Y-37851233D01*
X49624000Y-40348767D01*
X49621772Y-40394104D01*
X49615294Y-40437783D01*
X49604565Y-40480611D01*
X49589691Y-40522185D01*
X49570812Y-40562101D01*
X49548113Y-40599972D01*
X49521808Y-40635440D01*
X49492155Y-40668155D01*
X49459440Y-40697808D01*
X49423972Y-40724113D01*
X49386101Y-40746812D01*
X49346185Y-40765691D01*
X49304611Y-40780565D01*
X49261783Y-40791294D01*
X49218104Y-40797772D01*
X49172767Y-40800000D01*
X48175233Y-40800000D01*
X48129896Y-40797772D01*
X48086217Y-40791294D01*
X48043389Y-40780565D01*
X48001815Y-40765691D01*
X47961899Y-40746812D01*
X47924028Y-40724113D01*
X47888560Y-40697808D01*
X47855845Y-40668155D01*
X47826192Y-40635440D01*
X47799887Y-40599972D01*
X47777188Y-40562101D01*
X47758309Y-40522185D01*
X47743435Y-40480611D01*
X47732706Y-40437783D01*
X47726228Y-40394104D01*
X47724000Y-40348767D01*
X47724000Y-37851233D01*
X47726228Y-37805896D01*
X47732706Y-37762217D01*
X47743435Y-37719389D01*
X47758309Y-37677815D01*
X47777188Y-37637899D01*
X47799887Y-37600028D01*
X47826192Y-37564560D01*
X47855845Y-37531845D01*
X47888560Y-37502192D01*
X47924028Y-37475887D01*
X47961899Y-37453188D01*
X48001815Y-37434309D01*
X48043389Y-37419435D01*
X48086217Y-37408706D01*
X48129896Y-37402228D01*
X48175233Y-37400000D01*
X49172767Y-37400000D01*
X49218104Y-37402228D01*
X51600000Y-46600000D02*
G75*
G03X51600000Y-46600000I-600000J0D01*
G01*
X54100000Y-46600000D02*
G75*
G03X54100000Y-46600000I-600000J0D01*
G01*
X56600000Y-46600000D02*
G75*
G03X56600000Y-46600000I-600000J0D01*
G01*
X58844104Y-37402228D02*
X58887783Y-37408706D01*
X58930611Y-37419435D01*
X58972185Y-37434309D01*
X59012101Y-37453188D01*
X59049972Y-37475887D01*
X59085440Y-37502192D01*
X59118155Y-37531845D01*
X59147808Y-37564560D01*
X59174113Y-37600028D01*
X59196812Y-37637899D01*
X59215691Y-37677815D01*
X59230565Y-37719389D01*
X59241294Y-37762217D01*
X59247772Y-37805896D01*
X59250000Y-37851233D01*
X59250000Y-40348767D01*
X59247772Y-40394104D01*
X59241294Y-40437783D01*
X59230565Y-40480611D01*
X59215691Y-40522185D01*
X59196812Y-40562101D01*
X59174113Y-40599972D01*
X59147808Y-40635440D01*
X59118155Y-40668155D01*
X59085440Y-40697808D01*
X59049972Y-40724113D01*
X59012101Y-40746812D01*
X58972185Y-40765691D01*
X58930611Y-40780565D01*
X58887783Y-40791294D01*
X58844104Y-40797772D01*
X58798767Y-40800000D01*
X57801233Y-40800000D01*
X57755896Y-40797772D01*
X57712217Y-40791294D01*
X57669389Y-40780565D01*
X57627815Y-40765691D01*
X57587899Y-40746812D01*
X57550028Y-40724113D01*
X57514560Y-40697808D01*
X57481845Y-40668155D01*
X57452192Y-40635440D01*
X57425887Y-40599972D01*
X57403188Y-40562101D01*
X57384309Y-40522185D01*
X57369435Y-40480611D01*
X57358706Y-40437783D01*
X57352228Y-40394104D01*
X57350000Y-40348767D01*
X57350000Y-37851233D01*
X57352228Y-37805896D01*
X57358706Y-37762217D01*
X57369435Y-37719389D01*
X57384309Y-37677815D01*
X57403188Y-37637899D01*
X57425887Y-37600028D01*
X57452192Y-37564560D01*
X57481845Y-37531845D01*
X57514560Y-37502192D01*
X57550028Y-37475887D01*
X57587899Y-37453188D01*
X57627815Y-37434309D01*
X57669389Y-37419435D01*
X57712217Y-37408706D01*
X57755896Y-37402228D01*
X57801233Y-37400000D01*
X58798767Y-37400000D01*
X58844104Y-37402228D01*
G04 #@! TD*
G04 #@! TO.C,AUDIO_IN1*
X50850000Y-96380000D02*
G75*
G03X50850000Y-96380000I-850000J0D01*
G01*
X50850000Y-99480000D02*
G75*
G03X50850000Y-99480000I-850000J0D01*
G01*
X50850000Y-88080000D02*
G75*
G03X50850000Y-88080000I-850000J0D01*
G01*
G04 #@! TD*
G04 #@! TO.C,BP_OUT1*
X65850000Y-105080000D02*
G75*
G03X65850000Y-105080000I-850000J0D01*
G01*
X65850000Y-116480000D02*
G75*
G03X65850000Y-116480000I-850000J0D01*
G01*
X65850000Y-113380000D02*
G75*
G03X65850000Y-113380000I-850000J0D01*
G01*
G04 #@! TD*
G04 #@! TO.C,FM_IN1*
X70850000Y-88080000D02*
G75*
G03X70850000Y-88080000I-850000J0D01*
G01*
X70850000Y-99480000D02*
G75*
G03X70850000Y-99480000I-850000J0D01*
G01*
X70850000Y-96380000D02*
G75*
G03X70850000Y-96380000I-850000J0D01*
G01*
G04 #@! TD*
G04 #@! TO.C,HP_OUT1*
X78850000Y-113380000D02*
G75*
G03X78850000Y-113380000I-850000J0D01*
G01*
X78850000Y-116480000D02*
G75*
G03X78850000Y-116480000I-850000J0D01*
G01*
X78850000Y-105080000D02*
G75*
G03X78850000Y-105080000I-850000J0D01*
G01*
G04 #@! TD*
G04 #@! TO.C,LP_OUT1*
X51850000Y-113380000D02*
G75*
G03X51850000Y-113380000I-850000J0D01*
G01*
X51850000Y-116480000D02*
G75*
G03X51850000Y-116480000I-850000J0D01*
G01*
X51850000Y-105080000D02*
G75*
G03X51850000Y-105080000I-850000J0D01*
G01*
G04 #@! TD*
G04 #@! TO.C,RES_CV1*
X60850000Y-88080000D02*
G75*
G03X60850000Y-88080000I-850000J0D01*
G01*
X60850000Y-99480000D02*
G75*
G03X60850000Y-99480000I-850000J0D01*
G01*
X60850000Y-96380000D02*
G75*
G03X60850000Y-96380000I-850000J0D01*
G01*
G04 #@! TD*
G04 #@! TO.C,V_OCT_IN1*
X80850000Y-96380000D02*
G75*
G03X80850000Y-96380000I-850000J0D01*
G01*
X80850000Y-99480000D02*
G75*
G03X80850000Y-99480000I-850000J0D01*
G01*
X80850000Y-88080000D02*
G75*
G03X80850000Y-88080000I-850000J0D01*
G01*
G04 #@! TD*
G04 #@! TO.C,FM_ATTV1*
D11*
X75095238Y-78428571D02*
X74761904Y-78428571D01*
X74761904Y-78952380D02*
X74761904Y-77952380D01*
X75238095Y-77952380D01*
X75619047Y-78952380D02*
X75619047Y-77952380D01*
X75952380Y-78666666D01*
X76285714Y-77952380D01*
X76285714Y-78952380D01*
X76523809Y-79047619D02*
X77285714Y-79047619D01*
X77476190Y-78666666D02*
X77952380Y-78666666D01*
X77380952Y-78952380D02*
X77714285Y-77952380D01*
X78047619Y-78952380D01*
X78238095Y-77952380D02*
X78809523Y-77952380D01*
X78523809Y-78952380D02*
X78523809Y-77952380D01*
X79000000Y-77952380D02*
X79571428Y-77952380D01*
X79285714Y-78952380D02*
X79285714Y-77952380D01*
X79761904Y-77952380D02*
X80095238Y-78952380D01*
X80428571Y-77952380D01*
X81285714Y-78952380D02*
X80714285Y-78952380D01*
X81000000Y-78952380D02*
X81000000Y-77952380D01*
X80904761Y-78095238D01*
X80809523Y-78190476D01*
X80714285Y-78238095D01*
G04 #@! TO.C,CUTOFF1*
X67047619Y-29857142D02*
X67000000Y-29904761D01*
X66857142Y-29952380D01*
X66761904Y-29952380D01*
X66619047Y-29904761D01*
X66523809Y-29809523D01*
X66476190Y-29714285D01*
X66428571Y-29523809D01*
X66428571Y-29380952D01*
X66476190Y-29190476D01*
X66523809Y-29095238D01*
X66619047Y-29000000D01*
X66761904Y-28952380D01*
X66857142Y-28952380D01*
X67000000Y-29000000D01*
X67047619Y-29047619D01*
X67476190Y-28952380D02*
X67476190Y-29761904D01*
X67523809Y-29857142D01*
X67571428Y-29904761D01*
X67666666Y-29952380D01*
X67857142Y-29952380D01*
X67952380Y-29904761D01*
X68000000Y-29857142D01*
X68047619Y-29761904D01*
X68047619Y-28952380D01*
X68380952Y-28952380D02*
X68952380Y-28952380D01*
X68666666Y-29952380D02*
X68666666Y-28952380D01*
X69476190Y-28952380D02*
X69666666Y-28952380D01*
X69761904Y-29000000D01*
X69857142Y-29095238D01*
X69904761Y-29285714D01*
X69904761Y-29619047D01*
X69857142Y-29809523D01*
X69761904Y-29904761D01*
X69666666Y-29952380D01*
X69476190Y-29952380D01*
X69380952Y-29904761D01*
X69285714Y-29809523D01*
X69238095Y-29619047D01*
X69238095Y-29285714D01*
X69285714Y-29095238D01*
X69380952Y-29000000D01*
X69476190Y-28952380D01*
X70666666Y-29428571D02*
X70333333Y-29428571D01*
X70333333Y-29952380D02*
X70333333Y-28952380D01*
X70809523Y-28952380D01*
X71523809Y-29428571D02*
X71190476Y-29428571D01*
X71190476Y-29952380D02*
X71190476Y-28952380D01*
X71666666Y-28952380D01*
X72571428Y-29952380D02*
X72000000Y-29952380D01*
X72285714Y-29952380D02*
X72285714Y-28952380D01*
X72190476Y-29095238D01*
X72095238Y-29190476D01*
X72000000Y-29238095D01*
G04 #@! TO.C,INPUT_GAIN1*
X46523809Y-84952380D02*
X46523809Y-83952380D01*
X47000000Y-84952380D02*
X47000000Y-83952380D01*
X47571428Y-84952380D01*
X47571428Y-83952380D01*
X48047619Y-84952380D02*
X48047619Y-83952380D01*
X48428571Y-83952380D01*
X48523809Y-84000000D01*
X48571428Y-84047619D01*
X48619047Y-84142857D01*
X48619047Y-84285714D01*
X48571428Y-84380952D01*
X48523809Y-84428571D01*
X48428571Y-84476190D01*
X48047619Y-84476190D01*
X49047619Y-83952380D02*
X49047619Y-84761904D01*
X49095238Y-84857142D01*
X49142857Y-84904761D01*
X49238095Y-84952380D01*
X49428571Y-84952380D01*
X49523809Y-84904761D01*
X49571428Y-84857142D01*
X49619047Y-84761904D01*
X49619047Y-83952380D01*
X49952380Y-83952380D02*
X50523809Y-83952380D01*
X50238095Y-84952380D02*
X50238095Y-83952380D01*
X50619047Y-85047619D02*
X51380952Y-85047619D01*
X52142857Y-84000000D02*
X52047619Y-83952380D01*
X51904761Y-83952380D01*
X51761904Y-84000000D01*
X51666666Y-84095238D01*
X51619047Y-84190476D01*
X51571428Y-84380952D01*
X51571428Y-84523809D01*
X51619047Y-84714285D01*
X51666666Y-84809523D01*
X51761904Y-84904761D01*
X51904761Y-84952380D01*
X52000000Y-84952380D01*
X52142857Y-84904761D01*
X52190476Y-84857142D01*
X52190476Y-84523809D01*
X52000000Y-84523809D01*
X52571428Y-84666666D02*
X53047619Y-84666666D01*
X52476190Y-84952380D02*
X52809523Y-83952380D01*
X53142857Y-84952380D01*
X53476190Y-84952380D02*
X53476190Y-83952380D01*
X53952380Y-84952380D02*
X53952380Y-83952380D01*
X54523809Y-84952380D01*
X54523809Y-83952380D01*
X55523809Y-84952380D02*
X54952380Y-84952380D01*
X55238095Y-84952380D02*
X55238095Y-83952380D01*
X55142857Y-84095238D01*
X55047619Y-84190476D01*
X54952380Y-84238095D01*
G04 #@! TO.C,RES_ATTV1*
X61404761Y-81952380D02*
X61071428Y-81476190D01*
X60833333Y-81952380D02*
X60833333Y-80952380D01*
X61214285Y-80952380D01*
X61309523Y-81000000D01*
X61357142Y-81047619D01*
X61404761Y-81142857D01*
X61404761Y-81285714D01*
X61357142Y-81380952D01*
X61309523Y-81428571D01*
X61214285Y-81476190D01*
X60833333Y-81476190D01*
X61833333Y-81428571D02*
X62166666Y-81428571D01*
X62309523Y-81952380D02*
X61833333Y-81952380D01*
X61833333Y-80952380D01*
X62309523Y-80952380D01*
X62690476Y-81904761D02*
X62833333Y-81952380D01*
X63071428Y-81952380D01*
X63166666Y-81904761D01*
X63214285Y-81857142D01*
X63261904Y-81761904D01*
X63261904Y-81666666D01*
X63214285Y-81571428D01*
X63166666Y-81523809D01*
X63071428Y-81476190D01*
X62880952Y-81428571D01*
X62785714Y-81380952D01*
X62738095Y-81333333D01*
X62690476Y-81238095D01*
X62690476Y-81142857D01*
X62738095Y-81047619D01*
X62785714Y-81000000D01*
X62880952Y-80952380D01*
X63119047Y-80952380D01*
X63261904Y-81000000D01*
X63452380Y-82047619D02*
X64214285Y-82047619D01*
X64404761Y-81666666D02*
X64880952Y-81666666D01*
X64309523Y-81952380D02*
X64642857Y-80952380D01*
X64976190Y-81952380D01*
X65166666Y-80952380D02*
X65738095Y-80952380D01*
X65452380Y-81952380D02*
X65452380Y-80952380D01*
X65928571Y-80952380D02*
X66500000Y-80952380D01*
X66214285Y-81952380D02*
X66214285Y-80952380D01*
X66690476Y-80952380D02*
X67023809Y-81952380D01*
X67357142Y-80952380D01*
X68214285Y-81952380D02*
X67642857Y-81952380D01*
X67928571Y-81952380D02*
X67928571Y-80952380D01*
X67833333Y-81095238D01*
X67738095Y-81190476D01*
X67642857Y-81238095D01*
G04 #@! TO.C,RESONANCE1*
X49452380Y-49052380D02*
X49119047Y-48576190D01*
X48880952Y-49052380D02*
X48880952Y-48052380D01*
X49261904Y-48052380D01*
X49357142Y-48100000D01*
X49404761Y-48147619D01*
X49452380Y-48242857D01*
X49452380Y-48385714D01*
X49404761Y-48480952D01*
X49357142Y-48528571D01*
X49261904Y-48576190D01*
X48880952Y-48576190D01*
X49880952Y-48528571D02*
X50214285Y-48528571D01*
X50357142Y-49052380D02*
X49880952Y-49052380D01*
X49880952Y-48052380D01*
X50357142Y-48052380D01*
X50738095Y-49004761D02*
X50880952Y-49052380D01*
X51119047Y-49052380D01*
X51214285Y-49004761D01*
X51261904Y-48957142D01*
X51309523Y-48861904D01*
X51309523Y-48766666D01*
X51261904Y-48671428D01*
X51214285Y-48623809D01*
X51119047Y-48576190D01*
X50928571Y-48528571D01*
X50833333Y-48480952D01*
X50785714Y-48433333D01*
X50738095Y-48338095D01*
X50738095Y-48242857D01*
X50785714Y-48147619D01*
X50833333Y-48100000D01*
X50928571Y-48052380D01*
X51166666Y-48052380D01*
X51309523Y-48100000D01*
X51928571Y-48052380D02*
X52119047Y-48052380D01*
X52214285Y-48100000D01*
X52309523Y-48195238D01*
X52357142Y-48385714D01*
X52357142Y-48719047D01*
X52309523Y-48909523D01*
X52214285Y-49004761D01*
X52119047Y-49052380D01*
X51928571Y-49052380D01*
X51833333Y-49004761D01*
X51738095Y-48909523D01*
X51690476Y-48719047D01*
X51690476Y-48385714D01*
X51738095Y-48195238D01*
X51833333Y-48100000D01*
X51928571Y-48052380D01*
X52785714Y-49052380D02*
X52785714Y-48052380D01*
X53357142Y-49052380D01*
X53357142Y-48052380D01*
X53785714Y-48766666D02*
X54261904Y-48766666D01*
X53690476Y-49052380D02*
X54023809Y-48052380D01*
X54357142Y-49052380D01*
X54690476Y-49052380D02*
X54690476Y-48052380D01*
X55261904Y-49052380D01*
X55261904Y-48052380D01*
X56309523Y-48957142D02*
X56261904Y-49004761D01*
X56119047Y-49052380D01*
X56023809Y-49052380D01*
X55880952Y-49004761D01*
X55785714Y-48909523D01*
X55738095Y-48814285D01*
X55690476Y-48623809D01*
X55690476Y-48480952D01*
X55738095Y-48290476D01*
X55785714Y-48195238D01*
X55880952Y-48100000D01*
X56023809Y-48052380D01*
X56119047Y-48052380D01*
X56261904Y-48100000D01*
X56309523Y-48147619D01*
X56738095Y-48528571D02*
X57071428Y-48528571D01*
X57214285Y-49052380D02*
X56738095Y-49052380D01*
X56738095Y-48052380D01*
X57214285Y-48052380D01*
X58166666Y-49052380D02*
X57595238Y-49052380D01*
X57880952Y-49052380D02*
X57880952Y-48052380D01*
X57785714Y-48195238D01*
X57690476Y-48290476D01*
X57595238Y-48338095D01*
G04 #@! TO.C,AUDIO_IN1*
X46357142Y-101766666D02*
X46833333Y-101766666D01*
X46261904Y-102052380D02*
X46595238Y-101052380D01*
X46928571Y-102052380D01*
X47261904Y-101052380D02*
X47261904Y-101861904D01*
X47309523Y-101957142D01*
X47357142Y-102004761D01*
X47452380Y-102052380D01*
X47642857Y-102052380D01*
X47738095Y-102004761D01*
X47785714Y-101957142D01*
X47833333Y-101861904D01*
X47833333Y-101052380D01*
X48309523Y-102052380D02*
X48309523Y-101052380D01*
X48547619Y-101052380D01*
X48690476Y-101100000D01*
X48785714Y-101195238D01*
X48833333Y-101290476D01*
X48880952Y-101480952D01*
X48880952Y-101623809D01*
X48833333Y-101814285D01*
X48785714Y-101909523D01*
X48690476Y-102004761D01*
X48547619Y-102052380D01*
X48309523Y-102052380D01*
X49309523Y-102052380D02*
X49309523Y-101052380D01*
X49976190Y-101052380D02*
X50166666Y-101052380D01*
X50261904Y-101100000D01*
X50357142Y-101195238D01*
X50404761Y-101385714D01*
X50404761Y-101719047D01*
X50357142Y-101909523D01*
X50261904Y-102004761D01*
X50166666Y-102052380D01*
X49976190Y-102052380D01*
X49880952Y-102004761D01*
X49785714Y-101909523D01*
X49738095Y-101719047D01*
X49738095Y-101385714D01*
X49785714Y-101195238D01*
X49880952Y-101100000D01*
X49976190Y-101052380D01*
X50595238Y-102147619D02*
X51357142Y-102147619D01*
X51595238Y-102052380D02*
X51595238Y-101052380D01*
X52071428Y-102052380D02*
X52071428Y-101052380D01*
X52642857Y-102052380D01*
X52642857Y-101052380D01*
X53642857Y-102052380D02*
X53071428Y-102052380D01*
X53357142Y-102052380D02*
X53357142Y-101052380D01*
X53261904Y-101195238D01*
X53166666Y-101290476D01*
X53071428Y-101338095D01*
G04 #@! TO.C,BP_OUT1*
X62285714Y-118528571D02*
X62428571Y-118576190D01*
X62476190Y-118623809D01*
X62523809Y-118719047D01*
X62523809Y-118861904D01*
X62476190Y-118957142D01*
X62428571Y-119004761D01*
X62333333Y-119052380D01*
X61952380Y-119052380D01*
X61952380Y-118052380D01*
X62285714Y-118052380D01*
X62380952Y-118100000D01*
X62428571Y-118147619D01*
X62476190Y-118242857D01*
X62476190Y-118338095D01*
X62428571Y-118433333D01*
X62380952Y-118480952D01*
X62285714Y-118528571D01*
X61952380Y-118528571D01*
X62952380Y-119052380D02*
X62952380Y-118052380D01*
X63333333Y-118052380D01*
X63428571Y-118100000D01*
X63476190Y-118147619D01*
X63523809Y-118242857D01*
X63523809Y-118385714D01*
X63476190Y-118480952D01*
X63428571Y-118528571D01*
X63333333Y-118576190D01*
X62952380Y-118576190D01*
X63714285Y-119147619D02*
X64476190Y-119147619D01*
X64904761Y-118052380D02*
X65095238Y-118052380D01*
X65190476Y-118100000D01*
X65285714Y-118195238D01*
X65333333Y-118385714D01*
X65333333Y-118719047D01*
X65285714Y-118909523D01*
X65190476Y-119004761D01*
X65095238Y-119052380D01*
X64904761Y-119052380D01*
X64809523Y-119004761D01*
X64714285Y-118909523D01*
X64666666Y-118719047D01*
X64666666Y-118385714D01*
X64714285Y-118195238D01*
X64809523Y-118100000D01*
X64904761Y-118052380D01*
X65761904Y-118052380D02*
X65761904Y-118861904D01*
X65809523Y-118957142D01*
X65857142Y-119004761D01*
X65952380Y-119052380D01*
X66142857Y-119052380D01*
X66238095Y-119004761D01*
X66285714Y-118957142D01*
X66333333Y-118861904D01*
X66333333Y-118052380D01*
X66666666Y-118052380D02*
X67238095Y-118052380D01*
X66952380Y-119052380D02*
X66952380Y-118052380D01*
X68095238Y-119052380D02*
X67523809Y-119052380D01*
X67809523Y-119052380D02*
X67809523Y-118052380D01*
X67714285Y-118195238D01*
X67619047Y-118290476D01*
X67523809Y-118338095D01*
G04 #@! TO.C,FM_IN1*
X67952380Y-101528571D02*
X67619047Y-101528571D01*
X67619047Y-102052380D02*
X67619047Y-101052380D01*
X68095238Y-101052380D01*
X68476190Y-102052380D02*
X68476190Y-101052380D01*
X68809523Y-101766666D01*
X69142857Y-101052380D01*
X69142857Y-102052380D01*
X69380952Y-102147619D02*
X70142857Y-102147619D01*
X70380952Y-102052380D02*
X70380952Y-101052380D01*
X70857142Y-102052380D02*
X70857142Y-101052380D01*
X71428571Y-102052380D01*
X71428571Y-101052380D01*
X72428571Y-102052380D02*
X71857142Y-102052380D01*
X72142857Y-102052380D02*
X72142857Y-101052380D01*
X72047619Y-101195238D01*
X71952380Y-101290476D01*
X71857142Y-101338095D01*
G04 #@! TO.C,HP_OUT1*
X74928571Y-119052380D02*
X74928571Y-118052380D01*
X74928571Y-118528571D02*
X75500000Y-118528571D01*
X75500000Y-119052380D02*
X75500000Y-118052380D01*
X75976190Y-119052380D02*
X75976190Y-118052380D01*
X76357142Y-118052380D01*
X76452380Y-118100000D01*
X76500000Y-118147619D01*
X76547619Y-118242857D01*
X76547619Y-118385714D01*
X76500000Y-118480952D01*
X76452380Y-118528571D01*
X76357142Y-118576190D01*
X75976190Y-118576190D01*
X76738095Y-119147619D02*
X77500000Y-119147619D01*
X77928571Y-118052380D02*
X78119047Y-118052380D01*
X78214285Y-118100000D01*
X78309523Y-118195238D01*
X78357142Y-118385714D01*
X78357142Y-118719047D01*
X78309523Y-118909523D01*
X78214285Y-119004761D01*
X78119047Y-119052380D01*
X77928571Y-119052380D01*
X77833333Y-119004761D01*
X77738095Y-118909523D01*
X77690476Y-118719047D01*
X77690476Y-118385714D01*
X77738095Y-118195238D01*
X77833333Y-118100000D01*
X77928571Y-118052380D01*
X78785714Y-118052380D02*
X78785714Y-118861904D01*
X78833333Y-118957142D01*
X78880952Y-119004761D01*
X78976190Y-119052380D01*
X79166666Y-119052380D01*
X79261904Y-119004761D01*
X79309523Y-118957142D01*
X79357142Y-118861904D01*
X79357142Y-118052380D01*
X79690476Y-118052380D02*
X80261904Y-118052380D01*
X79976190Y-119052380D02*
X79976190Y-118052380D01*
X81119047Y-119052380D02*
X80547619Y-119052380D01*
X80833333Y-119052380D02*
X80833333Y-118052380D01*
X80738095Y-118195238D01*
X80642857Y-118290476D01*
X80547619Y-118338095D01*
G04 #@! TO.C,LP_OUT1*
X48523809Y-119052380D02*
X48047619Y-119052380D01*
X48047619Y-118052380D01*
X48857142Y-119052380D02*
X48857142Y-118052380D01*
X49238095Y-118052380D01*
X49333333Y-118100000D01*
X49380952Y-118147619D01*
X49428571Y-118242857D01*
X49428571Y-118385714D01*
X49380952Y-118480952D01*
X49333333Y-118528571D01*
X49238095Y-118576190D01*
X48857142Y-118576190D01*
X49619047Y-119147619D02*
X50380952Y-119147619D01*
X50809523Y-118052380D02*
X51000000Y-118052380D01*
X51095238Y-118100000D01*
X51190476Y-118195238D01*
X51238095Y-118385714D01*
X51238095Y-118719047D01*
X51190476Y-118909523D01*
X51095238Y-119004761D01*
X51000000Y-119052380D01*
X50809523Y-119052380D01*
X50714285Y-119004761D01*
X50619047Y-118909523D01*
X50571428Y-118719047D01*
X50571428Y-118385714D01*
X50619047Y-118195238D01*
X50714285Y-118100000D01*
X50809523Y-118052380D01*
X51666666Y-118052380D02*
X51666666Y-118861904D01*
X51714285Y-118957142D01*
X51761904Y-119004761D01*
X51857142Y-119052380D01*
X52047619Y-119052380D01*
X52142857Y-119004761D01*
X52190476Y-118957142D01*
X52238095Y-118861904D01*
X52238095Y-118052380D01*
X52571428Y-118052380D02*
X53142857Y-118052380D01*
X52857142Y-119052380D02*
X52857142Y-118052380D01*
X54000000Y-119052380D02*
X53428571Y-119052380D01*
X53714285Y-119052380D02*
X53714285Y-118052380D01*
X53619047Y-118195238D01*
X53523809Y-118290476D01*
X53428571Y-118338095D01*
G04 #@! TO.C,RES_CV1*
X57795238Y-102052380D02*
X57461904Y-101576190D01*
X57223809Y-102052380D02*
X57223809Y-101052380D01*
X57604761Y-101052380D01*
X57700000Y-101100000D01*
X57747619Y-101147619D01*
X57795238Y-101242857D01*
X57795238Y-101385714D01*
X57747619Y-101480952D01*
X57700000Y-101528571D01*
X57604761Y-101576190D01*
X57223809Y-101576190D01*
X58223809Y-101528571D02*
X58557142Y-101528571D01*
X58700000Y-102052380D02*
X58223809Y-102052380D01*
X58223809Y-101052380D01*
X58700000Y-101052380D01*
X59080952Y-102004761D02*
X59223809Y-102052380D01*
X59461904Y-102052380D01*
X59557142Y-102004761D01*
X59604761Y-101957142D01*
X59652380Y-101861904D01*
X59652380Y-101766666D01*
X59604761Y-101671428D01*
X59557142Y-101623809D01*
X59461904Y-101576190D01*
X59271428Y-101528571D01*
X59176190Y-101480952D01*
X59128571Y-101433333D01*
X59080952Y-101338095D01*
X59080952Y-101242857D01*
X59128571Y-101147619D01*
X59176190Y-101100000D01*
X59271428Y-101052380D01*
X59509523Y-101052380D01*
X59652380Y-101100000D01*
X59842857Y-102147619D02*
X60604761Y-102147619D01*
X61414285Y-101957142D02*
X61366666Y-102004761D01*
X61223809Y-102052380D01*
X61128571Y-102052380D01*
X60985714Y-102004761D01*
X60890476Y-101909523D01*
X60842857Y-101814285D01*
X60795238Y-101623809D01*
X60795238Y-101480952D01*
X60842857Y-101290476D01*
X60890476Y-101195238D01*
X60985714Y-101100000D01*
X61128571Y-101052380D01*
X61223809Y-101052380D01*
X61366666Y-101100000D01*
X61414285Y-101147619D01*
X61700000Y-101052380D02*
X62033333Y-102052380D01*
X62366666Y-101052380D01*
X63223809Y-102052380D02*
X62652380Y-102052380D01*
X62938095Y-102052380D02*
X62938095Y-101052380D01*
X62842857Y-101195238D01*
X62747619Y-101290476D01*
X62652380Y-101338095D01*
G04 #@! TO.C,SW_DRIVE1*
X46666666Y-53534761D02*
X46809523Y-53582380D01*
X47047619Y-53582380D01*
X47142857Y-53534761D01*
X47190476Y-53487142D01*
X47238095Y-53391904D01*
X47238095Y-53296666D01*
X47190476Y-53201428D01*
X47142857Y-53153809D01*
X47047619Y-53106190D01*
X46857142Y-53058571D01*
X46761904Y-53010952D01*
X46714285Y-52963333D01*
X46666666Y-52868095D01*
X46666666Y-52772857D01*
X46714285Y-52677619D01*
X46761904Y-52630000D01*
X46857142Y-52582380D01*
X47095238Y-52582380D01*
X47238095Y-52630000D01*
X47571428Y-52582380D02*
X47809523Y-53582380D01*
X48000000Y-52868095D01*
X48190476Y-53582380D01*
X48428571Y-52582380D01*
X48571428Y-53677619D02*
X49333333Y-53677619D01*
X49571428Y-53582380D02*
X49571428Y-52582380D01*
X49809523Y-52582380D01*
X49952380Y-52630000D01*
X50047619Y-52725238D01*
X50095238Y-52820476D01*
X50142857Y-53010952D01*
X50142857Y-53153809D01*
X50095238Y-53344285D01*
X50047619Y-53439523D01*
X49952380Y-53534761D01*
X49809523Y-53582380D01*
X49571428Y-53582380D01*
X51142857Y-53582380D02*
X50809523Y-53106190D01*
X50571428Y-53582380D02*
X50571428Y-52582380D01*
X50952380Y-52582380D01*
X51047619Y-52630000D01*
X51095238Y-52677619D01*
X51142857Y-52772857D01*
X51142857Y-52915714D01*
X51095238Y-53010952D01*
X51047619Y-53058571D01*
X50952380Y-53106190D01*
X50571428Y-53106190D01*
X51571428Y-53582380D02*
X51571428Y-52582380D01*
X51904761Y-52582380D02*
X52238095Y-53582380D01*
X52571428Y-52582380D01*
X52904761Y-53058571D02*
X53238095Y-53058571D01*
X53380952Y-53582380D02*
X52904761Y-53582380D01*
X52904761Y-52582380D01*
X53380952Y-52582380D01*
X54333333Y-53582380D02*
X53761904Y-53582380D01*
X54047619Y-53582380D02*
X54047619Y-52582380D01*
X53952380Y-52725238D01*
X53857142Y-52820476D01*
X53761904Y-52868095D01*
G04 #@! TO.C,SW_RES_DIST1*
X73380952Y-42534761D02*
X73523809Y-42582380D01*
X73761904Y-42582380D01*
X73857142Y-42534761D01*
X73904761Y-42487142D01*
X73952380Y-42391904D01*
X73952380Y-42296666D01*
X73904761Y-42201428D01*
X73857142Y-42153809D01*
X73761904Y-42106190D01*
X73571428Y-42058571D01*
X73476190Y-42010952D01*
X73428571Y-41963333D01*
X73380952Y-41868095D01*
X73380952Y-41772857D01*
X73428571Y-41677619D01*
X73476190Y-41630000D01*
X73571428Y-41582380D01*
X73809523Y-41582380D01*
X73952380Y-41630000D01*
X74285714Y-41582380D02*
X74523809Y-42582380D01*
X74714285Y-41868095D01*
X74904761Y-42582380D01*
X75142857Y-41582380D01*
X75285714Y-42677619D02*
X76047619Y-42677619D01*
X76857142Y-42582380D02*
X76523809Y-42106190D01*
X76285714Y-42582380D02*
X76285714Y-41582380D01*
X76666666Y-41582380D01*
X76761904Y-41630000D01*
X76809523Y-41677619D01*
X76857142Y-41772857D01*
X76857142Y-41915714D01*
X76809523Y-42010952D01*
X76761904Y-42058571D01*
X76666666Y-42106190D01*
X76285714Y-42106190D01*
X77285714Y-42058571D02*
X77619047Y-42058571D01*
X77761904Y-42582380D02*
X77285714Y-42582380D01*
X77285714Y-41582380D01*
X77761904Y-41582380D01*
X78142857Y-42534761D02*
X78285714Y-42582380D01*
X78523809Y-42582380D01*
X78619047Y-42534761D01*
X78666666Y-42487142D01*
X78714285Y-42391904D01*
X78714285Y-42296666D01*
X78666666Y-42201428D01*
X78619047Y-42153809D01*
X78523809Y-42106190D01*
X78333333Y-42058571D01*
X78238095Y-42010952D01*
X78190476Y-41963333D01*
X78142857Y-41868095D01*
X78142857Y-41772857D01*
X78190476Y-41677619D01*
X78238095Y-41630000D01*
X78333333Y-41582380D01*
X78571428Y-41582380D01*
X78714285Y-41630000D01*
X78904761Y-42677619D02*
X79666666Y-42677619D01*
X79904761Y-42582380D02*
X79904761Y-41582380D01*
X80142857Y-41582380D01*
X80285714Y-41630000D01*
X80380952Y-41725238D01*
X80428571Y-41820476D01*
X80476190Y-42010952D01*
X80476190Y-42153809D01*
X80428571Y-42344285D01*
X80380952Y-42439523D01*
X80285714Y-42534761D01*
X80142857Y-42582380D01*
X79904761Y-42582380D01*
X80904761Y-42582380D02*
X80904761Y-41582380D01*
X81333333Y-42534761D02*
X81476190Y-42582380D01*
X81714285Y-42582380D01*
X81809523Y-42534761D01*
X81857142Y-42487142D01*
X81904761Y-42391904D01*
X81904761Y-42296666D01*
X81857142Y-42201428D01*
X81809523Y-42153809D01*
X81714285Y-42106190D01*
X81523809Y-42058571D01*
X81428571Y-42010952D01*
X81380952Y-41963333D01*
X81333333Y-41868095D01*
X81333333Y-41772857D01*
X81380952Y-41677619D01*
X81428571Y-41630000D01*
X81523809Y-41582380D01*
X81761904Y-41582380D01*
X81904761Y-41630000D01*
X82190476Y-41582380D02*
X82761904Y-41582380D01*
X82476190Y-42582380D02*
X82476190Y-41582380D01*
X83619047Y-42582380D02*
X83047619Y-42582380D01*
X83333333Y-42582380D02*
X83333333Y-41582380D01*
X83238095Y-41725238D01*
X83142857Y-41820476D01*
X83047619Y-41868095D01*
G04 #@! TO.C,SW_WOBBLE1*
X59833333Y-48534761D02*
X59976190Y-48582380D01*
X60214285Y-48582380D01*
X60309523Y-48534761D01*
X60357142Y-48487142D01*
X60404761Y-48391904D01*
X60404761Y-48296666D01*
X60357142Y-48201428D01*
X60309523Y-48153809D01*
X60214285Y-48106190D01*
X60023809Y-48058571D01*
X59928571Y-48010952D01*
X59880952Y-47963333D01*
X59833333Y-47868095D01*
X59833333Y-47772857D01*
X59880952Y-47677619D01*
X59928571Y-47630000D01*
X60023809Y-47582380D01*
X60261904Y-47582380D01*
X60404761Y-47630000D01*
X60738095Y-47582380D02*
X60976190Y-48582380D01*
X61166666Y-47868095D01*
X61357142Y-48582380D01*
X61595238Y-47582380D01*
X61738095Y-48677619D02*
X62500000Y-48677619D01*
X62642857Y-47582380D02*
X62880952Y-48582380D01*
X63071428Y-47868095D01*
X63261904Y-48582380D01*
X63500000Y-47582380D01*
X64071428Y-47582380D02*
X64261904Y-47582380D01*
X64357142Y-47630000D01*
X64452380Y-47725238D01*
X64500000Y-47915714D01*
X64500000Y-48249047D01*
X64452380Y-48439523D01*
X64357142Y-48534761D01*
X64261904Y-48582380D01*
X64071428Y-48582380D01*
X63976190Y-48534761D01*
X63880952Y-48439523D01*
X63833333Y-48249047D01*
X63833333Y-47915714D01*
X63880952Y-47725238D01*
X63976190Y-47630000D01*
X64071428Y-47582380D01*
X65261904Y-48058571D02*
X65404761Y-48106190D01*
X65452380Y-48153809D01*
X65500000Y-48249047D01*
X65500000Y-48391904D01*
X65452380Y-48487142D01*
X65404761Y-48534761D01*
X65309523Y-48582380D01*
X64928571Y-48582380D01*
X64928571Y-47582380D01*
X65261904Y-47582380D01*
X65357142Y-47630000D01*
X65404761Y-47677619D01*
X65452380Y-47772857D01*
X65452380Y-47868095D01*
X65404761Y-47963333D01*
X65357142Y-48010952D01*
X65261904Y-48058571D01*
X64928571Y-48058571D01*
X66261904Y-48058571D02*
X66404761Y-48106190D01*
X66452380Y-48153809D01*
X66500000Y-48249047D01*
X66500000Y-48391904D01*
X66452380Y-48487142D01*
X66404761Y-48534761D01*
X66309523Y-48582380D01*
X65928571Y-48582380D01*
X65928571Y-47582380D01*
X66261904Y-47582380D01*
X66357142Y-47630000D01*
X66404761Y-47677619D01*
X66452380Y-47772857D01*
X66452380Y-47868095D01*
X66404761Y-47963333D01*
X66357142Y-48010952D01*
X66261904Y-48058571D01*
X65928571Y-48058571D01*
X67404761Y-48582380D02*
X66928571Y-48582380D01*
X66928571Y-47582380D01*
X67738095Y-48058571D02*
X68071428Y-48058571D01*
X68214285Y-48582380D02*
X67738095Y-48582380D01*
X67738095Y-47582380D01*
X68214285Y-47582380D01*
X69166666Y-48582380D02*
X68595238Y-48582380D01*
X68880952Y-48582380D02*
X68880952Y-47582380D01*
X68785714Y-47725238D01*
X68690476Y-47820476D01*
X68595238Y-47868095D01*
G04 #@! TO.C,V_OCT_IN1*
X76261904Y-101052380D02*
X76595238Y-102052380D01*
X76928571Y-101052380D01*
X77023809Y-102147619D02*
X77785714Y-102147619D01*
X78214285Y-101052380D02*
X78404761Y-101052380D01*
X78500000Y-101100000D01*
X78595238Y-101195238D01*
X78642857Y-101385714D01*
X78642857Y-101719047D01*
X78595238Y-101909523D01*
X78500000Y-102004761D01*
X78404761Y-102052380D01*
X78214285Y-102052380D01*
X78119047Y-102004761D01*
X78023809Y-101909523D01*
X77976190Y-101719047D01*
X77976190Y-101385714D01*
X78023809Y-101195238D01*
X78119047Y-101100000D01*
X78214285Y-101052380D01*
X79642857Y-101957142D02*
X79595238Y-102004761D01*
X79452380Y-102052380D01*
X79357142Y-102052380D01*
X79214285Y-102004761D01*
X79119047Y-101909523D01*
X79071428Y-101814285D01*
X79023809Y-101623809D01*
X79023809Y-101480952D01*
X79071428Y-101290476D01*
X79119047Y-101195238D01*
X79214285Y-101100000D01*
X79357142Y-101052380D01*
X79452380Y-101052380D01*
X79595238Y-101100000D01*
X79642857Y-101147619D01*
X79928571Y-101052380D02*
X80500000Y-101052380D01*
X80214285Y-102052380D02*
X80214285Y-101052380D01*
X80595238Y-102147619D02*
X81357142Y-102147619D01*
X81595238Y-102052380D02*
X81595238Y-101052380D01*
X82071428Y-102052380D02*
X82071428Y-101052380D01*
X82642857Y-102052380D01*
X82642857Y-101052380D01*
X83642857Y-102052380D02*
X83071428Y-102052380D01*
X83357142Y-102052380D02*
X83357142Y-101052380D01*
X83261904Y-101195238D01*
X83166666Y-101290476D01*
X83071428Y-101338095D01*
G04 #@! TD*
M02*
